<svg width="14" height="14" viewBox="0 0 14 14" fill="none" xmlns="http://www.w3.org/2000/svg">
<path d="M11.7176 5.12507C11.5372 4.93708 11.3513 4.74294 11.2903 4.59592C11.236 4.46479 11.2319 4.19483 11.2284 3.95715C11.2207 3.44491 11.2109 2.80767 10.7581 2.35536C10.3053 1.90305 9.66857 1.89434 9.15633 1.88512C8.91865 1.88153 8.64869 1.87743 8.51756 1.82313C8.37054 1.76218 8.1764 1.57623 7.98841 1.39592C7.62574 1.04811 7.17394 0.614746 6.55668 0.614746C5.93942 0.614746 5.48762 1.04811 5.12495 1.39592C4.93696 1.57623 4.74282 1.76218 4.5958 1.82313C4.46467 1.87743 4.19471 1.88153 3.95703 1.88512C3.44478 1.89536 2.80755 1.90253 2.35626 2.35638C1.90497 2.81023 1.89524 3.44491 1.88499 3.95715C1.88141 4.19483 1.87731 4.46479 1.82301 4.59592C1.76206 4.74294 1.57611 4.93708 1.3958 5.12507C1.04798 5.48774 0.614624 5.94211 0.614624 6.5568C0.614624 7.1715 1.04798 7.62586 1.3958 7.99109C1.57611 8.17908 1.76206 8.37323 1.82301 8.52024C1.87731 8.65138 1.88141 8.92133 1.88499 9.15901C1.89268 9.67126 1.90241 10.3085 2.35524 10.7608C2.80806 11.2131 3.44478 11.2218 3.95703 11.231C4.19471 11.2346 4.46467 11.2387 4.5958 11.293C4.74282 11.354 4.93696 11.5399 5.12495 11.7202C5.48762 12.0655 5.94198 12.4989 6.55668 12.4989C7.17137 12.4989 7.62574 12.0655 7.98841 11.7177C8.1764 11.5374 8.37054 11.3514 8.51756 11.2905C8.64869 11.2362 8.91865 11.2321 9.15633 11.2285C9.66857 11.2208 10.3058 11.2111 10.7581 10.7582C11.2104 10.3054 11.2191 9.6687 11.2284 9.15645C11.2319 8.91877 11.236 8.64881 11.2903 8.51768C11.3513 8.37066 11.5372 8.17652 11.7176 7.98853C12.0654 7.62586 12.4987 7.17406 12.4987 6.5568C12.4987 5.93954 12.0654 5.48774 11.7176 5.12507ZM10.8303 7.13769C10.5834 7.39381 10.3038 7.68682 10.1547 8.04744C10.0102 8.39576 10.0046 8.77278 10.001 9.13801C9.99692 9.41257 9.99129 9.78907 9.89089 9.88896C9.79049 9.98885 9.4145 9.995 9.13994 9.99909C8.7747 10.0047 8.39769 10.0104 8.04936 10.1528C7.69079 10.3018 7.39727 10.5815 7.13962 10.8284C6.95521 11.0051 6.67962 11.2695 6.55668 11.2695C6.43374 11.2695 6.15815 11.0051 5.97579 10.8305C5.71967 10.5836 5.42666 10.3039 5.06604 10.1548C4.71772 10.0104 4.3407 10.0047 3.97547 10.0011C3.70091 9.99705 3.32441 9.99141 3.22452 9.89101C3.12463 9.79061 3.11848 9.41462 3.11439 9.14006C3.10875 8.77483 3.10312 8.39781 2.96071 8.04949C2.81165 7.69091 2.53196 7.3974 2.28506 7.13974C2.10833 6.95533 1.84401 6.67974 1.84401 6.5568C1.84401 6.43386 2.10833 6.15827 2.28301 5.97591C2.52991 5.71979 2.8096 5.42679 2.95866 5.06616C3.10312 4.71784 3.10875 4.34082 3.11234 3.97559C3.11848 3.70103 3.12463 3.32453 3.22708 3.2272C3.32953 3.12987 3.70347 3.12117 3.97803 3.11707C4.34326 3.11143 4.72028 3.1058 5.0686 2.96339C5.42718 2.81433 5.72069 2.53464 5.97835 2.28774C6.15815 2.10846 6.43374 1.84414 6.55668 1.84414C6.67962 1.84414 6.95521 2.10846 7.13757 2.28313C7.39369 2.53003 7.68669 2.80972 8.04732 2.95878C8.39564 3.10324 8.77266 3.10887 9.13789 3.11246C9.41245 3.11656 9.78895 3.12219 9.88884 3.22259C9.98873 3.32299 9.99487 3.69898 9.99897 3.97354C10.0046 4.33878 10.0102 4.71579 10.1526 5.06412C10.3017 5.42269 10.5814 5.71621 10.8283 5.97387C11.003 6.15622 11.2673 6.43181 11.2673 6.55475C11.2673 6.67769 11.005 6.95533 10.8303 7.13769ZM9.04056 4.89251C9.09787 4.94962 9.14334 5.01748 9.17436 5.0922C9.20539 5.16691 9.22136 5.24702 9.22136 5.32792C9.22136 5.40883 9.20539 5.48893 9.17436 5.56365C9.14334 5.63837 9.09787 5.70622 9.04056 5.76333L6.17198 8.63191C6.11487 8.68922 6.04702 8.73468 5.9723 8.76571C5.89758 8.79673 5.81748 8.81271 5.73657 8.81271C5.65567 8.81271 5.57556 8.79673 5.50085 8.76571C5.42613 8.73468 5.35827 8.68922 5.30116 8.63191L4.07177 7.40252C4.01459 7.34534 3.96924 7.27746 3.93829 7.20275C3.90735 7.12804 3.89142 7.04797 3.89142 6.96711C3.89142 6.88625 3.90735 6.80618 3.93829 6.73147C3.96924 6.65676 4.01459 6.58888 4.07177 6.5317C4.12895 6.47452 4.19683 6.42917 4.27154 6.39822C4.34625 6.36728 4.42632 6.35135 4.50718 6.35135C4.58805 6.35135 4.66812 6.36728 4.74282 6.39822C4.81753 6.42917 4.88541 6.47452 4.94259 6.5317L5.73709 7.32517L8.17077 4.89098C8.22796 4.83393 8.29583 4.78871 8.37051 4.7579C8.44519 4.7271 8.5252 4.71132 8.60598 4.71146C8.68676 4.71161 8.76672 4.72767 8.84129 4.75874C8.91586 4.7898 8.98357 4.83526 9.04056 4.89251Z" fill="#4F46E5"/>
</svg>
