<svg width="454" height="166" viewBox="0 0 454 166" fill="none" xmlns="http://www.w3.org/2000/svg">
<path opacity="0.2" d="M440.282 -242.318L440.796 -242.319L440.796 -242.321L440.282 -242.318ZM440.501 -144.233L439.986 -144.232L439.987 -143.723L440.496 -143.719L440.501 -144.233ZM453.051 -144.125L453.565 -144.121L453.57 -144.635L453.055 -144.64L453.051 -144.125ZM453.042 -143.096L453.038 -142.581L453.552 -142.577L453.557 -143.091L453.042 -143.096ZM440.503 -143.204L440.508 -143.719L439.988 -143.723L439.989 -143.203L440.503 -143.204ZM440.621 -90.8613L440.106 -90.8601L440.107 -90.3511L440.616 -90.3467L440.621 -90.8613ZM452.584 -90.757L453.099 -90.7525L453.103 -91.2671L452.589 -91.2716L452.584 -90.757ZM452.575 -89.7278L452.571 -89.2132L453.085 -89.2087L453.09 -89.7233L452.575 -89.7278ZM440.622 -89.8319L440.627 -90.3465L440.107 -90.351L440.108 -89.8308L440.622 -89.8319ZM440.737 -38.1356L440.223 -38.1344L440.224 -37.6254L440.733 -37.621L440.737 -38.1356ZM452.115 -38.0374L452.119 -38.552L452.119 -38.552L452.115 -38.0374ZM452.25 -38.0363L452.764 -38.0318L452.769 -38.5464L452.254 -38.5508L452.25 -38.0363ZM452.239 -36.7541L452.234 -36.2395L452.749 -36.235L452.753 -36.7496L452.239 -36.7541ZM452.104 -36.7553L452.108 -37.2698L452.108 -37.2698L452.104 -36.7553ZM440.74 -36.8533L440.744 -37.3679L440.224 -37.3724L440.225 -36.8521L440.74 -36.8533ZM440.855 14.721L440.34 14.7221L440.342 15.2312L440.851 15.2355L440.855 14.721ZM451.649 14.814L451.653 14.2995L451.653 14.2995L451.649 14.814ZM451.783 14.8152L452.298 14.8197L452.302 14.3051L451.788 14.3006L451.783 14.8152ZM451.772 16.0974L451.768 16.6119L452.282 16.6164L452.287 16.1019L451.772 16.0974ZM451.637 16.0962L451.642 15.5816L451.642 15.5816L451.637 16.0962ZM440.858 16.0033L440.862 15.4887L440.342 15.4842L440.343 16.0044L440.858 16.0033ZM440.973 67.5775L440.458 67.5787L440.459 68.0877L440.968 68.0921L440.973 67.5775ZM451.182 67.6655L451.187 67.1509L451.187 67.1509L451.182 67.6655ZM451.317 67.6667L451.832 67.6711L451.836 67.1566L451.322 67.1521L451.317 67.6667ZM451.306 68.9488L451.301 69.4634L451.816 69.4679L451.82 68.9533L451.306 68.9488ZM451.171 68.9477L451.176 68.4331L451.176 68.4331L451.171 68.9477ZM440.976 68.8598L440.981 68.3452L440.46 68.3407L440.462 68.861L440.976 68.8598ZM441.193 165.288L440.678 165.289L440.678 165.291L441.193 165.288ZM441.194 165.425L441.19 165.94L441.711 165.944L441.708 165.422L441.194 165.425ZM440.284 165.418L439.77 165.417L439.769 165.929L440.28 165.933L440.284 165.418ZM440.285 165.285L440.799 165.286L440.799 165.284L440.285 165.285ZM440.068 68.8519L440.583 68.8507L440.581 68.3417L440.072 68.3373L440.068 68.8519ZM387.46 68.3985L387.464 67.8839L386.944 67.8794L386.945 68.3996L387.46 68.3985ZM387.676 164.828L387.162 164.829L387.162 164.831L387.676 164.828ZM387.677 164.965L387.673 165.479L388.195 165.483L388.192 164.962L387.677 164.965ZM386.768 164.958L386.253 164.957L386.253 165.468L386.764 165.472L386.768 164.958ZM386.768 164.825L387.283 164.825L387.283 164.824L386.768 164.825ZM386.551 68.3905L387.066 68.3894L387.065 67.8803L386.556 67.876L386.551 68.3905ZM333.731 67.9362L333.736 67.4217L333.214 67.4172L333.217 67.9385L333.731 67.9362ZM334.161 164.367L333.646 164.37L333.646 164.37L334.161 164.367ZM334.161 164.504L334.157 165.019L334.679 165.023L334.676 164.501L334.161 164.504ZM333.125 164.495L332.611 164.498L332.614 165.005L333.121 165.01L333.125 164.495ZM333.125 164.362L332.61 164.365L332.61 164.365L333.125 164.362ZM332.694 67.9272L333.209 67.9249L333.206 67.417L332.699 67.4126L332.694 67.9272ZM279.399 67.4678L279.404 66.9532L278.883 66.9487L278.885 67.4689L279.399 67.4678ZM279.616 163.898L279.101 163.899L279.101 163.901L279.616 163.898ZM279.617 164.035L279.612 164.549L280.134 164.554L280.131 164.032L279.617 164.035ZM278.707 164.027L278.193 164.026L278.192 164.537L278.703 164.541L278.707 164.027ZM278.708 163.894L279.222 163.895L279.222 163.893L278.708 163.894ZM278.491 67.4598L279.006 67.4587L279.005 66.9496L278.495 66.9453L278.491 67.4598ZM225.883 67.0074L225.887 66.4928L225.367 66.4883L225.368 67.0085L225.883 67.0074ZM226.099 163.438L225.585 163.439L225.585 163.441L226.099 163.438ZM226.1 163.574L226.095 164.089L226.617 164.094L226.615 163.572L226.1 163.574ZM225.19 163.567L224.675 163.57L224.678 164.077L225.185 164.081L225.19 163.567ZM225.189 163.434L224.674 163.435L224.674 163.437L225.189 163.434ZM224.973 66.9994L225.487 66.9983L225.486 66.4892L224.977 66.4849L224.973 66.9994ZM172.153 66.5442L172.158 66.0296L171.636 66.0251L171.639 66.5464L172.153 66.5442ZM172.584 162.977L172.069 162.98L172.069 162.98L172.584 162.977ZM172.584 163.114L172.58 163.629L173.102 163.633L173.099 163.111L172.584 163.114ZM171.546 163.105L171.032 163.108L171.035 163.615L171.542 163.62L171.546 163.105ZM171.546 162.972L171.031 162.974L171.031 162.975L171.546 162.972ZM171.116 66.5351L171.631 66.5328L171.628 66.0249L171.121 66.0206L171.116 66.5351ZM115.977 66.0606L115.981 65.546L115.462 65.5415L115.462 66.0606L115.977 66.0606ZM115.979 162.492L116.494 162.493L116.494 162.492L115.979 162.492ZM115.979 162.628L115.975 163.142L116.493 163.147L116.494 162.629L115.979 162.628ZM115.199 162.621L114.684 162.624L114.687 163.131L115.194 163.136L115.199 162.621ZM115.198 162.487L114.683 162.487L114.683 162.49L115.198 162.487ZM115.195 66.0538L115.71 66.0538L115.71 65.5436L115.2 65.5392L115.195 66.0538ZM64.3056 65.6153L64.3101 65.1007L63.7899 65.0962L63.791 65.6165L64.3056 65.6153ZM64.5222 162.048L64.0076 162.049L64.0076 162.05L64.5222 162.048ZM64.5229 162.184L64.5185 162.699L65.0404 162.703L65.0375 162.181L64.5229 162.184ZM63.6138 162.176L63.0992 162.176L63.0985 162.687L63.6093 162.691L63.6138 162.176ZM63.614 162.044L64.1286 162.044L64.1286 162.042L63.614 162.044ZM63.3975 65.6074L63.9121 65.6062L63.9109 65.0972L63.4019 65.0928L63.3975 65.6074ZM10.5762 65.1531L10.5806 64.6385L10.0593 64.634L10.0616 65.1554L10.5762 65.1531ZM11.0056 161.587L10.491 161.59L10.491 161.59L11.0056 161.587ZM11.0064 161.724L11.0019 162.239L11.5239 162.243L11.521 161.721L11.0064 161.724ZM9.97028 161.715L9.45569 161.718L9.45873 162.225L9.96579 162.23L9.97028 161.715ZM9.96948 161.582L9.45488 161.584L9.45489 161.585L9.96948 161.582ZM9.53911 65.144L10.0537 65.1417L10.0514 64.6338L9.54354 64.6295L9.53911 65.144ZM-72.6688 64.4366L-72.6733 64.9512L-72.6732 64.9512L-72.6688 64.4366ZM-72.8035 64.4354L-73.3181 64.431L-73.3226 64.9455L-72.808 64.95L-72.8035 64.4354ZM-72.7924 63.1533L-72.7879 62.6387L-73.3025 62.6342L-73.307 63.1488L-72.7924 63.1533ZM-72.6576 63.1544L-72.6621 63.669L-72.662 63.669L-72.6576 63.1544ZM9.53368 63.8617L9.52925 64.3763L10.0506 64.3808L10.0483 63.8594L9.53368 63.8617ZM9.30427 12.2865L9.81886 12.2842L9.8166 11.7763L9.3087 11.7719L9.30427 12.2865ZM-72.2025 11.5852L-72.207 12.0997L-72.2069 12.0997L-72.2025 11.5852ZM-72.3372 11.584L-72.8518 11.5795L-72.8563 12.0941L-72.3417 12.0986L-72.3372 11.584ZM-72.3261 10.3018L-72.3216 9.78724L-72.8362 9.78276L-72.8406 10.2973L-72.3261 10.3018ZM-72.1913 10.303L-72.1958 10.8176L-72.1957 10.8176L-72.1913 10.303ZM9.29884 11.0041L9.29441 11.5187L9.81576 11.5232L9.81343 11.0019L9.29884 11.0041ZM9.06944 -40.5711L9.58403 -40.5734L9.58177 -41.0813L9.07387 -41.0857L9.06944 -40.5711ZM-71.7362 -41.2663L-71.7406 -40.7517L-71.7406 -40.7517L-71.7362 -41.2663ZM-71.8709 -41.2675L-72.3855 -41.272L-72.39 -40.7574L-71.8754 -40.7529L-71.8709 -41.2675ZM-71.8598 -42.5496L-71.8553 -43.0642L-72.3698 -43.0687L-72.3743 -42.5541L-71.8598 -42.5496ZM-71.725 -42.5485L-71.7295 -42.0339L-71.7294 -42.0339L-71.725 -42.5485ZM9.06401 -41.8534L9.05958 -41.3388L9.58091 -41.3344L9.5786 -41.8557L9.06401 -41.8534ZM8.83409 -93.5937L9.34868 -93.596L9.34642 -94.1039L8.83857 -94.1083L8.83409 -93.5937ZM-71.2654 -94.2916L-71.78 -94.296L-71.7845 -93.7815L-71.2699 -93.777L-71.2654 -94.2916ZM-71.2564 -95.3208L-71.252 -95.8354L-71.7665 -95.8399L-71.771 -95.3253L-71.2564 -95.3208ZM8.82938 -94.6231L8.8249 -94.1085L9.3463 -94.104L9.34397 -94.6254L8.82938 -94.6231ZM8.5965 -146.92L9.11109 -146.922L9.10883 -147.43L8.60093 -147.435L8.5965 -146.92ZM-70.798 -147.603L-71.3126 -147.607L-71.3171 -147.093L-70.8024 -147.088L-70.798 -147.603ZM-70.7891 -148.632L-70.7846 -149.147L-71.2992 -149.151L-71.3036 -148.637L-70.7891 -148.632ZM8.5918 -147.949L8.58737 -147.435L9.1087 -147.43L9.10638 -147.952L8.5918 -147.949ZM8.15622 -246.032L8.67081 -246.034L8.67081 -246.035L8.15622 -246.032ZM8.15546 -246.169L8.15994 -246.683L7.63796 -246.688L7.64087 -246.166L8.15546 -246.169ZM9.19448 -246.16L9.70907 -246.163L9.70603 -246.67L9.19896 -246.674L9.19448 -246.16ZM9.19528 -246.027L9.70987 -246.029L9.70986 -246.03L9.19528 -246.027ZM9.63082 -147.94L9.11623 -147.938L9.11848 -147.43L9.62639 -147.426L9.63082 -147.94ZM62.9208 -147.482L62.9164 -146.967L63.4366 -146.963L63.4354 -147.483L62.9208 -147.482ZM62.7021 -245.564L62.1875 -245.565L62.1875 -245.563L62.7021 -245.564ZM62.7023 -245.7L62.7067 -246.214L62.1885 -246.219L62.1877 -245.7L62.7023 -245.7ZM63.6104 -245.692L64.125 -245.695L64.122 -246.202L63.6149 -246.206L63.6104 -245.692ZM63.6112 -245.559L64.1258 -245.56L64.1258 -245.562L63.6112 -245.559ZM63.83 -147.474L63.3154 -147.473L63.3165 -146.964L63.8256 -146.959L63.83 -147.474ZM115.19 -147.032L115.186 -146.518L115.705 -146.513L115.705 -147.032L115.19 -147.032ZM115.188 -245.112L114.674 -245.113L114.674 -245.112L115.188 -245.112ZM115.189 -245.248L115.193 -245.763L114.675 -245.767L114.674 -245.249L115.189 -245.248ZM115.97 -245.241L116.484 -245.241L116.485 -245.751L115.974 -245.756L115.97 -245.241ZM115.97 -245.108L115.455 -245.108L115.455 -245.108L115.97 -245.108ZM115.972 -147.026L115.457 -147.026L115.457 -146.515L115.967 -146.511L115.972 -147.026ZM170.169 -146.559L170.164 -146.045L170.686 -146.04L170.683 -146.562L170.169 -146.559ZM169.733 -244.642L170.248 -244.644L170.248 -244.645L169.733 -244.642ZM169.732 -244.779L169.737 -245.293L169.215 -245.298L169.218 -244.776L169.732 -244.779ZM170.77 -244.77L171.284 -244.773L171.281 -245.28L170.774 -245.284L170.77 -244.77ZM170.77 -244.637L171.285 -244.639L171.285 -244.64L170.77 -244.637ZM171.206 -146.55L170.691 -146.548L170.694 -146.04L171.201 -146.036L171.206 -146.55ZM224.498 -146.092L224.493 -145.577L225.014 -145.573L225.012 -146.093L224.498 -146.092ZM224.279 -244.174L223.764 -244.174L223.764 -244.173L224.279 -244.174ZM224.279 -244.309L224.284 -244.824L223.765 -244.829L223.765 -244.31L224.279 -244.309ZM225.187 -244.302L225.702 -244.305L225.699 -244.812L225.192 -244.816L225.187 -244.302ZM225.188 -244.169L225.703 -244.17L225.703 -244.172L225.188 -244.169ZM225.407 -146.084L224.892 -146.083L224.894 -145.574L225.403 -145.569L225.407 -146.084ZM278.013 -145.632L278.009 -145.117L278.529 -145.112L278.528 -145.633L278.013 -145.632ZM277.795 -243.713L277.28 -243.714L277.28 -243.712L277.795 -243.713ZM277.795 -243.849L277.799 -244.364L277.281 -244.368L277.28 -243.85L277.795 -243.849ZM278.705 -243.841L279.22 -243.84L279.22 -244.351L278.709 -244.356L278.705 -243.841ZM278.705 -243.708L278.19 -243.709L278.19 -243.707L278.705 -243.708ZM278.924 -145.624L278.409 -145.622L278.41 -145.113L278.919 -145.109L278.924 -145.624ZM331.747 -145.169L331.742 -144.655L332.264 -144.65L332.261 -145.172L331.747 -145.169ZM331.311 -243.252L331.826 -243.254L331.826 -243.255L331.311 -243.252ZM331.31 -243.389L331.315 -243.903L330.793 -243.908L330.796 -243.386L331.31 -243.389ZM332.35 -243.38L332.864 -243.383L332.861 -243.89L332.354 -243.894L332.35 -243.38ZM332.35 -243.247L332.865 -243.249L332.865 -243.25L332.35 -243.247ZM332.786 -145.16L332.271 -145.158L332.274 -144.65L332.781 -144.646L332.786 -145.16ZM386.075 -144.702L386.07 -144.187L386.591 -144.183L386.589 -144.703L386.075 -144.702ZM385.856 -242.784L385.342 -242.784L385.342 -242.782L385.856 -242.784ZM385.856 -242.919L385.861 -243.434L385.343 -243.438L385.342 -242.92L385.856 -242.919ZM386.764 -242.911L387.279 -242.914L387.276 -243.422L386.769 -243.426L386.764 -242.911ZM386.765 -242.779L387.28 -242.78L387.28 -242.782L386.765 -242.779ZM386.984 -144.694L386.469 -144.693L386.471 -144.184L386.98 -144.179L386.984 -144.694ZM439.591 -144.241L439.587 -143.727L440.107 -143.722L440.106 -144.243L439.591 -144.241ZM439.373 -242.323L438.858 -242.324L438.858 -242.322L439.373 -242.323ZM439.373 -242.459L439.377 -242.974L438.859 -242.978L438.858 -242.46L439.373 -242.459ZM440.281 -242.451L440.796 -242.454L440.793 -242.961L440.286 -242.966L440.281 -242.451ZM10.3413 12.2955L10.3458 11.7809L9.82443 11.7764L9.82675 12.2978L10.3413 12.2955ZM10.5707 63.8707L10.0562 63.873L10.0584 64.381L10.5663 64.3853L10.5707 63.8707ZM63.394 64.3251L63.3896 64.8397L63.9098 64.8441L63.9086 64.3239L63.394 64.3251ZM63.2788 12.7518L63.7934 12.7507L63.7923 12.2416L63.2833 12.2373L63.2788 12.7518ZM64.188 12.7588L64.1924 12.2442L63.6722 12.2397L63.6734 12.7599L64.188 12.7588ZM64.3031 64.333L63.7885 64.3342L63.7897 64.8432L64.2987 64.8476L64.3031 64.333ZM115.195 64.7715L115.19 65.2861L115.709 65.2906L115.709 64.7715L115.195 64.7715ZM115.194 13.1983L115.708 13.1983L115.708 12.6881L115.198 12.6837L115.194 13.1983ZM115.975 13.2051L115.98 12.6905L115.461 12.686L115.461 13.2051L115.975 13.2051ZM115.976 64.7783L115.461 64.7783L115.461 65.2885L115.972 65.2929L115.976 64.7783ZM171.111 65.2528L171.106 65.7674L171.628 65.7719L171.625 65.2505L171.111 65.2528ZM170.881 13.6776L171.396 13.6753L171.394 13.1673L170.886 13.163L170.881 13.6776ZM171.918 13.6866L171.923 13.172L171.401 13.1675L171.404 13.6889L171.918 13.6866ZM172.148 65.2618L171.633 65.2641L171.635 65.772L172.143 65.7764L172.148 65.2618ZM224.97 65.7171L224.966 66.2317L225.486 66.2362L225.485 65.716L224.97 65.7171ZM224.855 14.1429L225.369 14.1417L225.368 13.6327L224.859 13.6283L224.855 14.1429ZM225.765 14.1508L225.769 13.6363L225.249 13.6318L225.25 14.152L225.765 14.1508ZM225.88 65.7251L225.366 65.7262L225.367 66.2353L225.876 66.2396L225.88 65.7251ZM278.488 66.1775L278.483 66.6921L279.003 66.6966L279.002 66.1764L278.488 66.1775ZM278.372 14.6033L278.887 14.6021L278.886 14.0931L278.377 14.0887L278.372 14.6033ZM279.282 14.6112L279.286 14.0966L278.766 14.0921L278.767 14.6124L279.282 14.6112ZM279.397 66.1855L278.882 66.1866L278.883 66.6957L279.392 66.7L279.397 66.1855ZM332.689 66.6449L332.684 67.1594L333.206 67.1639L333.203 66.6426L332.689 66.6449ZM332.459 15.0696L332.974 15.0673L332.972 14.5594L332.464 14.5551L332.459 15.0696ZM333.496 15.0787L333.501 14.5641L332.979 14.5596L332.982 15.0809L333.496 15.0787ZM333.726 66.6539L333.211 66.6562L333.213 67.1641L333.721 67.1685L333.726 66.6539ZM386.548 67.1082L386.544 67.6228L387.064 67.6273L387.063 67.1071L386.548 67.1082ZM386.433 15.534L386.947 15.5328L386.946 15.0238L386.437 15.0194L386.433 15.534ZM387.341 15.5419L387.345 15.0273L386.825 15.0228L386.826 15.5431L387.341 15.5419ZM387.456 67.1161L386.942 67.1173L386.943 67.6263L387.452 67.6307L387.456 67.1161ZM440.065 67.5696L440.06 68.0842L440.58 68.0887L440.579 67.5684L440.065 67.5696ZM439.949 15.9953L440.464 15.9942L440.463 15.4852L439.954 15.4808L439.949 15.9953ZM10.1065 -40.5621L10.1109 -41.0766L9.58961 -41.0811L9.59192 -40.5598L10.1065 -40.5621ZM10.3349 11.0132L9.82035 11.0155L9.82259 11.5234L10.3305 11.5277L10.3349 11.0132ZM63.2763 11.4695L63.2719 11.9841L63.7921 11.9886L63.7909 11.4684L63.2763 11.4695ZM63.1612 -40.1047L63.6758 -40.1059L63.6746 -40.6149L63.1656 -40.6193L63.1612 -40.1047ZM64.0703 -40.0968L64.0747 -40.6114L63.5546 -40.6159L63.5557 -40.0957L64.0703 -40.0968ZM64.1855 11.4765L63.6709 11.4776L63.672 11.9867L64.181 11.991L64.1855 11.4765ZM115.193 11.916L115.189 12.4305L115.708 12.435L115.708 11.916L115.193 11.916ZM115.192 -39.6573L115.707 -39.6573L115.707 -40.1675L115.197 -40.1719L115.192 -39.6573ZM115.974 -39.6505L115.978 -40.1651L115.459 -40.1695L115.459 -39.6505L115.974 -39.6505ZM115.975 11.9228L115.46 11.9228L115.46 12.433L115.97 12.4373L115.975 11.9228ZM170.875 12.3952L170.87 12.9098L171.392 12.9143L171.389 12.3929L170.875 12.3952ZM170.646 -39.179L171.161 -39.1813L171.159 -39.6892L170.651 -39.6936L170.646 -39.179ZM171.684 -39.171L171.688 -39.6856L171.167 -39.69L171.169 -39.1687L171.684 -39.171ZM171.913 12.4043L171.398 12.4066L171.401 12.9145L171.908 12.9188L171.913 12.4043ZM224.852 12.8606L224.848 13.3752L225.368 13.3797L225.367 12.8594L224.852 12.8606ZM224.737 -38.7136L225.252 -38.7148L225.251 -39.2238L224.742 -39.2282L224.737 -38.7136ZM225.647 -38.7057L225.652 -39.2203L225.132 -39.2248L225.133 -38.7046L225.647 -38.7057ZM225.762 12.8685L225.248 12.8697L225.249 13.3787L225.758 13.3831L225.762 12.8685ZM278.369 13.321L278.365 13.8356L278.885 13.84L278.884 13.3198L278.369 13.321ZM278.254 -38.2533L278.768 -38.2544L278.767 -38.7635L278.258 -38.7678L278.254 -38.2533ZM279.164 -38.2453L279.168 -38.7599L278.648 -38.7644L278.649 -38.2442L279.164 -38.2453ZM279.279 13.3289L278.764 13.3301L278.766 13.8391L279.275 13.8435L279.279 13.3289ZM332.454 13.7873L332.449 14.3019L332.971 14.3064L332.968 13.785L332.454 13.7873ZM332.224 -37.7879L332.739 -37.7902L332.737 -38.2982L332.229 -38.3025L332.224 -37.7879ZM333.262 -37.7789L333.266 -38.2935L332.745 -38.298L332.747 -37.7766L333.262 -37.7789ZM333.49 13.7963L332.975 13.7986L332.978 14.3065L333.486 14.3109L333.49 13.7963ZM386.43 14.2517L386.426 14.7663L386.946 14.7707L386.945 14.2505L386.43 14.2517ZM386.315 -37.3226L386.83 -37.3237L386.829 -37.8328L386.32 -37.8371L386.315 -37.3226ZM387.223 -37.3146L387.228 -37.8292L386.708 -37.8337L386.709 -37.3135L387.223 -37.3146ZM387.339 14.2596L386.824 14.2608L386.825 14.7698L387.334 14.7742L387.339 14.2596ZM439.947 14.7131L439.943 15.2276L440.463 15.2321L440.462 14.7119L439.947 14.7131ZM439.832 -36.8612L440.346 -36.8623L440.345 -37.3714L439.836 -37.3758L439.832 -36.8612ZM10.1011 -41.8444L9.58649 -41.8421L9.58874 -41.3342L10.0966 -41.3298L10.1011 -41.8444ZM63.1587 -41.387L63.1542 -40.8724L63.6744 -40.8679L63.6733 -41.3882L63.1587 -41.387ZM63.043 -93.1214L63.5576 -93.1226L63.5564 -93.6316L63.0474 -93.636L63.043 -93.1214ZM9.87116 -93.5847L9.87564 -94.0993L9.35424 -94.1038L9.35657 -93.5824L9.87116 -93.5847ZM64.0668 -41.3791L63.5522 -41.378L63.5534 -40.8689L64.0624 -40.8645L64.0668 -41.3791ZM115.192 -40.9396L115.187 -40.425L115.707 -40.4205L115.706 -40.9396L115.192 -40.9396ZM115.191 -92.6671L115.706 -92.6671L115.706 -93.1772L115.196 -93.1817L115.191 -92.6671ZM63.9521 -93.1135L63.9566 -93.6281L63.4364 -93.6326L63.4375 -93.1124L63.9521 -93.1135ZM115.973 -40.9328L115.459 -40.9327L115.459 -40.4226L115.969 -40.4182L115.973 -40.9328ZM170.64 -40.4614L170.636 -39.9468L171.157 -39.9423L171.155 -40.4636L170.64 -40.4614ZM170.411 -92.186L170.926 -92.1883L170.923 -92.6962L170.415 -92.7006L170.411 -92.186ZM115.973 -92.6603L115.977 -93.1749L115.458 -93.1794L115.458 -92.6603L115.973 -92.6603ZM171.678 -40.4533L171.163 -40.451L171.166 -39.9431L171.674 -39.9387L171.678 -40.4533ZM224.734 -39.996L224.729 -39.4814L225.25 -39.4769L225.248 -39.9971L224.734 -39.996ZM224.619 -91.7138L225.133 -91.7149L225.132 -92.2239L224.623 -92.2283L224.619 -91.7138ZM171.448 -92.177L171.453 -92.6916L170.931 -92.6961L170.933 -92.1747L171.448 -92.177ZM225.644 -39.988L225.129 -39.9869L225.13 -39.4778L225.639 -39.4734L225.644 -39.988ZM278.251 -39.5356L278.247 -39.021L278.767 -39.0165L278.766 -39.5367L278.251 -39.5356ZM278.135 -91.2475L278.65 -91.2487L278.649 -91.7577L278.14 -91.7621L278.135 -91.2475ZM225.529 -91.7058L225.533 -92.2204L225.013 -92.2249L225.014 -91.7047L225.529 -91.7058ZM279.16 -39.5276L278.646 -39.5265L278.647 -39.0174L279.156 -39.0131L279.16 -39.5276ZM332.218 -39.0703L332.214 -38.5557L332.735 -38.5512L332.733 -39.0726L332.218 -39.0703ZM331.989 -90.7783L332.503 -90.7806L332.501 -91.2885L331.993 -91.2929L331.989 -90.7783ZM279.046 -91.2396L279.05 -91.7542L278.53 -91.7587L278.531 -91.2384L279.046 -91.2396ZM333.256 -39.0612L332.741 -39.059L332.744 -38.551L333.252 -38.5466L333.256 -39.0612ZM386.312 -38.6049L386.307 -38.0903L386.827 -38.0858L386.826 -38.606L386.312 -38.6049ZM386.197 -90.3061L386.711 -90.3072L386.71 -90.8162L386.201 -90.8207L386.197 -90.3061ZM333.027 -90.7693L333.031 -91.2839L332.51 -91.2884L332.512 -90.767L333.027 -90.7693ZM387.221 -38.5969L386.706 -38.5958L386.707 -38.0867L387.216 -38.0824L387.221 -38.5969ZM439.828 -38.1435L439.824 -37.6289L440.344 -37.6244L440.343 -38.1446L439.828 -38.1435ZM439.713 -89.8398L440.228 -89.841L440.227 -90.35L439.718 -90.3544L439.713 -89.8398ZM387.106 -90.2981L387.11 -90.8127L386.59 -90.8173L386.591 -90.297L387.106 -90.2981ZM9.63455 -146.911L9.63898 -147.426L9.11763 -147.43L9.11996 -146.909L9.63455 -146.911ZM9.86743 -94.614L9.35284 -94.6118L9.3551 -94.1039L9.86295 -94.0995L9.86743 -94.614ZM63.0402 -94.1508L63.0357 -93.6362L63.556 -93.6317L63.5548 -94.1519L63.0402 -94.1508ZM62.9236 -146.453L63.4382 -146.454L63.4371 -146.963L62.928 -146.967L62.9236 -146.453ZM63.8327 -146.445L63.8372 -146.959L63.317 -146.964L63.3181 -146.444L63.8327 -146.445ZM63.9494 -94.1429L63.4348 -94.1417L63.4359 -93.6327L63.9449 -93.6283L63.9494 -94.1429ZM115.192 -93.6964L115.187 -93.1819L115.706 -93.1773L115.706 -93.6965L115.192 -93.6964ZM115.19 -146.003L115.705 -146.003L115.705 -146.513L115.195 -146.518L115.19 -146.003ZM115.971 -145.996L115.976 -146.511L115.457 -146.515L115.457 -145.996L115.971 -145.996ZM115.973 -93.6896L115.458 -93.6896L115.458 -93.1795L115.968 -93.1751L115.973 -93.6896ZM170.406 -93.2154L170.402 -92.7008L170.923 -92.6963L170.921 -93.2177L170.406 -93.2154ZM170.174 -145.53L170.688 -145.532L170.686 -146.04L170.178 -146.045L170.174 -145.53ZM171.211 -145.521L171.215 -146.036L170.694 -146.04L170.696 -145.519L171.211 -145.521ZM171.443 -93.2064L170.929 -93.2041L170.931 -92.6962L171.439 -92.6918L171.443 -93.2064ZM224.616 -92.7431L224.612 -92.2285L225.132 -92.224L225.131 -92.7443L224.616 -92.7431ZM224.5 -145.063L225.014 -145.064L225.013 -145.573L224.504 -145.577L224.5 -145.063ZM225.41 -145.055L225.414 -145.569L224.894 -145.574L224.895 -145.053L225.41 -145.055ZM225.526 -92.7352L225.012 -92.734L225.013 -92.225L225.522 -92.2206L225.526 -92.7352ZM278.134 -92.2769L278.129 -91.7623L278.649 -91.7578L278.648 -92.278L278.134 -92.2769ZM278.016 -144.602L278.531 -144.603L278.53 -145.112L278.021 -145.117L278.016 -144.602ZM278.926 -144.594L278.931 -145.109L278.411 -145.113L278.412 -144.593L278.926 -144.594ZM279.044 -92.2689L278.529 -92.2678L278.53 -91.7588L279.039 -91.7544L279.044 -92.2689ZM331.984 -91.8077L331.98 -91.2931L332.501 -91.2886L332.499 -91.81L331.984 -91.8077ZM331.752 -144.14L332.266 -144.142L332.264 -144.65L331.756 -144.654L331.752 -144.14ZM332.79 -144.131L332.794 -144.645L332.273 -144.65L332.275 -144.129L332.79 -144.131ZM333.022 -91.7987L332.508 -91.7964L332.51 -91.2885L333.018 -91.2841L333.022 -91.7987ZM386.195 -91.3354L386.19 -90.8208L386.711 -90.8163L386.71 -91.3366L386.195 -91.3354ZM386.078 -143.672L386.592 -143.674L386.591 -144.183L386.082 -144.187L386.078 -143.672ZM386.987 -143.664L386.991 -144.179L386.471 -144.184L386.472 -143.663L386.987 -143.664ZM387.104 -91.3275L386.589 -91.3264L386.591 -90.8174L387.1 -90.8129L387.104 -91.3275ZM439.711 -90.8692L439.707 -90.3546L440.227 -90.3501L440.226 -90.8703L439.711 -90.8692ZM439.594 -143.212L440.109 -143.213L440.108 -143.722L439.599 -143.727L439.594 -143.212ZM440.282 -242.318L439.767 -242.317L439.986 -144.232L440.501 -144.233L441.015 -144.235L440.796 -242.319L440.282 -242.318ZM440.501 -144.233L440.496 -143.719L453.046 -143.611L453.051 -144.125L453.055 -144.64L440.505 -144.748L440.501 -144.233ZM453.051 -144.125L452.536 -144.13L452.527 -143.1L453.042 -143.096L453.557 -143.091L453.565 -144.121L453.051 -144.125ZM453.042 -143.096L453.046 -143.61L440.508 -143.719L440.503 -143.204L440.499 -142.69L453.038 -142.581L453.042 -143.096ZM440.503 -143.204L439.989 -143.203L440.106 -90.8601L440.621 -90.8613L441.135 -90.8624L441.018 -143.205L440.503 -143.204ZM440.621 -90.8613L440.616 -90.3467L452.58 -90.2424L452.584 -90.757L452.589 -91.2716L440.625 -91.3758L440.621 -90.8613ZM452.584 -90.757L452.069 -90.7615L452.06 -89.7323L452.575 -89.7278L453.09 -89.7233L453.099 -90.7525L452.584 -90.757ZM452.575 -89.7278L452.58 -90.2424L440.627 -90.3465L440.622 -89.8319L440.618 -89.3173L452.571 -89.2132L452.575 -89.7278ZM440.622 -89.8319L440.108 -89.8308L440.223 -38.1344L440.737 -38.1356L441.252 -38.1367L441.137 -89.8331L440.622 -89.8319ZM440.737 -38.1356L440.733 -37.621L452.111 -37.5229L452.115 -38.0374L452.119 -38.552L440.742 -38.6502L440.737 -38.1356ZM452.115 -38.0374L452.11 -37.5229L452.245 -37.5217L452.25 -38.0363L452.254 -38.5508L452.119 -38.552L452.115 -38.0374ZM452.25 -38.0363L451.735 -38.0407L451.724 -36.7586L452.239 -36.7541L452.753 -36.7496L452.764 -38.0318L452.25 -38.0363ZM452.239 -36.7541L452.243 -37.2687L452.108 -37.2698L452.104 -36.7553L452.099 -36.2407L452.234 -36.2395L452.239 -36.7541ZM452.104 -36.7553L452.108 -37.2698L440.744 -37.3679L440.74 -36.8533L440.736 -36.3387L452.099 -36.2407L452.104 -36.7553ZM440.74 -36.8533L440.225 -36.8521L440.34 14.7221L440.855 14.721L441.37 14.7198L441.255 -36.8544L440.74 -36.8533ZM440.855 14.721L440.851 15.2355L451.644 15.3286L451.649 14.814L451.653 14.2995L440.86 14.2064L440.855 14.721ZM451.649 14.814L451.644 15.3286L451.779 15.3298L451.783 14.8152L451.788 14.3006L451.653 14.2995L451.649 14.814ZM451.783 14.8152L451.269 14.8107L451.258 16.0929L451.772 16.0974L452.287 16.1019L452.298 14.8197L451.783 14.8152ZM451.772 16.0974L451.777 15.5828L451.642 15.5816L451.637 16.0962L451.633 16.6108L451.768 16.6119L451.772 16.0974ZM451.637 16.0962L451.642 15.5816L440.862 15.4887L440.858 16.0033L440.853 16.5178L451.633 16.6108L451.637 16.0962ZM440.858 16.0033L440.343 16.0044L440.458 67.5787L440.973 67.5775L441.487 67.5763L441.372 16.0021L440.858 16.0033ZM440.973 67.5775L440.968 68.0921L451.178 68.18L451.182 67.6655L451.187 67.1509L440.977 67.0629L440.973 67.5775ZM451.182 67.6655L451.178 68.18L451.313 68.1812L451.317 67.6667L451.322 67.1521L451.187 67.1509L451.182 67.6655ZM451.317 67.6667L450.803 67.6622L450.791 68.9443L451.306 68.9488L451.82 68.9533L451.832 67.6711L451.317 67.6667ZM451.306 68.9488L451.31 68.4343L451.176 68.4331L451.171 68.9477L451.167 69.4622L451.301 69.4634L451.306 68.9488ZM451.171 68.9477L451.176 68.4331L440.981 68.3452L440.976 68.8598L440.972 69.3744L451.167 69.4622L451.171 68.9477ZM440.976 68.8598L440.462 68.861L440.678 165.289L441.193 165.288L441.707 165.287L441.491 68.8587L440.976 68.8598ZM441.193 165.288L440.678 165.291L440.679 165.428L441.194 165.425L441.708 165.422L441.707 165.285L441.193 165.288ZM441.194 165.425L441.198 164.91L440.288 164.903L440.284 165.418L440.28 165.933L441.19 165.94L441.194 165.425ZM440.284 165.418L440.799 165.419L440.799 165.286L440.285 165.285L439.77 165.284L439.77 165.417L440.284 165.418ZM440.285 165.285L440.799 165.284L440.583 68.8507L440.068 68.8519L439.553 68.8531L439.77 165.286L440.285 165.285ZM440.068 68.8519L440.072 68.3373L387.464 67.8839L387.46 68.3985L387.455 68.913L440.064 69.3665L440.068 68.8519ZM387.46 68.3985L386.945 68.3996L387.162 164.829L387.676 164.828L388.191 164.827L387.974 68.3973L387.46 68.3985ZM387.676 164.828L387.162 164.831L387.162 164.967L387.677 164.965L388.192 164.962L388.191 164.825L387.676 164.828ZM387.677 164.965L387.681 164.45L386.772 164.443L386.768 164.958L386.764 165.472L387.673 165.479L387.677 164.965ZM386.768 164.958L387.282 164.958L387.283 164.825L386.768 164.825L386.253 164.824L386.253 164.957L386.768 164.958ZM386.768 164.825L387.283 164.824L387.066 68.3894L386.551 68.3905L386.037 68.3917L386.253 164.826L386.768 164.825ZM386.551 68.3905L386.556 67.876L333.736 67.4217L333.731 67.9362L333.727 68.4508L386.547 68.9051L386.551 68.3905ZM333.731 67.9362L333.217 67.9385L333.646 164.37L334.161 164.367L334.675 164.365L334.246 67.9339L333.731 67.9362ZM334.161 164.367L333.646 164.37L333.647 164.507L334.161 164.504L334.676 164.501L334.675 164.365L334.161 164.367ZM334.161 164.504L334.166 163.99L333.13 163.981L333.125 164.495L333.121 165.01L334.157 165.019L334.161 164.504ZM333.125 164.495L333.64 164.492L333.639 164.359L333.125 164.362L332.61 164.365L332.611 164.498L333.125 164.495ZM333.125 164.362L333.639 164.36L333.209 67.9249L332.694 67.9272L332.18 67.9295L332.61 164.365L333.125 164.362ZM332.694 67.9272L332.699 67.4126L279.404 66.9532L279.399 67.4678L279.395 67.9823L332.69 68.4418L332.694 67.9272ZM279.399 67.4678L278.885 67.4689L279.101 163.899L279.616 163.898L280.13 163.897L279.914 67.4666L279.399 67.4678ZM279.616 163.898L279.101 163.901L279.102 164.038L279.617 164.035L280.131 164.032L280.13 163.895L279.616 163.898ZM279.617 164.035L279.621 163.52L278.712 163.512L278.707 164.027L278.703 164.541L279.612 164.549L279.617 164.035ZM278.707 164.027L279.222 164.028L279.222 163.895L278.708 163.894L278.193 163.893L278.193 164.026L278.707 164.027ZM278.708 163.894L279.222 163.893L279.006 67.4587L278.491 67.4598L277.976 67.461L278.193 163.895L278.708 163.894ZM278.491 67.4598L278.495 66.9453L225.887 66.4928L225.883 67.0074L225.878 67.5219L278.487 67.9744L278.491 67.4598ZM225.883 67.0074L225.368 67.0085L225.585 163.439L226.099 163.438L226.614 163.437L226.397 67.0062L225.883 67.0074ZM226.099 163.438L225.585 163.441L225.585 163.577L226.1 163.574L226.615 163.572L226.614 163.435L226.099 163.438ZM226.1 163.574L226.104 163.06L225.194 163.052L225.19 163.567L225.185 164.081L226.095 164.089L226.1 163.574ZM225.19 163.567L225.704 163.563L225.704 163.431L225.189 163.434L224.674 163.437L224.675 163.57L225.19 163.567ZM225.189 163.434L225.704 163.433L225.487 66.9983L224.973 66.9994L224.458 67.0006L224.674 163.435L225.189 163.434ZM224.973 66.9994L224.977 66.4849L172.158 66.0296L172.153 66.5442L172.149 67.0587L224.968 67.514L224.973 66.9994ZM172.153 66.5442L171.639 66.5464L172.069 162.98L172.584 162.977L173.098 162.975L172.668 66.5419L172.153 66.5442ZM172.584 162.977L172.069 162.98L172.07 163.117L172.584 163.114L173.099 163.111L173.098 162.974L172.584 162.977ZM172.584 163.114L172.589 162.6L171.551 162.59L171.546 163.105L171.542 163.62L172.58 163.629L172.584 163.114ZM171.546 163.105L172.061 163.102L172.06 162.969L171.546 162.972L171.031 162.975L171.032 163.108L171.546 163.105ZM171.546 162.972L172.06 162.97L171.631 66.5328L171.116 66.5351L170.602 66.5374L171.031 162.974L171.546 162.972ZM171.116 66.5351L171.121 66.0206L115.981 65.546L115.977 66.0606L115.972 66.5752L171.112 67.0497L171.116 66.5351ZM115.977 66.0606L115.462 66.0606L115.465 162.492L115.979 162.492L116.494 162.492L116.491 66.0606L115.977 66.0606ZM115.979 162.492L115.465 162.491L115.464 162.627L115.979 162.628L116.494 162.629L116.494 162.493L115.979 162.492ZM115.979 162.628L115.984 162.113L115.203 162.106L115.199 162.621L115.194 163.136L115.975 163.142L115.979 162.628ZM115.199 162.621L115.713 162.618L115.713 162.484L115.198 162.487L114.683 162.49L114.684 162.624L115.199 162.621ZM115.198 162.487L115.713 162.487L115.71 66.0538L115.195 66.0538L114.681 66.0538L114.683 162.487L115.198 162.487ZM115.195 66.0538L115.2 65.5392L64.3101 65.1007L64.3056 65.6153L64.3012 66.1299L115.191 66.5684L115.195 66.0538ZM64.3056 65.6153L63.791 65.6165L64.0076 162.049L64.5222 162.048L65.0368 162.046L64.8202 65.6141L64.3056 65.6153ZM64.5222 162.048L64.0076 162.05L64.0084 162.187L64.5229 162.184L65.0375 162.181L65.0368 162.045L64.5222 162.048ZM64.5229 162.184L64.5274 161.67L63.6183 161.662L63.6138 162.176L63.6093 162.691L64.5185 162.699L64.5229 162.184ZM63.6138 162.176L64.1284 162.177L64.1286 162.044L63.614 162.044L63.0994 162.043L63.0992 162.176L63.6138 162.176ZM63.614 162.044L64.1286 162.042L63.9121 65.6062L63.3975 65.6074L62.8829 65.6086L63.0994 162.045L63.614 162.044ZM63.3975 65.6074L63.4019 65.0928L10.5806 64.6385L10.5762 65.1531L10.5717 65.6676L63.393 66.122L63.3975 65.6074ZM10.5762 65.1531L10.0616 65.1554L10.491 161.59L11.0056 161.587L11.5202 161.585L11.0908 65.1508L10.5762 65.1531ZM11.0056 161.587L10.491 161.59L10.4918 161.727L11.0064 161.724L11.521 161.721L11.5202 161.584L11.0056 161.587ZM11.0064 161.724L11.0109 161.209L9.97476 161.2L9.97028 161.715L9.96579 162.23L11.0019 162.239L11.0064 161.724ZM9.97028 161.715L10.4849 161.712L10.4841 161.579L9.96948 161.582L9.45489 161.585L9.45569 161.718L9.97028 161.715ZM9.96948 161.582L10.4841 161.58L10.0537 65.1417L9.53911 65.144L9.02452 65.1463L9.45489 161.584L9.96948 161.582ZM9.53911 65.144L9.54354 64.6295L-72.6644 63.9221L-72.6688 64.4366L-72.6732 64.9512L9.53468 65.6586L9.53911 65.144ZM-72.6688 64.4366L-72.6643 63.9221L-72.7991 63.9209L-72.8035 64.4354L-72.808 64.95L-72.6733 64.9512L-72.6688 64.4366ZM-72.8035 64.4354L-72.289 64.4399L-72.2778 63.1577L-72.7924 63.1533L-73.307 63.1488L-73.3181 64.431L-72.8035 64.4354ZM-72.7924 63.1533L-72.7969 63.6678L-72.6621 63.669L-72.6576 63.1544L-72.6531 62.6399L-72.7879 62.6387L-72.7924 63.1533ZM-72.6576 63.1544L-72.662 63.669L9.52925 64.3763L9.53368 63.8617L9.53811 63.3471L-72.6532 62.6399L-72.6576 63.1544ZM9.53368 63.8617L10.0483 63.8594L9.81886 12.2842L9.30427 12.2865L8.78968 12.2888L9.01909 63.864L9.53368 63.8617ZM9.30427 12.2865L9.3087 11.7719L-72.198 11.0706L-72.2025 11.5852L-72.2069 12.0997L9.29984 12.801L9.30427 12.2865ZM-72.2025 11.5852L-72.198 11.0706L-72.3328 11.0694L-72.3372 11.584L-72.3417 12.0986L-72.207 12.0997L-72.2025 11.5852ZM-72.3372 11.584L-71.8227 11.5885L-71.8115 10.3063L-72.3261 10.3018L-72.8406 10.2973L-72.8518 11.5795L-72.3372 11.584ZM-72.3261 10.3018L-72.3305 10.8164L-72.1958 10.8176L-72.1913 10.303L-72.1868 9.78841L-72.3216 9.78724L-72.3261 10.3018ZM-72.1913 10.303L-72.1957 10.8176L9.29441 11.5187L9.29884 11.0041L9.30327 10.4896L-72.1869 9.78841L-72.1913 10.303ZM9.29884 11.0041L9.81343 11.0019L9.58403 -40.5734L9.06944 -40.5711L8.55485 -40.5688L8.78425 11.0064L9.29884 11.0041ZM9.06944 -40.5711L9.07387 -41.0857L-71.7317 -41.7809L-71.7362 -41.2663L-71.7406 -40.7517L9.06501 -40.0565L9.06944 -40.5711ZM-71.7362 -41.2663L-71.7317 -41.7809L-71.8664 -41.7821L-71.8709 -41.2675L-71.8754 -40.7529L-71.7406 -40.7517L-71.7362 -41.2663ZM-71.8709 -41.2675L-71.3563 -41.263L-71.3452 -42.5452L-71.8598 -42.5496L-72.3743 -42.5541L-72.3855 -41.272L-71.8709 -41.2675ZM-71.8598 -42.5496L-71.8642 -42.0351L-71.7295 -42.0339L-71.725 -42.5485L-71.7205 -43.0631L-71.8553 -43.0642L-71.8598 -42.5496ZM-71.725 -42.5485L-71.7294 -42.0339L9.05958 -41.3388L9.06401 -41.8534L9.06844 -42.368L-71.7206 -43.0631L-71.725 -42.5485ZM9.06401 -41.8534L9.5786 -41.8557L9.34868 -93.596L8.83409 -93.5937L8.3195 -93.5914L8.54942 -41.8511L9.06401 -41.8534ZM8.83409 -93.5937L8.83857 -94.1083L-71.2609 -94.8061L-71.2654 -94.2916L-71.2699 -93.777L8.8296 -93.0791L8.83409 -93.5937ZM-71.2654 -94.2916L-70.7508 -94.2871L-70.7419 -95.3163L-71.2564 -95.3208L-71.771 -95.3253L-71.78 -94.296L-71.2654 -94.2916ZM-71.2564 -95.3208L-71.2609 -94.8062L8.8249 -94.1085L8.82938 -94.6231L8.83387 -95.1377L-71.252 -95.8354L-71.2564 -95.3208ZM8.82938 -94.6231L9.34397 -94.6254L9.11109 -146.922L8.5965 -146.92L8.08191 -146.918L8.31479 -94.6208L8.82938 -94.6231ZM8.5965 -146.92L8.60093 -147.435L-70.7936 -148.118L-70.798 -147.603L-70.8024 -147.088L8.59207 -146.405L8.5965 -146.92ZM-70.798 -147.603L-70.2834 -147.598L-70.2745 -148.628L-70.7891 -148.632L-71.3036 -148.637L-71.3126 -147.607L-70.798 -147.603ZM-70.7891 -148.632L-70.7935 -148.118L8.58737 -147.435L8.5918 -147.949L8.59622 -148.464L-70.7846 -149.147L-70.7891 -148.632ZM8.5918 -147.949L9.10638 -147.952L8.67081 -246.034L8.15622 -246.032L7.64163 -246.03L8.07721 -147.947L8.5918 -147.949ZM8.15622 -246.032L8.67081 -246.035L8.67004 -246.172L8.15546 -246.169L7.64087 -246.166L7.64163 -246.029L8.15622 -246.032ZM8.15546 -246.169L8.15097 -245.654L9.19 -245.645L9.19448 -246.16L9.19896 -246.674L8.15994 -246.683L8.15546 -246.169ZM9.19448 -246.16L8.67989 -246.157L8.68069 -246.024L9.19528 -246.027L9.70986 -246.03L9.70907 -246.163L9.19448 -246.16ZM9.19528 -246.027L8.68069 -246.025L9.11623 -147.938L9.63082 -147.94L10.1454 -147.943L9.70986 -246.029L9.19528 -246.027ZM9.63082 -147.94L9.62639 -147.426L62.9164 -146.967L62.9208 -147.482L62.9253 -147.997L9.63525 -148.455L9.63082 -147.94ZM62.9208 -147.482L63.4354 -147.483L63.2167 -245.565L62.7021 -245.564L62.1875 -245.563L62.4062 -147.481L62.9208 -147.482ZM62.7021 -245.564L63.2167 -245.563L63.2169 -245.699L62.7023 -245.7L62.1877 -245.7L62.1875 -245.565L62.7021 -245.564ZM62.7023 -245.7L62.6978 -245.185L63.606 -245.177L63.6104 -245.692L63.6149 -246.206L62.7067 -246.214L62.7023 -245.7ZM63.6104 -245.692L63.0958 -245.689L63.0966 -245.556L63.6112 -245.559L64.1258 -245.562L64.125 -245.695L63.6104 -245.692ZM63.6112 -245.559L63.0966 -245.558L63.3154 -147.473L63.83 -147.474L64.3446 -147.475L64.1258 -245.56L63.6112 -245.559ZM63.83 -147.474L63.8256 -146.959L115.186 -146.518L115.19 -147.032L115.195 -147.547L63.8344 -147.989L63.83 -147.474ZM115.19 -147.032L115.705 -147.032L115.703 -245.112L115.188 -245.112L114.674 -245.112L114.676 -147.032L115.19 -147.032ZM115.188 -245.112L115.703 -245.112L115.703 -245.247L115.189 -245.248L114.674 -245.249L114.674 -245.113L115.188 -245.112ZM115.189 -245.248L115.184 -244.734L115.965 -244.727L115.97 -245.241L115.974 -245.756L115.193 -245.763L115.189 -245.248ZM115.97 -245.241L115.455 -245.242L115.455 -245.108L115.97 -245.108L116.484 -245.107L116.484 -245.241L115.97 -245.241ZM115.97 -245.108L115.455 -245.108L115.457 -147.026L115.972 -147.026L116.486 -147.026L116.484 -245.108L115.97 -245.108ZM115.972 -147.026L115.967 -146.511L170.164 -146.045L170.169 -146.559L170.173 -147.074L115.976 -147.54L115.972 -147.026ZM170.169 -146.559L170.683 -146.562L170.248 -244.644L169.733 -244.642L169.219 -244.64L169.654 -146.557L170.169 -146.559ZM169.733 -244.642L170.248 -244.645L170.247 -244.782L169.732 -244.779L169.218 -244.776L169.219 -244.639L169.733 -244.642ZM169.732 -244.779L169.728 -244.264L170.765 -244.255L170.77 -244.77L170.774 -245.284L169.737 -245.293L169.732 -244.779ZM170.77 -244.77L170.255 -244.767L170.256 -244.634L170.77 -244.637L171.285 -244.64L171.284 -244.773L170.77 -244.77ZM170.77 -244.637L170.256 -244.635L170.691 -146.548L171.206 -146.55L171.72 -146.553L171.285 -244.639L170.77 -244.637ZM171.206 -146.55L171.201 -146.036L224.493 -145.577L224.498 -146.092L224.502 -146.606L171.21 -147.065L171.206 -146.55ZM224.498 -146.092L225.012 -146.093L224.794 -244.175L224.279 -244.174L223.764 -244.173L223.983 -146.091L224.498 -146.092ZM224.279 -244.174L224.794 -244.173L224.794 -244.309L224.279 -244.309L223.765 -244.31L223.764 -244.174L224.279 -244.174ZM224.279 -244.309L224.275 -243.795L225.183 -243.787L225.187 -244.302L225.192 -244.816L224.284 -244.824L224.279 -244.309ZM225.187 -244.302L224.673 -244.298L224.674 -244.166L225.188 -244.169L225.703 -244.172L225.702 -244.305L225.187 -244.302ZM225.188 -244.169L224.674 -244.168L224.892 -146.083L225.407 -146.084L225.922 -146.085L225.703 -244.17L225.188 -244.169ZM225.407 -146.084L225.403 -145.569L278.009 -145.117L278.013 -145.632L278.018 -146.146L225.411 -146.599L225.407 -146.084ZM278.013 -145.632L278.528 -145.633L278.309 -243.714L277.795 -243.713L277.28 -243.712L277.499 -145.63L278.013 -145.632ZM277.795 -243.713L278.309 -243.713L278.309 -243.848L277.795 -243.849L277.28 -243.85L277.28 -243.714L277.795 -243.713ZM277.795 -243.849L277.79 -243.334L278.701 -243.327L278.705 -243.841L278.709 -244.356L277.799 -244.364L277.795 -243.849ZM278.705 -243.841L278.19 -243.842L278.19 -243.709L278.705 -243.708L279.219 -243.708L279.22 -243.84L278.705 -243.841ZM278.705 -243.708L278.19 -243.707L278.409 -145.622L278.924 -145.624L279.438 -145.625L279.219 -243.709L278.705 -243.708ZM278.924 -145.624L278.919 -145.109L331.742 -144.655L331.747 -145.169L331.751 -145.684L278.928 -146.138L278.924 -145.624ZM331.747 -145.169L332.261 -145.172L331.826 -243.254L331.311 -243.252L330.797 -243.25L331.232 -145.167L331.747 -145.169ZM331.311 -243.252L331.826 -243.255L331.825 -243.392L331.31 -243.389L330.796 -243.386L330.797 -243.249L331.311 -243.252ZM331.31 -243.389L331.306 -242.874L332.345 -242.865L332.35 -243.38L332.354 -243.894L331.315 -243.903L331.31 -243.389ZM332.35 -243.38L331.835 -243.377L331.836 -243.244L332.35 -243.247L332.865 -243.25L332.864 -243.383L332.35 -243.38ZM332.35 -243.247L331.836 -243.245L332.271 -145.158L332.786 -145.16L333.3 -145.162L332.865 -243.249L332.35 -243.247ZM332.786 -145.16L332.781 -144.646L386.07 -144.187L386.075 -144.702L386.079 -145.216L332.79 -145.675L332.786 -145.16ZM386.075 -144.702L386.589 -144.703L386.371 -242.785L385.856 -242.784L385.342 -242.782L385.56 -144.701L386.075 -144.702ZM385.856 -242.784L386.371 -242.783L386.371 -242.919L385.856 -242.919L385.342 -242.92L385.342 -242.784L385.856 -242.784ZM385.856 -242.919L385.852 -242.405L386.76 -242.397L386.764 -242.911L386.769 -243.426L385.861 -243.434L385.856 -242.919ZM386.764 -242.911L386.25 -242.908L386.251 -242.775L386.765 -242.779L387.28 -242.782L387.279 -242.914L386.764 -242.911ZM386.765 -242.779L386.251 -242.777L386.469 -144.693L386.984 -144.694L387.499 -144.695L387.28 -242.78L386.765 -242.779ZM386.984 -144.694L386.98 -144.179L439.587 -143.727L439.591 -144.241L439.596 -144.756L386.988 -145.208L386.984 -144.694ZM439.591 -144.241L440.106 -144.243L439.887 -242.324L439.373 -242.323L438.858 -242.322L439.077 -144.24L439.591 -144.241ZM439.373 -242.323L439.887 -242.322L439.887 -242.458L439.373 -242.459L438.858 -242.46L438.858 -242.324L439.373 -242.323ZM439.373 -242.459L439.368 -241.944L440.277 -241.936L440.281 -242.451L440.286 -242.966L439.377 -242.974L439.373 -242.459ZM440.281 -242.451L439.766 -242.448L439.767 -242.315L440.282 -242.318L440.796 -242.321L440.796 -242.454L440.281 -242.451ZM10.3413 12.2955L9.82675 12.2978L10.0562 63.873L10.5707 63.8707L11.0853 63.8685L10.8559 12.2932L10.3413 12.2955ZM10.5707 63.8707L10.5663 64.3853L63.3896 64.8397L63.394 64.3251L63.3984 63.8105L10.5752 63.3562L10.5707 63.8707ZM63.394 64.3251L63.9086 64.3239L63.7934 12.7507L63.2788 12.7518L62.7642 12.753L62.8794 64.3263L63.394 64.3251ZM63.2788 12.7518L63.2833 12.2373L10.3458 11.7809L10.3413 12.2955L10.3369 12.8101L63.2744 13.2664L63.2788 12.7518ZM64.188 12.7588L63.6734 12.7599L63.7885 64.3342L64.3031 64.333L64.8177 64.3319L64.7026 12.7576L64.188 12.7588ZM64.3031 64.333L64.2987 64.8476L115.19 65.2861L115.195 64.7715L115.199 64.2569L64.3076 63.8184L64.3031 64.333ZM115.195 64.7715L115.709 64.7715L115.708 13.1983L115.194 13.1983L114.679 13.1983L114.68 64.7715L115.195 64.7715ZM115.194 13.1983L115.198 12.6837L64.1924 12.2442L64.188 12.7588L64.1835 13.2733L115.189 13.7128L115.194 13.1983ZM115.975 13.2051L115.461 13.2051L115.461 64.7783L115.976 64.7783L116.491 64.7783L116.49 13.2051L115.975 13.2051ZM115.976 64.7783L115.972 65.2929L171.106 65.7674L171.111 65.2528L171.115 64.7382L115.98 64.2637L115.976 64.7783ZM171.111 65.2528L171.625 65.2505L171.396 13.6753L170.881 13.6776L170.367 13.6798L170.596 65.2551L171.111 65.2528ZM170.881 13.6776L170.886 13.163L115.98 12.6905L115.975 13.2051L115.971 13.7196L170.877 14.1921L170.881 13.6776ZM171.918 13.6866L171.404 13.6889L171.633 65.2641L172.148 65.2618L172.662 65.2595L172.433 13.6843L171.918 13.6866ZM172.148 65.2618L172.143 65.7764L224.966 66.2317L224.97 65.7171L224.974 65.2026L172.152 64.7473L172.148 65.2618ZM224.97 65.7171L225.485 65.716L225.369 14.1417L224.855 14.1429L224.34 14.1441L224.455 65.7183L224.97 65.7171ZM224.855 14.1429L224.859 13.6283L171.923 13.172L171.918 13.6866L171.914 14.2012L224.85 14.6575L224.855 14.1429ZM225.765 14.1508L225.25 14.152L225.366 65.7262L225.88 65.7251L226.395 65.7239L226.28 14.1497L225.765 14.1508ZM225.88 65.7251L225.876 66.2396L278.483 66.6921L278.488 66.1775L278.492 65.663L225.885 65.2105L225.88 65.7251ZM278.488 66.1775L279.002 66.1764L278.887 14.6021L278.372 14.6033L277.858 14.6045L277.973 66.1787L278.488 66.1775ZM278.372 14.6033L278.377 14.0887L225.769 13.6363L225.765 14.1508L225.761 14.6654L278.368 15.1179L278.372 14.6033ZM279.282 14.6112L278.767 14.6124L278.882 66.1866L279.397 66.1855L279.911 66.1843L279.796 14.61L279.282 14.6112ZM279.397 66.1855L279.392 66.7L332.684 67.1594L332.689 66.6449L332.693 66.1303L279.401 65.6709L279.397 66.1855ZM332.689 66.6449L333.203 66.6426L332.974 15.0673L332.459 15.0696L331.945 15.0719L332.174 66.6472L332.689 66.6449ZM332.459 15.0696L332.464 14.5551L279.286 14.0966L279.282 14.6112L279.277 15.1258L332.455 15.5842L332.459 15.0696ZM333.496 15.0787L332.982 15.0809L333.211 66.6562L333.726 66.6539L334.24 66.6516L334.011 15.0764L333.496 15.0787ZM333.726 66.6539L333.721 67.1685L386.544 67.6228L386.548 67.1082L386.552 66.5937L333.73 66.1393L333.726 66.6539ZM386.548 67.1082L387.063 67.1071L386.947 15.5328L386.433 15.534L385.918 15.5351L386.033 67.1094L386.548 67.1082ZM386.433 15.534L386.437 15.0194L333.501 14.5641L333.496 15.0787L333.492 15.5932L386.428 16.0486L386.433 15.534ZM387.341 15.5419L386.826 15.5431L386.942 67.1173L387.456 67.1161L387.971 67.115L387.856 15.5407L387.341 15.5419ZM387.456 67.1161L387.452 67.6307L440.06 68.0842L440.065 67.5696L440.069 67.055L387.461 66.6016L387.456 67.1161ZM440.065 67.5696L440.579 67.5684L440.464 15.9942L439.949 15.9953L439.435 15.9965L439.55 67.5708L440.065 67.5696ZM439.949 15.9953L439.954 15.4808L387.345 15.0273L387.341 15.5419L387.337 16.0565L439.945 16.5099L439.949 15.9953ZM10.1065 -40.5621L9.59192 -40.5598L9.82035 11.0155L10.3349 11.0132L10.8495 11.0109L10.6211 -40.5643L10.1065 -40.5621ZM10.3349 11.0132L10.3305 11.5277L63.2719 11.9841L63.2763 11.4695L63.2808 10.955L10.3394 10.4986L10.3349 11.0132ZM63.2763 11.4695L63.7909 11.4684L63.6758 -40.1059L63.1612 -40.1047L62.6466 -40.1036L62.7617 11.4707L63.2763 11.4695ZM63.1612 -40.1047L63.1656 -40.6193L10.1109 -41.0766L10.1065 -40.5621L10.1021 -40.0475L63.1567 -39.5901L63.1612 -40.1047ZM64.0703 -40.0968L63.5557 -40.0957L63.6709 11.4776L64.1855 11.4765L64.7001 11.4753L64.5849 -40.0979L64.0703 -40.0968ZM64.1855 11.4765L64.181 11.991L115.189 12.4305L115.193 11.916L115.198 11.4014L64.1899 10.9619L64.1855 11.4765ZM115.193 11.916L115.708 11.916L115.707 -39.6573L115.192 -39.6573L114.678 -39.6573L114.679 11.916L115.193 11.916ZM115.192 -39.6573L115.197 -40.1719L64.0747 -40.6114L64.0703 -40.0968L64.0659 -39.5822L115.188 -39.1427L115.192 -39.6573ZM115.974 -39.6505L115.459 -39.6505L115.46 11.9228L115.975 11.9228L116.489 11.9228L116.488 -39.6505L115.974 -39.6505ZM115.975 11.9228L115.97 12.4373L170.87 12.9098L170.875 12.3952L170.879 11.8807L115.979 11.4082L115.975 11.9228ZM170.875 12.3952L171.389 12.3929L171.161 -39.1813L170.646 -39.179L170.132 -39.1768L170.36 12.3975L170.875 12.3952ZM170.646 -39.179L170.651 -39.6936L115.978 -40.1651L115.974 -39.6505L115.969 -39.1359L170.642 -38.6645L170.646 -39.179ZM171.684 -39.171L171.169 -39.1687L171.398 12.4066L171.913 12.4043L172.428 12.402L172.198 -39.1733L171.684 -39.171ZM171.913 12.4043L171.908 12.9188L224.848 13.3752L224.852 12.8606L224.857 12.346L171.917 11.8897L171.913 12.4043ZM224.852 12.8606L225.367 12.8594L225.252 -38.7148L224.737 -38.7136L224.223 -38.7125L224.338 12.8618L224.852 12.8606ZM224.737 -38.7136L224.742 -39.2282L171.688 -39.6856L171.684 -39.171L171.679 -38.6564L224.733 -38.1991L224.737 -38.7136ZM225.647 -38.7057L225.133 -38.7046L225.248 12.8697L225.762 12.8685L226.277 12.8674L226.162 -38.7069L225.647 -38.7057ZM225.762 12.8685L225.758 13.3831L278.365 13.8356L278.369 13.321L278.373 12.8064L225.767 12.354L225.762 12.8685ZM278.369 13.321L278.884 13.3198L278.768 -38.2544L278.254 -38.2533L277.739 -38.2521L277.854 13.3221L278.369 13.321ZM278.254 -38.2533L278.258 -38.7678L225.652 -39.2203L225.647 -38.7057L225.643 -38.1911L278.249 -37.7387L278.254 -38.2533ZM279.164 -38.2453L278.649 -38.2442L278.764 13.3301L279.279 13.3289L279.794 13.3278L279.678 -38.2465L279.164 -38.2453ZM279.279 13.3289L279.275 13.8435L332.449 14.3019L332.454 13.7873L332.458 13.2727L279.283 12.8143L279.279 13.3289ZM332.454 13.7873L332.968 13.785L332.739 -37.7902L332.224 -37.7879L331.71 -37.7857L331.939 13.7896L332.454 13.7873ZM332.224 -37.7879L332.229 -38.3025L279.168 -38.7599L279.164 -38.2453L279.159 -37.7308L332.22 -37.2734L332.224 -37.7879ZM333.262 -37.7789L332.747 -37.7766L332.975 13.7986L333.49 13.7963L334.005 13.794L333.776 -37.7812L333.262 -37.7789ZM333.49 13.7963L333.486 14.3109L386.426 14.7663L386.43 14.2517L386.435 13.7371L333.494 13.2818L333.49 13.7963ZM386.43 14.2517L386.945 14.2505L386.83 -37.3237L386.315 -37.3226L385.801 -37.3214L385.916 14.2529L386.43 14.2517ZM386.315 -37.3226L386.32 -37.8371L333.266 -38.2935L333.262 -37.7789L333.257 -37.2643L386.311 -36.808L386.315 -37.3226ZM387.223 -37.3146L386.709 -37.3135L386.824 14.2608L387.339 14.2596L387.853 14.2584L387.738 -37.3158L387.223 -37.3146ZM387.339 14.2596L387.334 14.7742L439.943 15.2276L439.947 14.7131L439.951 14.1985L387.343 13.745L387.339 14.2596ZM439.947 14.7131L440.462 14.7119L440.346 -36.8623L439.832 -36.8612L439.317 -36.86L439.432 14.7142L439.947 14.7131ZM439.832 -36.8612L439.836 -37.3758L387.228 -37.8292L387.223 -37.3146L387.219 -36.8001L439.827 -36.3466L439.832 -36.8612ZM10.1011 -41.8444L10.0966 -41.3298L63.1542 -40.8724L63.1587 -41.387L63.1631 -41.9016L10.1055 -42.359L10.1011 -41.8444ZM63.1587 -41.387L63.6733 -41.3882L63.5576 -93.1226L63.043 -93.1214L62.5284 -93.1203L62.6441 -41.3859L63.1587 -41.387ZM63.043 -93.1214L63.0474 -93.636L9.87564 -94.0993L9.87116 -93.5847L9.86667 -93.0701L63.0385 -92.6069L63.043 -93.1214ZM9.87116 -93.5847L9.35657 -93.5824L9.58649 -41.8421L10.1011 -41.8444L10.6157 -41.8467L10.3857 -93.587L9.87116 -93.5847ZM64.0668 -41.3791L64.0624 -40.8645L115.187 -40.425L115.192 -40.9396L115.196 -41.4541L64.0713 -41.8937L64.0668 -41.3791ZM115.192 -40.9396L115.706 -40.9396L115.706 -92.6671L115.191 -92.6671L114.677 -92.6671L114.677 -40.9396L115.192 -40.9396ZM115.191 -92.6671L115.196 -93.1817L63.9566 -93.6281L63.9521 -93.1135L63.9476 -92.5989L115.187 -92.1525L115.191 -92.6671ZM63.9521 -93.1135L63.4375 -93.1124L63.5522 -41.378L64.0668 -41.3791L64.5814 -41.3803L64.4667 -93.1147L63.9521 -93.1135ZM115.973 -40.9328L115.969 -40.4182L170.636 -39.9468L170.64 -40.4614L170.644 -40.976L115.978 -41.4473L115.973 -40.9328ZM170.64 -40.4614L171.155 -40.4636L170.926 -92.1883L170.411 -92.186L169.896 -92.1838L170.125 -40.4591L170.64 -40.4614ZM170.411 -92.186L170.415 -92.7006L115.977 -93.1749L115.973 -92.6603L115.968 -92.1457L170.406 -91.6714L170.411 -92.186ZM115.973 -92.6603L115.458 -92.6603L115.459 -40.9327L115.973 -40.9328L116.488 -40.9328L116.487 -92.6603L115.973 -92.6603ZM171.678 -40.4533L171.674 -39.9387L224.729 -39.4814L224.734 -39.996L224.738 -40.5105L171.683 -40.9679L171.678 -40.4533ZM224.734 -39.996L225.248 -39.9971L225.133 -91.7149L224.619 -91.7138L224.104 -91.7126L224.219 -39.9948L224.734 -39.996ZM224.619 -91.7138L224.623 -92.2283L171.453 -92.6916L171.448 -92.177L171.444 -91.6624L224.614 -91.1992L224.619 -91.7138ZM171.448 -92.177L170.933 -92.1747L171.163 -40.451L171.678 -40.4533L172.193 -40.4556L171.963 -92.1793L171.448 -92.177ZM225.644 -39.988L225.639 -39.4734L278.247 -39.021L278.251 -39.5356L278.256 -40.0501L225.648 -40.5026L225.644 -39.988ZM278.251 -39.5356L278.766 -39.5367L278.65 -91.2487L278.135 -91.2475L277.621 -91.2464L277.737 -39.5344L278.251 -39.5356ZM278.135 -91.2475L278.14 -91.7621L225.533 -92.2204L225.529 -91.7058L225.525 -91.1912L278.131 -90.7329L278.135 -91.2475ZM225.529 -91.7058L225.014 -91.7047L225.129 -39.9869L225.644 -39.988L226.158 -39.9892L226.044 -91.707L225.529 -91.7058ZM279.16 -39.5276L279.156 -39.0131L332.214 -38.5557L332.218 -39.0703L332.222 -39.5849L279.165 -40.0422L279.16 -39.5276ZM332.218 -39.0703L332.733 -39.0726L332.503 -90.7806L331.989 -90.7783L331.474 -90.7761L331.703 -39.068L332.218 -39.0703ZM331.989 -90.7783L331.993 -91.2929L279.05 -91.7542L279.046 -91.2396L279.041 -90.725L331.984 -90.2638L331.989 -90.7783ZM279.046 -91.2396L278.531 -91.2384L278.646 -39.5265L279.16 -39.5276L279.675 -39.5288L279.56 -91.2407L279.046 -91.2396ZM333.256 -39.0612L333.252 -38.5466L386.307 -38.0903L386.312 -38.6049L386.316 -39.1194L333.261 -39.5758L333.256 -39.0612ZM386.312 -38.6049L386.826 -38.606L386.711 -90.3072L386.197 -90.3061L385.682 -90.3049L385.797 -38.6037L386.312 -38.6049ZM386.197 -90.3061L386.201 -90.8207L333.031 -91.2839L333.027 -90.7693L333.022 -90.2547L386.192 -89.7915L386.197 -90.3061ZM333.027 -90.7693L332.512 -90.767L332.741 -39.059L333.256 -39.0612L333.771 -39.0635L333.541 -90.7716L333.027 -90.7693ZM387.221 -38.5969L387.216 -38.0824L439.824 -37.6289L439.828 -38.1435L439.833 -38.6581L387.225 -39.1115L387.221 -38.5969ZM439.828 -38.1435L440.343 -38.1446L440.228 -89.841L439.713 -89.8398L439.199 -89.8387L439.314 -38.1424L439.828 -38.1435ZM439.713 -89.8398L439.718 -90.3544L387.11 -90.8127L387.106 -90.2981L387.101 -89.7836L439.709 -89.3252L439.713 -89.8398ZM387.106 -90.2981L386.591 -90.297L386.706 -38.5958L387.221 -38.5969L387.735 -38.5981L387.62 -90.2993L387.106 -90.2981ZM9.63455 -146.911L9.11996 -146.909L9.35284 -94.6118L9.86743 -94.614L10.382 -94.6163L10.1491 -146.913L9.63455 -146.911ZM9.86743 -94.614L9.86295 -94.0995L63.0357 -93.6362L63.0402 -94.1508L63.0447 -94.6654L9.87191 -95.1286L9.86743 -94.614ZM63.0402 -94.1508L63.5548 -94.1519L63.4382 -146.454L62.9236 -146.453L62.409 -146.451L62.5256 -94.1496L63.0402 -94.1508ZM62.9236 -146.453L62.928 -146.967L9.63898 -147.426L9.63455 -146.911L9.63012 -146.396L62.9192 -145.938L62.9236 -146.453ZM63.8327 -146.445L63.3181 -146.444L63.4348 -94.1417L63.9494 -94.1429L64.464 -94.144L64.3473 -146.446L63.8327 -146.445ZM63.9494 -94.1429L63.9449 -93.6283L115.187 -93.1819L115.192 -93.6964L115.196 -94.211L63.9538 -94.6575L63.9494 -94.1429ZM115.192 -93.6964L115.706 -93.6965L115.705 -146.003L115.19 -146.003L114.676 -146.003L114.677 -93.6964L115.192 -93.6964ZM115.19 -146.003L115.195 -146.518L63.8372 -146.959L63.8327 -146.445L63.8283 -145.93L115.186 -145.489L115.19 -146.003ZM115.971 -145.996L115.457 -145.996L115.458 -93.6896L115.973 -93.6896L116.487 -93.6897L116.486 -145.996L115.971 -145.996ZM115.973 -93.6896L115.968 -93.1751L170.402 -92.7008L170.406 -93.2154L170.411 -93.73L115.977 -94.2042L115.973 -93.6896ZM170.406 -93.2154L170.921 -93.2177L170.688 -145.532L170.174 -145.53L169.659 -145.528L169.892 -93.2131L170.406 -93.2154ZM170.174 -145.53L170.178 -146.045L115.976 -146.511L115.971 -145.996L115.967 -145.482L170.169 -145.015L170.174 -145.53ZM171.211 -145.521L170.696 -145.519L170.929 -93.2041L171.443 -93.2064L171.958 -93.2087L171.725 -145.523L171.211 -145.521ZM171.443 -93.2064L171.439 -92.6918L224.612 -92.2285L224.616 -92.7431L224.621 -93.2577L171.448 -93.721L171.443 -93.2064ZM224.616 -92.7431L225.131 -92.7443L225.014 -145.064L224.5 -145.063L223.985 -145.061L224.102 -92.742L224.616 -92.7431ZM224.5 -145.063L224.504 -145.577L171.215 -146.036L171.211 -145.521L171.206 -145.006L224.495 -144.548L224.5 -145.063ZM225.41 -145.055L224.895 -145.053L225.012 -92.734L225.526 -92.7352L226.041 -92.7363L225.924 -145.056L225.41 -145.055ZM225.526 -92.7352L225.522 -92.2206L278.129 -91.7623L278.134 -92.2769L278.138 -92.7915L225.531 -93.2498L225.526 -92.7352ZM278.134 -92.2769L278.648 -92.278L278.531 -144.603L278.016 -144.602L277.502 -144.601L277.619 -92.2757L278.134 -92.2769ZM278.016 -144.602L278.021 -145.117L225.414 -145.569L225.41 -145.055L225.405 -144.54L278.012 -144.088L278.016 -144.602ZM278.926 -144.594L278.412 -144.593L278.529 -92.2678L279.044 -92.2689L279.558 -92.2701L279.441 -144.595L278.926 -144.594ZM279.044 -92.2689L279.039 -91.7544L331.98 -91.2931L331.984 -91.8077L331.989 -92.3223L279.048 -92.7835L279.044 -92.2689ZM331.984 -91.8077L332.499 -91.81L332.266 -144.142L331.752 -144.14L331.237 -144.138L331.47 -91.8054L331.984 -91.8077ZM331.752 -144.14L331.756 -144.654L278.931 -145.109L278.926 -144.594L278.922 -144.08L331.747 -143.625L331.752 -144.14ZM332.79 -144.131L332.275 -144.129L332.508 -91.7964L333.022 -91.7987L333.537 -91.801L333.304 -144.133L332.79 -144.131ZM333.022 -91.7987L333.018 -91.2841L386.19 -90.8208L386.195 -91.3354L386.199 -91.85L333.027 -92.3133L333.022 -91.7987ZM386.195 -91.3354L386.71 -91.3366L386.592 -143.674L386.078 -143.672L385.563 -143.671L385.68 -91.3343L386.195 -91.3354ZM386.078 -143.672L386.082 -144.187L332.794 -144.645L332.79 -144.131L332.785 -143.616L386.073 -143.158L386.078 -143.672ZM386.987 -143.664L386.472 -143.663L386.589 -91.3264L387.104 -91.3275L387.619 -91.3286L387.501 -143.666L386.987 -143.664ZM387.104 -91.3275L387.1 -90.8129L439.707 -90.3546L439.711 -90.8692L439.716 -91.3838L387.109 -91.8421L387.104 -91.3275ZM439.711 -90.8692L440.226 -90.8703L440.109 -143.213L439.594 -143.212L439.08 -143.211L439.197 -90.868L439.711 -90.8692ZM439.594 -143.212L439.599 -143.727L386.991 -144.179L386.987 -143.664L386.982 -143.15L439.59 -142.697L439.594 -143.212Z" fill="url(#paint0_radial_1_4482)"/>
<defs>
<radialGradient id="paint0_radial_1_4482" cx="0" cy="0" r="1" gradientTransform="matrix(95.2484 118.589 -152.393 122.381 197.77 -36.8523)" gradientUnits="userSpaceOnUse">
<stop stop-color="#7A7A7A"/>
<stop offset="1" stop-color="#FAFAFA" stop-opacity="0"/>
</radialGradient>
</defs>
</svg>
