<svg width="343" height="48" viewBox="0 0 343 48" fill="none" xmlns="http://www.w3.org/2000/svg">
<g clip-path="url(#clip0_1_5083)">
<path d="M86.9889 15.2642L79.4106 15.2642L79.4106 37.2326L75.478 37.2326L75.478 15.2642L67.8828 15.2642L67.8828 11.8233L86.9889 11.8233L86.9889 15.2642ZM110.49 11.8233L110.49 37.2326L106.541 37.2326L106.541 25.9219L94.3377 25.9219L94.3377 37.2326L90.3714 37.2326L90.3714 11.8233L94.3378 11.8233L94.3377 22.9399L106.541 22.9399L106.541 11.8233L110.49 11.8233ZM131.455 33.8976L131.439 37.2326L116.282 37.2326L116.282 11.8233L131.439 11.8234L131.439 15.1583L120.248 15.1583L120.248 22.8164L129.194 22.8164L129.194 26.0455L120.248 26.0455L120.248 33.8976L131.455 33.8976ZM164.256 11.8234L164.256 37.2326L160.306 37.2326L160.306 25.922L148.104 25.922L148.104 37.2326L144.137 37.2326L144.137 11.8234L148.104 11.8234L148.104 22.9399L160.306 22.9399L160.306 11.8234L164.256 11.8234ZM182.909 27.7041L179.567 18.4227C179.297 17.7051 179.021 16.7935 178.74 15.6877C178.616 16.2406 178.481 16.7523 178.335 17.2228C178.188 17.6816 178.053 18.0874 177.93 18.4404L174.588 27.7041L182.909 27.7041ZM190.386 37.2326L187.331 37.2326C186.982 37.2326 186.701 37.1444 186.487 36.9679C186.273 36.7797 186.11 36.5503 185.997 36.2798L183.972 30.6685L173.508 30.6685L171.482 36.2798C171.392 36.515 171.235 36.7327 171.01 36.9326C170.785 37.1326 170.503 37.2326 170.166 37.2326L167.111 37.2326L176.748 11.8234L180.748 11.8234L190.386 37.2326ZM213.341 11.8234L213.341 37.2326L211.333 37.2326C211.029 37.2326 210.77 37.1797 210.557 37.0738C210.343 36.9562 210.14 36.7679 209.949 36.5091L196.598 18.5815C196.632 18.9227 196.655 19.2638 196.666 19.6049C196.688 19.9343 196.7 20.2402 196.7 20.5225L196.7 37.2326L193.223 37.2326L193.223 11.8234L195.282 11.8234C195.451 11.8234 195.591 11.8351 195.704 11.8587C195.828 11.8704 195.94 11.8998 196.041 11.9469C196.143 11.9939 196.238 12.0645 196.328 12.1586C196.418 12.2527 196.514 12.3704 196.615 12.5115L209.983 30.4568C209.949 30.0921 209.921 29.7334 209.898 29.3804C209.887 29.0275 209.881 28.6982 209.881 28.3923L209.881 11.8234L213.341 11.8234ZM240.467 24.528C240.467 26.4102 240.175 28.1335 239.59 29.6981C239.005 31.2509 238.178 32.586 237.109 33.7036C236.051 34.8211 234.774 35.6916 233.277 36.3151C231.792 36.9268 230.138 37.2326 228.315 37.2326L219.133 37.2326L219.133 11.8234L228.315 11.8234C230.138 11.8234 231.792 12.1351 233.277 12.7586C234.774 13.3703 236.051 14.2349 237.109 15.3524C238.178 16.47 239.005 17.811 239.59 19.3756C240.175 20.9283 240.467 22.6458 240.467 24.528ZM236.434 24.528C236.434 23.0693 236.242 21.7577 235.86 20.5931C235.488 19.4285 234.948 18.4462 234.239 17.6463C233.542 16.8464 232.692 16.2347 231.691 15.8112C230.689 15.376 229.564 15.1583 228.315 15.1583L223.1 15.1583L223.1 33.8976L228.315 33.8976C229.564 33.8976 230.689 33.6859 231.691 33.2624C232.692 32.8389 233.542 32.2272 234.239 31.4273C234.948 30.6156 235.488 29.6334 235.86 28.4805C236.242 27.316 236.434 25.9984 236.434 24.528ZM267.65 24.528C267.65 26.4102 267.357 28.1453 266.772 29.7334C266.187 31.3214 265.36 32.6919 264.291 33.8447C263.233 34.9858 261.956 35.8798 260.46 36.5268C258.974 37.1738 257.32 37.4973 255.497 37.4973C253.686 37.4973 252.032 37.1738 250.535 36.5268C249.05 35.8798 247.773 34.9858 246.704 33.8447C245.635 32.6919 244.808 31.3214 244.223 29.7334C243.638 28.1453 243.345 26.4102 243.345 24.528C243.345 22.6458 243.638 20.9107 244.223 19.3226C244.808 17.7345 245.635 16.3641 246.704 15.2113C247.773 14.0584 249.05 13.1585 250.535 12.5115C252.032 11.8645 253.686 11.541 255.497 11.541C257.32 11.541 258.974 11.8645 260.46 12.5115C261.956 13.1585 263.233 14.0584 264.291 15.2113C265.36 16.3641 266.187 17.7346 266.772 19.3226C267.357 20.9107 267.65 22.6458 267.65 24.528ZM263.616 24.528C263.616 23.0693 263.425 21.7577 263.042 20.5931C262.671 19.4285 262.131 18.4404 261.422 17.6287C260.724 16.817 259.874 16.1935 258.873 15.7583C257.872 15.323 256.746 15.1054 255.497 15.1054C254.26 15.1054 253.14 15.323 252.139 15.7583C251.137 16.1935 250.282 16.817 249.573 17.6287C248.864 18.4404 248.319 19.4285 247.936 20.5931C247.553 21.7577 247.362 23.0693 247.362 24.528C247.362 25.9984 247.553 27.316 247.936 28.4805C248.319 29.6451 248.864 30.6333 249.573 31.445C250.282 32.2449 251.137 32.8625 252.139 33.2977C253.14 33.7212 254.26 33.9329 255.497 33.9329C256.746 33.9329 257.872 33.7212 258.873 33.2977C259.874 32.8625 260.724 32.2449 261.422 31.445C262.131 30.6333 262.671 29.6451 263.042 28.4805C263.425 27.316 263.616 25.9984 263.616 24.528ZM291.556 11.8234L281.699 37.2326L278.138 37.2326L268.281 11.8234L271.437 11.8234C271.786 11.8234 272.068 11.9175 272.281 12.1057C272.495 12.2822 272.658 12.5057 272.771 12.7762L279.033 29.3452C279.37 30.2745 279.68 31.345 279.961 32.5566C280.085 31.9567 280.214 31.3861 280.349 30.845C280.495 30.3039 280.653 29.8039 280.822 29.3452L287.067 12.7762C287.157 12.541 287.314 12.3233 287.539 12.1233C287.764 11.9234 288.046 11.8234 288.383 11.8234L291.556 11.8234ZM309.567 33.8977L309.55 37.2326L294.393 37.2326L294.393 11.8234L309.55 11.8234L309.55 15.1583L298.359 15.1583L298.359 22.8164L307.305 22.8164L307.305 26.0455L298.359 26.0455L298.359 33.8977L309.567 33.8977ZM320.897 23.9986C321.798 23.9986 322.585 23.8869 323.26 23.6634C323.935 23.4281 324.498 23.1046 324.948 22.6929C325.398 22.2812 325.736 21.793 325.961 21.2283C326.186 20.6519 326.298 20.0167 326.298 19.3226C326.298 17.9345 325.86 16.8758 324.982 16.1465C324.104 15.4171 322.777 15.0525 320.999 15.0525L317.792 15.0525L317.792 23.9986L320.897 23.9986ZM332.341 37.2326L328.813 37.2326C328.116 37.2326 327.609 36.9503 327.294 36.3857L321.623 27.8277C321.432 27.5336 321.224 27.3218 320.999 27.1924C320.774 27.0631 320.436 26.9984 319.986 26.9984L317.792 26.9984L317.792 37.2326L313.842 37.2326L313.842 11.8234L320.999 11.8234C322.596 11.8234 323.969 11.994 325.117 12.3351C326.276 12.6762 327.227 13.1644 327.969 13.7997C328.712 14.4231 329.258 15.176 329.607 16.0583C329.967 16.9405 330.147 17.9228 330.147 19.005C330.147 19.8873 330.017 20.7107 329.758 21.4754C329.511 22.24 329.145 22.934 328.661 23.5575C328.189 24.181 327.604 24.7221 326.906 25.1809C326.208 25.6397 325.415 25.9984 324.526 26.2572C325.01 26.5631 325.426 26.9925 325.775 27.5454L332.341 37.2326Z" fill="#F8FAFC"/>
<path d="M14.078 16.4639L9.70935 16.4639L9.70935 46.1511L14.078 46.1511L14.078 16.4639Z" fill="#F8FAFC"/>
<path d="M33.7361 2.75879L29.3674 2.75879L29.3674 21.0279L33.7361 21.0279L33.7361 2.75879Z" fill="#F8FAFC"/>
<path d="M29.3696 43.8623L33.7383 43.8623L33.7383 25.5932L29.3696 25.5932L29.3696 43.8623Z" fill="#F8FAFC"/>
<path d="M33.7383 5.03993L33.7383 0.472656L20.6322 0.472654L20.6322 5.03992L33.7383 5.03993Z" fill="#F8FAFC"/>
<path d="M29.3674 41.5812L29.3674 46.1484L42.4735 46.1484L42.4735 41.5812L29.3674 41.5812Z" fill="#F8FAFC"/>
<path d="M53.397 0.472657L49.0283 0.472656L49.0283 32.4435L53.397 32.4435L53.397 0.472657Z" fill="#F8FAFC"/>
<path d="M20.6318 0.472656L25.0006 0.472657L25.0006 46.1453L20.6318 46.1453L20.6318 0.472656Z" fill="#F8FAFC"/>
<path d="M42.4745 0.472657L38.1058 0.472656L38.1058 46.1453L42.4745 46.1453L42.4745 0.472657Z" fill="#F8FAFC"/>
</g>
<defs>
<clipPath id="clip0_1_5083">
<rect width="323.498" height="47.0542" fill="white" transform="translate(9.70935 0.472656)"/>
</clipPath>
</defs>
</svg>
