<svg width="566" height="83" viewBox="0 0 566 83" fill="none" xmlns="http://www.w3.org/2000/svg">
<g clip-path="url(#clip0_25_143)">
<path d="M135.183 25.8742L121.926 25.8741L121.926 64.3028L115.047 64.3028L115.047 25.8741L101.761 25.8741L101.761 19.8552L135.183 19.8552L135.183 25.8742ZM176.293 19.8552L176.293 64.3029L169.384 64.3029L169.384 44.5175L148.038 44.5175L148.038 64.3029L141.1 64.3029L141.1 19.8552L148.038 19.8552L148.038 39.301L169.384 39.3011L169.384 19.8552L176.293 19.8552ZM212.967 58.4691L212.938 64.3029L186.425 64.3029L186.425 19.8552L212.938 19.8552L212.938 25.689L193.363 25.689L193.363 39.085L209.011 39.085L209.011 44.7336L193.363 44.7335L193.363 58.4691L212.967 58.4691ZM270.343 19.8552L270.343 64.3029L263.435 64.3029L263.435 44.5175L242.089 44.5175L242.089 64.3029L235.151 64.3029L235.151 19.8552L242.089 19.8552L242.089 39.3011L263.435 39.3011L263.435 19.8552L270.343 19.8552ZM302.973 47.635L297.127 31.3993C296.655 30.144 296.172 28.5493 295.68 26.615C295.464 27.5821 295.228 28.4772 294.972 29.3004C294.716 30.1029 294.48 30.8128 294.263 31.4301L288.417 47.635L302.973 47.635ZM316.052 64.3029L310.708 64.3029C310.098 64.3029 309.606 64.1485 309.232 63.8399C308.858 63.5106 308.573 63.1094 308.376 62.6361L304.833 52.8206L286.528 52.8206L282.985 62.6361C282.827 63.0476 282.552 63.4283 282.158 63.7781C281.764 64.128 281.272 64.3029 280.682 64.3029L275.338 64.3029L292.196 19.8552L299.194 19.8552L316.052 64.3029ZM356.208 19.8552L356.208 64.3029L352.694 64.3029C352.163 64.3029 351.71 64.2103 351.336 64.0251C350.962 63.8193 350.608 63.4901 350.273 63.0374L326.92 31.6771C326.979 32.2738 327.018 32.8706 327.038 33.4673C327.077 34.0435 327.097 34.5785 327.097 35.0724L327.097 64.3029L321.015 64.3029L321.015 19.8552L324.617 19.8552C324.912 19.8552 325.158 19.8758 325.355 19.917C325.571 19.9375 325.768 19.989 325.945 20.0713C326.122 20.1536 326.29 20.2771 326.447 20.4417C326.605 20.6063 326.772 20.8121 326.949 21.059L350.332 52.4502C350.273 51.8123 350.224 51.1847 350.185 50.5673C350.165 49.95 350.155 49.3738 350.155 48.8388L350.155 19.8552L356.208 19.8552ZM403.659 42.0791C403.659 45.3715 403.147 48.3861 402.123 51.1229C401.1 53.8392 399.653 56.1747 397.783 58.1296C395.933 60.0845 393.699 61.6072 391.081 62.6978C388.483 63.7679 385.59 64.3029 382.401 64.3029L366.34 64.3029L366.34 19.8552L382.401 19.8552C385.59 19.8552 388.483 20.4005 391.081 21.4912C393.699 22.5612 395.933 24.0737 397.783 26.0285C399.653 27.9834 401.1 30.3293 402.123 33.0661C403.147 35.7823 403.659 38.7867 403.659 42.0791ZM396.602 42.0791C396.602 39.5274 396.268 37.233 395.598 35.1959C394.949 33.1587 394.004 31.4404 392.764 30.0412C391.544 28.6419 390.058 27.5718 388.306 26.8311C386.554 26.0697 384.586 25.689 382.401 25.689L373.278 25.689L373.278 58.4691L382.401 58.4691C384.586 58.4691 386.554 58.0987 388.306 57.3579C390.058 56.6172 391.544 55.5471 392.764 54.1478C394.004 52.728 394.949 51.0098 395.598 48.9932C396.268 46.956 396.602 44.6513 396.602 42.0791ZM451.208 42.0791C451.208 45.3715 450.696 48.4067 449.672 51.1847C448.649 53.9627 447.202 56.3599 445.332 58.3765C443.482 60.3726 441.248 61.9365 438.63 63.0682C436.032 64.2 433.139 64.7659 429.95 64.7659C426.781 64.7659 423.888 64.2 421.27 63.0682C418.672 61.9365 416.438 60.3726 414.568 58.3765C412.698 56.3599 411.251 53.9626 410.228 51.1847C409.204 48.4067 408.692 45.3715 408.692 42.0791C408.692 38.7867 409.204 35.7515 410.228 32.9735C411.251 30.1955 412.698 27.7982 414.568 25.7816C416.438 23.765 418.672 22.1908 421.27 21.059C423.888 19.9273 426.781 19.3614 429.95 19.3614C433.139 19.3614 436.032 19.9273 438.63 21.059C441.248 22.1908 443.482 23.765 445.332 25.7816C447.202 27.7982 448.649 30.1955 449.672 32.9735C450.696 35.7515 451.208 38.7867 451.208 42.0791ZM444.151 42.0791C444.151 39.5275 443.817 37.233 443.148 35.1959C442.498 33.1587 441.553 31.4302 440.313 30.0103C439.093 28.5904 437.607 27.4998 435.855 26.7385C434.103 25.9771 432.135 25.5964 429.95 25.5964C427.785 25.5964 425.827 25.9771 424.075 26.7385C422.323 27.4998 420.827 28.5904 419.587 30.0103C418.347 31.4302 417.392 33.1587 416.723 35.1959C416.054 37.233 415.719 39.5275 415.719 42.0791C415.719 44.6513 416.054 46.956 416.723 48.9932C417.392 51.0303 418.347 52.7589 419.587 54.1787C420.827 55.578 422.323 56.6583 424.075 57.4197C425.826 58.1605 427.785 58.5309 429.95 58.5309C432.135 58.5309 434.103 58.1605 435.855 57.4197C437.607 56.6583 439.093 55.578 440.313 54.1787C441.553 52.7589 442.498 51.0303 443.148 48.9932C443.817 46.956 444.151 44.6513 444.151 42.0791ZM493.027 19.8553L475.784 64.3029L469.555 64.3029L452.312 19.8553L457.833 19.8553C458.444 19.8553 458.936 20.0199 459.31 20.3491C459.684 20.6578 459.969 21.0488 460.166 21.522L471.119 50.5056C471.71 52.1312 472.251 54.0038 472.743 56.1233C472.96 55.0738 473.186 54.0758 473.422 53.1293C473.678 52.1827 473.954 51.3081 474.249 50.5056L485.173 21.522C485.331 21.1105 485.606 20.7298 486 20.38C486.393 20.0302 486.886 19.8553 487.476 19.8553L493.027 19.8553ZM524.532 58.4692L524.502 64.3029L497.989 64.3029L497.989 19.8553L524.502 19.8553L524.502 25.689L504.927 25.689L504.927 39.085L520.575 39.085L520.575 44.7336L504.927 44.7336L504.927 58.4692L524.532 58.4692ZM544.352 41.1531C545.927 41.1531 547.305 40.9576 548.486 40.5666C549.667 40.1551 550.651 39.5892 551.438 38.869C552.226 38.1488 552.816 37.2948 553.21 36.3071C553.603 35.2988 553.8 34.1876 553.8 32.9735C553.8 30.5453 553.033 28.6934 551.497 27.4175C549.962 26.1417 547.639 25.5038 544.53 25.5038L538.92 25.5038L538.92 41.1531L544.352 41.1531ZM564.37 64.3029L558.199 64.3029C556.979 64.3029 556.093 63.8091 555.542 62.8213L545.622 47.8511C545.287 47.3367 544.923 46.9663 544.53 46.7399C544.136 46.5136 543.545 46.4004 542.758 46.4004L538.92 46.4004L538.92 64.3029L532.011 64.3029L532.011 19.8553L544.53 19.8553C547.325 19.8553 549.726 20.1536 551.734 20.7504C553.761 21.3471 555.424 22.2011 556.723 23.3123C558.022 24.4029 558.977 25.7199 559.587 27.2632C560.217 28.8065 560.532 30.5248 560.532 32.4179C560.532 33.9612 560.305 35.4017 559.853 36.7392C559.42 38.0768 558.78 39.2908 557.934 40.3814C557.107 41.4721 556.083 42.4186 554.863 43.2212C553.643 44.0237 552.255 44.6513 550.7 45.104C551.547 45.639 552.275 46.3901 552.885 47.3573L564.37 64.3029Z" fill="#F8FAFC"/>
<path d="M7.64205 27.9727L1.52588e-05 27.9727L6.17889e-06 79.9036L7.64204 79.9036L7.64205 27.9727Z" fill="#F8FAFC"/>
<path d="M42.0293 3.99805L34.3873 3.99805L34.3873 35.9556L42.0293 35.9556L42.0293 3.99805Z" fill="#F8FAFC"/>
<path d="M34.3912 75.8994L42.0332 75.8994L42.0332 43.9419L34.3912 43.9419L34.3912 75.8994Z" fill="#F8FAFC"/>
<path d="M42.0332 7.98939L42.0332 0L19.1071 -4.00852e-06L19.1071 7.98939L42.0332 7.98939Z" fill="#F8FAFC"/>
<path d="M34.3873 71.909L34.3873 79.8984L57.3133 79.8984L57.3133 71.9091L34.3873 71.909Z" fill="#F8FAFC"/>
<path d="M76.4215 1.33618e-06L68.7795 0L68.7795 55.9256L76.4215 55.9256L76.4215 1.33618e-06Z" fill="#F8FAFC"/>
<path d="M19.1064 0L26.7485 1.33619e-06L26.7485 79.8939L19.1064 79.8939L19.1064 0Z" fill="#F8FAFC"/>
<path d="M57.3152 1.33617e-06L49.6732 0L49.6731 79.8939L57.3152 79.8939L57.3152 1.33617e-06Z" fill="#F8FAFC"/>
</g>
<defs>
<clipPath id="clip0_25_143">
<rect width="565.885" height="82.3105" fill="white"/>
</clipPath>
</defs>
</svg>
