<svg width="40" height="40" viewBox="0 0 40 40" fill="none" xmlns="http://www.w3.org/2000/svg">
<rect x="0.5" y="0.5" width="39" height="39" rx="19.5" stroke="#CBD5E1"/>
<path d="M20 9.17188C21.2805 9.17188 22.5086 9.68049 23.4141 10.5859C24.3195 11.4914 24.8281 12.7195 24.8281 14V20L24.8223 20.2393C24.7618 21.4321 24.2607 22.5635 23.4121 23.4121C22.507 24.3172 21.28 24.8266 20 24.8281L19.7607 24.8223C18.5679 24.7618 17.4365 24.2607 16.5879 23.4121C15.6828 22.507 15.1734 21.28 15.1719 20V14C15.1719 12.7195 15.6805 11.4914 16.5859 10.5859C17.4914 9.68049 18.7195 9.17188 20 9.17188ZM20 11.3281C19.2914 11.3281 18.6114 11.6093 18.1104 12.1104C17.6093 12.6114 17.3281 13.2914 17.3281 14V20C17.3281 20.7086 17.6093 21.3886 18.1104 21.8896C18.6114 22.3907 19.2914 22.6719 20 22.6719C20.7086 22.6719 21.3886 22.3907 21.8896 21.8896C22.3907 21.3886 22.6719 20.7086 22.6719 20V14C22.6719 13.2914 22.3907 12.6114 21.8896 12.1104C21.3886 11.6093 20.7086 11.3281 20 11.3281ZM18.9219 28.5107L18.8809 28.5059C16.8185 28.2317 14.9255 27.2175 13.5537 25.6533C12.1821 24.0891 11.4245 22.0804 11.4219 20C11.4219 19.7141 11.5351 19.4395 11.7373 19.2373C11.9395 19.0351 12.2141 18.9219 12.5 18.9219C12.7859 18.9219 13.0605 19.0351 13.2627 19.2373C13.4649 19.4395 13.5781 19.7141 13.5781 20C13.5781 21.7032 14.2546 23.3367 15.459 24.541C16.6633 25.7453 18.2968 26.4219 20 26.4219C21.7032 26.4219 23.3367 25.7453 24.541 24.541C25.7454 23.3367 26.4219 21.7032 26.4219 20C26.4219 19.7141 26.5351 19.4395 26.7373 19.2373C26.9395 19.0351 27.2141 18.9219 27.5 18.9219C27.7859 18.9219 28.0605 19.0351 28.2627 19.2373C28.4649 19.4395 28.5781 19.7141 28.5781 20L28.5684 20.3887C28.478 22.3295 27.7323 24.1868 26.4463 25.6533C25.0745 27.2175 23.1815 28.2317 21.1191 28.5059L21.0781 28.5107V30.5C21.0781 30.7859 20.9649 31.0605 20.7627 31.2627C20.5605 31.4649 20.2859 31.5781 20 31.5781C19.7141 31.5781 19.4395 31.4649 19.2373 31.2627C19.0351 31.0605 18.9219 30.7859 18.9219 30.5V28.5107Z" fill="#475569" stroke="#475569" stroke-width="0.09375"/>
</svg>
