<svg width="454" height="406" viewBox="0 0 454 406" fill="none" xmlns="http://www.w3.org/2000/svg">
<path opacity="0.2" d="M440.282 -2.31825L440.796 -2.3194L440.796 -2.32134L440.282 -2.31825ZM440.501 95.7665L439.986 95.7676L439.987 96.2767L440.496 96.281L440.501 95.7665ZM453.051 95.8748L453.565 95.8793L453.57 95.3647L453.055 95.3603L453.051 95.8748ZM453.042 96.9041L453.038 97.4187L453.552 97.4231L453.557 96.9086L453.042 96.9041ZM440.503 96.7958L440.508 96.2813L439.988 96.2768L439.989 96.797L440.503 96.7958ZM440.621 149.139L440.106 149.14L440.107 149.649L440.616 149.653L440.621 149.139ZM452.584 149.243L453.099 149.247L453.103 148.733L452.589 148.728L452.584 149.243ZM452.575 150.272L452.571 150.787L453.085 150.791L453.09 150.277L452.575 150.272ZM440.622 150.168L440.627 149.653L440.107 149.649L440.108 150.169L440.622 150.168ZM440.737 201.864L440.223 201.866L440.224 202.375L440.733 202.379L440.737 201.864ZM452.115 201.963L452.119 201.448L452.119 201.448L452.115 201.963ZM452.25 201.964L452.764 201.968L452.769 201.454L452.254 201.449L452.25 201.964ZM452.239 203.246L452.234 203.76L452.749 203.765L452.753 203.25L452.239 203.246ZM452.104 203.245L452.108 202.73L452.108 202.73L452.104 203.245ZM440.74 203.147L440.744 202.632L440.224 202.628L440.225 203.148L440.74 203.147ZM440.855 254.721L440.34 254.722L440.342 255.231L440.851 255.235L440.855 254.721ZM451.649 254.814L451.653 254.299L451.653 254.299L451.649 254.814ZM451.783 254.815L452.298 254.82L452.302 254.305L451.788 254.301L451.783 254.815ZM451.772 256.097L451.768 256.612L452.282 256.616L452.287 256.102L451.772 256.097ZM451.637 256.096L451.642 255.582L451.642 255.582L451.637 256.096ZM440.858 256.003L440.862 255.489L440.342 255.484L440.343 256.004L440.858 256.003ZM440.973 307.577L440.458 307.579L440.459 308.088L440.968 308.092L440.973 307.577ZM451.182 307.665L451.187 307.151L451.187 307.151L451.182 307.665ZM451.317 307.667L451.832 307.671L451.836 307.157L451.322 307.152L451.317 307.667ZM451.306 308.949L451.301 309.463L451.816 309.468L451.82 308.953L451.306 308.949ZM451.171 308.948L451.176 308.433L451.176 308.433L451.171 308.948ZM440.976 308.86L440.981 308.345L440.46 308.341L440.462 308.861L440.976 308.86ZM441.193 405.288L440.678 405.289L440.678 405.291L441.193 405.288ZM441.194 405.425L441.19 405.939L441.711 405.943L441.708 405.422L441.194 405.425ZM440.284 405.418L439.77 405.417L439.769 405.929L440.28 405.933L440.284 405.418ZM440.285 405.285L440.799 405.286L440.799 405.284L440.285 405.285ZM440.068 308.852L440.583 308.851L440.581 308.342L440.072 308.337L440.068 308.852ZM387.46 308.398L387.464 307.884L386.944 307.879L386.945 308.4L387.46 308.398ZM387.676 404.828L387.162 404.829L387.162 404.831L387.676 404.828ZM387.677 404.964L387.673 405.479L388.195 405.483L388.192 404.962L387.677 404.964ZM386.768 404.958L386.253 404.957L386.253 405.468L386.764 405.472L386.768 404.958ZM386.768 404.825L387.283 404.825L387.283 404.824L386.768 404.825ZM386.551 308.39L387.066 308.389L387.065 307.88L386.556 307.876L386.551 308.39ZM333.731 307.936L333.736 307.422L333.214 307.417L333.217 307.938L333.731 307.936ZM334.161 404.367L333.646 404.37L333.646 404.37L334.161 404.367ZM334.161 404.504L334.157 405.019L334.679 405.023L334.676 404.501L334.161 404.504ZM333.125 404.495L332.611 404.498L332.614 405.005L333.121 405.01L333.125 404.495ZM333.125 404.362L332.61 404.365L332.61 404.365L333.125 404.362ZM332.694 307.927L333.209 307.925L333.206 307.417L332.699 307.413L332.694 307.927ZM279.399 307.468L279.404 306.953L278.883 306.949L278.885 307.469L279.399 307.468ZM279.616 403.898L279.101 403.899L279.101 403.901L279.616 403.898ZM279.617 404.035L279.612 404.549L280.134 404.554L280.131 404.032L279.617 404.035ZM278.707 404.027L278.193 404.026L278.192 404.537L278.703 404.541L278.707 404.027ZM278.708 403.894L279.222 403.895L279.222 403.893L278.708 403.894ZM278.491 307.46L279.006 307.459L279.005 306.95L278.495 306.945L278.491 307.46ZM225.883 307.007L225.887 306.493L225.367 306.488L225.368 307.008L225.883 307.007ZM226.099 403.438L225.585 403.439L225.585 403.441L226.099 403.438ZM226.1 403.574L226.095 404.089L226.617 404.094L226.615 403.572L226.1 403.574ZM225.19 403.566L224.675 403.57L224.678 404.077L225.185 404.081L225.19 403.566ZM225.189 403.434L224.674 403.435L224.674 403.437L225.189 403.434ZM224.973 306.999L225.487 306.998L225.486 306.489L224.977 306.485L224.973 306.999ZM172.153 306.544L172.158 306.03L171.636 306.025L171.639 306.546L172.153 306.544ZM172.584 402.977L172.069 402.98L172.069 402.98L172.584 402.977ZM172.584 403.114L172.58 403.629L173.102 403.633L173.099 403.111L172.584 403.114ZM171.546 403.105L171.032 403.108L171.035 403.615L171.542 403.62L171.546 403.105ZM171.546 402.972L171.031 402.974L171.031 402.975L171.546 402.972ZM171.116 306.535L171.631 306.533L171.628 306.025L171.121 306.02L171.116 306.535ZM115.977 306.061L115.981 305.546L115.462 305.541L115.462 306.061L115.977 306.061ZM115.979 402.492L116.494 402.493L116.494 402.492L115.979 402.492ZM115.979 402.628L115.975 403.142L116.493 403.147L116.494 402.628L115.979 402.628ZM115.199 402.621L114.684 402.624L114.687 403.131L115.194 403.135L115.199 402.621ZM115.198 402.487L114.683 402.487L114.683 402.49L115.198 402.487ZM115.195 306.054L115.71 306.054L115.71 305.544L115.2 305.539L115.195 306.054ZM64.3056 305.615L64.3101 305.101L63.7899 305.096L63.791 305.616L64.3056 305.615ZM64.5222 402.048L64.0076 402.049L64.0076 402.05L64.5222 402.048ZM64.5229 402.184L64.5185 402.699L65.0404 402.703L65.0375 402.181L64.5229 402.184ZM63.6138 402.176L63.0992 402.176L63.0985 402.686L63.6093 402.691L63.6138 402.176ZM63.614 402.044L64.1286 402.044L64.1286 402.042L63.614 402.044ZM63.3975 305.607L63.9121 305.606L63.9109 305.097L63.4019 305.093L63.3975 305.607ZM10.5762 305.153L10.5806 304.638L10.0593 304.634L10.0616 305.155L10.5762 305.153ZM11.0056 401.587L10.491 401.589L10.491 401.59L11.0056 401.587ZM11.0064 401.724L11.0019 402.238L11.5239 402.243L11.521 401.721L11.0064 401.724ZM9.97028 401.715L9.45569 401.718L9.45873 402.225L9.96579 402.229L9.97028 401.715ZM9.96948 401.582L9.45488 401.584L9.45489 401.585L9.96948 401.582ZM9.53911 305.144L10.0537 305.142L10.0514 304.634L9.54354 304.629L9.53911 305.144ZM-72.6688 304.437L-72.6733 304.951L-72.6732 304.951L-72.6688 304.437ZM-72.8035 304.435L-73.3181 304.431L-73.3226 304.945L-72.808 304.95L-72.8035 304.435ZM-72.7924 303.153L-72.7879 302.639L-73.3025 302.634L-73.307 303.149L-72.7924 303.153ZM-72.6576 303.154L-72.6621 303.669L-72.662 303.669L-72.6576 303.154ZM9.53368 303.862L9.52925 304.376L10.0506 304.381L10.0483 303.859L9.53368 303.862ZM9.30427 252.286L9.81886 252.284L9.8166 251.776L9.3087 251.772L9.30427 252.286ZM-72.2025 251.585L-72.207 252.1L-72.2069 252.1L-72.2025 251.585ZM-72.3372 251.584L-72.8518 251.579L-72.8563 252.094L-72.3417 252.098L-72.3372 251.584ZM-72.3261 250.302L-72.3216 249.787L-72.8362 249.783L-72.8406 250.297L-72.3261 250.302ZM-72.1913 250.303L-72.1958 250.817L-72.1957 250.817L-72.1913 250.303ZM9.29884 251.004L9.29441 251.519L9.81576 251.523L9.81343 251.002L9.29884 251.004ZM9.06944 199.429L9.58403 199.427L9.58177 198.919L9.07387 198.914L9.06944 199.429ZM-71.7362 198.734L-71.7406 199.248L-71.7406 199.248L-71.7362 198.734ZM-71.8709 198.732L-72.3855 198.728L-72.39 199.243L-71.8754 199.247L-71.8709 198.732ZM-71.8598 197.45L-71.8553 196.936L-72.3698 196.931L-72.3743 197.446L-71.8598 197.45ZM-71.725 197.451L-71.7295 197.966L-71.7294 197.966L-71.725 197.451ZM9.06401 198.147L9.05958 198.661L9.58091 198.666L9.5786 198.144L9.06401 198.147ZM8.83409 146.406L9.34868 146.404L9.34642 145.896L8.83857 145.892L8.83409 146.406ZM-71.2654 145.708L-71.78 145.704L-71.7845 146.218L-71.2699 146.223L-71.2654 145.708ZM-71.2564 144.679L-71.252 144.165L-71.7665 144.16L-71.771 144.675L-71.2564 144.679ZM8.82938 145.377L8.8249 145.891L9.3463 145.896L9.34397 145.375L8.82938 145.377ZM8.5965 93.0799L9.11109 93.0776L9.10883 92.5697L8.60093 92.5653L8.5965 93.0799ZM-70.798 92.397L-71.3126 92.3925L-71.3171 92.9071L-70.8024 92.9115L-70.798 92.397ZM-70.7891 91.3677L-70.7846 90.8531L-71.2992 90.8487L-71.3036 91.3632L-70.7891 91.3677ZM8.5918 92.0505L8.58737 92.5651L9.1087 92.5696L9.10638 92.0482L8.5918 92.0505ZM8.15622 -6.03222L8.67081 -6.0345L8.67081 -6.03509L8.15622 -6.03222ZM8.15546 -6.16895L8.15994 -6.68353L7.63796 -6.68807L7.64087 -6.16608L8.15546 -6.16895ZM9.19448 -6.1599L9.70907 -6.16298L9.70603 -6.67006L9.19896 -6.67447L9.19448 -6.1599ZM9.19528 -6.02707L9.70987 -6.02936L9.70986 -6.03016L9.19528 -6.02707ZM9.63082 92.0595L9.11623 92.0618L9.11848 92.5698L9.62639 92.5741L9.63082 92.0595ZM62.9208 92.518L62.9164 93.0325L63.4366 93.037L63.4354 92.5168L62.9208 92.518ZM62.7021 -5.56384L62.1875 -5.56462L62.1875 -5.56269L62.7021 -5.56384ZM62.7023 -5.69959L62.7067 -6.21417L62.1885 -6.21868L62.1877 -5.70037L62.7023 -5.69959ZM63.6104 -5.69168L64.125 -5.69476L64.122 -6.20184L63.6149 -6.20625L63.6104 -5.69168ZM63.6112 -5.55885L64.1258 -5.56L64.1258 -5.56193L63.6112 -5.55885ZM63.83 92.5259L63.3154 92.527L63.3165 93.0361L63.8256 93.0405L63.83 92.5259ZM115.19 92.9675L115.186 93.4821L115.705 93.4865L115.705 92.9675L115.19 92.9675ZM115.188 -5.11243L114.674 -5.11321L114.674 -5.11242L115.188 -5.11243ZM115.189 -5.24818L115.193 -5.76276L114.675 -5.76727L114.674 -5.24896L115.189 -5.24818ZM115.97 -5.24137L116.484 -5.24064L116.485 -5.7515L115.974 -5.75595L115.97 -5.24137ZM115.97 -5.10758L115.455 -5.10831L115.455 -5.10757L115.97 -5.10758ZM115.972 92.9743L115.457 92.9743L115.457 93.4845L115.967 93.4889L115.972 92.9743ZM170.169 93.4406L170.164 93.9552L170.686 93.9597L170.683 93.4383L170.169 93.4406ZM169.733 -4.64211L170.248 -4.6444L170.248 -4.64498L169.733 -4.64211ZM169.732 -4.77884L169.737 -5.29342L169.215 -5.29797L169.218 -4.77598L169.732 -4.77884ZM170.77 -4.76981L171.284 -4.77289L171.281 -5.27997L170.774 -5.28439L170.77 -4.76981ZM170.77 -4.63698L171.285 -4.63927L171.285 -4.64007L170.77 -4.63698ZM171.206 93.4496L170.691 93.4519L170.694 93.9598L171.201 93.9642L171.206 93.4496ZM224.498 93.9081L224.493 94.4226L225.014 94.4271L225.012 93.9069L224.498 93.9081ZM224.279 -4.17374L223.764 -4.17452L223.764 -4.17259L224.279 -4.17374ZM224.279 -4.30948L224.284 -4.82406L223.765 -4.82858L223.765 -4.31026L224.279 -4.30948ZM225.187 -4.30157L225.702 -4.30465L225.699 -4.81173L225.192 -4.81615L225.187 -4.30157ZM225.188 -4.16875L225.703 -4.16989L225.703 -4.17183L225.188 -4.16875ZM225.407 93.916L224.892 93.9171L224.894 94.4262L225.403 94.4306L225.407 93.916ZM278.013 94.3684L278.009 94.883L278.529 94.8875L278.528 94.3673L278.013 94.3684ZM277.795 -3.71336L277.28 -3.71414L277.28 -3.71221L277.795 -3.71336ZM277.795 -3.84911L277.799 -4.36368L277.281 -4.3682L277.28 -3.84989L277.795 -3.84911ZM278.705 -3.84118L279.22 -3.84048L279.22 -4.3513L278.709 -4.35575L278.705 -3.84118ZM278.705 -3.70836L278.19 -3.70906L278.19 -3.70721L278.705 -3.70836ZM278.924 94.3764L278.409 94.3775L278.41 94.8866L278.919 94.8909L278.924 94.3764ZM331.747 94.8307L331.742 95.3453L332.264 95.3498L332.261 94.8284L331.747 94.8307ZM331.311 -3.252L331.826 -3.25428L331.826 -3.25487L331.311 -3.252ZM331.31 -3.38873L331.315 -3.90331L330.793 -3.90785L330.796 -3.38586L331.31 -3.38873ZM332.35 -3.37968L332.864 -3.38276L332.861 -3.88984L332.354 -3.89425L332.35 -3.37968ZM332.35 -3.24685L332.865 -3.24914L332.865 -3.24994L332.35 -3.24685ZM332.786 94.8398L332.271 94.842L332.274 95.35L332.781 95.3543L332.786 94.8398ZM386.075 95.2982L386.07 95.8127L386.591 95.8172L386.589 95.297L386.075 95.2982ZM385.856 -2.78363L385.342 -2.78441L385.342 -2.78248L385.856 -2.78363ZM385.856 -2.91938L385.861 -3.43395L385.343 -3.43847L385.342 -2.92016L385.856 -2.91938ZM386.764 -2.91146L387.279 -2.91455L387.276 -3.42162L386.769 -3.42604L386.764 -2.91146ZM386.765 -2.77864L387.28 -2.77979L387.28 -2.78172L386.765 -2.77864ZM386.984 95.3061L386.469 95.3072L386.471 95.8163L386.98 95.8207L386.984 95.3061ZM439.591 95.7586L439.587 96.2731L440.107 96.2776L440.106 95.7574L439.591 95.7586ZM439.373 -2.32325L438.858 -2.32403L438.858 -2.3221L439.373 -2.32325ZM439.373 -2.45899L439.377 -2.97357L438.859 -2.97808L438.858 -2.45977L439.373 -2.45899ZM440.281 -2.45108L440.796 -2.45416L440.793 -2.96124L440.286 -2.96566L440.281 -2.45108ZM10.3413 252.295L10.3458 251.781L9.82443 251.776L9.82675 252.298L10.3413 252.295ZM10.5707 303.871L10.0562 303.873L10.0584 304.381L10.5663 304.385L10.5707 303.871ZM63.394 304.325L63.3896 304.84L63.9098 304.844L63.9086 304.324L63.394 304.325ZM63.2788 252.752L63.7934 252.751L63.7923 252.242L63.2833 252.237L63.2788 252.752ZM64.188 252.759L64.1924 252.244L63.6722 252.24L63.6734 252.76L64.188 252.759ZM64.3031 304.333L63.7885 304.334L63.7897 304.843L64.2987 304.848L64.3031 304.333ZM115.195 304.771L115.19 305.286L115.709 305.291L115.709 304.771L115.195 304.771ZM115.194 253.198L115.708 253.198L115.708 252.688L115.198 252.684L115.194 253.198ZM115.975 253.205L115.98 252.69L115.461 252.686L115.461 253.205L115.975 253.205ZM115.976 304.778L115.461 304.778L115.461 305.288L115.972 305.293L115.976 304.778ZM171.111 305.253L171.106 305.767L171.628 305.772L171.625 305.25L171.111 305.253ZM170.881 253.677L171.396 253.675L171.394 253.167L170.886 253.163L170.881 253.677ZM171.918 253.687L171.923 253.172L171.401 253.167L171.404 253.689L171.918 253.687ZM172.148 305.262L171.633 305.264L171.635 305.772L172.143 305.776L172.148 305.262ZM224.97 305.717L224.966 306.232L225.486 306.236L225.485 305.716L224.97 305.717ZM224.855 254.143L225.369 254.142L225.368 253.633L224.859 253.628L224.855 254.143ZM225.765 254.151L225.769 253.636L225.249 253.632L225.25 254.152L225.765 254.151ZM225.88 305.725L225.366 305.726L225.367 306.235L225.876 306.24L225.88 305.725ZM278.488 306.177L278.483 306.692L279.003 306.697L279.002 306.176L278.488 306.177ZM278.372 254.603L278.887 254.602L278.886 254.093L278.377 254.089L278.372 254.603ZM279.282 254.611L279.286 254.097L278.766 254.092L278.767 254.612L279.282 254.611ZM279.397 306.185L278.882 306.187L278.883 306.696L279.392 306.7L279.397 306.185ZM332.689 306.645L332.684 307.159L333.206 307.164L333.203 306.643L332.689 306.645ZM332.459 255.07L332.974 255.067L332.972 254.559L332.464 254.555L332.459 255.07ZM333.496 255.079L333.501 254.564L332.979 254.56L332.982 255.081L333.496 255.079ZM333.726 306.654L333.211 306.656L333.213 307.164L333.721 307.168L333.726 306.654ZM386.548 307.108L386.544 307.623L387.064 307.627L387.063 307.107L386.548 307.108ZM386.433 255.534L386.947 255.533L386.946 255.024L386.437 255.019L386.433 255.534ZM387.341 255.542L387.345 255.027L386.825 255.023L386.826 255.543L387.341 255.542ZM387.456 307.116L386.942 307.117L386.943 307.626L387.452 307.631L387.456 307.116ZM440.065 307.57L440.06 308.084L440.58 308.089L440.579 307.568L440.065 307.57ZM439.949 255.995L440.464 255.994L440.463 255.485L439.954 255.481L439.949 255.995ZM10.1065 199.438L10.1109 198.923L9.58961 198.919L9.59192 199.44L10.1065 199.438ZM10.3349 251.013L9.82035 251.015L9.82259 251.523L10.3305 251.528L10.3349 251.013ZM63.2763 251.469L63.2719 251.984L63.7921 251.989L63.7909 251.468L63.2763 251.469ZM63.1612 199.895L63.6758 199.894L63.6746 199.385L63.1656 199.381L63.1612 199.895ZM64.0703 199.903L64.0747 199.389L63.5546 199.384L63.5557 199.904L64.0703 199.903ZM64.1855 251.476L63.6709 251.478L63.672 251.987L64.181 251.991L64.1855 251.476ZM115.193 251.916L115.189 252.43L115.708 252.435L115.708 251.916L115.193 251.916ZM115.192 200.343L115.707 200.343L115.707 199.832L115.197 199.828L115.192 200.343ZM115.974 200.349L115.978 199.835L115.459 199.83L115.459 200.349L115.974 200.349ZM115.975 251.923L115.46 251.923L115.46 252.433L115.97 252.437L115.975 251.923ZM170.875 252.395L170.87 252.91L171.392 252.914L171.389 252.393L170.875 252.395ZM170.646 200.821L171.161 200.819L171.159 200.311L170.651 200.306L170.646 200.821ZM171.684 200.829L171.688 200.314L171.167 200.31L171.169 200.831L171.684 200.829ZM171.913 252.404L171.398 252.406L171.401 252.914L171.908 252.919L171.913 252.404ZM224.852 252.861L224.848 253.375L225.368 253.38L225.367 252.859L224.852 252.861ZM224.737 201.286L225.252 201.285L225.251 200.776L224.742 200.772L224.737 201.286ZM225.647 201.294L225.652 200.78L225.132 200.775L225.133 201.295L225.647 201.294ZM225.762 252.868L225.248 252.87L225.249 253.379L225.758 253.383L225.762 252.868ZM278.369 253.321L278.365 253.835L278.885 253.84L278.884 253.32L278.369 253.321ZM278.254 201.747L278.768 201.746L278.767 201.236L278.258 201.232L278.254 201.747ZM279.164 201.755L279.168 201.24L278.648 201.236L278.649 201.756L279.164 201.755ZM279.279 253.329L278.764 253.33L278.766 253.839L279.275 253.843L279.279 253.329ZM332.454 253.787L332.449 254.302L332.971 254.306L332.968 253.785L332.454 253.787ZM332.224 202.212L332.739 202.21L332.737 201.702L332.229 201.697L332.224 202.212ZM333.262 202.221L333.266 201.706L332.745 201.702L332.747 202.223L333.262 202.221ZM333.49 253.796L332.975 253.799L332.978 254.306L333.486 254.311L333.49 253.796ZM386.43 254.252L386.426 254.766L386.946 254.771L386.945 254.25L386.43 254.252ZM386.315 202.677L386.83 202.676L386.829 202.167L386.32 202.163L386.315 202.677ZM387.223 202.685L387.228 202.171L386.708 202.166L386.709 202.686L387.223 202.685ZM387.339 254.26L386.824 254.261L386.825 254.77L387.334 254.774L387.339 254.26ZM439.947 254.713L439.943 255.228L440.463 255.232L440.462 254.712L439.947 254.713ZM439.832 203.139L440.346 203.138L440.345 202.629L439.836 202.624L439.832 203.139ZM10.1011 198.156L9.58649 198.158L9.58874 198.666L10.0966 198.67L10.1011 198.156ZM63.1587 198.613L63.1542 199.128L63.6744 199.132L63.6733 198.612L63.1587 198.613ZM63.043 146.879L63.5576 146.877L63.5564 146.368L63.0474 146.364L63.043 146.879ZM9.87116 146.415L9.87564 145.901L9.35424 145.896L9.35657 146.418L9.87116 146.415ZM64.0668 198.621L63.5522 198.622L63.5534 199.131L64.0624 199.135L64.0668 198.621ZM115.192 199.06L115.187 199.575L115.707 199.579L115.706 199.06L115.192 199.06ZM115.191 147.333L115.706 147.333L115.706 146.823L115.196 146.818L115.191 147.333ZM63.9521 146.886L63.9566 146.372L63.4364 146.367L63.4375 146.888L63.9521 146.886ZM115.973 199.067L115.459 199.067L115.459 199.577L115.969 199.582L115.973 199.067ZM170.64 199.539L170.636 200.053L171.157 200.058L171.155 199.536L170.64 199.539ZM170.411 147.814L170.926 147.812L170.923 147.304L170.415 147.299L170.411 147.814ZM115.973 147.34L115.977 146.825L115.458 146.821L115.458 147.34L115.973 147.34ZM171.678 199.547L171.163 199.549L171.166 200.057L171.674 200.061L171.678 199.547ZM224.734 200.004L224.729 200.519L225.25 200.523L225.248 200.003L224.734 200.004ZM224.619 148.286L225.133 148.285L225.132 147.776L224.623 147.772L224.619 148.286ZM171.448 147.823L171.453 147.308L170.931 147.304L170.933 147.825L171.448 147.823ZM225.644 200.012L225.129 200.013L225.13 200.522L225.639 200.526L225.644 200.012ZM278.251 200.464L278.247 200.979L278.767 200.983L278.766 200.463L278.251 200.464ZM278.135 148.752L278.65 148.751L278.649 148.242L278.14 148.238L278.135 148.752ZM225.529 148.294L225.533 147.78L225.013 147.775L225.014 148.295L225.529 148.294ZM279.16 200.472L278.646 200.473L278.647 200.982L279.156 200.987L279.16 200.472ZM332.218 200.93L332.214 201.444L332.735 201.449L332.733 200.927L332.218 200.93ZM331.989 149.222L332.503 149.219L332.501 148.711L331.993 148.707L331.989 149.222ZM279.046 148.76L279.05 148.246L278.53 148.241L278.531 148.761L279.046 148.76ZM333.256 200.939L332.741 200.941L332.744 201.449L333.252 201.453L333.256 200.939ZM386.312 201.395L386.307 201.91L386.827 201.914L386.826 201.394L386.312 201.395ZM386.197 149.694L386.711 149.693L386.71 149.184L386.201 149.179L386.197 149.694ZM333.027 149.231L333.031 148.716L332.51 148.712L332.512 149.233L333.027 149.231ZM387.221 201.403L386.706 201.404L386.707 201.913L387.216 201.918L387.221 201.403ZM439.828 201.856L439.824 202.371L440.344 202.375L440.343 201.855L439.828 201.856ZM439.713 150.16L440.228 150.159L440.227 149.65L439.718 149.646L439.713 150.16ZM387.106 149.702L387.11 149.187L386.59 149.183L386.591 149.703L387.106 149.702ZM9.63455 93.0889L9.63898 92.5743L9.11763 92.5698L9.11996 93.0912L9.63455 93.0889ZM9.86743 145.386L9.35284 145.388L9.3551 145.896L9.86295 145.9L9.86743 145.386ZM63.0402 145.849L63.0357 146.364L63.556 146.368L63.5548 145.848L63.0402 145.849ZM62.9236 93.5473L63.4382 93.5462L63.4371 93.0371L62.928 93.0327L62.9236 93.5473ZM63.8327 93.5552L63.8372 93.0407L63.317 93.0362L63.3181 93.5564L63.8327 93.5552ZM63.9494 145.857L63.4348 145.858L63.4359 146.367L63.9449 146.372L63.9494 145.857ZM115.192 146.303L115.187 146.818L115.706 146.823L115.706 146.303L115.192 146.303ZM115.19 93.9968L115.705 93.9968L115.705 93.4866L115.195 93.4822L115.19 93.9968ZM115.971 94.0036L115.976 93.489L115.457 93.4846L115.457 94.0036L115.971 94.0036ZM115.973 146.31L115.458 146.31L115.458 146.82L115.968 146.825L115.973 146.31ZM170.406 146.785L170.402 147.299L170.923 147.304L170.921 146.782L170.406 146.785ZM170.174 94.47L170.688 94.4677L170.686 93.9598L170.178 93.9554L170.174 94.47ZM171.211 94.479L171.215 93.9644L170.694 93.9599L170.696 94.4813L171.211 94.479ZM171.443 146.794L170.929 146.796L170.931 147.304L171.439 147.308L171.443 146.794ZM224.616 147.257L224.612 147.771L225.132 147.776L225.131 147.256L224.616 147.257ZM224.5 94.9374L225.014 94.9363L225.013 94.4272L224.504 94.4228L224.5 94.9374ZM225.41 94.9453L225.414 94.4308L224.894 94.4263L224.895 94.9465L225.41 94.9453ZM225.526 147.265L225.012 147.266L225.013 147.775L225.522 147.779L225.526 147.265ZM278.134 147.723L278.129 148.238L278.649 148.242L278.648 147.722L278.134 147.723ZM278.016 95.3978L278.531 95.3966L278.53 94.8876L278.021 94.8832L278.016 95.3978ZM278.926 95.4057L278.931 94.8912L278.411 94.8867L278.412 95.4069L278.926 95.4057ZM279.044 147.731L278.529 147.732L278.53 148.241L279.039 148.246L279.044 147.731ZM331.984 148.192L331.98 148.707L332.501 148.711L332.499 148.19L331.984 148.192ZM331.752 95.8601L332.266 95.8578L332.264 95.3499L331.756 95.3455L331.752 95.8601ZM332.79 95.8691L332.794 95.3546L332.273 95.3501L332.275 95.8714L332.79 95.8691ZM333.022 148.201L332.508 148.204L332.51 148.711L333.018 148.716L333.022 148.201ZM386.195 148.665L386.19 149.179L386.711 149.184L386.71 148.663L386.195 148.665ZM386.078 96.3275L386.592 96.3264L386.591 95.8173L386.082 95.813L386.078 96.3275ZM386.987 96.3354L386.991 95.8209L386.471 95.8164L386.472 96.3366L386.987 96.3354ZM387.104 148.672L386.589 148.674L386.591 149.183L387.1 149.187L387.104 148.672ZM439.711 149.131L439.707 149.645L440.227 149.65L440.226 149.13L439.711 149.131ZM439.594 96.7879L440.109 96.7868L440.108 96.2777L439.599 96.2733L439.594 96.7879ZM440.282 -2.31825L439.767 -2.31711L439.986 95.7676L440.501 95.7665L441.015 95.7653L440.796 -2.3194L440.282 -2.31825ZM440.501 95.7665L440.496 96.281L453.046 96.3894L453.051 95.8748L453.055 95.3603L440.505 95.2519L440.501 95.7665ZM453.051 95.8748L452.536 95.8704L452.527 96.8996L453.042 96.9041L453.557 96.9086L453.565 95.8793L453.051 95.8748ZM453.042 96.9041L453.046 96.3895L440.508 96.2813L440.503 96.7958L440.499 97.3104L453.038 97.4187L453.042 96.9041ZM440.503 96.7958L439.989 96.797L440.106 149.14L440.621 149.139L441.135 149.138L441.018 96.7947L440.503 96.7958ZM440.621 149.139L440.616 149.653L452.58 149.757L452.584 149.243L452.589 148.728L440.625 148.624L440.621 149.139ZM452.584 149.243L452.069 149.238L452.06 150.268L452.575 150.272L453.09 150.277L453.099 149.247L452.584 149.243ZM452.575 150.272L452.58 149.758L440.627 149.653L440.622 150.168L440.618 150.683L452.571 150.787L452.575 150.272ZM440.622 150.168L440.108 150.169L440.223 201.866L440.737 201.864L441.252 201.863L441.137 150.167L440.622 150.168ZM440.737 201.864L440.733 202.379L452.111 202.477L452.115 201.963L452.119 201.448L440.742 201.35L440.737 201.864ZM452.115 201.963L452.11 202.477L452.245 202.478L452.25 201.964L452.254 201.449L452.119 201.448L452.115 201.963ZM452.25 201.964L451.735 201.959L451.724 203.241L452.239 203.246L452.753 203.25L452.764 201.968L452.25 201.964ZM452.239 203.246L452.243 202.731L452.108 202.73L452.104 203.245L452.099 203.759L452.234 203.76L452.239 203.246ZM452.104 203.245L452.108 202.73L440.744 202.632L440.74 203.147L440.736 203.661L452.099 203.759L452.104 203.245ZM440.74 203.147L440.225 203.148L440.34 254.722L440.855 254.721L441.37 254.72L441.255 203.146L440.74 203.147ZM440.855 254.721L440.851 255.235L451.644 255.329L451.649 254.814L451.653 254.299L440.86 254.206L440.855 254.721ZM451.649 254.814L451.644 255.329L451.779 255.33L451.783 254.815L451.788 254.301L451.653 254.299L451.649 254.814ZM451.783 254.815L451.269 254.811L451.258 256.093L451.772 256.097L452.287 256.102L452.298 254.82L451.783 254.815ZM451.772 256.097L451.777 255.583L451.642 255.582L451.637 256.096L451.633 256.611L451.768 256.612L451.772 256.097ZM451.637 256.096L451.642 255.582L440.862 255.489L440.858 256.003L440.853 256.518L451.633 256.611L451.637 256.096ZM440.858 256.003L440.343 256.004L440.458 307.579L440.973 307.577L441.487 307.576L441.372 256.002L440.858 256.003ZM440.973 307.577L440.968 308.092L451.178 308.18L451.182 307.665L451.187 307.151L440.977 307.063L440.973 307.577ZM451.182 307.665L451.178 308.18L451.313 308.181L451.317 307.667L451.322 307.152L451.187 307.151L451.182 307.665ZM451.317 307.667L450.803 307.662L450.791 308.944L451.306 308.949L451.82 308.953L451.832 307.671L451.317 307.667ZM451.306 308.949L451.31 308.434L451.176 308.433L451.171 308.948L451.167 309.462L451.301 309.463L451.306 308.949ZM451.171 308.948L451.176 308.433L440.981 308.345L440.976 308.86L440.972 309.374L451.167 309.462L451.171 308.948ZM440.976 308.86L440.462 308.861L440.678 405.289L441.193 405.288L441.707 405.287L441.491 308.859L440.976 308.86ZM441.193 405.288L440.678 405.291L440.679 405.428L441.194 405.425L441.708 405.422L441.707 405.285L441.193 405.288ZM441.194 405.425L441.198 404.91L440.288 404.903L440.284 405.418L440.28 405.933L441.19 405.939L441.194 405.425ZM440.284 405.418L440.799 405.419L440.799 405.286L440.285 405.285L439.77 405.284L439.77 405.417L440.284 405.418ZM440.285 405.285L440.799 405.284L440.583 308.851L440.068 308.852L439.553 308.853L439.77 405.286L440.285 405.285ZM440.068 308.852L440.072 308.337L387.464 307.884L387.46 308.398L387.455 308.913L440.064 309.366L440.068 308.852ZM387.46 308.398L386.945 308.4L387.162 404.829L387.676 404.828L388.191 404.827L387.974 308.397L387.46 308.398ZM387.676 404.828L387.162 404.831L387.162 404.967L387.677 404.964L388.192 404.962L388.191 404.825L387.676 404.828ZM387.677 404.964L387.681 404.45L386.772 404.443L386.768 404.958L386.764 405.472L387.673 405.479L387.677 404.964ZM386.768 404.958L387.282 404.958L387.283 404.825L386.768 404.825L386.253 404.824L386.253 404.957L386.768 404.958ZM386.768 404.825L387.283 404.824L387.066 308.389L386.551 308.39L386.037 308.392L386.253 404.826L386.768 404.825ZM386.551 308.39L386.556 307.876L333.736 307.422L333.731 307.936L333.727 308.451L386.547 308.905L386.551 308.39ZM333.731 307.936L333.217 307.938L333.646 404.37L334.161 404.367L334.675 404.365L334.246 307.934L333.731 307.936ZM334.161 404.367L333.646 404.37L333.647 404.507L334.161 404.504L334.676 404.501L334.675 404.365L334.161 404.367ZM334.161 404.504L334.166 403.99L333.13 403.981L333.125 404.495L333.121 405.01L334.157 405.019L334.161 404.504ZM333.125 404.495L333.64 404.492L333.639 404.359L333.125 404.362L332.61 404.365L332.611 404.498L333.125 404.495ZM333.125 404.362L333.639 404.36L333.209 307.925L332.694 307.927L332.18 307.929L332.61 404.365L333.125 404.362ZM332.694 307.927L332.699 307.413L279.404 306.953L279.399 307.468L279.395 307.982L332.69 308.442L332.694 307.927ZM279.399 307.468L278.885 307.469L279.101 403.899L279.616 403.898L280.13 403.897L279.914 307.467L279.399 307.468ZM279.616 403.898L279.101 403.901L279.102 404.038L279.617 404.035L280.131 404.032L280.13 403.895L279.616 403.898ZM279.617 404.035L279.621 403.52L278.712 403.512L278.707 404.027L278.703 404.541L279.612 404.549L279.617 404.035ZM278.707 404.027L279.222 404.028L279.222 403.895L278.708 403.894L278.193 403.893L278.193 404.026L278.707 404.027ZM278.708 403.894L279.222 403.893L279.006 307.459L278.491 307.46L277.976 307.461L278.193 403.895L278.708 403.894ZM278.491 307.46L278.495 306.945L225.887 306.493L225.883 307.007L225.878 307.522L278.487 307.974L278.491 307.46ZM225.883 307.007L225.368 307.008L225.585 403.439L226.099 403.438L226.614 403.436L226.397 307.006L225.883 307.007ZM226.099 403.438L225.585 403.441L225.585 403.577L226.1 403.574L226.615 403.572L226.614 403.435L226.099 403.438ZM226.1 403.574L226.104 403.06L225.194 403.052L225.19 403.566L225.185 404.081L226.095 404.089L226.1 403.574ZM225.19 403.566L225.704 403.563L225.704 403.431L225.189 403.434L224.674 403.437L224.675 403.57L225.19 403.566ZM225.189 403.434L225.704 403.432L225.487 306.998L224.973 306.999L224.458 307.001L224.674 403.435L225.189 403.434ZM224.973 306.999L224.977 306.485L172.158 306.03L172.153 306.544L172.149 307.059L224.968 307.514L224.973 306.999ZM172.153 306.544L171.639 306.546L172.069 402.98L172.584 402.977L173.098 402.975L172.668 306.542L172.153 306.544ZM172.584 402.977L172.069 402.98L172.07 403.117L172.584 403.114L173.099 403.111L173.098 402.974L172.584 402.977ZM172.584 403.114L172.589 402.599L171.551 402.59L171.546 403.105L171.542 403.62L172.58 403.629L172.584 403.114ZM171.546 403.105L172.061 403.102L172.06 402.969L171.546 402.972L171.031 402.975L171.032 403.108L171.546 403.105ZM171.546 402.972L172.06 402.97L171.631 306.533L171.116 306.535L170.602 306.537L171.031 402.974L171.546 402.972ZM171.116 306.535L171.121 306.02L115.981 305.546L115.977 306.061L115.972 306.575L171.112 307.05L171.116 306.535ZM115.977 306.061L115.462 306.061L115.465 402.492L115.979 402.492L116.494 402.492L116.491 306.061L115.977 306.061ZM115.979 402.492L115.465 402.491L115.464 402.627L115.979 402.628L116.494 402.628L116.494 402.493L115.979 402.492ZM115.979 402.628L115.984 402.113L115.203 402.106L115.199 402.621L115.194 403.135L115.975 403.142L115.979 402.628ZM115.199 402.621L115.713 402.618L115.713 402.484L115.198 402.487L114.683 402.49L114.684 402.624L115.199 402.621ZM115.198 402.487L115.713 402.487L115.71 306.054L115.195 306.054L114.681 306.054L114.683 402.487L115.198 402.487ZM115.195 306.054L115.2 305.539L64.3101 305.101L64.3056 305.615L64.3012 306.13L115.191 306.568L115.195 306.054ZM64.3056 305.615L63.791 305.616L64.0076 402.049L64.5222 402.048L65.0368 402.046L64.8202 305.614L64.3056 305.615ZM64.5222 402.048L64.0076 402.05L64.0084 402.187L64.5229 402.184L65.0375 402.181L65.0368 402.045L64.5222 402.048ZM64.5229 402.184L64.5274 401.67L63.6183 401.662L63.6138 402.176L63.6093 402.691L64.5185 402.699L64.5229 402.184ZM63.6138 402.176L64.1284 402.177L64.1286 402.044L63.614 402.044L63.0994 402.043L63.0992 402.176L63.6138 402.176ZM63.614 402.044L64.1286 402.042L63.9121 305.606L63.3975 305.607L62.8829 305.609L63.0994 402.045L63.614 402.044ZM63.3975 305.607L63.4019 305.093L10.5806 304.638L10.5762 305.153L10.5717 305.668L63.393 306.122L63.3975 305.607ZM10.5762 305.153L10.0616 305.155L10.491 401.589L11.0056 401.587L11.5202 401.585L11.0908 305.151L10.5762 305.153ZM11.0056 401.587L10.491 401.59L10.4918 401.727L11.0064 401.724L11.521 401.721L11.5202 401.584L11.0056 401.587ZM11.0064 401.724L11.0109 401.209L9.97476 401.2L9.97028 401.715L9.96579 402.229L11.0019 402.238L11.0064 401.724ZM9.97028 401.715L10.4849 401.712L10.4841 401.579L9.96948 401.582L9.45489 401.585L9.45569 401.718L9.97028 401.715ZM9.96948 401.582L10.4841 401.58L10.0537 305.142L9.53911 305.144L9.02452 305.146L9.45489 401.584L9.96948 401.582ZM9.53911 305.144L9.54354 304.629L-72.6644 303.922L-72.6688 304.437L-72.6732 304.951L9.53468 305.659L9.53911 305.144ZM-72.6688 304.437L-72.6643 303.922L-72.7991 303.921L-72.8035 304.435L-72.808 304.95L-72.6733 304.951L-72.6688 304.437ZM-72.8035 304.435L-72.289 304.44L-72.2778 303.158L-72.7924 303.153L-73.307 303.149L-73.3181 304.431L-72.8035 304.435ZM-72.7924 303.153L-72.7969 303.668L-72.6621 303.669L-72.6576 303.154L-72.6531 302.64L-72.7879 302.639L-72.7924 303.153ZM-72.6576 303.154L-72.662 303.669L9.52925 304.376L9.53368 303.862L9.53811 303.347L-72.6532 302.64L-72.6576 303.154ZM9.53368 303.862L10.0483 303.859L9.81886 252.284L9.30427 252.286L8.78968 252.289L9.01909 303.864L9.53368 303.862ZM9.30427 252.286L9.3087 251.772L-72.198 251.071L-72.2025 251.585L-72.2069 252.1L9.29984 252.801L9.30427 252.286ZM-72.2025 251.585L-72.198 251.071L-72.3328 251.069L-72.3372 251.584L-72.3417 252.098L-72.207 252.1L-72.2025 251.585ZM-72.3372 251.584L-71.8227 251.588L-71.8115 250.306L-72.3261 250.302L-72.8406 250.297L-72.8518 251.579L-72.3372 251.584ZM-72.3261 250.302L-72.3305 250.816L-72.1958 250.817L-72.1913 250.303L-72.1868 249.788L-72.3216 249.787L-72.3261 250.302ZM-72.1913 250.303L-72.1957 250.817L9.29441 251.519L9.29884 251.004L9.30327 250.49L-72.1869 249.788L-72.1913 250.303ZM9.29884 251.004L9.81343 251.002L9.58403 199.427L9.06944 199.429L8.55485 199.431L8.78425 251.006L9.29884 251.004ZM9.06944 199.429L9.07387 198.914L-71.7317 198.219L-71.7362 198.734L-71.7406 199.248L9.06501 199.943L9.06944 199.429ZM-71.7362 198.734L-71.7317 198.219L-71.8664 198.218L-71.8709 198.732L-71.8754 199.247L-71.7406 199.248L-71.7362 198.734ZM-71.8709 198.732L-71.3563 198.737L-71.3452 197.455L-71.8598 197.45L-72.3743 197.446L-72.3855 198.728L-71.8709 198.732ZM-71.8598 197.45L-71.8642 197.965L-71.7295 197.966L-71.725 197.451L-71.7205 196.937L-71.8553 196.936L-71.8598 197.45ZM-71.725 197.451L-71.7294 197.966L9.05958 198.661L9.06401 198.147L9.06844 197.632L-71.7206 196.937L-71.725 197.451ZM9.06401 198.147L9.5786 198.144L9.34868 146.404L8.83409 146.406L8.3195 146.409L8.54942 198.149L9.06401 198.147ZM8.83409 146.406L8.83857 145.892L-71.2609 145.194L-71.2654 145.708L-71.2699 146.223L8.8296 146.921L8.83409 146.406ZM-71.2654 145.708L-70.7508 145.713L-70.7419 144.684L-71.2564 144.679L-71.771 144.675L-71.78 145.704L-71.2654 145.708ZM-71.2564 144.679L-71.2609 145.194L8.8249 145.891L8.82938 145.377L8.83387 144.862L-71.252 144.165L-71.2564 144.679ZM8.82938 145.377L9.34397 145.375L9.11109 93.0776L8.5965 93.0799L8.08191 93.0822L8.31479 145.379L8.82938 145.377ZM8.5965 93.0799L8.60093 92.5653L-70.7936 91.8824L-70.798 92.397L-70.8024 92.9115L8.59207 93.5944L8.5965 93.0799ZM-70.798 92.397L-70.2834 92.4014L-70.2745 91.3722L-70.7891 91.3677L-71.3036 91.3632L-71.3126 92.3925L-70.798 92.397ZM-70.7891 91.3677L-70.7935 91.8823L8.58737 92.5651L8.5918 92.0505L8.59622 91.5359L-70.7846 90.8531L-70.7891 91.3677ZM8.5918 92.0505L9.10638 92.0482L8.67081 -6.0345L8.15622 -6.03222L7.64163 -6.02993L8.07721 92.0528L8.5918 92.0505ZM8.15622 -6.03222L8.67081 -6.03509L8.67004 -6.17182L8.15546 -6.16895L7.64087 -6.16608L7.64163 -6.02935L8.15622 -6.03222ZM8.15546 -6.16895L8.15097 -5.65437L9.19 -5.64532L9.19448 -6.1599L9.19896 -6.67447L8.15994 -6.68353L8.15546 -6.16895ZM9.19448 -6.1599L8.67989 -6.15681L8.68069 -6.02399L9.19528 -6.02707L9.70986 -6.03016L9.70907 -6.16298L9.19448 -6.1599ZM9.19528 -6.02707L8.68069 -6.02479L9.11623 92.0618L9.63082 92.0595L10.1454 92.0573L9.70986 -6.02936L9.19528 -6.02707ZM9.63082 92.0595L9.62639 92.5741L62.9164 93.0325L62.9208 92.518L62.9253 92.0034L9.63525 91.545L9.63082 92.0595ZM62.9208 92.518L63.4354 92.5168L63.2167 -5.56499L62.7021 -5.56384L62.1875 -5.56269L62.4062 92.5191L62.9208 92.518ZM62.7021 -5.56384L63.2167 -5.56306L63.2169 -5.69881L62.7023 -5.69959L62.1877 -5.70037L62.1875 -5.56462L62.7021 -5.56384ZM62.7023 -5.69959L62.6978 -5.18501L63.606 -5.1771L63.6104 -5.69168L63.6149 -6.20625L62.7067 -6.21417L62.7023 -5.69959ZM63.6104 -5.69168L63.0958 -5.68859L63.0966 -5.55577L63.6112 -5.55885L64.1258 -5.56193L64.125 -5.69476L63.6104 -5.69168ZM63.6112 -5.55885L63.0966 -5.5577L63.3154 92.527L63.83 92.5259L64.3446 92.5247L64.1258 -5.56L63.6112 -5.55885ZM63.83 92.5259L63.8256 93.0405L115.186 93.4821L115.19 92.9675L115.195 92.4529L63.8344 92.0113L63.83 92.5259ZM115.19 92.9675L115.705 92.9675L115.703 -5.11244L115.188 -5.11243L114.674 -5.11242L114.676 92.9675L115.19 92.9675ZM115.188 -5.11243L115.703 -5.11165L115.703 -5.2474L115.189 -5.24818L114.674 -5.24896L114.674 -5.11321L115.188 -5.11243ZM115.189 -5.24818L115.184 -4.7336L115.965 -4.72679L115.97 -5.24137L115.974 -5.75595L115.193 -5.76276L115.189 -5.24818ZM115.97 -5.24137L115.455 -5.2421L115.455 -5.10831L115.97 -5.10758L116.484 -5.10685L116.484 -5.24064L115.97 -5.24137ZM115.97 -5.10758L115.455 -5.10757L115.457 92.9743L115.972 92.9743L116.486 92.9743L116.484 -5.10759L115.97 -5.10758ZM115.972 92.9743L115.967 93.4889L170.164 93.9552L170.169 93.4406L170.173 92.926L115.976 92.4597L115.972 92.9743ZM170.169 93.4406L170.683 93.4383L170.248 -4.6444L169.733 -4.64211L169.219 -4.63983L169.654 93.4429L170.169 93.4406ZM169.733 -4.64211L170.248 -4.64498L170.247 -4.78171L169.732 -4.77884L169.218 -4.77598L169.219 -4.63924L169.733 -4.64211ZM169.732 -4.77884L169.728 -4.26427L170.765 -4.25523L170.77 -4.76981L170.774 -5.28439L169.737 -5.29342L169.732 -4.77884ZM170.77 -4.76981L170.255 -4.76672L170.256 -4.6339L170.77 -4.63698L171.285 -4.64007L171.284 -4.77289L170.77 -4.76981ZM170.77 -4.63698L170.256 -4.6347L170.691 93.4519L171.206 93.4496L171.72 93.4473L171.285 -4.63927L170.77 -4.63698ZM171.206 93.4496L171.201 93.9642L224.493 94.4226L224.498 93.9081L224.502 93.3935L171.21 92.9351L171.206 93.4496ZM224.498 93.9081L225.012 93.9069L224.794 -4.17488L224.279 -4.17374L223.764 -4.17259L223.983 93.9092L224.498 93.9081ZM224.279 -4.17374L224.794 -4.17296L224.794 -4.3087L224.279 -4.30948L223.765 -4.31026L223.764 -4.17452L224.279 -4.17374ZM224.279 -4.30948L224.275 -3.7949L225.183 -3.78699L225.187 -4.30157L225.192 -4.81615L224.284 -4.82406L224.279 -4.30948ZM225.187 -4.30157L224.673 -4.29849L224.674 -4.16566L225.188 -4.16875L225.703 -4.17183L225.702 -4.30465L225.187 -4.30157ZM225.188 -4.16875L224.674 -4.1676L224.892 93.9171L225.407 93.916L225.922 93.9148L225.703 -4.16989L225.188 -4.16875ZM225.407 93.916L225.403 94.4306L278.009 94.883L278.013 94.3684L278.018 93.8539L225.411 93.4014L225.407 93.916ZM278.013 94.3684L278.528 94.3673L278.309 -3.71451L277.795 -3.71336L277.28 -3.71221L277.499 94.3696L278.013 94.3684ZM277.795 -3.71336L278.309 -3.71258L278.309 -3.84832L277.795 -3.84911L277.28 -3.84989L277.28 -3.71414L277.795 -3.71336ZM277.795 -3.84911L277.79 -3.33453L278.701 -3.3266L278.705 -3.84118L278.709 -4.35575L277.799 -4.36368L277.795 -3.84911ZM278.705 -3.84118L278.19 -3.84188L278.19 -3.70906L278.705 -3.70836L279.219 -3.70766L279.22 -3.84048L278.705 -3.84118ZM278.705 -3.70836L278.19 -3.70721L278.409 94.3775L278.924 94.3764L279.438 94.3752L279.219 -3.70951L278.705 -3.70836ZM278.924 94.3764L278.919 94.8909L331.742 95.3453L331.747 94.8307L331.751 94.3161L278.928 93.8618L278.924 94.3764ZM331.747 94.8307L332.261 94.8284L331.826 -3.25428L331.311 -3.252L330.797 -3.24971L331.232 94.833L331.747 94.8307ZM331.311 -3.252L331.826 -3.25487L331.825 -3.3916L331.31 -3.38873L330.796 -3.38586L330.797 -3.24913L331.311 -3.252ZM331.31 -3.38873L331.306 -2.87415L332.345 -2.8651L332.35 -3.37968L332.354 -3.89425L331.315 -3.90331L331.31 -3.38873ZM332.35 -3.37968L331.835 -3.37659L331.836 -3.24377L332.35 -3.24685L332.865 -3.24994L332.864 -3.38276L332.35 -3.37968ZM332.35 -3.24685L331.836 -3.24457L332.271 94.842L332.786 94.8398L333.3 94.8375L332.865 -3.24914L332.35 -3.24685ZM332.786 94.8398L332.781 95.3543L386.07 95.8127L386.075 95.2982L386.079 94.7836L332.79 94.3252L332.786 94.8398ZM386.075 95.2982L386.589 95.297L386.371 -2.78478L385.856 -2.78363L385.342 -2.78248L385.56 95.2993L386.075 95.2982ZM385.856 -2.78363L386.371 -2.78285L386.371 -2.9186L385.856 -2.91938L385.342 -2.92016L385.342 -2.78441L385.856 -2.78363ZM385.856 -2.91938L385.852 -2.4048L386.76 -2.39689L386.764 -2.91146L386.769 -3.42604L385.861 -3.43395L385.856 -2.91938ZM386.764 -2.91146L386.25 -2.90838L386.251 -2.77556L386.765 -2.77864L387.28 -2.78172L387.279 -2.91455L386.764 -2.91146ZM386.765 -2.77864L386.251 -2.77749L386.469 95.3072L386.984 95.3061L387.499 95.3049L387.28 -2.77979L386.765 -2.77864ZM386.984 95.3061L386.98 95.8207L439.587 96.2731L439.591 95.7586L439.596 95.244L386.988 94.7915L386.984 95.3061ZM439.591 95.7586L440.106 95.7574L439.887 -2.32439L439.373 -2.32325L438.858 -2.3221L439.077 95.7597L439.591 95.7586ZM439.373 -2.32325L439.887 -2.32246L439.887 -2.45821L439.373 -2.45899L438.858 -2.45977L438.858 -2.32403L439.373 -2.32325ZM439.373 -2.45899L439.368 -1.94441L440.277 -1.9365L440.281 -2.45108L440.286 -2.96566L439.377 -2.97357L439.373 -2.45899ZM440.281 -2.45108L439.766 -2.448L439.767 -2.31517L440.282 -2.31825L440.796 -2.32134L440.796 -2.45416L440.281 -2.45108ZM10.3413 252.295L9.82675 252.298L10.0562 303.873L10.5707 303.871L11.0853 303.868L10.8559 252.293L10.3413 252.295ZM10.5707 303.871L10.5663 304.385L63.3896 304.84L63.394 304.325L63.3984 303.81L10.5752 303.356L10.5707 303.871ZM63.394 304.325L63.9086 304.324L63.7934 252.751L63.2788 252.752L62.7642 252.753L62.8794 304.326L63.394 304.325ZM63.2788 252.752L63.2833 252.237L10.3458 251.781L10.3413 252.295L10.3369 252.81L63.2744 253.266L63.2788 252.752ZM64.188 252.759L63.6734 252.76L63.7885 304.334L64.3031 304.333L64.8177 304.332L64.7026 252.758L64.188 252.759ZM64.3031 304.333L64.2987 304.848L115.19 305.286L115.195 304.771L115.199 304.257L64.3076 303.818L64.3031 304.333ZM115.195 304.771L115.709 304.771L115.708 253.198L115.194 253.198L114.679 253.198L114.68 304.771L115.195 304.771ZM115.194 253.198L115.198 252.684L64.1924 252.244L64.188 252.759L64.1835 253.273L115.189 253.713L115.194 253.198ZM115.975 253.205L115.461 253.205L115.461 304.778L115.976 304.778L116.491 304.778L116.49 253.205L115.975 253.205ZM115.976 304.778L115.972 305.293L171.106 305.767L171.111 305.253L171.115 304.738L115.98 304.264L115.976 304.778ZM171.111 305.253L171.625 305.25L171.396 253.675L170.881 253.677L170.367 253.68L170.596 305.255L171.111 305.253ZM170.881 253.677L170.886 253.163L115.98 252.69L115.975 253.205L115.971 253.72L170.877 254.192L170.881 253.677ZM171.918 253.687L171.404 253.689L171.633 305.264L172.148 305.262L172.662 305.259L172.433 253.684L171.918 253.687ZM172.148 305.262L172.143 305.776L224.966 306.232L224.97 305.717L224.974 305.203L172.152 304.747L172.148 305.262ZM224.97 305.717L225.485 305.716L225.369 254.142L224.855 254.143L224.34 254.144L224.455 305.718L224.97 305.717ZM224.855 254.143L224.859 253.628L171.923 253.172L171.918 253.687L171.914 254.201L224.85 254.657L224.855 254.143ZM225.765 254.151L225.25 254.152L225.366 305.726L225.88 305.725L226.395 305.724L226.28 254.15L225.765 254.151ZM225.88 305.725L225.876 306.24L278.483 306.692L278.488 306.177L278.492 305.663L225.885 305.21L225.88 305.725ZM278.488 306.177L279.002 306.176L278.887 254.602L278.372 254.603L277.858 254.604L277.973 306.179L278.488 306.177ZM278.372 254.603L278.377 254.089L225.769 253.636L225.765 254.151L225.761 254.665L278.368 255.118L278.372 254.603ZM279.282 254.611L278.767 254.612L278.882 306.187L279.397 306.185L279.911 306.184L279.796 254.61L279.282 254.611ZM279.397 306.185L279.392 306.7L332.684 307.159L332.689 306.645L332.693 306.13L279.401 305.671L279.397 306.185ZM332.689 306.645L333.203 306.643L332.974 255.067L332.459 255.07L331.945 255.072L332.174 306.647L332.689 306.645ZM332.459 255.07L332.464 254.555L279.286 254.097L279.282 254.611L279.277 255.126L332.455 255.584L332.459 255.07ZM333.496 255.079L332.982 255.081L333.211 306.656L333.726 306.654L334.24 306.652L334.011 255.076L333.496 255.079ZM333.726 306.654L333.721 307.168L386.544 307.623L386.548 307.108L386.552 306.594L333.73 306.139L333.726 306.654ZM386.548 307.108L387.063 307.107L386.947 255.533L386.433 255.534L385.918 255.535L386.033 307.109L386.548 307.108ZM386.433 255.534L386.437 255.019L333.501 254.564L333.496 255.079L333.492 255.593L386.428 256.048L386.433 255.534ZM387.341 255.542L386.826 255.543L386.942 307.117L387.456 307.116L387.971 307.115L387.856 255.541L387.341 255.542ZM387.456 307.116L387.452 307.631L440.06 308.084L440.065 307.57L440.069 307.055L387.461 306.602L387.456 307.116ZM440.065 307.57L440.579 307.568L440.464 255.994L439.949 255.995L439.435 255.996L439.55 307.571L440.065 307.57ZM439.949 255.995L439.954 255.481L387.345 255.027L387.341 255.542L387.337 256.056L439.945 256.51L439.949 255.995ZM10.1065 199.438L9.59192 199.44L9.82035 251.015L10.3349 251.013L10.8495 251.011L10.6211 199.436L10.1065 199.438ZM10.3349 251.013L10.3305 251.528L63.2719 251.984L63.2763 251.469L63.2808 250.955L10.3394 250.499L10.3349 251.013ZM63.2763 251.469L63.7909 251.468L63.6758 199.894L63.1612 199.895L62.6466 199.896L62.7617 251.471L63.2763 251.469ZM63.1612 199.895L63.1656 199.381L10.1109 198.923L10.1065 199.438L10.1021 199.952L63.1567 200.41L63.1612 199.895ZM64.0703 199.903L63.5557 199.904L63.6709 251.478L64.1855 251.476L64.7001 251.475L64.5849 199.902L64.0703 199.903ZM64.1855 251.476L64.181 251.991L115.189 252.43L115.193 251.916L115.198 251.401L64.1899 250.962L64.1855 251.476ZM115.193 251.916L115.708 251.916L115.707 200.343L115.192 200.343L114.678 200.343L114.679 251.916L115.193 251.916ZM115.192 200.343L115.197 199.828L64.0747 199.389L64.0703 199.903L64.0659 200.418L115.188 200.857L115.192 200.343ZM115.974 200.349L115.459 200.349L115.46 251.923L115.975 251.923L116.489 251.923L116.488 200.349L115.974 200.349ZM115.975 251.923L115.97 252.437L170.87 252.91L170.875 252.395L170.879 251.881L115.979 251.408L115.975 251.923ZM170.875 252.395L171.389 252.393L171.161 200.819L170.646 200.821L170.132 200.823L170.36 252.397L170.875 252.395ZM170.646 200.821L170.651 200.306L115.978 199.835L115.974 200.349L115.969 200.864L170.642 201.335L170.646 200.821ZM171.684 200.829L171.169 200.831L171.398 252.406L171.913 252.404L172.428 252.402L172.198 200.827L171.684 200.829ZM171.913 252.404L171.908 252.919L224.848 253.375L224.852 252.861L224.857 252.346L171.917 251.89L171.913 252.404ZM224.852 252.861L225.367 252.859L225.252 201.285L224.737 201.286L224.223 201.287L224.338 252.862L224.852 252.861ZM224.737 201.286L224.742 200.772L171.688 200.314L171.684 200.829L171.679 201.344L224.733 201.801L224.737 201.286ZM225.647 201.294L225.133 201.295L225.248 252.87L225.762 252.868L226.277 252.867L226.162 201.293L225.647 201.294ZM225.762 252.868L225.758 253.383L278.365 253.835L278.369 253.321L278.373 252.806L225.767 252.354L225.762 252.868ZM278.369 253.321L278.884 253.32L278.768 201.746L278.254 201.747L277.739 201.748L277.854 253.322L278.369 253.321ZM278.254 201.747L278.258 201.232L225.652 200.78L225.647 201.294L225.643 201.809L278.249 202.261L278.254 201.747ZM279.164 201.755L278.649 201.756L278.764 253.33L279.279 253.329L279.794 253.328L279.678 201.753L279.164 201.755ZM279.279 253.329L279.275 253.843L332.449 254.302L332.454 253.787L332.458 253.273L279.283 252.814L279.279 253.329ZM332.454 253.787L332.968 253.785L332.739 202.21L332.224 202.212L331.71 202.214L331.939 253.79L332.454 253.787ZM332.224 202.212L332.229 201.697L279.168 201.24L279.164 201.755L279.159 202.269L332.22 202.727L332.224 202.212ZM333.262 202.221L332.747 202.223L332.975 253.799L333.49 253.796L334.005 253.794L333.776 202.219L333.262 202.221ZM333.49 253.796L333.486 254.311L386.426 254.766L386.43 254.252L386.435 253.737L333.494 253.282L333.49 253.796ZM386.43 254.252L386.945 254.25L386.83 202.676L386.315 202.677L385.801 202.679L385.916 254.253L386.43 254.252ZM386.315 202.677L386.32 202.163L333.266 201.706L333.262 202.221L333.257 202.736L386.311 203.192L386.315 202.677ZM387.223 202.685L386.709 202.686L386.824 254.261L387.339 254.26L387.853 254.258L387.738 202.684L387.223 202.685ZM387.339 254.26L387.334 254.774L439.943 255.228L439.947 254.713L439.951 254.198L387.343 253.745L387.339 254.26ZM439.947 254.713L440.462 254.712L440.346 203.138L439.832 203.139L439.317 203.14L439.432 254.714L439.947 254.713ZM439.832 203.139L439.836 202.624L387.228 202.171L387.223 202.685L387.219 203.2L439.827 203.653L439.832 203.139ZM10.1011 198.156L10.0966 198.67L63.1542 199.128L63.1587 198.613L63.1631 198.098L10.1055 197.641L10.1011 198.156ZM63.1587 198.613L63.6733 198.612L63.5576 146.877L63.043 146.879L62.5284 146.88L62.6441 198.614L63.1587 198.613ZM63.043 146.879L63.0474 146.364L9.87564 145.901L9.87116 146.415L9.86667 146.93L63.0385 147.393L63.043 146.879ZM9.87116 146.415L9.35657 146.418L9.58649 198.158L10.1011 198.156L10.6157 198.153L10.3857 146.413L9.87116 146.415ZM64.0668 198.621L64.0624 199.135L115.187 199.575L115.192 199.06L115.196 198.546L64.0713 198.106L64.0668 198.621ZM115.192 199.06L115.706 199.06L115.706 147.333L115.191 147.333L114.677 147.333L114.677 199.06L115.192 199.06ZM115.191 147.333L115.196 146.818L63.9566 146.372L63.9521 146.886L63.9476 147.401L115.187 147.847L115.191 147.333ZM63.9521 146.886L63.4375 146.888L63.5522 198.622L64.0668 198.621L64.5814 198.62L64.4667 146.885L63.9521 146.886ZM115.973 199.067L115.969 199.582L170.636 200.053L170.64 199.539L170.644 199.024L115.978 198.553L115.973 199.067ZM170.64 199.539L171.155 199.536L170.926 147.812L170.411 147.814L169.896 147.816L170.125 199.541L170.64 199.539ZM170.411 147.814L170.415 147.299L115.977 146.825L115.973 147.34L115.968 147.854L170.406 148.328L170.411 147.814ZM115.973 147.34L115.458 147.34L115.459 199.067L115.973 199.067L116.488 199.067L116.487 147.34L115.973 147.34ZM171.678 199.547L171.674 200.061L224.729 200.519L224.734 200.004L224.738 199.489L171.683 199.032L171.678 199.547ZM224.734 200.004L225.248 200.003L225.133 148.285L224.619 148.286L224.104 148.287L224.219 200.005L224.734 200.004ZM224.619 148.286L224.623 147.772L171.453 147.308L171.448 147.823L171.444 148.338L224.614 148.801L224.619 148.286ZM171.448 147.823L170.933 147.825L171.163 199.549L171.678 199.547L172.193 199.544L171.963 147.821L171.448 147.823ZM225.644 200.012L225.639 200.526L278.247 200.979L278.251 200.464L278.256 199.95L225.648 199.497L225.644 200.012ZM278.251 200.464L278.766 200.463L278.65 148.751L278.135 148.752L277.621 148.754L277.737 200.466L278.251 200.464ZM278.135 148.752L278.14 148.238L225.533 147.78L225.529 148.294L225.525 148.809L278.131 149.267L278.135 148.752ZM225.529 148.294L225.014 148.295L225.129 200.013L225.644 200.012L226.158 200.011L226.044 148.293L225.529 148.294ZM279.16 200.472L279.156 200.987L332.214 201.444L332.218 200.93L332.222 200.415L279.165 199.958L279.16 200.472ZM332.218 200.93L332.733 200.927L332.503 149.219L331.989 149.222L331.474 149.224L331.703 200.932L332.218 200.93ZM331.989 149.222L331.993 148.707L279.05 148.246L279.046 148.76L279.041 149.275L331.984 149.736L331.989 149.222ZM279.046 148.76L278.531 148.761L278.646 200.473L279.16 200.472L279.675 200.471L279.56 148.759L279.046 148.76ZM333.256 200.939L333.252 201.453L386.307 201.91L386.312 201.395L386.316 200.88L333.261 200.424L333.256 200.939ZM386.312 201.395L386.826 201.394L386.711 149.693L386.197 149.694L385.682 149.695L385.797 201.396L386.312 201.395ZM386.197 149.694L386.201 149.179L333.031 148.716L333.027 149.231L333.022 149.745L386.192 150.208L386.197 149.694ZM333.027 149.231L332.512 149.233L332.741 200.941L333.256 200.939L333.771 200.936L333.541 149.228L333.027 149.231ZM387.221 201.403L387.216 201.918L439.824 202.371L439.828 201.856L439.833 201.342L387.225 200.888L387.221 201.403ZM439.828 201.856L440.343 201.855L440.228 150.159L439.713 150.16L439.199 150.161L439.314 201.858L439.828 201.856ZM439.713 150.16L439.718 149.646L387.11 149.187L387.106 149.702L387.101 150.216L439.709 150.675L439.713 150.16ZM387.106 149.702L386.591 149.703L386.706 201.404L387.221 201.403L387.735 201.402L387.62 149.701L387.106 149.702ZM9.63455 93.0889L9.11996 93.0912L9.35284 145.388L9.86743 145.386L10.382 145.384L10.1491 93.0866L9.63455 93.0889ZM9.86743 145.386L9.86295 145.9L63.0357 146.364L63.0402 145.849L63.0447 145.335L9.87191 144.871L9.86743 145.386ZM63.0402 145.849L63.5548 145.848L63.4382 93.5462L62.9236 93.5473L62.409 93.5485L62.5256 145.85L63.0402 145.849ZM62.9236 93.5473L62.928 93.0327L9.63898 92.5743L9.63455 93.0889L9.63012 93.6035L62.9192 94.0619L62.9236 93.5473ZM63.8327 93.5552L63.3181 93.5564L63.4348 145.858L63.9494 145.857L64.464 145.856L64.3473 93.5541L63.8327 93.5552ZM63.9494 145.857L63.9449 146.372L115.187 146.818L115.192 146.303L115.196 145.789L63.9538 145.342L63.9494 145.857ZM115.192 146.303L115.706 146.303L115.705 93.9968L115.19 93.9968L114.676 93.9968L114.677 146.304L115.192 146.303ZM115.19 93.9968L115.195 93.4822L63.8372 93.0407L63.8327 93.5552L63.8283 94.0698L115.186 94.5114L115.19 93.9968ZM115.971 94.0036L115.457 94.0036L115.458 146.31L115.973 146.31L116.487 146.31L116.486 94.0036L115.971 94.0036ZM115.973 146.31L115.968 146.825L170.402 147.299L170.406 146.785L170.411 146.27L115.977 145.796L115.973 146.31ZM170.406 146.785L170.921 146.782L170.688 94.4677L170.174 94.47L169.659 94.4723L169.892 146.787L170.406 146.785ZM170.174 94.47L170.178 93.9554L115.976 93.489L115.971 94.0036L115.967 94.5182L170.169 94.9846L170.174 94.47ZM171.211 94.479L170.696 94.4813L170.929 146.796L171.443 146.794L171.958 146.791L171.725 94.4767L171.211 94.479ZM171.443 146.794L171.439 147.308L224.612 147.771L224.616 147.257L224.621 146.742L171.448 146.279L171.443 146.794ZM224.616 147.257L225.131 147.256L225.014 94.9363L224.5 94.9374L223.985 94.9386L224.102 147.258L224.616 147.257ZM224.5 94.9374L224.504 94.4228L171.215 93.9644L171.211 94.479L171.206 94.9936L224.495 95.452L224.5 94.9374ZM225.41 94.9453L224.895 94.9465L225.012 147.266L225.526 147.265L226.041 147.264L225.924 94.9442L225.41 94.9453ZM225.526 147.265L225.522 147.779L278.129 148.238L278.134 147.723L278.138 147.208L225.531 146.75L225.526 147.265ZM278.134 147.723L278.648 147.722L278.531 95.3966L278.016 95.3978L277.502 95.399L277.619 147.724L278.134 147.723ZM278.016 95.3978L278.021 94.8832L225.414 94.4308L225.41 94.9453L225.405 95.4599L278.012 95.9124L278.016 95.3978ZM278.926 95.4057L278.412 95.4069L278.529 147.732L279.044 147.731L279.558 147.73L279.441 95.4046L278.926 95.4057ZM279.044 147.731L279.039 148.246L331.98 148.707L331.984 148.192L331.989 147.678L279.048 147.216L279.044 147.731ZM331.984 148.192L332.499 148.19L332.266 95.8578L331.752 95.8601L331.237 95.8624L331.47 148.195L331.984 148.192ZM331.752 95.8601L331.756 95.3455L278.931 94.8912L278.926 95.4057L278.922 95.9203L331.747 96.3747L331.752 95.8601ZM332.79 95.8691L332.275 95.8714L332.508 148.204L333.022 148.201L333.537 148.199L333.304 95.8668L332.79 95.8691ZM333.022 148.201L333.018 148.716L386.19 149.179L386.195 148.665L386.199 148.15L333.027 147.687L333.022 148.201ZM386.195 148.665L386.71 148.663L386.592 96.3264L386.078 96.3275L385.563 96.3287L385.68 148.666L386.195 148.665ZM386.078 96.3275L386.082 95.813L332.794 95.3546L332.79 95.8691L332.785 96.3837L386.073 96.8421L386.078 96.3275ZM386.987 96.3354L386.472 96.3366L386.589 148.674L387.104 148.672L387.619 148.671L387.501 96.3343L386.987 96.3354ZM387.104 148.672L387.1 149.187L439.707 149.645L439.711 149.131L439.716 148.616L387.109 148.158L387.104 148.672ZM439.711 149.131L440.226 149.13L440.109 96.7868L439.594 96.7879L439.08 96.7891L439.197 149.132L439.711 149.131ZM439.594 96.7879L439.599 96.2733L386.991 95.8209L386.987 96.3354L386.982 96.85L439.59 97.3025L439.594 96.7879Z" fill="url(#paint0_radial_1_3978)"/>
<defs>
<radialGradient id="paint0_radial_1_3978" cx="0" cy="0" r="1" gradientTransform="matrix(95.2484 118.589 -152.393 122.381 197.77 203.148)" gradientUnits="userSpaceOnUse">
<stop stop-color="#7A7A7A"/>
<stop offset="1" stop-color="#FAFAFA" stop-opacity="0"/>
</radialGradient>
</defs>
</svg>
