<svg width="20" height="20" viewBox="0 0 20 20" fill="none" xmlns="http://www.w3.org/2000/svg">
<path d="M15.5468 9.78984L11.6499 8.35312L10.2101 4.45312C10.1 4.15451 9.90097 3.89684 9.63988 3.71484C9.37879 3.53284 9.06818 3.43526 8.74992 3.43526C8.43166 3.43526 8.12105 3.53284 7.85996 3.71484C7.59888 3.89684 7.39987 4.15451 7.28976 4.45312L5.85305 8.35312L1.95305 9.78984C1.65444 9.89995 1.39676 10.099 1.21476 10.36C1.03276 10.6211 0.935181 10.9317 0.935181 11.25C0.935181 11.5683 1.03276 11.8789 1.21476 12.14C1.39676 12.401 1.65444 12.6001 1.95305 12.7102L5.84992 14.1469L7.28976 18.0469C7.39987 18.3455 7.59888 18.6032 7.85996 18.7852C8.12105 18.9672 8.43166 19.0647 8.74992 19.0647C9.06818 19.0647 9.37879 18.9672 9.63988 18.7852C9.90097 18.6032 10.1 18.3455 10.2101 18.0469L11.6468 14.15L15.5468 12.7102C15.8454 12.6001 16.1031 12.401 16.2851 12.14C16.4671 11.8789 16.5647 11.5683 16.5647 11.25C16.5647 10.9317 16.4671 10.6211 16.2851 10.36C16.1031 10.099 15.8454 9.89995 15.5468 9.78984ZM10.5952 12.5367C10.468 12.5836 10.3524 12.6576 10.2565 12.7535C10.1606 12.8494 10.0867 12.9649 10.0398 13.0922L8.74992 16.5844L7.4632 13.0922C7.4163 12.9649 7.34235 12.8494 7.24645 12.7535C7.15055 12.6576 7.03499 12.5836 6.90773 12.5367L3.41555 11.25L6.90773 9.96328C7.03499 9.91638 7.15055 9.84243 7.24645 9.74653C7.34235 9.65063 7.4163 9.53507 7.4632 9.40781L8.74992 5.91563L10.0366 9.40781C10.0835 9.53507 10.1575 9.65063 10.2534 9.74653C10.3493 9.84243 10.4649 9.91638 10.5921 9.96328L14.0843 11.25L10.5952 12.5367ZM10.9374 3.125C10.9374 2.87636 11.0362 2.6379 11.212 2.46209C11.3878 2.28627 11.6263 2.1875 11.8749 2.1875H12.8124V1.25C12.8124 1.00136 12.9112 0.762903 13.087 0.587087C13.2628 0.411272 13.5013 0.3125 13.7499 0.3125C13.9986 0.3125 14.237 0.411272 14.4128 0.587087C14.5886 0.762903 14.6874 1.00136 14.6874 1.25V2.1875H15.6249C15.8736 2.1875 16.112 2.28627 16.2878 2.46209C16.4636 2.6379 16.5624 2.87636 16.5624 3.125C16.5624 3.37364 16.4636 3.6121 16.2878 3.78791C16.112 3.96373 15.8736 4.0625 15.6249 4.0625H14.6874V5C14.6874 5.24864 14.5886 5.4871 14.4128 5.66291C14.237 5.83873 13.9986 5.9375 13.7499 5.9375C13.5013 5.9375 13.2628 5.83873 13.087 5.66291C12.9112 5.4871 12.8124 5.24864 12.8124 5V4.0625H11.8749C11.6263 4.0625 11.3878 3.96373 11.212 3.78791C11.0362 3.6121 10.9374 3.37364 10.9374 3.125ZM19.6874 6.875C19.6874 7.12364 19.5886 7.3621 19.4128 7.53791C19.237 7.71373 18.9986 7.8125 18.7499 7.8125H18.4374V8.125C18.4374 8.37364 18.3386 8.6121 18.1628 8.78791C17.987 8.96373 17.7486 9.0625 17.4999 9.0625C17.2513 9.0625 17.0128 8.96373 16.837 8.78791C16.6612 8.6121 16.5624 8.37364 16.5624 8.125V7.8125H16.2499C16.0013 7.8125 15.7628 7.71373 15.587 7.53791C15.4112 7.3621 15.3124 7.12364 15.3124 6.875C15.3124 6.62636 15.4112 6.3879 15.587 6.21209C15.7628 6.03627 16.0013 5.9375 16.2499 5.9375H16.5624V5.625C16.5624 5.37636 16.6612 5.1379 16.837 4.96209C17.0128 4.78627 17.2513 4.6875 17.4999 4.6875C17.7486 4.6875 17.987 4.78627 18.1628 4.96209C18.3386 5.1379 18.4374 5.37636 18.4374 5.625V5.9375H18.7499C18.9986 5.9375 19.237 6.03627 19.4128 6.21209C19.5886 6.3879 19.6874 6.62636 19.6874 6.875Z" fill="white"/>
</svg>
