<svg width="454" height="413" viewBox="0 0 454 413" fill="none" xmlns="http://www.w3.org/2000/svg">
<path opacity="0.2" d="M513.604 4.36979L514.119 4.36865L514.119 4.36671L513.604 4.36979ZM513.823 102.455L513.309 102.456L513.31 102.965L513.819 102.969L513.823 102.455ZM526.374 102.563L526.888 102.567L526.893 102.053L526.378 102.048L526.374 102.563ZM526.365 103.592L526.36 104.107L526.875 104.111L526.879 103.597L526.365 103.592ZM513.826 103.484L513.83 102.969L513.31 102.965L513.311 103.485L513.826 103.484ZM513.943 155.827L513.429 155.828L513.43 156.337L513.939 156.341L513.943 155.827ZM525.907 155.931L526.421 155.935L526.426 155.421L525.911 155.416L525.907 155.931ZM525.898 156.96L525.893 157.475L526.408 157.479L526.412 156.965L525.898 156.96ZM513.945 156.856L513.949 156.342L513.429 156.337L513.43 156.857L513.945 156.856ZM514.06 208.552L513.545 208.554L513.547 209.063L514.056 209.067L514.06 208.552ZM525.438 208.651L525.442 208.136L525.442 208.136L525.438 208.651ZM525.572 208.652L526.087 208.656L526.091 208.142L525.577 208.137L525.572 208.652ZM525.561 209.934L525.557 210.448L526.071 210.453L526.076 209.938L525.561 209.934ZM525.426 209.933L525.431 209.418L525.431 209.418L525.426 209.933ZM514.063 209.835L514.067 209.32L513.547 209.316L513.548 209.836L514.063 209.835ZM514.178 261.409L513.663 261.41L513.664 261.919L514.173 261.924L514.178 261.409ZM524.971 261.502L524.976 260.987L524.976 260.987L524.971 261.502ZM525.106 261.503L525.621 261.508L525.625 260.993L525.11 260.989L525.106 261.503ZM525.095 262.785L525.09 263.3L525.605 263.304L525.609 262.79L525.095 262.785ZM524.96 262.784L524.965 262.27L524.965 262.27L524.96 262.784ZM514.18 262.691L514.185 262.177L513.664 262.172L513.666 262.692L514.18 262.691ZM514.295 314.265L513.781 314.267L513.782 314.776L514.291 314.78L514.295 314.265ZM524.505 314.353L524.509 313.839L524.509 313.839L524.505 314.353ZM524.64 314.355L525.154 314.359L525.159 313.845L524.644 313.84L524.64 314.355ZM524.629 315.637L524.624 316.151L525.139 316.156L525.143 315.641L524.629 315.637ZM524.494 315.636L524.498 315.121L524.498 315.121L524.494 315.636ZM514.299 315.548L514.303 315.033L513.783 315.029L513.784 315.549L514.299 315.548ZM514.515 411.976L514.001 411.977L514.001 411.979L514.515 411.976ZM514.516 412.113L514.512 412.628L515.034 412.631L515.031 412.11L514.516 412.113ZM513.607 412.106L513.092 412.105L513.092 412.617L513.603 412.621L513.607 412.106ZM513.607 411.973L514.122 411.974L514.122 411.972L513.607 411.973ZM513.391 315.54L513.905 315.539L513.904 315.03L513.395 315.025L513.391 315.54ZM460.782 315.086L460.787 314.572L460.267 314.567L460.268 315.088L460.782 315.086ZM460.999 411.516L460.484 411.517L460.484 411.519L460.999 411.516ZM461 411.653L460.996 412.167L461.517 412.171L461.514 411.65L461 411.653ZM460.09 411.646L459.576 411.645L459.575 412.156L460.087 412.16L460.09 411.646ZM460.091 411.513L460.605 411.513L460.605 411.512L460.091 411.513ZM459.874 315.079L460.389 315.077L460.388 314.568L459.879 314.564L459.874 315.079ZM407.054 314.624L407.058 314.11L406.537 314.105L406.539 314.627L407.054 314.624ZM407.483 411.055L406.969 411.058L406.969 411.058L407.483 411.055ZM407.484 411.192L407.48 411.707L408.002 411.711L407.999 411.189L407.484 411.192ZM406.448 411.183L405.933 411.186L405.936 411.693L406.443 411.698L406.448 411.183ZM406.447 411.05L405.933 411.053L405.933 411.053L406.447 411.05ZM406.017 314.615L406.531 314.613L406.529 314.105L406.021 314.101L406.017 314.615ZM352.722 314.156L352.726 313.641L352.206 313.637L352.207 314.157L352.722 314.156ZM352.938 410.586L352.424 410.587L352.424 410.589L352.938 410.586ZM352.939 410.723L352.935 411.237L353.457 411.242L353.454 410.72L352.939 410.723ZM352.03 410.715L351.515 410.714L351.515 411.225L352.026 411.229L352.03 410.715ZM352.03 410.582L352.545 410.583L352.545 410.581L352.03 410.582ZM351.814 314.148L352.328 314.147L352.327 313.638L351.818 313.633L351.814 314.148ZM299.205 313.695L299.21 313.181L298.689 313.176L298.691 313.697L299.205 313.695ZM299.422 410.126L298.907 410.127L298.907 410.129L299.422 410.126ZM299.423 410.262L299.418 410.777L299.94 410.782L299.937 410.26L299.423 410.262ZM298.512 410.255L297.998 410.258L298.001 410.765L298.508 410.769L298.512 410.255ZM298.512 410.122L297.997 410.123L297.997 410.125L298.512 410.122ZM298.295 313.687L298.81 313.686L298.809 313.177L298.3 313.173L298.295 313.687ZM245.476 313.232L245.48 312.718L244.959 312.713L244.961 313.234L245.476 313.232ZM245.906 409.665L245.392 409.668L245.392 409.668L245.906 409.665ZM245.907 409.802L245.902 410.317L246.424 410.321L246.422 409.799L245.907 409.802ZM244.869 409.793L244.354 409.796L244.357 410.303L244.864 410.308L244.869 409.793ZM244.868 409.66L244.354 409.662L244.354 409.663L244.868 409.66ZM244.439 313.223L244.953 313.221L244.951 312.713L244.443 312.709L244.439 313.223ZM189.299 312.749L189.304 312.234L188.785 312.23L188.785 312.749L189.299 312.749ZM189.302 409.18L189.816 409.181L189.816 409.18L189.302 409.18ZM189.302 409.316L189.297 409.83L189.815 409.835L189.816 409.317L189.302 409.316ZM188.521 409.309L188.007 409.312L188.01 409.819L188.517 409.824L188.521 409.309ZM188.521 409.175L188.006 409.175L188.006 409.178L188.521 409.175ZM188.518 312.742L189.033 312.742L189.033 312.232L188.522 312.227L188.518 312.742ZM137.628 312.303L137.633 311.789L137.112 311.784L137.114 312.304L137.628 312.303ZM137.845 408.736L137.33 408.737L137.33 408.738L137.845 408.736ZM137.846 408.872L137.841 409.387L138.363 409.391L138.36 408.869L137.846 408.872ZM136.936 408.864L136.422 408.864L136.421 409.375L136.932 409.379L136.936 408.864ZM136.937 408.732L137.451 408.732L137.451 408.73L136.937 408.732ZM136.72 312.295L137.235 312.294L137.234 311.785L136.724 311.781L136.72 312.295ZM83.8988 311.841L83.9032 311.326L83.3819 311.322L83.3842 311.843L83.8988 311.841ZM84.3282 408.275L83.8136 408.278L83.8136 408.278L84.3282 408.275ZM84.329 408.412L84.3245 408.927L84.8465 408.931L84.8436 408.409L84.329 408.412ZM83.2929 408.403L82.7783 408.406L82.7813 408.913L83.2884 408.917L83.2929 408.403ZM83.2921 408.27L82.7775 408.272L82.7775 408.273L83.2921 408.27ZM82.8617 311.832L83.3763 311.83L83.374 311.322L82.8661 311.317L82.8617 311.832ZM0.653825 311.125L0.649342 311.639L0.649397 311.639L0.653825 311.125ZM0.519064 311.123L0.00448657 311.119L3.57602e-06 311.634L0.514581 311.638L0.519064 311.123ZM0.530235 309.841L0.534718 309.327L0.0201401 309.322L0.0156571 309.837L0.530235 309.841ZM0.664995 309.842L0.660512 310.357L0.660567 310.357L0.664995 309.842ZM82.8563 310.55L82.8519 311.064L83.3732 311.069L83.3709 310.547L82.8563 310.55ZM82.6269 258.974L83.1415 258.972L83.1392 258.464L82.6313 258.46L82.6269 258.974ZM1.12013 258.273L1.11565 258.788L1.11571 258.788L1.12013 258.273ZM0.985374 258.272L0.470796 258.267L0.466313 258.782L0.980891 258.787L0.985374 258.272ZM0.996545 256.99L1.00103 256.475L0.48645 256.471L0.481967 256.985L0.996545 256.99ZM1.13131 256.991L1.12682 257.506L1.12688 257.506L1.13131 256.991ZM82.6215 257.692L82.617 258.207L83.1384 258.211L83.136 257.69L82.6215 257.692ZM82.392 206.117L82.9066 206.115L82.9044 205.607L82.3965 205.602L82.392 206.117ZM1.58644 205.422L1.58196 205.936L1.58202 205.936L1.58644 205.422ZM1.45168 205.421L0.937106 205.416L0.932623 205.931L1.4472 205.935L1.45168 205.421ZM1.46285 204.138L1.46734 203.624L0.95276 203.619L0.948277 204.134L1.46285 204.138ZM1.59761 204.14L1.59313 204.654L1.59319 204.654L1.59761 204.14ZM82.3866 204.835L82.3822 205.349L82.9035 205.354L82.9012 204.832L82.3866 204.835ZM82.1567 153.094L82.6713 153.092L82.669 152.584L82.1612 152.58L82.1567 153.094ZM2.0572 152.396L1.54262 152.392L1.53814 152.907L2.05271 152.911L2.0572 152.396ZM2.06617 151.367L2.07065 150.853L1.55607 150.848L1.55159 151.363L2.06617 151.367ZM82.152 152.065L82.1475 152.579L82.6689 152.584L82.6666 152.063L82.152 152.065ZM81.9191 99.7679L82.4337 99.7656L82.4314 99.2577L81.9235 99.2533L81.9191 99.7679ZM2.52459 99.085L2.01001 99.0805L2.00552 99.5952L2.52016 99.5996L2.52459 99.085ZM2.53355 98.0558L2.53798 97.5412L2.02346 97.5367L2.01897 98.0513L2.53355 98.0558ZM81.9144 98.7385L81.91 99.2531L82.4313 99.2576L82.429 98.7363L81.9144 98.7385ZM81.4788 0.655832L81.9934 0.653546L81.9934 0.652964L81.4788 0.655832ZM81.4781 0.519101L81.4825 0.00452331L80.9606 -2.42872e-05L80.9635 0.521969L81.4781 0.519101ZM82.5171 0.528153L83.0317 0.525069L83.0286 0.0179931L82.5216 0.0135754L82.5171 0.528153ZM82.5179 0.660978L83.0325 0.658693L83.0325 0.657894L82.5179 0.660978ZM82.9534 98.7476L82.4388 98.7499L82.4411 99.2578L82.949 99.2622L82.9534 98.7476ZM136.243 99.206L136.239 99.7206L136.759 99.7251L136.758 99.2049L136.243 99.206ZM136.025 1.12421L135.51 1.12343L135.51 1.12536L136.025 1.12421ZM136.025 0.988462L136.029 0.473884L135.511 0.469369L135.51 0.987681L136.025 0.988462ZM136.933 0.996374L137.448 0.99329L137.445 0.486214L136.938 0.481796L136.933 0.996374ZM136.934 1.1292L137.448 1.12805L137.448 1.12611L136.934 1.1292ZM137.153 99.2139L136.638 99.2151L136.639 99.7241L137.148 99.7285L137.153 99.2139ZM188.513 99.6555L188.509 100.17L189.028 100.175L189.028 99.6555L188.513 99.6555ZM188.511 1.57562L187.996 1.57484L187.996 1.57563L188.511 1.57562ZM188.511 1.43987L188.516 0.925294L187.997 0.920778L187.997 1.43909L188.511 1.43987ZM189.292 1.44668L189.807 1.4474L189.808 0.93655L189.297 0.9321L189.292 1.44668ZM189.292 1.58047L188.778 1.57974L188.778 1.58048L189.292 1.58047ZM189.294 99.6623L188.78 99.6623L188.78 100.173L189.29 100.177L189.294 99.6623ZM243.491 100.129L243.487 100.643L244.008 100.648L244.006 100.126L243.491 100.129ZM243.056 2.04594L243.57 2.04365L243.57 2.04307L243.056 2.04594ZM243.055 1.90921L243.06 1.39463L242.538 1.39008L242.541 1.91207L243.055 1.90921ZM244.092 1.91824L244.607 1.91516L244.604 1.40808L244.097 1.40366L244.092 1.91824ZM244.093 2.05107L244.608 2.04878L244.608 2.04798L244.093 2.05107ZM244.528 100.138L244.014 100.14L244.016 100.648L244.524 100.652L244.528 100.138ZM297.82 100.596L297.816 101.111L298.336 101.115L298.335 100.595L297.82 100.596ZM297.602 2.51431L297.087 2.51353L297.087 2.51546L297.602 2.51431ZM297.602 2.37857L297.606 1.86399L297.088 1.85947L297.087 2.37779L297.602 2.37857ZM298.51 2.38648L299.025 2.3834L299.022 1.87632L298.515 1.8719L298.51 2.38648ZM298.511 2.5193L299.025 2.51816L299.025 2.51622L298.511 2.5193ZM298.73 100.604L298.215 100.605L298.216 101.114L298.725 101.119L298.73 100.604ZM351.336 101.056L351.332 101.571L351.852 101.576L351.851 101.055L351.336 101.056ZM351.117 2.97469L350.603 2.97391L350.603 2.97584L351.117 2.97469ZM351.117 2.83894L351.122 2.32437L350.604 2.31985L350.603 2.83816L351.117 2.83894ZM352.028 2.84687L352.542 2.84757L352.543 2.33675L352.032 2.3323L352.028 2.84687ZM352.027 2.97969L351.513 2.97899L351.513 2.98084L352.027 2.97969ZM352.246 101.064L351.732 101.066L351.733 101.575L352.242 101.579L352.246 101.064ZM405.069 101.519L405.065 102.033L405.586 102.038L405.584 101.516L405.069 101.519ZM404.634 3.43605L405.148 3.43377L405.148 3.43318L404.634 3.43605ZM404.633 3.29932L404.638 2.78474L404.116 2.7802L404.118 3.30219L404.633 3.29932ZM405.672 3.30837L406.187 3.30529L406.184 2.79821L405.677 2.7938L405.672 3.30837ZM405.673 3.4412L406.188 3.43891L406.187 3.43811L405.673 3.4412ZM406.108 101.528L405.594 101.53L405.596 102.038L406.104 102.042L406.108 101.528ZM459.397 101.986L459.393 102.501L459.913 102.505L459.912 101.985L459.397 101.986ZM459.179 3.90442L458.664 3.90364L458.664 3.90557L459.179 3.90442ZM459.179 3.76867L459.183 3.2541L458.665 3.24958L458.664 3.76789L459.179 3.76867ZM460.087 3.77659L460.602 3.7735L460.599 3.26642L460.092 3.26201L460.087 3.77659ZM460.088 3.90941L460.602 3.90826L460.602 3.90633L460.088 3.90941ZM460.307 101.994L459.792 101.995L459.793 102.504L460.302 102.509L460.307 101.994ZM512.914 102.447L512.91 102.961L513.43 102.966L513.429 102.445L512.914 102.447ZM512.695 4.3648L512.181 4.36402L512.181 4.36595L512.695 4.3648ZM512.695 4.22906L512.7 3.71448L512.182 3.70997L512.181 4.22828L512.695 4.22906ZM513.604 4.23697L514.118 4.23389L514.115 3.72681L513.608 3.72239L513.604 4.23697ZM83.664 258.983L83.6684 258.469L83.147 258.464L83.1494 258.986L83.664 258.983ZM83.8934 310.559L83.3788 310.561L83.381 311.069L83.8889 311.073L83.8934 310.559ZM136.717 311.013L136.712 311.528L137.232 311.532L137.231 311.012L136.717 311.013ZM136.601 259.44L137.116 259.439L137.115 258.93L136.606 258.925L136.601 259.44ZM137.511 259.447L137.515 258.932L136.995 258.928L136.996 259.448L137.511 259.447ZM137.626 311.021L137.111 311.022L137.112 311.531L137.621 311.536L137.626 311.021ZM188.517 311.459L188.513 311.974L189.032 311.979L189.032 311.459L188.517 311.459ZM188.517 259.886L189.031 259.886L189.031 259.376L188.521 259.372L188.517 259.886ZM189.298 259.893L189.302 259.378L188.783 259.374L188.783 259.893L189.298 259.893ZM189.299 311.466L188.784 311.466L188.784 311.976L189.294 311.981L189.299 311.466ZM244.433 311.941L244.429 312.455L244.95 312.46L244.948 311.938L244.433 311.941ZM244.204 260.366L244.718 260.363L244.716 259.855L244.208 259.851L244.204 260.366ZM245.241 260.375L245.245 259.86L244.724 259.855L244.726 260.377L245.241 260.375ZM245.47 311.95L244.956 311.952L244.958 312.46L245.466 312.464L245.47 311.95ZM298.293 312.405L298.288 312.92L298.808 312.924L298.807 312.404L298.293 312.405ZM298.177 260.831L298.692 260.83L298.691 260.321L298.182 260.316L298.177 260.831ZM299.088 260.839L299.092 260.324L298.572 260.32L298.573 260.84L299.088 260.839ZM299.203 312.413L298.688 312.414L298.689 312.923L299.198 312.928L299.203 312.413ZM351.81 312.866L351.806 313.38L352.326 313.385L352.325 312.864L351.81 312.866ZM351.695 261.291L352.21 261.29L352.208 260.781L351.699 260.777L351.695 261.291ZM352.604 261.299L352.609 260.785L352.088 260.78L352.09 261.3L352.604 261.299ZM352.719 312.873L352.205 312.875L352.206 313.384L352.715 313.388L352.719 312.873ZM406.011 313.333L406.007 313.847L406.528 313.852L406.526 313.331L406.011 313.333ZM405.782 261.758L406.296 261.755L406.294 261.247L405.786 261.243L405.782 261.758ZM406.819 261.767L406.823 261.252L406.302 261.248L406.304 261.769L406.819 261.767ZM407.048 313.342L406.534 313.344L406.536 313.852L407.044 313.856L407.048 313.342ZM459.871 313.796L459.866 314.311L460.386 314.315L460.385 313.795L459.871 313.796ZM459.755 262.222L460.27 262.221L460.269 261.712L459.76 261.707L459.755 262.222ZM460.664 262.23L460.668 261.715L460.148 261.711L460.149 262.231L460.664 262.23ZM460.779 313.804L460.264 313.805L460.265 314.314L460.774 314.319L460.779 313.804ZM513.387 314.258L513.383 314.772L513.903 314.777L513.902 314.256L513.387 314.258ZM513.272 262.683L513.787 262.682L513.785 262.173L513.276 262.169L513.272 262.683ZM83.4291 206.126L83.4336 205.611L82.9122 205.607L82.9145 206.128L83.4291 206.126ZM83.6575 257.701L83.143 257.703L83.1452 258.211L83.6531 258.216L83.6575 257.701ZM136.599 258.158L136.594 258.672L137.115 258.677L137.114 258.156L136.599 258.158ZM136.484 206.583L136.998 206.582L136.997 206.073L136.488 206.069L136.484 206.583ZM137.393 206.591L137.397 206.077L136.877 206.072L136.878 206.592L137.393 206.591ZM137.508 258.164L136.993 258.166L136.995 258.675L137.504 258.679L137.508 258.164ZM188.516 258.604L188.512 259.119L189.031 259.123L189.031 258.604L188.516 258.604ZM188.515 207.031L189.03 207.031L189.03 206.521L188.519 206.516L188.515 207.031ZM189.296 207.038L189.301 206.523L188.782 206.518L188.782 207.038L189.296 207.038ZM189.297 258.611L188.783 258.611L188.783 259.121L189.293 259.125L189.297 258.611ZM244.197 259.083L244.193 259.598L244.714 259.602L244.712 259.081L244.197 259.083ZM243.969 207.509L244.484 207.507L244.481 206.999L243.973 206.994L243.969 207.509ZM245.006 207.517L245.011 207.002L244.489 206.998L244.492 207.519L245.006 207.517ZM245.236 259.092L244.721 259.095L244.723 259.602L245.231 259.607L245.236 259.092ZM298.175 259.549L298.171 260.063L298.691 260.068L298.69 259.547L298.175 259.549ZM298.06 207.974L298.574 207.973L298.573 207.464L298.064 207.46L298.06 207.974ZM298.97 207.982L298.974 207.468L298.454 207.463L298.455 207.983L298.97 207.982ZM299.085 259.557L298.571 259.558L298.572 260.067L299.081 260.071L299.085 259.557ZM351.692 260.009L351.687 260.524L352.207 260.528L352.206 260.008L351.692 260.009ZM351.576 208.435L352.091 208.434L352.09 207.925L351.581 207.92L351.576 208.435ZM352.487 208.443L352.491 207.928L351.971 207.924L351.972 208.444L352.487 208.443ZM352.602 260.017L352.087 260.018L352.088 260.527L352.597 260.531L352.602 260.017ZM405.776 260.475L405.772 260.99L406.293 260.994L406.291 260.473L405.776 260.475ZM405.547 208.9L406.062 208.898L406.059 208.39L405.551 208.385L405.547 208.9ZM406.584 208.909L406.589 208.394L406.067 208.39L406.07 208.911L406.584 208.909ZM406.813 260.484L406.298 260.487L406.3 260.995L406.808 260.999L406.813 260.484ZM459.753 260.94L459.749 261.454L460.269 261.459L460.268 260.939L459.753 260.94ZM459.638 209.365L460.152 209.364L460.151 208.855L459.642 208.851L459.638 209.365ZM460.546 209.373L460.55 208.859L460.03 208.854L460.031 209.374L460.546 209.373ZM460.661 260.948L460.147 260.949L460.148 261.458L460.657 261.462L460.661 260.948ZM513.27 261.401L513.265 261.916L513.785 261.92L513.784 261.4L513.27 261.401ZM513.154 209.827L513.669 209.826L513.668 209.317L513.159 209.312L513.154 209.827ZM83.4237 204.844L82.9091 204.846L82.9113 205.354L83.4192 205.358L83.4237 204.844ZM136.481 205.301L136.477 205.816L136.997 205.82L136.996 205.3L136.481 205.301ZM136.366 153.567L136.88 153.565L136.879 153.056L136.37 153.052L136.366 153.567ZM83.1938 153.103L83.1982 152.589L82.6769 152.584L82.6792 153.106L83.1938 153.103ZM137.389 205.309L136.875 205.31L136.876 205.819L137.385 205.823L137.389 205.309ZM188.515 205.748L188.51 206.263L189.029 206.267L189.029 205.748L188.515 205.748ZM188.514 154.021L189.029 154.021L189.029 153.511L188.518 153.506L188.514 154.021ZM137.275 153.574L137.279 153.06L136.759 153.055L136.76 153.576L137.275 153.574ZM189.296 205.755L188.781 205.755L188.781 206.265L189.291 206.27L189.296 205.755ZM243.963 206.227L243.958 206.741L244.48 206.746L244.477 206.224L243.963 206.227ZM243.734 154.502L244.248 154.5L244.246 153.992L243.738 153.987L243.734 154.502ZM189.295 154.028L189.3 153.513L188.781 153.509L188.781 154.028L189.295 154.028ZM245.001 206.235L244.486 206.237L244.488 206.745L244.996 206.749L245.001 206.235ZM298.056 206.692L298.052 207.207L298.572 207.211L298.571 206.691L298.056 206.692ZM297.941 154.974L298.456 154.973L298.455 154.464L297.946 154.46L297.941 154.974ZM244.771 154.511L244.775 153.996L244.254 153.992L244.256 154.513L244.771 154.511ZM298.966 206.7L298.452 206.701L298.453 207.21L298.962 207.215L298.966 206.7ZM351.574 207.152L351.569 207.667L352.09 207.671L352.088 207.151L351.574 207.152ZM351.458 155.44L351.973 155.439L351.971 154.93L351.462 154.926L351.458 155.44ZM298.852 154.982L298.856 154.468L298.336 154.463L298.337 154.983L298.852 154.982ZM352.483 207.16L351.968 207.161L351.97 207.671L352.479 207.675L352.483 207.16ZM405.541 207.618L405.536 208.132L406.058 208.137L406.055 207.615L405.541 207.618ZM405.311 155.91L405.826 155.907L405.824 155.399L405.316 155.395L405.311 155.91ZM352.368 155.448L352.373 154.934L351.852 154.929L351.854 155.45L352.368 155.448ZM406.579 207.627L406.064 207.629L406.066 208.137L406.574 208.141L406.579 207.627ZM459.634 208.083L459.63 208.598L460.15 208.602L460.149 208.082L459.634 208.083ZM459.519 156.382L460.034 156.381L460.033 155.872L459.524 155.867L459.519 156.382ZM406.349 155.919L406.354 155.404L405.833 155.4L405.835 155.921L406.349 155.919ZM460.543 208.091L460.029 208.092L460.03 208.601L460.539 208.606L460.543 208.091ZM513.151 208.544L513.146 209.059L513.667 209.064L513.666 208.543L513.151 208.544ZM513.036 156.848L513.55 156.847L513.549 156.338L513.04 156.334L513.036 156.848ZM460.428 156.39L460.433 155.875L459.913 155.871L459.914 156.391L460.428 156.39ZM82.9572 99.777L82.9616 99.2624L82.4402 99.2579L82.4426 99.7793L82.9572 99.777ZM83.19 152.074L82.6754 152.076L82.6777 152.584L83.1856 152.589L83.19 152.074ZM136.363 152.537L136.358 153.052L136.879 153.056L136.877 152.536L136.363 152.537ZM136.246 100.235L136.761 100.234L136.76 99.7252L136.251 99.7208L136.246 100.235ZM137.155 100.243L137.16 99.7287L136.64 99.7242L136.641 100.244L137.155 100.243ZM137.272 152.545L136.757 152.546L136.759 153.055L137.267 153.06L137.272 152.545ZM188.514 152.992L188.51 153.506L189.029 153.511L189.029 152.992L188.514 152.992ZM188.513 100.685L189.027 100.685L189.027 100.175L188.517 100.17L188.513 100.685ZM189.294 100.692L189.298 100.177L188.779 100.173L188.779 100.692L189.294 100.692ZM189.295 152.998L188.781 152.998L188.781 153.508L189.291 153.513L189.295 152.998ZM243.729 153.473L243.724 153.987L244.246 153.992L244.243 153.47L243.729 153.473ZM243.496 101.158L244.011 101.156L244.008 100.648L243.501 100.643L243.496 101.158ZM244.533 101.167L244.538 100.652L244.016 100.648L244.019 101.169L244.533 101.167ZM244.766 153.482L244.251 153.484L244.254 153.992L244.761 153.996L244.766 153.482ZM297.939 153.945L297.934 154.459L298.454 154.464L298.453 153.944L297.939 153.945ZM297.822 101.625L298.337 101.624L298.336 101.115L297.827 101.111L297.822 101.625ZM298.732 101.633L298.737 101.119L298.217 101.114L298.218 101.635L298.732 101.633ZM298.849 153.953L298.334 153.954L298.335 154.463L298.844 154.467L298.849 153.953ZM351.456 154.411L351.452 154.926L351.972 154.93L351.971 154.41L351.456 154.411ZM351.339 102.086L351.853 102.085L351.852 101.576L351.343 101.571L351.339 102.086ZM352.249 102.094L352.253 101.579L351.733 101.575L351.734 102.095L352.249 102.094ZM352.366 154.419L351.852 154.42L351.853 154.929L352.362 154.934L352.366 154.419ZM405.307 154.88L405.302 155.395L405.824 155.399L405.821 154.878L405.307 154.88ZM405.074 102.548L405.589 102.546L405.586 102.038L405.079 102.034L405.074 102.548ZM406.112 102.557L406.117 102.043L405.595 102.038L405.598 102.559L406.112 102.557ZM406.345 154.889L405.83 154.892L405.832 155.399L406.34 155.404L406.345 154.889ZM459.518 155.353L459.513 155.867L460.033 155.872L460.032 155.351L459.518 155.353ZM459.4 103.016L459.915 103.014L459.914 102.505L459.405 102.501L459.4 103.016ZM460.309 103.023L460.314 102.509L459.794 102.504L459.795 103.025L460.309 103.023ZM460.427 155.36L459.912 155.362L459.913 155.871L460.422 155.875L460.427 155.36ZM513.034 155.819L513.03 156.333L513.55 156.338L513.549 155.818L513.034 155.819ZM512.917 103.476L513.431 103.475L513.43 102.966L512.921 102.961L512.917 103.476ZM513.604 4.36979L513.09 4.37094L513.309 102.456L513.823 102.455L514.338 102.453L514.119 4.36865L513.604 4.36979ZM513.823 102.455L513.819 102.969L526.369 103.077L526.374 102.563L526.378 102.048L513.828 101.94L513.823 102.455ZM526.374 102.563L525.859 102.558L525.85 103.588L526.365 103.592L526.879 103.597L526.888 102.567L526.374 102.563ZM526.365 103.592L526.369 103.078L513.83 102.969L513.826 103.484L513.822 103.998L526.36 104.107L526.365 103.592ZM513.826 103.484L513.311 103.485L513.429 155.828L513.943 155.827L514.458 155.826L514.341 103.483L513.826 103.484ZM513.943 155.827L513.939 156.341L525.902 156.446L525.907 155.931L525.911 155.416L513.948 155.312L513.943 155.827ZM525.907 155.931L525.392 155.926L525.383 156.956L525.898 156.96L526.412 156.965L526.421 155.935L525.907 155.931ZM525.898 156.96L525.902 156.446L513.949 156.342L513.945 156.856L513.941 157.371L525.893 157.475L525.898 156.96ZM513.945 156.856L513.43 156.857L513.545 208.554L514.06 208.552L514.575 208.551L514.46 156.855L513.945 156.856ZM514.06 208.552L514.056 209.067L525.433 209.165L525.438 208.651L525.442 208.136L514.064 208.038L514.06 208.552ZM525.438 208.651L525.433 209.165L525.568 209.166L525.572 208.652L525.577 208.137L525.442 208.136L525.438 208.651ZM525.572 208.652L525.058 208.647L525.047 209.929L525.561 209.934L526.076 209.938L526.087 208.656L525.572 208.652ZM525.561 209.934L525.566 209.419L525.431 209.418L525.426 209.933L525.422 210.447L525.557 210.448L525.561 209.934ZM525.426 209.933L525.431 209.418L514.067 209.32L514.063 209.835L514.058 210.349L525.422 210.447L525.426 209.933ZM514.063 209.835L513.548 209.836L513.663 261.41L514.178 261.409L514.692 261.408L514.577 209.834L514.063 209.835ZM514.178 261.409L514.173 261.924L524.967 262.017L524.971 261.502L524.976 260.987L514.182 260.894L514.178 261.409ZM524.971 261.502L524.967 262.017L525.102 262.018L525.106 261.503L525.11 260.989L524.976 260.987L524.971 261.502ZM525.106 261.503L524.591 261.499L524.58 262.781L525.095 262.785L525.609 262.79L525.621 261.508L525.106 261.503ZM525.095 262.785L525.099 262.271L524.965 262.27L524.96 262.784L524.956 263.299L525.09 263.3L525.095 262.785ZM524.96 262.784L524.965 262.27L514.185 262.177L514.18 262.691L514.176 263.206L524.956 263.299L524.96 262.784ZM514.18 262.691L513.666 262.692L513.781 314.267L514.295 314.265L514.81 314.264L514.695 262.69L514.18 262.691ZM514.295 314.265L514.291 314.78L524.501 314.868L524.505 314.353L524.509 313.839L514.3 313.751L514.295 314.265ZM524.505 314.353L524.5 314.868L524.635 314.869L524.64 314.355L524.644 313.84L524.509 313.839L524.505 314.353ZM524.64 314.355L524.125 314.35L524.114 315.632L524.629 315.637L525.143 315.641L525.154 314.359L524.64 314.355ZM524.629 315.637L524.633 315.122L524.498 315.121L524.494 315.636L524.489 316.15L524.624 316.151L524.629 315.637ZM524.494 315.636L524.498 315.121L514.303 315.033L514.299 315.548L514.294 316.062L524.489 316.15L524.494 315.636ZM514.299 315.548L513.784 315.549L514.001 411.977L514.515 411.976L515.03 411.975L514.813 315.547L514.299 315.548ZM514.515 411.976L514.001 411.979L514.002 412.116L514.516 412.113L515.031 412.11L515.03 411.973L514.515 411.976ZM514.516 412.113L514.52 411.598L513.611 411.591L513.607 412.106L513.603 412.621L514.512 412.628L514.516 412.113ZM513.607 412.106L514.122 412.107L514.122 411.974L513.607 411.973L513.093 411.972L513.092 412.105L513.607 412.106ZM513.607 411.973L514.122 411.972L513.905 315.539L513.391 315.54L512.876 315.541L513.093 411.974L513.607 411.973ZM513.391 315.54L513.395 315.025L460.787 314.572L460.782 315.086L460.778 315.601L513.386 316.054L513.391 315.54ZM460.782 315.086L460.268 315.088L460.484 411.517L460.999 411.516L461.513 411.515L461.297 315.085L460.782 315.086ZM460.999 411.516L460.484 411.519L460.485 411.655L461 411.653L461.514 411.65L461.513 411.513L460.999 411.516ZM461 411.653L461.004 411.138L460.094 411.131L460.09 411.646L460.087 412.16L460.996 412.167L461 411.653ZM460.09 411.646L460.605 411.646L460.605 411.513L460.091 411.513L459.576 411.512L459.576 411.645L460.09 411.646ZM460.091 411.513L460.605 411.512L460.389 315.077L459.874 315.079L459.36 315.08L459.576 411.514L460.091 411.513ZM459.874 315.079L459.879 314.564L407.058 314.11L407.054 314.624L407.049 315.139L459.87 315.593L459.874 315.079ZM407.054 314.624L406.539 314.627L406.969 411.058L407.483 411.055L407.998 411.053L407.568 314.622L407.054 314.624ZM407.483 411.055L406.969 411.058L406.969 411.195L407.484 411.192L407.999 411.189L407.998 411.053L407.483 411.055ZM407.484 411.192L407.488 410.678L406.452 410.669L406.448 411.183L406.443 411.698L407.48 411.707L407.484 411.192ZM406.448 411.183L406.962 411.18L406.962 411.047L406.447 411.05L405.933 411.053L405.933 411.186L406.448 411.183ZM406.447 411.05L406.962 411.048L406.531 314.613L406.017 314.615L405.502 314.617L405.933 411.053L406.447 411.05ZM406.017 314.615L406.021 314.101L352.726 313.641L352.722 314.156L352.717 314.67L406.012 315.13L406.017 314.615ZM352.722 314.156L352.207 314.157L352.424 410.587L352.938 410.586L353.453 410.585L353.236 314.155L352.722 314.156ZM352.938 410.586L352.424 410.589L352.425 410.726L352.939 410.723L353.454 410.72L353.453 410.583L352.938 410.586ZM352.939 410.723L352.944 410.208L352.034 410.2L352.03 410.715L352.026 411.229L352.935 411.237L352.939 410.723ZM352.03 410.715L352.545 410.716L352.545 410.583L352.03 410.582L351.516 410.581L351.515 410.714L352.03 410.715ZM352.03 410.582L352.545 410.581L352.328 314.147L351.814 314.148L351.299 314.149L351.516 410.583L352.03 410.582ZM351.814 314.148L351.818 313.633L299.21 313.181L299.205 313.695L299.201 314.21L351.809 314.662L351.814 314.148ZM299.205 313.695L298.691 313.697L298.907 410.127L299.422 410.126L299.936 410.125L299.72 313.694L299.205 313.695ZM299.422 410.126L298.907 410.129L298.908 410.265L299.423 410.262L299.937 410.26L299.936 410.123L299.422 410.126ZM299.423 410.262L299.427 409.748L298.517 409.74L298.512 410.255L298.508 410.769L299.418 410.777L299.423 410.262ZM298.512 410.255L299.027 410.251L299.026 410.119L298.512 410.122L297.997 410.125L297.998 410.258L298.512 410.255ZM298.512 410.122L299.026 410.121L298.81 313.686L298.295 313.687L297.781 313.689L297.997 410.123L298.512 410.122ZM298.295 313.687L298.3 313.173L245.48 312.718L245.476 313.232L245.471 313.747L298.291 314.202L298.295 313.687ZM245.476 313.232L244.961 313.234L245.392 409.668L245.906 409.665L246.421 409.663L245.99 313.23L245.476 313.232ZM245.906 409.665L245.392 409.668L245.392 409.805L245.907 409.802L246.422 409.799L246.421 409.662L245.906 409.665ZM245.907 409.802L245.911 409.287L244.873 409.278L244.869 409.793L244.864 410.308L245.902 410.317L245.907 409.802ZM244.869 409.793L245.384 409.79L245.383 409.657L244.868 409.66L244.354 409.663L244.354 409.796L244.869 409.793ZM244.868 409.66L245.383 409.658L244.953 313.221L244.439 313.223L243.924 313.225L244.354 409.662L244.868 409.66ZM244.439 313.223L244.443 312.709L189.304 312.234L189.299 312.749L189.295 313.263L244.434 313.738L244.439 313.223ZM189.299 312.749L188.785 312.749L188.787 409.18L189.302 409.18L189.816 409.18L189.814 312.749L189.299 312.749ZM189.302 409.18L188.787 409.179L188.787 409.315L189.302 409.316L189.816 409.317L189.816 409.181L189.302 409.18ZM189.302 409.316L189.306 408.801L188.526 408.794L188.521 409.309L188.517 409.824L189.297 409.83L189.302 409.316ZM188.521 409.309L189.036 409.306L189.035 409.172L188.521 409.175L188.006 409.178L188.007 409.312L188.521 409.309ZM188.521 409.175L189.035 409.175L189.033 312.742L188.518 312.742L188.003 312.742L188.006 409.175L188.521 409.175ZM188.518 312.742L188.522 312.227L137.633 311.789L137.628 312.303L137.624 312.818L188.514 313.256L188.518 312.742ZM137.628 312.303L137.114 312.304L137.33 408.737L137.845 408.736L138.359 408.734L138.143 312.302L137.628 312.303ZM137.845 408.736L137.33 408.738L137.331 408.875L137.846 408.872L138.36 408.869L138.359 408.733L137.845 408.736ZM137.846 408.872L137.85 408.358L136.941 408.35L136.936 408.864L136.932 409.379L137.841 409.387L137.846 408.872ZM136.936 408.864L137.451 408.865L137.451 408.732L136.937 408.732L136.422 408.731L136.422 408.864L136.936 408.864ZM136.937 408.732L137.451 408.73L137.235 312.294L136.72 312.295L136.205 312.297L136.422 408.733L136.937 408.732ZM136.72 312.295L136.724 311.781L83.9032 311.326L83.8988 311.841L83.8944 312.356L136.716 312.81L136.72 312.295ZM83.8988 311.841L83.3842 311.843L83.8136 408.278L84.3282 408.275L84.8428 408.273L84.4134 311.839L83.8988 311.841ZM84.3282 408.275L83.8136 408.278L83.8144 408.415L84.329 408.412L84.8436 408.409L84.8428 408.272L84.3282 408.275ZM84.329 408.412L84.3335 407.897L83.2974 407.888L83.2929 408.403L83.2884 408.917L84.3245 408.927L84.329 408.412ZM83.2929 408.403L83.8075 408.4L83.8067 408.267L83.2921 408.27L82.7775 408.273L82.7783 408.406L83.2929 408.403ZM83.2921 408.27L83.8067 408.268L83.3763 311.83L82.8617 311.832L82.3471 311.834L82.7775 408.272L83.2921 408.27ZM82.8617 311.832L82.8661 311.317L0.658253 310.61L0.653825 311.125L0.649397 311.639L82.8573 312.347L82.8617 311.832ZM0.653825 311.125L0.658308 310.61L0.523547 310.609L0.519064 311.123L0.514581 311.638L0.649342 311.639L0.653825 311.125ZM0.519064 311.123L1.03364 311.128L1.04481 309.846L0.530235 309.841L0.0156571 309.837L0.00448657 311.119L0.519064 311.123ZM0.530235 309.841L0.525752 310.356L0.660512 310.357L0.664995 309.842L0.669478 309.328L0.534718 309.327L0.530235 309.841ZM0.664995 309.842L0.660567 310.357L82.8519 311.064L82.8563 310.55L82.8607 310.035L0.669423 309.328L0.664995 309.842ZM82.8563 310.55L83.3709 310.547L83.1415 258.972L82.6269 258.974L82.1123 258.977L82.3417 310.552L82.8563 310.55ZM82.6269 258.974L82.6313 258.46L1.12456 257.759L1.12013 258.273L1.11571 258.788L82.6225 259.489L82.6269 258.974ZM1.12013 258.273L1.12462 257.759L0.989857 257.757L0.985374 258.272L0.980891 258.787L1.11565 258.788L1.12013 258.273ZM0.985374 258.272L1.49995 258.276L1.51112 256.994L0.996545 256.99L0.481967 256.985L0.470796 258.267L0.985374 258.272ZM0.996545 256.99L0.992062 257.504L1.12682 257.506L1.13131 256.991L1.13579 256.476L1.00103 256.475L0.996545 256.99ZM1.13131 256.991L1.12688 257.506L82.617 258.207L82.6215 257.692L82.6259 257.178L1.13573 256.476L1.13131 256.991ZM82.6215 257.692L83.136 257.69L82.9066 206.115L82.392 206.117L81.8775 206.119L82.1069 257.694L82.6215 257.692ZM82.392 206.117L82.3965 205.602L1.59087 204.907L1.58644 205.422L1.58202 205.936L82.3876 206.631L82.392 206.117ZM1.58644 205.422L1.59093 204.907L1.45617 204.906L1.45168 205.421L1.4472 205.935L1.58196 205.936L1.58644 205.422ZM1.45168 205.421L1.96626 205.425L1.97743 204.143L1.46285 204.138L0.948277 204.134L0.937106 205.416L1.45168 205.421ZM1.46285 204.138L1.45837 204.653L1.59313 204.654L1.59761 204.14L1.6021 203.625L1.46734 203.624L1.46285 204.138ZM1.59761 204.14L1.59319 204.654L82.3822 205.349L82.3866 204.835L82.391 204.32L1.60204 203.625L1.59761 204.14ZM82.3866 204.835L82.9012 204.832L82.6713 153.092L82.1567 153.094L81.6421 153.097L81.872 204.837L82.3866 204.835ZM82.1567 153.094L82.1612 152.58L2.06168 151.882L2.0572 152.396L2.05271 152.911L82.1522 153.609L82.1567 153.094ZM2.0572 152.396L2.57178 152.401L2.58074 151.372L2.06617 151.367L1.55159 151.363L1.54262 152.392L2.0572 152.396ZM2.06617 151.367L2.06168 151.882L82.1475 152.579L82.152 152.065L82.1565 151.55L2.07065 150.853L2.06617 151.367ZM82.152 152.065L82.6666 152.063L82.4337 99.7656L81.9191 99.7679L81.4045 99.7702L81.6374 152.067L82.152 152.065ZM81.9191 99.7679L81.9235 99.2533L2.52901 98.5704L2.52459 99.085L2.52016 99.5996L81.9147 100.282L81.9191 99.7679ZM2.52459 99.085L3.03916 99.0895L3.04813 98.0602L2.53355 98.0558L2.01897 98.0513L2.01001 99.0805L2.52459 99.085ZM2.53355 98.0558L2.52913 98.5703L81.91 99.2531L81.9144 98.7385L81.9188 98.224L2.53798 97.5412L2.53355 98.0558ZM81.9144 98.7385L82.429 98.7363L81.9934 0.653546L81.4788 0.655832L80.9642 0.658117L81.3998 98.7408L81.9144 98.7385ZM81.4788 0.655832L81.9934 0.652964L81.9927 0.516233L81.4781 0.519101L80.9635 0.521969L80.9642 0.658699L81.4788 0.655832ZM81.4781 0.519101L81.4736 1.03368L82.5126 1.04273L82.5171 0.528153L82.5216 0.0135754L81.4825 0.00452331L81.4781 0.519101ZM82.5171 0.528153L82.0025 0.531237L82.0033 0.664061L82.5179 0.660978L83.0325 0.657894L83.0317 0.525069L82.5171 0.528153ZM82.5179 0.660978L82.0033 0.663263L82.4388 98.7499L82.9534 98.7476L83.468 98.7453L83.0325 0.658693L82.5179 0.660978ZM82.9534 98.7476L82.949 99.2622L136.239 99.7206L136.243 99.206L136.248 98.6914L82.9579 98.233L82.9534 98.7476ZM136.243 99.206L136.758 99.2049L136.539 1.12306L136.025 1.12421L135.51 1.12536L135.729 99.2072L136.243 99.206ZM136.025 1.12421L136.539 1.12499L136.539 0.989243L136.025 0.988462L135.51 0.987681L135.51 1.12343L136.025 1.12421ZM136.025 0.988462L136.02 1.50304L136.929 1.51095L136.933 0.996374L136.938 0.481796L136.029 0.473884L136.025 0.988462ZM136.933 0.996374L136.418 0.999458L136.419 1.13228L136.934 1.1292L137.448 1.12611L137.448 0.99329L136.933 0.996374ZM136.934 1.1292L136.419 1.13035L136.638 99.2151L137.153 99.2139L137.667 99.2128L137.448 1.12805L136.934 1.1292ZM137.153 99.2139L137.148 99.7285L188.509 100.17L188.513 99.6555L188.517 99.141L137.157 98.6993L137.153 99.2139ZM188.513 99.6555L189.028 99.6555L189.026 1.57561L188.511 1.57562L187.996 1.57563L187.998 99.6555L188.513 99.6555ZM188.511 1.57562L189.026 1.5764L189.026 1.44065L188.511 1.43987L187.997 1.43909L187.996 1.57484L188.511 1.57562ZM188.511 1.43987L188.507 1.95445L189.288 1.96126L189.292 1.44668L189.297 0.9321L188.516 0.925294L188.511 1.43987ZM189.292 1.44668L188.778 1.44595L188.778 1.57974L189.292 1.58047L189.807 1.5812L189.807 1.4474L189.292 1.44668ZM189.292 1.58047L188.778 1.58048L188.78 99.6623L189.294 99.6623L189.809 99.6623L189.807 1.58046L189.292 1.58047ZM189.294 99.6623L189.29 100.177L243.487 100.643L243.491 100.129L243.496 99.6141L189.299 99.1478L189.294 99.6623ZM243.491 100.129L244.006 100.126L243.57 2.04365L243.056 2.04594L242.541 2.04822L242.977 100.131L243.491 100.129ZM243.056 2.04594L243.57 2.04307L243.57 1.90634L243.055 1.90921L242.541 1.91207L242.541 2.0488L243.056 2.04594ZM243.055 1.90921L243.051 2.42378L244.088 2.43282L244.092 1.91824L244.097 1.40366L243.06 1.39463L243.055 1.90921ZM244.092 1.91824L243.578 1.92133L243.578 2.05415L244.093 2.05107L244.608 2.04798L244.607 1.91516L244.092 1.91824ZM244.093 2.05107L243.578 2.05335L244.014 100.14L244.528 100.138L245.043 100.135L244.608 2.04878L244.093 2.05107ZM244.528 100.138L244.524 100.652L297.816 101.111L297.82 100.596L297.825 100.082L244.533 99.6231L244.528 100.138ZM297.82 100.596L298.335 100.595L298.116 2.51316L297.602 2.51431L297.087 2.51546L297.306 100.597L297.82 100.596ZM297.602 2.51431L298.116 2.51509L298.117 2.37935L297.602 2.37857L297.087 2.37779L297.087 2.51353L297.602 2.51431ZM297.602 2.37857L297.597 2.89314L298.506 2.90106L298.51 2.38648L298.515 1.8719L297.606 1.86399L297.602 2.37857ZM298.51 2.38648L297.995 2.38956L297.996 2.52239L298.511 2.5193L299.025 2.51622L299.025 2.3834L298.51 2.38648ZM298.511 2.5193L297.996 2.52045L298.215 100.605L298.73 100.604L299.244 100.603L299.025 2.51816L298.511 2.5193ZM298.73 100.604L298.725 101.119L351.332 101.571L351.336 101.056L351.34 100.542L298.734 100.089L298.73 100.604ZM351.336 101.056L351.851 101.055L351.632 2.97354L351.117 2.97469L350.603 2.97584L350.821 101.058L351.336 101.056ZM351.117 2.97469L351.632 2.97547L351.632 2.83973L351.117 2.83894L350.603 2.83816L350.603 2.97391L351.117 2.97469ZM351.117 2.83894L351.113 3.35352L352.023 3.36145L352.028 2.84687L352.032 2.3323L351.122 2.32437L351.117 2.83894ZM352.028 2.84687L351.513 2.84617L351.513 2.97899L352.027 2.97969L352.542 2.98039L352.542 2.84757L352.028 2.84687ZM352.027 2.97969L351.513 2.98084L351.732 101.066L352.246 101.064L352.761 101.063L352.542 2.97854L352.027 2.97969ZM352.246 101.064L352.242 101.579L405.065 102.033L405.069 101.519L405.074 101.004L352.251 100.55L352.246 101.064ZM405.069 101.519L405.584 101.516L405.148 3.43377L404.634 3.43605L404.119 3.43834L404.555 101.521L405.069 101.519ZM404.634 3.43605L405.148 3.43318L405.148 3.29645L404.633 3.29932L404.118 3.30219L404.119 3.43892L404.634 3.43605ZM404.633 3.29932L404.629 3.8139L405.668 3.82295L405.672 3.30837L405.677 2.7938L404.638 2.78474L404.633 3.29932ZM405.672 3.30837L405.158 3.31146L405.158 3.44428L405.673 3.4412L406.187 3.43811L406.187 3.30529L405.672 3.30837ZM405.673 3.4412L405.158 3.44348L405.594 101.53L406.108 101.528L406.623 101.526L406.188 3.43891L405.673 3.4412ZM406.108 101.528L406.104 102.042L459.393 102.501L459.397 101.986L459.402 101.472L406.113 101.013L406.108 101.528ZM459.397 101.986L459.912 101.985L459.693 3.90327L459.179 3.90442L458.664 3.90557L458.883 101.987L459.397 101.986ZM459.179 3.90442L459.693 3.9052L459.694 3.76945L459.179 3.76867L458.664 3.76789L458.664 3.90364L459.179 3.90442ZM459.179 3.76867L459.174 4.28325L460.083 4.29116L460.087 3.77659L460.092 3.26201L459.183 3.2541L459.179 3.76867ZM460.087 3.77659L459.573 3.77967L459.573 3.91249L460.088 3.90941L460.602 3.90633L460.602 3.7735L460.087 3.77659ZM460.088 3.90941L459.573 3.91056L459.792 101.995L460.307 101.994L460.821 101.993L460.602 3.90826L460.088 3.90941ZM460.307 101.994L460.302 102.509L512.91 102.961L512.914 102.447L512.918 101.932L460.311 101.48L460.307 101.994ZM512.914 102.447L513.429 102.445L513.21 4.36366L512.695 4.3648L512.181 4.36595L512.399 102.448L512.914 102.447ZM512.695 4.3648L513.21 4.36558L513.21 4.22984L512.695 4.22906L512.181 4.22828L512.181 4.36402L512.695 4.3648ZM512.695 4.22906L512.691 4.74364L513.599 4.75155L513.604 4.23697L513.608 3.72239L512.7 3.71448L512.695 4.22906ZM513.604 4.23697L513.089 4.24005L513.09 4.37288L513.604 4.36979L514.119 4.36671L514.118 4.23389L513.604 4.23697ZM83.664 258.983L83.1494 258.986L83.3788 310.561L83.8934 310.559L84.4079 310.556L84.1785 258.981L83.664 258.983ZM83.8934 310.559L83.8889 311.073L136.712 311.528L136.717 311.013L136.721 310.499L83.8978 310.044L83.8934 310.559ZM136.717 311.013L137.231 311.012L137.116 259.439L136.601 259.44L136.087 259.441L136.202 311.014L136.717 311.013ZM136.601 259.44L136.606 258.925L83.6684 258.469L83.664 258.983L83.6595 259.498L136.597 259.954L136.601 259.44ZM137.511 259.447L136.996 259.448L137.111 311.022L137.626 311.021L138.14 311.02L138.025 259.446L137.511 259.447ZM137.626 311.021L137.621 311.536L188.513 311.974L188.517 311.459L188.522 310.945L137.63 310.506L137.626 311.021ZM188.517 311.459L189.032 311.459L189.031 259.886L188.517 259.886L188.002 259.886L188.003 311.459L188.517 311.459ZM188.517 259.886L188.521 259.372L137.515 258.932L137.511 259.447L137.506 259.961L188.512 260.401L188.517 259.886ZM189.298 259.893L188.783 259.893L188.784 311.466L189.299 311.466L189.813 311.466L189.812 259.893L189.298 259.893ZM189.299 311.466L189.294 311.981L244.429 312.455L244.433 311.941L244.438 311.426L189.303 310.952L189.299 311.466ZM244.433 311.941L244.948 311.938L244.718 260.363L244.204 260.366L243.689 260.368L243.919 311.943L244.433 311.941ZM244.204 260.366L244.208 259.851L189.302 259.378L189.298 259.893L189.293 260.408L244.199 260.88L244.204 260.366ZM245.241 260.375L244.726 260.377L244.956 311.952L245.47 311.95L245.985 311.948L245.756 260.372L245.241 260.375ZM245.47 311.95L245.466 312.464L298.288 312.92L298.293 312.405L298.297 311.891L245.475 311.435L245.47 311.95ZM298.293 312.405L298.807 312.404L298.692 260.83L298.177 260.831L297.663 260.832L297.778 312.406L298.293 312.405ZM298.177 260.831L298.182 260.316L245.245 259.86L245.241 260.375L245.237 260.889L298.173 261.345L298.177 260.831ZM299.088 260.839L298.573 260.84L298.688 312.414L299.203 312.413L299.717 312.412L299.602 260.838L299.088 260.839ZM299.203 312.413L299.198 312.928L351.806 313.38L351.81 312.866L351.815 312.351L299.207 311.898L299.203 312.413ZM351.81 312.866L352.325 312.864L352.21 261.29L351.695 261.291L351.18 261.292L351.296 312.867L351.81 312.866ZM351.695 261.291L351.699 260.777L299.092 260.324L299.088 260.839L299.083 261.353L351.691 261.806L351.695 261.291ZM352.604 261.299L352.09 261.3L352.205 312.875L352.719 312.873L353.234 312.872L353.119 261.298L352.604 261.299ZM352.719 312.873L352.715 313.388L406.007 313.847L406.011 313.333L406.016 312.818L352.724 312.359L352.719 312.873ZM406.011 313.333L406.526 313.331L406.296 261.755L405.782 261.758L405.267 261.76L405.497 313.335L406.011 313.333ZM405.782 261.758L405.786 261.243L352.609 260.785L352.604 261.299L352.6 261.814L405.777 262.272L405.782 261.758ZM406.819 261.767L406.304 261.769L406.534 313.344L407.048 313.342L407.563 313.34L407.334 261.764L406.819 261.767ZM407.048 313.342L407.044 313.856L459.866 314.311L459.871 313.796L459.875 313.282L407.053 312.827L407.048 313.342ZM459.871 313.796L460.385 313.795L460.27 262.221L459.755 262.222L459.241 262.223L459.356 313.797L459.871 313.796ZM459.755 262.222L459.76 261.707L406.823 261.252L406.819 261.767L406.815 262.281L459.751 262.737L459.755 262.222ZM460.664 262.23L460.149 262.231L460.264 313.805L460.779 313.804L461.293 313.803L461.178 262.229L460.664 262.23ZM460.779 313.804L460.774 314.319L513.383 314.772L513.387 314.258L513.392 313.743L460.783 313.29L460.779 313.804ZM513.387 314.258L513.902 314.256L513.787 262.682L513.272 262.683L512.757 262.684L512.873 314.259L513.387 314.258ZM513.272 262.683L513.276 262.169L460.668 261.715L460.664 262.23L460.659 262.744L513.268 263.198L513.272 262.683ZM83.4291 206.126L82.9145 206.128L83.143 257.703L83.6575 257.701L84.1721 257.699L83.9437 206.124L83.4291 206.126ZM83.6575 257.701L83.6531 258.216L136.594 258.672L136.599 258.158L136.603 257.643L83.662 257.187L83.6575 257.701ZM136.599 258.158L137.114 258.156L136.998 206.582L136.484 206.583L135.969 206.584L136.084 258.159L136.599 258.158ZM136.484 206.583L136.488 206.069L83.4336 205.611L83.4291 206.126L83.4247 206.641L136.479 207.098L136.484 206.583ZM137.393 206.591L136.878 206.592L136.993 258.166L137.508 258.164L138.023 258.163L137.908 206.59L137.393 206.591ZM137.508 258.164L137.504 258.679L188.512 259.119L188.516 258.604L188.52 258.089L137.513 257.65L137.508 258.164ZM188.516 258.604L189.031 258.604L189.03 207.031L188.515 207.031L188 207.031L188.001 258.604L188.516 258.604ZM188.515 207.031L188.519 206.516L137.397 206.077L137.393 206.591L137.389 207.106L188.511 207.545L188.515 207.031ZM189.296 207.038L188.782 207.038L188.783 258.611L189.297 258.611L189.812 258.611L189.811 207.038L189.296 207.038ZM189.297 258.611L189.293 259.125L244.193 259.598L244.197 259.083L244.202 258.569L189.302 258.096L189.297 258.611ZM244.197 259.083L244.712 259.081L244.484 207.507L243.969 207.509L243.454 207.511L243.683 259.086L244.197 259.083ZM243.969 207.509L243.973 206.994L189.301 206.523L189.296 207.038L189.292 207.552L243.965 208.024L243.969 207.509ZM245.006 207.517L244.492 207.519L244.721 259.095L245.236 259.092L245.75 259.09L245.521 207.515L245.006 207.517ZM245.236 259.092L245.231 259.607L298.171 260.063L298.175 259.549L298.179 259.034L245.24 258.578L245.236 259.092ZM298.175 259.549L298.69 259.547L298.574 207.973L298.06 207.974L297.545 207.975L297.66 259.55L298.175 259.549ZM298.06 207.974L298.064 207.46L245.011 207.002L245.006 207.517L245.002 208.032L298.055 208.489L298.06 207.974ZM298.97 207.982L298.455 207.983L298.571 259.558L299.085 259.557L299.6 259.555L299.485 207.981L298.97 207.982ZM299.085 259.557L299.081 260.071L351.687 260.524L351.692 260.009L351.696 259.494L299.09 259.042L299.085 259.557ZM351.692 260.009L352.206 260.008L352.091 208.434L351.576 208.435L351.062 208.436L351.177 260.01L351.692 260.009ZM351.576 208.435L351.581 207.92L298.974 207.468L298.97 207.982L298.966 208.497L351.572 208.949L351.576 208.435ZM352.487 208.443L351.972 208.444L352.087 260.018L352.602 260.017L353.116 260.016L353.001 208.442L352.487 208.443ZM352.602 260.017L352.597 260.531L405.772 260.99L405.776 260.475L405.781 259.961L352.606 259.502L352.602 260.017ZM405.776 260.475L406.291 260.473L406.062 208.898L405.547 208.9L405.032 208.902L405.262 260.478L405.776 260.475ZM405.547 208.9L405.551 208.385L352.491 207.928L352.487 208.443L352.482 208.957L405.543 209.415L405.547 208.9ZM406.584 208.909L406.07 208.911L406.298 260.487L406.813 260.484L407.327 260.482L407.099 208.907L406.584 208.909ZM406.813 260.484L406.808 260.999L459.749 261.454L459.753 260.94L459.757 260.425L406.817 259.97L406.813 260.484ZM459.753 260.94L460.268 260.939L460.152 209.364L459.638 209.365L459.123 209.367L459.238 260.941L459.753 260.94ZM459.638 209.365L459.642 208.851L406.589 208.394L406.584 208.909L406.58 209.424L459.633 209.88L459.638 209.365ZM460.546 209.373L460.031 209.374L460.147 260.949L460.661 260.948L461.176 260.946L461.061 209.372L460.546 209.373ZM460.661 260.948L460.657 261.462L513.265 261.916L513.27 261.401L513.274 260.886L460.666 260.433L460.661 260.948ZM513.27 261.401L513.784 261.4L513.669 209.826L513.154 209.827L512.64 209.828L512.755 261.402L513.27 261.401ZM513.154 209.827L513.159 209.312L460.55 208.859L460.546 209.373L460.542 209.888L513.15 210.341L513.154 209.827ZM83.4237 204.844L83.4192 205.358L136.477 205.816L136.481 205.301L136.486 204.786L83.4281 204.329L83.4237 204.844ZM136.481 205.301L136.996 205.3L136.88 153.565L136.366 153.567L135.851 153.568L135.967 205.302L136.481 205.301ZM136.366 153.567L136.37 153.052L83.1982 152.589L83.1938 153.103L83.1893 153.618L136.361 154.081L136.366 153.567ZM83.1938 153.103L82.6792 153.106L82.9091 204.846L83.4237 204.844L83.9383 204.841L83.7084 153.101L83.1938 153.103ZM137.389 205.309L137.385 205.823L188.51 206.263L188.515 205.748L188.519 205.234L137.394 204.794L137.389 205.309ZM188.515 205.748L189.029 205.748L189.029 154.021L188.514 154.021L187.999 154.021L188 205.748L188.515 205.748ZM188.514 154.021L188.518 153.506L137.279 153.06L137.275 153.574L137.27 154.089L188.51 154.535L188.514 154.021ZM137.275 153.574L136.76 153.576L136.875 205.31L137.389 205.309L137.904 205.308L137.789 153.573L137.275 153.574ZM189.296 205.755L189.291 206.27L243.958 206.741L243.963 206.227L243.967 205.712L189.3 205.241L189.296 205.755ZM243.963 206.227L244.477 206.224L244.248 154.5L243.734 154.502L243.219 154.504L243.448 206.229L243.963 206.227ZM243.734 154.502L243.738 153.987L189.3 153.513L189.295 154.028L189.291 154.542L243.729 155.017L243.734 154.502ZM189.295 154.028L188.781 154.028L188.781 205.755L189.296 205.755L189.81 205.755L189.81 154.028L189.295 154.028ZM245.001 206.235L244.996 206.749L298.052 207.207L298.056 206.692L298.061 206.177L245.005 205.72L245.001 206.235ZM298.056 206.692L298.571 206.691L298.456 154.973L297.941 154.974L297.427 154.975L297.542 206.693L298.056 206.692ZM297.941 154.974L297.946 154.46L244.775 153.996L244.771 154.511L244.766 155.026L297.937 155.489L297.941 154.974ZM244.771 154.511L244.256 154.513L244.486 206.237L245.001 206.235L245.515 206.232L245.285 154.509L244.771 154.511ZM298.966 206.7L298.962 207.215L351.569 207.667L351.574 207.152L351.578 206.638L298.971 206.185L298.966 206.7ZM351.574 207.152L352.088 207.151L351.973 155.439L351.458 155.44L350.943 155.442L351.059 207.154L351.574 207.152ZM351.458 155.44L351.462 154.926L298.856 154.468L298.852 154.982L298.847 155.497L351.454 155.955L351.458 155.44ZM298.852 154.982L298.337 154.983L298.452 206.701L298.966 206.7L299.481 206.699L299.366 154.981L298.852 154.982ZM352.483 207.16L352.479 207.675L405.536 208.132L405.541 207.618L405.545 207.103L352.487 206.646L352.483 207.16ZM405.541 207.618L406.055 207.615L405.826 155.907L405.311 155.91L404.797 155.912L405.026 207.62L405.541 207.618ZM405.311 155.91L405.316 155.395L352.373 154.934L352.368 155.448L352.364 155.963L405.307 156.424L405.311 155.91ZM352.368 155.448L351.854 155.45L351.968 207.161L352.483 207.16L352.998 207.159L352.883 155.447L352.368 155.448ZM406.579 207.627L406.574 208.141L459.63 208.598L459.634 208.083L459.639 207.569L406.583 207.112L406.579 207.627ZM459.634 208.083L460.149 208.082L460.034 156.381L459.519 156.382L459.005 156.383L459.12 208.084L459.634 208.083ZM459.519 156.382L459.524 155.867L406.354 155.404L406.349 155.919L406.345 156.433L459.515 156.897L459.519 156.382ZM406.349 155.919L405.835 155.921L406.064 207.629L406.579 207.627L407.093 207.624L406.864 155.916L406.349 155.919ZM460.543 208.091L460.539 208.606L513.146 209.059L513.151 208.544L513.155 208.03L460.548 207.576L460.543 208.091ZM513.151 208.544L513.666 208.543L513.55 156.847L513.036 156.848L512.521 156.849L512.636 208.546L513.151 208.544ZM513.036 156.848L513.04 156.334L460.433 155.875L460.428 156.39L460.424 156.904L513.031 157.363L513.036 156.848ZM460.428 156.39L459.914 156.391L460.029 208.092L460.543 208.091L461.058 208.09L460.943 156.389L460.428 156.39ZM82.9572 99.777L82.4426 99.7793L82.6754 152.076L83.19 152.074L83.7046 152.072L83.4717 99.7747L82.9572 99.777ZM83.19 152.074L83.1856 152.589L136.358 153.052L136.363 152.537L136.367 152.023L83.1945 151.559L83.19 152.074ZM136.363 152.537L136.877 152.536L136.761 100.234L136.246 100.235L135.732 100.237L135.848 152.538L136.363 152.537ZM136.246 100.235L136.251 99.7208L82.9616 99.2624L82.9572 99.777L82.9527 100.292L136.242 100.75L136.246 100.235ZM137.155 100.243L136.641 100.244L136.757 152.546L137.272 152.545L137.787 152.544L137.67 100.242L137.155 100.243ZM137.272 152.545L137.267 153.06L188.51 153.506L188.514 152.992L188.519 152.477L137.276 152.031L137.272 152.545ZM188.514 152.992L189.029 152.992L189.027 100.685L188.513 100.685L187.998 100.685L188 152.992L188.514 152.992ZM188.513 100.685L188.517 100.17L137.16 99.7287L137.155 100.243L137.151 100.758L188.508 101.199L188.513 100.685ZM189.294 100.692L188.779 100.692L188.781 152.998L189.295 152.998L189.81 152.998L189.809 100.692L189.294 100.692ZM189.295 152.998L189.291 153.513L243.724 153.987L243.729 153.473L243.733 152.958L189.3 152.484L189.295 152.998ZM243.729 153.473L244.243 153.47L244.011 101.156L243.496 101.158L242.982 101.16L243.214 153.475L243.729 153.473ZM243.496 101.158L243.501 100.643L189.298 100.177L189.294 100.692L189.29 101.206L243.492 101.673L243.496 101.158ZM244.533 101.167L244.019 101.169L244.251 153.484L244.766 153.482L245.281 153.479L245.048 101.165L244.533 101.167ZM244.766 153.482L244.761 153.996L297.934 154.459L297.939 153.945L297.943 153.43L244.77 152.967L244.766 153.482ZM297.939 153.945L298.453 153.944L298.337 101.624L297.822 101.625L297.308 101.627L297.424 153.946L297.939 153.945ZM297.822 101.625L297.827 101.111L244.538 100.652L244.533 101.167L244.529 101.682L297.818 102.14L297.822 101.625ZM298.732 101.633L298.218 101.635L298.334 153.954L298.849 153.953L299.363 153.952L299.247 101.632L298.732 101.633ZM298.849 153.953L298.844 154.467L351.452 154.926L351.456 154.411L351.461 153.897L298.853 153.438L298.849 153.953ZM351.456 154.411L351.971 154.41L351.853 102.085L351.339 102.086L350.824 102.087L350.942 154.412L351.456 154.411ZM351.339 102.086L351.343 101.571L298.737 101.119L298.732 101.633L298.728 102.148L351.334 102.6L351.339 102.086ZM352.249 102.094L351.734 102.095L351.852 154.42L352.366 154.419L352.881 154.418L352.764 102.093L352.249 102.094ZM352.366 154.419L352.362 154.934L405.302 155.395L405.307 154.88L405.311 154.366L352.371 153.904L352.366 154.419ZM405.307 154.88L405.821 154.878L405.589 102.546L405.074 102.548L404.56 102.55L404.792 154.883L405.307 154.88ZM405.074 102.548L405.079 102.034L352.253 101.579L352.249 102.094L352.245 102.608L405.07 103.063L405.074 102.548ZM406.112 102.557L405.598 102.559L405.83 154.892L406.345 154.889L406.859 154.887L406.627 102.555L406.112 102.557ZM406.345 154.889L406.34 155.404L459.513 155.867L459.518 155.353L459.522 154.838L406.349 154.375L406.345 154.889ZM459.518 155.353L460.032 155.351L459.915 103.014L459.4 103.016L458.886 103.017L459.003 155.354L459.518 155.353ZM459.4 103.016L459.405 102.501L406.117 102.043L406.112 102.557L406.108 103.072L459.396 103.53L459.4 103.016ZM460.309 103.023L459.795 103.025L459.912 155.362L460.427 155.36L460.941 155.359L460.824 103.022L460.309 103.023ZM460.427 155.36L460.422 155.875L513.03 156.333L513.034 155.819L513.039 155.304L460.431 154.846L460.427 155.36ZM513.034 155.819L513.549 155.818L513.431 103.475L512.917 103.476L512.402 103.477L512.519 155.82L513.034 155.819ZM512.917 103.476L512.921 102.961L460.314 102.509L460.309 103.023L460.305 103.538L512.912 103.991L512.917 103.476Z" fill="url(#paint0_radial_1_3993)"/>
<defs>
<radialGradient id="paint0_radial_1_3993" cx="0" cy="0" r="1" gradientTransform="matrix(95.2484 118.589 -152.393 122.381 271.092 209.836)" gradientUnits="userSpaceOnUse">
<stop stop-color="#7A7A7A"/>
<stop offset="1" stop-color="#FAFAFA" stop-opacity="0"/>
</radialGradient>
</defs>
</svg>
