<svg width="40" height="40" viewBox="0 0 40 40" fill="none" xmlns="http://www.w3.org/2000/svg">
<rect x="0.5" y="0.5" width="39" height="39" rx="19.5" stroke="#CBD5E1"/>
<path d="M24.1266 10.2979C24.6128 10.298 25.0945 10.394 25.5436 10.5801C25.9929 10.7663 26.402 11.0388 26.7458 11.3828C27.0896 11.7268 27.3615 12.1357 27.5475 12.585C27.7335 13.0342 27.8298 13.5157 27.8298 14.002C27.8296 14.4883 27.7338 14.9706 27.5475 15.4199C27.3614 15.8688 27.0884 16.2765 26.7448 16.6201L26.7292 16.6348V16.6357L17.7477 25.2812C17.6457 25.3794 17.5251 25.4562 17.3932 25.5078C17.2614 25.5594 17.1207 25.5848 16.9792 25.582C16.8377 25.5793 16.6978 25.5489 16.5681 25.4922C16.4384 25.4355 16.3215 25.353 16.2233 25.251C16.1252 25.1489 16.0474 25.0283 15.9958 24.8965C15.9443 24.7648 15.9188 24.6238 15.9216 24.4824C15.9244 24.3411 15.9558 24.2018 16.0124 24.0723C16.0691 23.9425 16.1506 23.8247 16.2526 23.7266L25.2253 15.0908L25.2263 15.0898C25.5155 14.7988 25.6767 14.4044 25.6755 13.9941C25.6742 13.5839 25.5104 13.1906 25.2194 12.9014C25.0754 12.7583 24.9043 12.6455 24.7165 12.5684C24.5286 12.4912 24.3269 12.4515 24.1237 12.4521C23.7137 12.4535 23.3211 12.6175 23.0319 12.9082L13.8288 22.083C13.1873 22.7249 12.8267 23.5954 12.8268 24.5029C12.8269 24.9523 12.9156 25.3974 13.0876 25.8125C13.2596 26.2277 13.512 26.6051 13.8298 26.9229C14.1475 27.2405 14.525 27.4922 14.9401 27.6641C15.3554 27.836 15.8012 27.9249 16.2507 27.9248C17.1581 27.9245 18.028 27.5636 18.6696 26.9219L26.363 19.2344C26.4633 19.1341 26.5825 19.0543 26.7136 19C26.8445 18.9458 26.9849 18.918 27.1266 18.918C27.2683 18.918 27.4088 18.9459 27.5397 19C27.6707 19.0543 27.7901 19.1342 27.8903 19.2344C27.9906 19.3347 28.0704 19.4539 28.1247 19.585C28.1789 19.7159 28.2067 19.8563 28.2067 19.998C28.2067 20.1398 28.1789 20.2802 28.1247 20.4111C28.0718 20.5388 27.9938 20.6543 27.8972 20.7529L27.8962 20.7539L27.8864 20.7627L20.194 28.4502C19.1476 29.4962 17.7283 30.0842 16.2487 30.084C14.7693 30.0837 13.3504 29.4954 12.3044 28.4492C11.2584 27.4028 10.6704 25.9835 10.6706 24.5039C10.6709 23.0244 11.2591 21.6056 12.3054 20.5596L21.5075 11.3818C22.2022 10.6875 23.1445 10.2977 24.1266 10.2979Z" fill="#475569" stroke="#475569" stroke-width="0.09375"/>
</svg>
