<svg width="233" height="32" viewBox="0 0 233 32" fill="none" xmlns="http://www.w3.org/2000/svg">
<g clip-path="url(#clip0_1_3945)">
<path d="M59.1868 10.0598L54.033 10.0598L54.033 24.9998L51.3586 24.9998L51.3586 10.0598L46.1934 10.0598L46.1934 7.71983L59.1868 7.71983L59.1868 10.0598ZM75.1692 7.71984L75.1692 24.9998L72.4833 24.9998L72.4833 17.3078L64.1845 17.3078L64.1845 24.9998L61.4871 24.9998L61.4871 7.71983L64.1845 7.71984L64.1845 15.2798L72.4833 15.2798L72.4833 7.71984L75.1692 7.71984ZM89.4271 22.7318L89.4156 24.9998L79.1081 24.9998L79.1081 7.71984L89.4156 7.71984L89.4156 9.98784L81.8055 9.98784L81.8055 15.1958L87.889 15.1958L87.889 17.3918L81.8055 17.3918L81.8055 22.7318L89.4271 22.7318ZM111.733 7.71984L111.733 24.9998L109.047 24.9998L109.047 17.3078L100.749 17.3078L100.749 24.9998L98.0517 24.9998L98.0517 7.71984L100.749 7.71984L100.749 15.2798L109.047 15.2798L109.047 7.71984L111.733 7.71984ZM124.419 18.5198L122.146 12.2078C121.962 11.7198 121.775 11.0998 121.584 10.3478C121.499 10.7238 121.408 11.0718 121.308 11.3918C121.209 11.7038 121.117 11.9798 121.033 12.2198L118.76 18.5198L124.419 18.5198ZM129.504 24.9998L127.426 24.9998C127.189 24.9998 126.998 24.9398 126.852 24.8198C126.707 24.6918 126.596 24.5358 126.519 24.3518L125.142 20.5358L118.025 20.5358L116.648 24.3518C116.587 24.5118 116.48 24.6598 116.327 24.7958C116.174 24.9318 115.982 24.9998 115.753 24.9998L113.675 24.9998L120.229 7.71984L122.95 7.71985L129.504 24.9998ZM145.115 7.71985L145.115 24.9998L143.749 24.9998C143.543 24.9998 143.367 24.9638 143.221 24.8918C143.076 24.8118 142.938 24.6838 142.808 24.5078L133.729 12.3158C133.752 12.5478 133.767 12.7798 133.775 13.0118C133.79 13.2358 133.797 13.4438 133.797 13.6358L133.797 24.9998L131.433 24.9998L131.433 7.71985L132.833 7.71985C132.948 7.71985 133.044 7.72785 133.12 7.74385C133.204 7.75185 133.281 7.77185 133.35 7.80385C133.419 7.83585 133.484 7.88385 133.545 7.94785C133.606 8.01185 133.671 8.09185 133.74 8.18785L142.831 20.3918C142.808 20.1438 142.789 19.8998 142.774 19.6598C142.766 19.4198 142.762 19.1959 142.762 18.9878L142.762 7.71985L145.115 7.71985ZM163.563 16.3599C163.563 17.6399 163.364 18.8119 162.966 19.8759C162.568 20.9319 162.005 21.8399 161.278 22.5999C160.559 23.3599 159.691 23.9519 158.673 24.3759C157.663 24.7919 156.538 24.9999 155.298 24.9999L149.054 24.9999L149.054 7.71985L155.298 7.71985C156.538 7.71985 157.663 7.93185 158.673 8.35585C159.691 8.77185 160.559 9.35985 161.278 10.1199C162.005 10.8799 162.568 11.7919 162.966 12.8559C163.364 13.9119 163.563 15.0799 163.563 16.3599ZM160.819 16.3599C160.819 15.3679 160.689 14.4759 160.429 13.6839C160.176 12.8919 159.809 12.2239 159.327 11.6799C158.853 11.1359 158.275 10.7199 157.594 10.4319C156.913 10.1359 156.148 9.98785 155.298 9.98785L151.751 9.98785L151.751 22.7319L155.298 22.7319C156.148 22.7319 156.913 22.5879 157.594 22.2999C158.275 22.0119 158.853 21.5959 159.327 21.0519C159.809 20.4999 160.176 19.8319 160.429 19.0479C160.689 18.2559 160.819 17.3599 160.819 16.3599ZM182.048 16.3599C182.048 17.6399 181.849 18.8199 181.451 19.8999C181.054 20.9799 180.491 21.9119 179.764 22.6959C179.045 23.4719 178.176 24.0799 177.159 24.5199C176.149 24.9599 175.024 25.1799 173.784 25.1799C172.552 25.1799 171.427 24.9599 170.409 24.5199C169.399 24.0799 168.531 23.4719 167.804 22.6959C167.077 21.9119 166.514 20.9799 166.116 19.8999C165.719 18.8199 165.52 17.6399 165.52 16.3599C165.52 15.0799 165.719 13.8999 166.116 12.8199C166.514 11.7399 167.077 10.8079 167.804 10.0239C168.531 9.23985 169.399 8.62785 170.409 8.18785C171.427 7.74785 172.552 7.52785 173.784 7.52785C175.024 7.52785 176.149 7.74785 177.159 8.18785C178.176 8.62786 179.045 9.23986 179.764 10.0239C180.491 10.8079 181.054 11.7399 181.451 12.8199C181.849 13.8999 182.048 15.0799 182.048 16.3599ZM179.305 16.3599C179.305 15.3679 179.175 14.4759 178.915 13.6839C178.662 12.8919 178.295 12.2199 177.813 11.6679C177.338 11.1159 176.761 10.6919 176.08 10.3959C175.399 10.0999 174.633 9.95185 173.784 9.95185C172.942 9.95185 172.181 10.0999 171.5 10.3959C170.819 10.6919 170.237 11.1159 169.755 11.6679C169.273 12.2199 168.902 12.8919 168.642 13.6839C168.382 14.4759 168.251 15.3679 168.251 16.3599C168.251 17.3599 168.382 18.2559 168.642 19.0479C168.902 19.8399 169.273 20.5119 169.755 21.0639C170.237 21.6079 170.819 22.0279 171.5 22.3239C172.181 22.6119 172.942 22.7559 173.784 22.7559C174.633 22.7559 175.399 22.6119 176.08 22.3239C176.761 22.0279 177.338 21.6079 177.813 21.0639C178.295 20.5119 178.662 19.8399 178.915 19.0479C179.175 18.2559 179.305 17.3599 179.305 16.3599ZM198.306 7.71986L191.603 24.9999L189.181 24.9999L182.478 7.71986L184.624 7.71986C184.861 7.71986 185.053 7.78386 185.198 7.91186C185.344 8.03186 185.455 8.18386 185.531 8.36786L189.789 19.6359C190.019 20.2679 190.229 20.9959 190.421 21.8199C190.505 21.4119 190.593 21.0239 190.685 20.6559C190.784 20.2879 190.891 19.9479 191.006 19.6359L195.253 8.36786C195.314 8.20786 195.421 8.05986 195.575 7.92386C195.728 7.78786 195.919 7.71986 196.148 7.71986L198.306 7.71986ZM210.555 22.7319L210.543 24.9999L200.236 24.9999L200.236 7.71986L210.543 7.71986L210.543 9.98786L202.933 9.98786L202.933 15.1959L209.017 15.1959L209.017 17.3919L202.933 17.3919L202.933 22.7319L210.555 22.7319ZM218.26 15.9999C218.873 15.9999 219.408 15.9239 219.867 15.7719C220.326 15.6119 220.709 15.3919 221.015 15.1119C221.321 14.8319 221.551 14.4999 221.704 14.1159C221.857 13.7239 221.933 13.2919 221.933 12.8199C221.933 11.8759 221.635 11.1559 221.038 10.6599C220.441 10.1639 219.538 9.91586 218.329 9.91586L216.148 9.91586L216.148 15.9999L218.26 15.9999ZM226.043 24.9999L223.644 24.9999C223.169 24.9999 222.825 24.8079 222.611 24.4239L218.754 18.6039C218.624 18.4039 218.482 18.2599 218.329 18.1719C218.176 18.0839 217.947 18.0399 217.641 18.0399L216.148 18.0399L216.148 24.9999L213.462 24.9999L213.462 7.71986L218.329 7.71986C219.416 7.71986 220.349 7.83586 221.13 8.06786C221.918 8.29986 222.565 8.63186 223.07 9.06386C223.575 9.48786 223.946 9.99986 224.183 10.5999C224.428 11.1999 224.55 11.8679 224.55 12.6039C224.55 13.2039 224.462 13.7639 224.286 14.2839C224.118 14.8039 223.869 15.2759 223.54 15.6999C223.219 16.1239 222.821 16.4919 222.347 16.8039C221.872 17.1159 221.333 17.3599 220.728 17.5359C221.057 17.7439 221.34 18.0359 221.578 18.4119L226.043 24.9999Z" fill="#CBD5E1"/>
<path d="M9.60246 10.8748L6.63145 10.8748L6.63145 31.0641L9.60245 31.0641L9.60246 10.8748Z" fill="#CBD5E1"/>
<path d="M22.9713 1.5545L20.0003 1.5545L20.0002 13.9787L22.9713 13.9787L22.9713 1.5545Z" fill="#CBD5E1"/>
<path d="M20.0018 29.5077L22.9728 29.5077L22.9728 17.0835L20.0018 17.0835L20.0018 29.5077Z" fill="#CBD5E1"/>
<path d="M22.9728 3.10587L22.9728 -0.000183105L14.0598 -0.000184664L14.0598 3.10587L22.9728 3.10587Z" fill="#CBD5E1"/>
<path d="M20.0003 27.9563L20.0003 31.0623L28.9133 31.0623L28.9133 27.9563L20.0003 27.9563Z" fill="#CBD5E1"/>
<path d="M36.342 -0.000182586L33.371 -0.000183105L33.371 21.7421L36.342 21.7421L36.342 -0.000182586Z" fill="#CBD5E1"/>
<path d="M14.0595 -0.000183105L17.0305 -0.000182586L17.0305 31.0603L14.0595 31.0603L14.0595 -0.000183105Z" fill="#CBD5E1"/>
<path d="M28.914 -0.000182586L25.943 -0.000183105L25.943 31.0603L28.914 31.0603L28.914 -0.000182586Z" fill="#CBD5E1"/>
</g>
<defs>
<clipPath id="clip0_1_3945">
<rect width="220" height="32" fill="white" transform="translate(6.63145)"/>
</clipPath>
</defs>
</svg>
