<svg width="29" height="29" viewBox="0 0 29 29" fill="none" xmlns="http://www.w3.org/2000/svg">
<path d="M22.2575 14.0154L16.6786 11.9586L14.6172 6.37516C14.4596 5.94766 14.1747 5.57876 13.8009 5.3182C13.4271 5.05764 12.9824 4.91794 12.5268 4.91794C12.0711 4.91794 11.6265 5.05764 11.2527 5.3182C10.8789 5.57876 10.594 5.94766 10.4364 6.37516L8.37949 11.9586L2.79609 14.0154C2.36858 14.1731 1.99969 14.458 1.73913 14.8318C1.47856 15.2055 1.33887 15.6502 1.33887 16.1059C1.33887 16.5615 1.47856 17.0062 1.73913 17.38C1.99969 17.7537 2.36858 18.0387 2.79609 18.1963L8.37502 20.2532L10.4364 25.8366C10.594 26.2641 10.8789 26.633 11.2527 26.8935C11.6265 27.1541 12.0711 27.2938 12.5268 27.2938C12.9824 27.2938 13.4271 27.1541 13.8009 26.8935C14.1747 26.633 14.4596 26.2641 14.6172 25.8366L16.6741 20.2576L22.2575 18.1963C22.685 18.0387 23.0539 17.7537 23.3144 17.38C23.575 17.0062 23.7147 16.5615 23.7147 16.1059C23.7147 15.6502 23.575 15.2055 23.3144 14.8318C23.0539 14.458 22.685 14.1731 22.2575 14.0154ZM15.1686 17.948C14.9864 18.0151 14.821 18.121 14.6837 18.2583C14.5464 18.3956 14.4405 18.561 14.3734 18.7432L12.5268 23.7428L10.6847 18.7432C10.6175 18.561 10.5117 18.3956 10.3744 18.2583C10.2371 18.121 10.0716 18.0151 9.88943 17.948L4.88987 16.1059L9.88943 14.2637C10.0716 14.1966 10.2371 14.0907 10.3744 13.9534C10.5117 13.8161 10.6175 13.6507 10.6847 13.4685L12.5268 8.46894L14.3689 13.4685C14.4361 13.6507 14.5419 13.8161 14.6792 13.9534C14.8165 14.0907 14.982 14.1966 15.1641 14.2637L20.1637 16.1059L15.1686 17.948ZM15.6585 4.47376C15.6585 4.1178 15.7999 3.77641 16.0516 3.52471C16.3033 3.273 16.6447 3.1316 17.0007 3.1316H18.3428V1.78943C18.3428 1.43347 18.4842 1.09208 18.7359 0.840377C18.9877 0.588672 19.329 0.447266 19.685 0.447266C20.041 0.447266 20.3824 0.588672 20.6341 0.840377C20.8858 1.09208 21.0272 1.43347 21.0272 1.78943V3.1316H22.3693C22.7253 3.1316 23.0667 3.273 23.3184 3.52471C23.5701 3.77641 23.7115 4.1178 23.7115 4.47376C23.7115 4.82973 23.5701 5.17111 23.3184 5.42282C23.0667 5.67452 22.7253 5.81593 22.3693 5.81593H21.0272V7.15809C21.0272 7.51406 20.8858 7.85544 20.6341 8.10715C20.3824 8.35885 20.041 8.50026 19.685 8.50026C19.329 8.50026 18.9877 8.35885 18.7359 8.10715C18.4842 7.85544 18.3428 7.51406 18.3428 7.15809V5.81593H17.0007C16.6447 5.81593 16.3033 5.67452 16.0516 5.42282C15.7999 5.17111 15.6585 4.82973 15.6585 4.47376ZM28.1854 9.84242C28.1854 10.1984 28.044 10.5398 27.7923 10.7915C27.5406 11.0432 27.1992 11.1846 26.8432 11.1846H26.3958V11.632C26.3958 11.9879 26.2544 12.3293 26.0027 12.581C25.751 12.8327 25.4096 12.9741 25.0537 12.9741C24.6977 12.9741 24.3563 12.8327 24.1046 12.581C23.8529 12.3293 23.7115 11.9879 23.7115 11.632V11.1846H23.2641C22.9081 11.1846 22.5668 11.0432 22.3151 10.7915C22.0634 10.5398 21.9219 10.1984 21.9219 9.84242C21.9219 9.48646 22.0634 9.14507 22.3151 8.89337C22.5668 8.64166 22.9081 8.50026 23.2641 8.50026H23.7115V8.05287C23.7115 7.6969 23.8529 7.35552 24.1046 7.10381C24.3563 6.85211 24.6977 6.7107 25.0537 6.7107C25.4096 6.7107 25.751 6.85211 26.0027 7.10381C26.2544 7.35552 26.3958 7.6969 26.3958 8.05287V8.50026H26.8432C27.1992 8.50026 27.5406 8.64166 27.7923 8.89337C28.044 9.14507 28.1854 9.48646 28.1854 9.84242Z" fill="#818CF8"/>
</svg>
