<svg width="454" height="270" viewBox="0 0 454 270" fill="none" xmlns="http://www.w3.org/2000/svg">
<path opacity="0.2" d="M513.604 -139.008L514.119 -139.009L514.119 -139.011L513.604 -139.008ZM513.823 -40.9234L513.309 -40.9223L513.31 -40.4132L513.819 -40.4088L513.823 -40.9234ZM526.374 -40.815L526.888 -40.8106L526.893 -41.3252L526.378 -41.3296L526.374 -40.815ZM526.365 -39.7858L526.36 -39.2712L526.875 -39.2668L526.879 -39.7813L526.365 -39.7858ZM513.826 -39.894L513.83 -40.4086L513.31 -40.4131L513.311 -39.8929L513.826 -39.894ZM513.943 12.4488L513.429 12.45L513.43 12.959L513.939 12.9634L513.943 12.4488ZM525.907 12.553L526.421 12.5575L526.426 12.0429L525.911 12.0384L525.907 12.553ZM525.898 13.5823L525.893 14.0969L526.408 14.1014L526.412 13.5868L525.898 13.5823ZM513.945 13.4782L513.949 12.9636L513.429 12.959L513.43 13.4793L513.945 13.4782ZM514.06 65.1745L513.545 65.1756L513.547 65.6847L514.056 65.6891L514.06 65.1745ZM525.438 65.2726L525.442 64.758L525.442 64.758L525.438 65.2726ZM525.572 65.2738L526.087 65.2783L526.091 64.7637L525.577 64.7592L525.572 65.2738ZM525.561 66.556L525.557 67.0706L526.071 67.075L526.076 66.5605L525.561 66.556ZM525.426 66.5548L525.431 66.0402L525.431 66.0402L525.426 66.5548ZM514.063 66.4568L514.067 65.9422L513.547 65.9377L513.548 66.4579L514.063 66.4568ZM514.178 118.031L513.663 118.032L513.664 118.541L514.173 118.546L514.178 118.031ZM524.971 118.124L524.976 117.61L524.976 117.61L524.971 118.124ZM525.106 118.125L525.621 118.13L525.625 117.615L525.11 117.611L525.106 118.125ZM525.095 119.407L525.09 119.922L525.605 119.926L525.609 119.412L525.095 119.407ZM524.96 119.406L524.965 118.892L524.965 118.892L524.96 119.406ZM514.18 119.313L514.185 118.799L513.664 118.794L513.666 119.314L514.18 119.313ZM514.295 170.888L513.781 170.889L513.782 171.398L514.291 171.402L514.295 170.888ZM524.505 170.976L524.509 170.461L524.509 170.461L524.505 170.976ZM524.64 170.977L525.154 170.981L525.159 170.467L524.644 170.462L524.64 170.977ZM524.629 172.259L524.624 172.773L525.139 172.778L525.143 172.263L524.629 172.259ZM524.494 172.258L524.498 171.743L524.498 171.743L524.494 172.258ZM514.299 172.17L514.303 171.655L513.783 171.651L513.784 172.171L514.299 172.17ZM514.515 268.598L514.001 268.599L514.001 268.601L514.515 268.598ZM514.516 268.735L514.512 269.25L515.034 269.254L515.031 268.732L514.516 268.735ZM513.607 268.728L513.092 268.727L513.092 269.239L513.603 269.243L513.607 268.728ZM513.607 268.595L514.122 268.596L514.122 268.594L513.607 268.595ZM513.391 172.162L513.905 172.161L513.904 171.652L513.395 171.647L513.391 172.162ZM460.782 171.709L460.787 171.194L460.267 171.189L460.268 171.71L460.782 171.709ZM460.999 268.138L460.484 268.139L460.484 268.141L460.999 268.138ZM461 268.275L460.996 268.789L461.517 268.793L461.514 268.272L461 268.275ZM460.09 268.268L459.576 268.267L459.575 268.778L460.087 268.782L460.09 268.268ZM460.091 268.135L460.605 268.136L460.605 268.134L460.091 268.135ZM459.874 171.701L460.389 171.699L460.388 171.19L459.879 171.186L459.874 171.701ZM407.054 171.246L407.058 170.732L406.537 170.727L406.539 171.249L407.054 171.246ZM407.483 267.678L406.969 267.68L406.969 267.68L407.483 267.678ZM407.484 267.814L407.48 268.329L408.002 268.333L407.999 267.811L407.484 267.814ZM406.448 267.805L405.933 267.808L405.936 268.315L406.443 268.32L406.448 267.805ZM406.447 267.672L405.933 267.675L405.933 267.675L406.447 267.672ZM406.017 171.237L406.531 171.235L406.529 170.727L406.021 170.723L406.017 171.237ZM352.722 170.778L352.726 170.263L352.206 170.259L352.207 170.779L352.722 170.778ZM352.938 267.208L352.424 267.209L352.424 267.211L352.938 267.208ZM352.939 267.345L352.935 267.859L353.457 267.864L353.454 267.342L352.939 267.345ZM352.03 267.337L351.515 267.336L351.515 267.847L352.026 267.852L352.03 267.337ZM352.03 267.204L352.545 267.205L352.545 267.203L352.03 267.204ZM351.814 170.77L352.328 170.769L352.327 170.26L351.818 170.255L351.814 170.77ZM299.205 170.317L299.21 169.803L298.689 169.798L298.691 170.319L299.205 170.317ZM299.422 266.748L298.907 266.749L298.907 266.751L299.422 266.748ZM299.423 266.885L299.418 267.399L299.94 267.404L299.937 266.882L299.423 266.885ZM298.512 266.877L297.998 266.88L298.001 267.387L298.508 267.391L298.512 266.877ZM298.512 266.744L297.997 266.745L297.997 266.747L298.512 266.744ZM298.295 170.31L298.81 170.308L298.809 169.799L298.3 169.795L298.295 170.31ZM245.476 169.854L245.48 169.34L244.959 169.335L244.961 169.857L245.476 169.854ZM245.906 266.287L245.392 266.29L245.392 266.29L245.906 266.287ZM245.907 266.424L245.902 266.939L246.424 266.943L246.422 266.421L245.907 266.424ZM244.869 266.415L244.354 266.418L244.357 266.925L244.864 266.93L244.869 266.415ZM244.868 266.282L244.354 266.285L244.354 266.285L244.868 266.282ZM244.439 169.845L244.953 169.843L244.951 169.335L244.443 169.331L244.439 169.845ZM189.299 169.371L189.304 168.856L188.785 168.852L188.785 169.371L189.299 169.371ZM189.302 265.802L189.816 265.803L189.816 265.802L189.302 265.802ZM189.302 265.938L189.297 266.452L189.815 266.457L189.816 265.939L189.302 265.938ZM188.521 265.931L188.007 265.934L188.01 266.441L188.517 266.446L188.521 265.931ZM188.521 265.797L188.006 265.797L188.006 265.8L188.521 265.797ZM188.518 169.364L189.033 169.364L189.033 168.854L188.522 168.849L188.518 169.364ZM137.628 168.925L137.633 168.411L137.112 168.406L137.114 168.927L137.628 168.925ZM137.845 265.358L137.33 265.359L137.33 265.361L137.845 265.358ZM137.846 265.494L137.841 266.009L138.363 266.014L138.36 265.492L137.846 265.494ZM136.936 265.486L136.422 265.486L136.421 265.997L136.932 266.001L136.936 265.486ZM136.937 265.354L137.451 265.354L137.451 265.353L136.937 265.354ZM136.72 168.917L137.235 168.916L137.234 168.407L136.724 168.403L136.72 168.917ZM83.8988 168.463L83.9032 167.949L83.3819 167.944L83.3842 168.465L83.8988 168.463ZM84.3282 264.897L83.8136 264.9L83.8136 264.9L84.3282 264.897ZM84.329 265.034L84.3245 265.549L84.8465 265.553L84.8436 265.031L84.329 265.034ZM83.2929 265.025L82.7783 265.028L82.7813 265.535L83.2884 265.54L83.2929 265.025ZM83.2921 264.892L82.7775 264.894L82.7775 264.895L83.2921 264.892ZM82.8617 168.454L83.3763 168.452L83.374 167.944L82.8661 167.94L82.8617 168.454ZM0.653825 167.747L0.649342 168.261L0.649397 168.261L0.653825 167.747ZM0.519064 167.746L0.00448657 167.741L3.57602e-06 168.256L0.514581 168.26L0.519064 167.746ZM0.530235 166.463L0.534718 165.949L0.0201401 165.944L0.0156571 166.459L0.530235 166.463ZM0.664995 166.464L0.660512 166.979L0.660567 166.979L0.664995 166.464ZM82.8563 167.172L82.8519 167.686L83.3732 167.691L83.3709 167.169L82.8563 167.172ZM82.6269 115.597L83.1415 115.594L83.1392 115.086L82.6313 115.082L82.6269 115.597ZM1.12013 114.895L1.11565 115.41L1.11571 115.41L1.12013 114.895ZM0.985374 114.894L0.470796 114.89L0.466313 115.404L0.980891 115.409L0.985374 114.894ZM0.996545 113.612L1.00103 113.097L0.48645 113.093L0.481967 113.607L0.996545 113.612ZM1.13131 113.613L1.12682 114.128L1.12688 114.128L1.13131 113.613ZM82.6215 114.314L82.617 114.829L83.1384 114.833L83.136 114.312L82.6215 114.314ZM82.392 62.739L82.9066 62.7367L82.9044 62.2288L82.3965 62.2244L82.392 62.739ZM1.58644 62.0438L1.58196 62.5583L1.58202 62.5583L1.58644 62.0438ZM1.45168 62.0426L0.937106 62.0381L0.932623 62.5527L1.4472 62.5572L1.45168 62.0426ZM1.46285 60.7604L1.46734 60.2458L0.95276 60.2413L0.948277 60.7559L1.46285 60.7604ZM1.59761 60.7616L1.59313 61.2762L1.59319 61.2762L1.59761 60.7616ZM82.3866 61.4566L82.3822 61.9712L82.9035 61.9757L82.9012 61.4543L82.3866 61.4566ZM82.1567 9.71635L82.6713 9.71406L82.669 9.20619L82.1612 9.20176L82.1567 9.71635ZM2.0572 9.01851L1.54262 9.01402L1.53814 9.52861L2.05271 9.53309L2.0572 9.01851ZM2.06617 7.98925L2.07065 7.47467L1.55607 7.47018L1.55159 7.98477L2.06617 7.98925ZM82.152 8.68697L82.1475 9.20155L82.6689 9.2061L82.6666 8.68468L82.152 8.68697ZM81.9191 -43.61L82.4337 -43.6123L82.4314 -44.1202L81.9235 -44.1246L81.9191 -43.61ZM2.52459 -44.2929L2.01001 -44.2974L2.00552 -43.7828L2.52016 -43.7783L2.52459 -44.2929ZM2.53355 -45.3222L2.53798 -45.8368L2.02346 -45.8412L2.01897 -45.3267L2.53355 -45.3222ZM81.9144 -44.6394L81.91 -44.1248L82.4313 -44.1203L82.429 -44.6417L81.9144 -44.6394ZM81.4788 -142.722L81.9934 -142.724L81.9934 -142.725L81.4788 -142.722ZM81.4781 -142.859L81.4825 -143.373L80.9606 -143.378L80.9635 -142.856L81.4781 -142.859ZM82.5171 -142.85L83.0317 -142.853L83.0286 -143.36L82.5216 -143.364L82.5171 -142.85ZM82.5179 -142.717L83.0325 -142.719L83.0325 -142.72L82.5179 -142.717ZM82.9534 -44.6303L82.4388 -44.6281L82.4411 -44.1201L82.949 -44.1158L82.9534 -44.6303ZM136.243 -44.1719L136.239 -43.6573L136.759 -43.6529L136.758 -44.1731L136.243 -44.1719ZM136.025 -142.254L135.51 -142.255L135.51 -142.253L136.025 -142.254ZM136.025 -142.389L136.029 -142.904L135.511 -142.909L135.51 -142.39L136.025 -142.389ZM136.933 -142.382L137.448 -142.385L137.445 -142.892L136.938 -142.896L136.933 -142.382ZM136.934 -142.249L137.448 -142.25L137.448 -142.252L136.934 -142.249ZM137.153 -44.164L136.638 -44.1629L136.639 -43.6538L137.148 -43.6494L137.153 -44.164ZM188.513 -43.7224L188.509 -43.2078L189.028 -43.2034L189.028 -43.7224L188.513 -43.7224ZM188.511 -141.802L187.996 -141.803L187.996 -141.802L188.511 -141.802ZM188.511 -141.938L188.516 -142.453L187.997 -142.457L187.997 -141.939L188.511 -141.938ZM189.292 -141.931L189.807 -141.931L189.808 -142.441L189.297 -142.446L189.292 -141.931ZM189.292 -141.797L188.778 -141.798L188.778 -141.797L189.292 -141.797ZM189.294 -43.7156L188.78 -43.7156L188.78 -43.2054L189.29 -43.201L189.294 -43.7156ZM243.491 -43.2493L243.487 -42.7347L244.008 -42.7302L244.006 -43.2516L243.491 -43.2493ZM243.056 -141.332L243.57 -141.334L243.57 -141.335L243.056 -141.332ZM243.055 -141.469L243.06 -141.983L242.538 -141.988L242.541 -141.466L243.055 -141.469ZM244.092 -141.46L244.607 -141.463L244.604 -141.97L244.097 -141.974L244.092 -141.46ZM244.093 -141.327L244.608 -141.329L244.608 -141.33L244.093 -141.327ZM244.528 -43.2402L244.014 -43.238L244.016 -42.73L244.524 -42.7257L244.528 -43.2402ZM297.82 -42.7818L297.816 -42.2672L298.336 -42.2628L298.335 -42.783L297.82 -42.7818ZM297.602 -140.864L297.087 -140.864L297.087 -140.862L297.602 -140.864ZM297.602 -140.999L297.606 -141.514L297.088 -141.518L297.087 -141L297.602 -140.999ZM298.51 -140.991L299.025 -140.995L299.022 -141.502L298.515 -141.506L298.51 -140.991ZM298.511 -140.859L299.025 -140.86L299.025 -140.862L298.511 -140.859ZM298.73 -42.7739L298.215 -42.7728L298.216 -42.2637L298.725 -42.2593L298.73 -42.7739ZM351.336 -42.3214L351.332 -41.8069L351.852 -41.8024L351.851 -42.3226L351.336 -42.3214ZM351.117 -140.403L350.603 -140.404L350.603 -140.402L351.117 -140.403ZM351.117 -140.539L351.122 -141.054L350.604 -141.058L350.603 -140.54L351.117 -140.539ZM352.028 -140.531L352.542 -140.53L352.543 -141.041L352.032 -141.046L352.028 -140.531ZM352.027 -140.398L351.513 -140.399L351.513 -140.397L352.027 -140.398ZM352.246 -42.3135L351.732 -42.3124L351.733 -41.8033L352.242 -41.7989L352.246 -42.3135ZM405.069 -41.8592L405.065 -41.3446L405.586 -41.3401L405.584 -41.8615L405.069 -41.8592ZM404.634 -139.942L405.148 -139.944L405.148 -139.945L404.634 -139.942ZM404.633 -140.079L404.638 -140.593L404.116 -140.598L404.118 -140.076L404.633 -140.079ZM405.672 -140.07L406.187 -140.073L406.184 -140.58L405.677 -140.584L405.672 -140.07ZM405.673 -139.937L406.188 -139.939L406.187 -139.94L405.673 -139.937ZM406.108 -41.8501L405.594 -41.8478L405.596 -41.3399L406.104 -41.3355L406.108 -41.8501ZM459.397 -41.3917L459.393 -40.8771L459.913 -40.8727L459.912 -41.3929L459.397 -41.3917ZM459.179 -139.474L458.664 -139.474L458.664 -139.472L459.179 -139.474ZM459.179 -139.609L459.183 -140.124L458.665 -140.128L458.664 -139.61L459.179 -139.609ZM460.087 -139.601L460.602 -139.604L460.599 -140.112L460.092 -140.116L460.087 -139.601ZM460.088 -139.469L460.602 -139.47L460.602 -139.472L460.088 -139.469ZM460.307 -41.3838L459.792 -41.3826L459.793 -40.8736L460.302 -40.8692L460.307 -41.3838ZM512.914 -40.9313L512.91 -40.4168L513.43 -40.4123L513.429 -40.9325L512.914 -40.9313ZM512.695 -139.013L512.181 -139.014L512.181 -139.012L512.695 -139.013ZM512.695 -139.149L512.7 -139.663L512.182 -139.668L512.181 -139.15L512.695 -139.149ZM513.604 -139.141L514.118 -139.144L514.115 -139.651L513.608 -139.656L513.604 -139.141ZM83.664 115.606L83.6684 115.091L83.147 115.086L83.1494 115.608L83.664 115.606ZM83.8934 167.181L83.3788 167.183L83.381 167.691L83.8889 167.695L83.8934 167.181ZM136.717 167.635L136.712 168.15L137.232 168.154L137.231 167.634L136.717 167.635ZM136.601 116.062L137.116 116.061L137.115 115.552L136.606 115.547L136.601 116.062ZM137.511 116.069L137.515 115.554L136.995 115.55L136.996 116.07L137.511 116.069ZM137.626 167.643L137.111 167.644L137.112 168.153L137.621 168.158L137.626 167.643ZM188.517 168.082L188.513 168.596L189.032 168.601L189.032 168.082L188.517 168.082ZM188.517 116.508L189.031 116.508L189.031 115.998L188.521 115.994L188.517 116.508ZM189.298 116.515L189.302 116.001L188.783 115.996L188.783 116.515L189.298 116.515ZM189.299 168.088L188.784 168.088L188.784 168.599L189.294 168.603L189.299 168.088ZM244.433 168.563L244.429 169.077L244.95 169.082L244.948 168.561L244.433 168.563ZM244.204 116.988L244.718 116.985L244.716 116.477L244.208 116.473L244.204 116.988ZM245.241 116.997L245.245 116.482L244.724 116.478L244.726 116.999L245.241 116.997ZM245.47 168.572L244.956 168.574L244.958 169.082L245.466 169.086L245.47 168.572ZM298.293 169.027L298.288 169.542L298.808 169.546L298.807 169.026L298.293 169.027ZM298.177 117.453L298.692 117.452L298.691 116.943L298.182 116.938L298.177 117.453ZM299.088 117.461L299.092 116.946L298.572 116.942L298.573 117.462L299.088 117.461ZM299.203 169.035L298.688 169.036L298.689 169.545L299.198 169.55L299.203 169.035ZM351.81 169.488L351.806 170.002L352.326 170.007L352.325 169.486L351.81 169.488ZM351.695 117.913L352.21 117.912L352.208 117.403L351.699 117.399L351.695 117.913ZM352.604 117.921L352.609 117.407L352.088 117.402L352.09 117.922L352.604 117.921ZM352.719 169.496L352.205 169.497L352.206 170.006L352.715 170.01L352.719 169.496ZM406.011 169.955L406.007 170.469L406.528 170.474L406.526 169.953L406.011 169.955ZM405.782 118.38L406.296 118.377L406.294 117.869L405.786 117.865L405.782 118.38ZM406.819 118.389L406.823 117.874L406.302 117.87L406.304 118.391L406.819 118.389ZM407.048 169.964L406.534 169.966L406.536 170.474L407.044 170.479L407.048 169.964ZM459.871 170.418L459.866 170.933L460.386 170.937L460.385 170.417L459.871 170.418ZM459.755 118.844L460.27 118.843L460.269 118.334L459.76 118.329L459.755 118.844ZM460.664 118.852L460.668 118.337L460.148 118.333L460.149 118.853L460.664 118.852ZM460.779 170.426L460.264 170.427L460.265 170.936L460.774 170.941L460.779 170.426ZM513.387 170.88L513.383 171.394L513.903 171.399L513.902 170.878L513.387 170.88ZM513.272 119.305L513.787 119.304L513.785 118.795L513.276 118.791L513.272 119.305ZM83.4291 62.748L83.4336 62.2334L82.9122 62.2289L82.9145 62.7503L83.4291 62.748ZM83.6575 114.323L83.143 114.326L83.1452 114.833L83.6531 114.838L83.6575 114.323ZM136.599 114.78L136.594 115.294L137.115 115.299L137.114 114.778L136.599 114.78ZM136.484 63.2053L136.998 63.2042L136.997 62.6951L136.488 62.6908L136.484 63.2053ZM137.393 63.2133L137.397 62.6987L136.877 62.6942L136.878 63.2144L137.393 63.2133ZM137.508 114.787L136.993 114.788L136.995 115.297L137.504 115.301L137.508 114.787ZM188.516 115.226L188.512 115.741L189.031 115.745L189.031 115.226L188.516 115.226ZM188.515 63.6528L189.03 63.6528L189.03 63.1426L188.519 63.1382L188.515 63.6528ZM189.296 63.6596L189.301 63.145L188.782 63.1405L188.782 63.6596L189.296 63.6596ZM189.297 115.233L188.783 115.233L188.783 115.743L189.293 115.747L189.297 115.233ZM244.197 115.705L244.193 116.22L244.714 116.224L244.712 115.703L244.197 115.705ZM243.969 64.131L244.484 64.1287L244.481 63.6208L243.973 63.6164L243.969 64.131ZM245.006 64.1391L245.011 63.6245L244.489 63.62L244.492 64.1414L245.006 64.1391ZM245.236 115.714L244.721 115.717L244.723 116.225L245.231 116.229L245.236 115.714ZM298.175 116.171L298.171 116.685L298.691 116.69L298.69 116.169L298.175 116.171ZM298.06 64.5964L298.574 64.5953L298.573 64.0862L298.064 64.0818L298.06 64.5964ZM298.97 64.6043L298.974 64.0898L298.454 64.0853L298.455 64.6055L298.97 64.6043ZM299.085 116.179L298.571 116.18L298.572 116.689L299.081 116.693L299.085 116.179ZM351.692 116.631L351.687 117.146L352.207 117.15L352.206 116.63L351.692 116.631ZM351.576 65.0568L352.091 65.0556L352.09 64.5466L351.581 64.5422L351.576 65.0568ZM352.487 65.0647L352.491 64.5501L351.971 64.5457L351.972 65.0659L352.487 65.0647ZM352.602 116.639L352.087 116.64L352.088 117.149L352.597 117.154L352.602 116.639ZM405.776 117.097L405.772 117.612L406.293 117.616L406.291 117.095L405.776 117.097ZM405.547 65.5221L406.062 65.5198L406.059 65.0119L405.551 65.0075L405.547 65.5221ZM406.584 65.5311L406.589 65.0166L406.067 65.0121L406.07 65.5334L406.584 65.5311ZM406.813 117.106L406.298 117.109L406.3 117.617L406.808 117.621L406.813 117.106ZM459.753 117.562L459.749 118.076L460.269 118.081L460.268 117.561L459.753 117.562ZM459.638 65.9875L460.152 65.9864L460.151 65.4773L459.642 65.4729L459.638 65.9875ZM460.546 65.9954L460.55 65.4808L460.03 65.4764L460.031 65.9966L460.546 65.9954ZM460.661 117.57L460.147 117.571L460.148 118.08L460.657 118.084L460.661 117.57ZM513.27 118.023L513.265 118.538L513.785 118.542L513.784 118.022L513.27 118.023ZM513.154 66.4489L513.669 66.4477L513.668 65.9387L513.159 65.9343L513.154 66.4489ZM83.4237 61.4657L82.9091 61.468L82.9113 61.9759L83.4192 61.9803L83.4237 61.4657ZM136.481 61.923L136.477 62.4376L136.997 62.4421L136.996 61.9219L136.481 61.923ZM136.366 10.1886L136.88 10.1875L136.879 9.67847L136.37 9.67404L136.366 10.1886ZM83.1938 9.72538L83.1982 9.2108L82.6769 9.20626L82.6792 9.72767L83.1938 9.72538ZM137.389 61.931L136.875 61.9321L136.876 62.4411L137.385 62.4455L137.389 61.931ZM188.515 62.3705L188.51 62.8851L189.029 62.8895L189.029 62.3705L188.515 62.3705ZM188.514 10.6429L189.029 10.6429L189.029 10.1328L188.518 10.1284L188.514 10.6429ZM137.275 10.1965L137.279 9.68196L136.759 9.67743L136.76 10.1977L137.275 10.1965ZM189.296 62.3773L188.781 62.3773L188.781 62.8875L189.291 62.8919L189.296 62.3773ZM243.963 62.8487L243.958 63.3633L244.48 63.3678L244.477 62.8464L243.963 62.8487ZM243.734 11.124L244.248 11.1218L244.246 10.6139L243.738 10.6094L243.734 11.124ZM189.295 10.6498L189.3 10.1352L188.781 10.1306L188.781 10.6498L189.295 10.6498ZM245.001 62.8568L244.486 62.859L244.488 63.367L244.996 63.3713L245.001 62.8568ZM298.056 63.3141L298.052 63.8287L298.572 63.8332L298.571 63.313L298.056 63.3141ZM297.941 11.5963L298.456 11.5952L298.455 11.0861L297.946 11.0817L297.941 11.5963ZM244.771 11.1331L244.775 10.6185L244.254 10.6139L244.256 11.1354L244.771 11.1331ZM298.966 63.322L298.452 63.3232L298.453 63.8322L298.962 63.8366L298.966 63.322ZM351.574 63.7745L351.569 64.2891L352.09 64.2936L352.088 63.7734L351.574 63.7745ZM351.458 12.0625L351.973 12.0614L351.971 11.5524L351.462 11.548L351.458 12.0625ZM298.852 11.6042L298.856 11.0896L298.336 11.0851L298.337 11.6054L298.852 11.6042ZM352.483 63.7824L351.968 63.7836L351.97 64.2926L352.479 64.297L352.483 63.7824ZM405.541 64.2398L405.536 64.7544L406.058 64.7588L406.055 64.2375L405.541 64.2398ZM405.311 12.5317L405.826 12.5294L405.824 12.0216L405.316 12.0171L405.311 12.5317ZM352.368 12.0705L352.373 11.5559L351.852 11.5514L351.854 12.0716L352.368 12.0705ZM406.579 64.2488L406.064 64.2511L406.066 64.759L406.574 64.7634L406.579 64.2488ZM459.634 64.7052L459.63 65.2198L460.15 65.2242L460.149 64.704L459.634 64.7052ZM459.519 13.004L460.034 13.0028L460.033 12.4938L459.524 12.4894L459.519 13.004ZM406.349 12.5408L406.354 12.0262L405.833 12.0216L405.835 12.543L406.349 12.5408ZM460.543 64.7131L460.029 64.7143L460.03 65.2233L460.539 65.2277L460.543 64.7131ZM513.151 65.1666L513.146 65.6811L513.667 65.6856L513.666 65.1654L513.151 65.1666ZM513.036 13.4702L513.55 13.4691L513.549 12.9601L513.04 12.9557L513.036 13.4702ZM460.428 13.0119L460.433 12.4973L459.913 12.4928L459.914 13.0131L460.428 13.0119ZM82.9572 -43.601L82.9616 -44.1155L82.4402 -44.12L82.4426 -43.5987L82.9572 -43.601ZM83.19 8.69601L82.6754 8.69831L82.6777 9.20617L83.1856 9.2106L83.19 8.69601ZM136.363 9.15926L136.358 9.67385L136.879 9.67838L136.877 9.15812L136.363 9.15926ZM136.246 -43.1426L136.761 -43.1437L136.76 -43.6528L136.251 -43.6571L136.246 -43.1426ZM137.155 -43.1346L137.16 -43.6492L136.64 -43.6537L136.641 -43.1335L137.155 -43.1346ZM137.272 9.16718L136.757 9.16833L136.759 9.67733L137.267 9.68177L137.272 9.16718ZM188.514 9.61361L188.51 10.1282L189.029 10.1327L189.029 9.6136L188.514 9.61361ZM188.513 -42.6931L189.027 -42.6931L189.027 -43.2033L188.517 -43.2076L188.513 -42.6931ZM189.294 -42.6863L189.298 -43.2008L188.779 -43.2053L188.779 -42.6863L189.294 -42.6863ZM189.295 9.62042L188.781 9.62044L188.781 10.1306L189.291 10.135L189.295 9.62042ZM243.729 10.0947L243.724 10.6092L244.246 10.6138L244.243 10.0924L243.729 10.0947ZM243.496 -42.2199L244.011 -42.2222L244.008 -42.7301L243.501 -42.7345L243.496 -42.2199ZM244.533 -42.2109L244.538 -42.7254L244.016 -42.7299L244.019 -42.2086L244.533 -42.2109ZM244.766 10.1037L244.251 10.106L244.254 10.6138L244.761 10.6183L244.766 10.1037ZM297.939 10.5669L297.934 11.0815L298.454 11.0861L298.453 10.5658L297.939 10.5669ZM297.822 -41.7525L298.337 -41.7536L298.336 -42.2627L297.827 -42.267L297.822 -41.7525ZM298.732 -41.7445L298.737 -42.2591L298.217 -42.2636L298.218 -41.7434L298.732 -41.7445ZM298.849 10.5749L298.334 10.576L298.335 11.085L298.844 11.0895L298.849 10.5749ZM351.456 11.0332L351.452 11.5478L351.972 11.5523L351.971 11.032L351.456 11.0332ZM351.339 -41.2921L351.853 -41.2932L351.852 -41.8023L351.343 -41.8067L351.339 -41.2921ZM352.249 -41.2842L352.253 -41.7987L351.733 -41.8032L351.734 -41.283L352.249 -41.2842ZM352.366 11.0411L351.852 11.0423L351.853 11.5513L352.362 11.5557L352.366 11.0411ZM405.307 11.5023L405.302 12.0169L405.824 12.0215L405.821 11.5001L405.307 11.5023ZM405.074 -40.8298L405.589 -40.8321L405.586 -41.34L405.079 -41.3444L405.074 -40.8298ZM406.112 -40.8207L406.117 -41.3353L405.595 -41.3398L405.598 -40.8185L406.112 -40.8207ZM406.345 11.5114L405.83 11.5137L405.832 12.0215L406.34 12.026L406.345 11.5114ZM459.518 11.9746L459.513 12.4892L460.033 12.4938L460.032 11.9735L459.518 11.9746ZM459.4 -40.3624L459.915 -40.3635L459.914 -40.8726L459.405 -40.8769L459.4 -40.3624ZM460.309 -40.3544L460.314 -40.869L459.794 -40.8735L459.795 -40.3533L460.309 -40.3544ZM460.427 11.9826L459.912 11.9837L459.913 12.4927L460.422 12.4971L460.427 11.9826ZM513.034 12.4409L513.03 12.9555L513.55 12.96L513.549 12.4397L513.034 12.4409ZM512.917 -39.902L513.431 -39.9031L513.43 -40.4122L512.921 -40.4165L512.917 -39.902ZM513.604 -139.008L513.09 -139.007L513.309 -40.9223L513.823 -40.9234L514.338 -40.9246L514.119 -139.009L513.604 -139.008ZM513.823 -40.9234L513.819 -40.4088L526.369 -40.3005L526.374 -40.815L526.378 -41.3296L513.828 -41.438L513.823 -40.9234ZM526.374 -40.815L525.859 -40.8195L525.85 -39.7903L526.365 -39.7858L526.879 -39.7813L526.888 -40.8106L526.374 -40.815ZM526.365 -39.7858L526.369 -40.3004L513.83 -40.4086L513.826 -39.894L513.822 -39.3795L526.36 -39.2712L526.365 -39.7858ZM513.826 -39.894L513.311 -39.8929L513.429 12.45L513.943 12.4488L514.458 12.4477L514.341 -39.8952L513.826 -39.894ZM513.943 12.4488L513.939 12.9634L525.902 13.0676L525.907 12.553L525.911 12.0384L513.948 11.9342L513.943 12.4488ZM525.907 12.553L525.392 12.5485L525.383 13.5778L525.898 13.5823L526.412 13.5868L526.421 12.5575L525.907 12.553ZM525.898 13.5823L525.902 13.0677L513.949 12.9636L513.945 13.4782L513.941 13.9927L525.893 14.0969L525.898 13.5823ZM513.945 13.4782L513.43 13.4793L513.545 65.1756L514.06 65.1745L514.575 65.1733L514.46 13.477L513.945 13.4782ZM514.06 65.1745L514.056 65.6891L525.433 65.7872L525.438 65.2726L525.442 64.758L514.064 64.6599L514.06 65.1745ZM525.438 65.2726L525.433 65.7872L525.568 65.7884L525.572 65.2738L525.577 64.7592L525.442 64.758L525.438 65.2726ZM525.572 65.2738L525.058 65.2693L525.047 66.5515L525.561 66.556L526.076 66.5605L526.087 65.2783L525.572 65.2738ZM525.561 66.556L525.566 66.0414L525.431 66.0402L525.426 66.5548L525.422 67.0694L525.557 67.0706L525.561 66.556ZM525.426 66.5548L525.431 66.0402L514.067 65.9422L514.063 66.4568L514.058 66.9714L525.422 67.0694L525.426 66.5548ZM514.063 66.4568L513.548 66.4579L513.663 118.032L514.178 118.031L514.692 118.03L514.577 66.4556L514.063 66.4568ZM514.178 118.031L514.173 118.546L524.967 118.639L524.971 118.124L524.976 117.61L514.182 117.516L514.178 118.031ZM524.971 118.124L524.967 118.639L525.102 118.64L525.106 118.125L525.11 117.611L524.976 117.61L524.971 118.124ZM525.106 118.125L524.591 118.121L524.58 119.403L525.095 119.407L525.609 119.412L525.621 118.13L525.106 118.125ZM525.095 119.407L525.099 118.893L524.965 118.892L524.96 119.406L524.956 119.921L525.09 119.922L525.095 119.407ZM524.96 119.406L524.965 118.892L514.185 118.799L514.18 119.313L514.176 119.828L524.956 119.921L524.96 119.406ZM514.18 119.313L513.666 119.314L513.781 170.889L514.295 170.888L514.81 170.886L514.695 119.312L514.18 119.313ZM514.295 170.888L514.291 171.402L524.501 171.49L524.505 170.976L524.509 170.461L514.3 170.373L514.295 170.888ZM524.505 170.976L524.5 171.49L524.635 171.491L524.64 170.977L524.644 170.462L524.509 170.461L524.505 170.976ZM524.64 170.977L524.125 170.972L524.114 172.254L524.629 172.259L525.143 172.263L525.154 170.981L524.64 170.977ZM524.629 172.259L524.633 171.744L524.498 171.743L524.494 172.258L524.489 172.772L524.624 172.773L524.629 172.259ZM524.494 172.258L524.498 171.743L514.303 171.655L514.299 172.17L514.294 172.684L524.489 172.772L524.494 172.258ZM514.299 172.17L513.784 172.171L514.001 268.599L514.515 268.598L515.03 268.597L514.813 172.169L514.299 172.17ZM514.515 268.598L514.001 268.601L514.002 268.738L514.516 268.735L515.031 268.732L515.03 268.595L514.515 268.598ZM514.516 268.735L514.52 268.22L513.611 268.213L513.607 268.728L513.603 269.243L514.512 269.25L514.516 268.735ZM513.607 268.728L514.122 268.729L514.122 268.596L513.607 268.595L513.093 268.595L513.092 268.727L513.607 268.728ZM513.607 268.595L514.122 268.594L513.905 172.161L513.391 172.162L512.876 172.163L513.093 268.596L513.607 268.595ZM513.391 172.162L513.395 171.647L460.787 171.194L460.782 171.709L460.778 172.223L513.386 172.677L513.391 172.162ZM460.782 171.709L460.268 171.71L460.484 268.139L460.999 268.138L461.513 268.137L461.297 171.707L460.782 171.709ZM460.999 268.138L460.484 268.141L460.485 268.277L461 268.275L461.514 268.272L461.513 268.135L460.999 268.138ZM461 268.275L461.004 267.76L460.094 267.753L460.09 268.268L460.087 268.782L460.996 268.789L461 268.275ZM460.09 268.268L460.605 268.268L460.605 268.136L460.091 268.135L459.576 268.134L459.576 268.267L460.09 268.268ZM460.091 268.135L460.605 268.134L460.389 171.699L459.874 171.701L459.36 171.702L459.576 268.136L460.091 268.135ZM459.874 171.701L459.879 171.186L407.058 170.732L407.054 171.246L407.049 171.761L459.87 172.215L459.874 171.701ZM407.054 171.246L406.539 171.249L406.969 267.68L407.483 267.678L407.998 267.675L407.568 171.244L407.054 171.246ZM407.483 267.678L406.969 267.68L406.969 267.817L407.484 267.814L407.999 267.811L407.998 267.675L407.483 267.678ZM407.484 267.814L407.488 267.3L406.452 267.291L406.448 267.805L406.443 268.32L407.48 268.329L407.484 267.814ZM406.448 267.805L406.962 267.802L406.962 267.669L406.447 267.672L405.933 267.675L405.933 267.808L406.448 267.805ZM406.447 267.672L406.962 267.67L406.531 171.235L406.017 171.237L405.502 171.24L405.933 267.675L406.447 267.672ZM406.017 171.237L406.021 170.723L352.726 170.263L352.722 170.778L352.717 171.292L406.012 171.752L406.017 171.237ZM352.722 170.778L352.207 170.779L352.424 267.209L352.938 267.208L353.453 267.207L353.236 170.777L352.722 170.778ZM352.938 267.208L352.424 267.211L352.425 267.348L352.939 267.345L353.454 267.342L353.453 267.205L352.938 267.208ZM352.939 267.345L352.944 266.83L352.034 266.822L352.03 267.337L352.026 267.852L352.935 267.859L352.939 267.345ZM352.03 267.337L352.545 267.338L352.545 267.205L352.03 267.204L351.516 267.203L351.515 267.336L352.03 267.337ZM352.03 267.204L352.545 267.203L352.328 170.769L351.814 170.77L351.299 170.771L351.516 267.205L352.03 267.204ZM351.814 170.77L351.818 170.255L299.21 169.803L299.205 170.317L299.201 170.832L351.809 171.284L351.814 170.77ZM299.205 170.317L298.691 170.319L298.907 266.749L299.422 266.748L299.936 266.747L299.72 170.316L299.205 170.317ZM299.422 266.748L298.907 266.751L298.908 266.887L299.423 266.885L299.937 266.882L299.936 266.745L299.422 266.748ZM299.423 266.885L299.427 266.37L298.517 266.362L298.512 266.877L298.508 267.391L299.418 267.399L299.423 266.885ZM298.512 266.877L299.027 266.873L299.026 266.741L298.512 266.744L297.997 266.747L297.998 266.88L298.512 266.877ZM298.512 266.744L299.026 266.743L298.81 170.308L298.295 170.31L297.781 170.311L297.997 266.745L298.512 266.744ZM298.295 170.31L298.3 169.795L245.48 169.34L245.476 169.854L245.471 170.369L298.291 170.824L298.295 170.31ZM245.476 169.854L244.961 169.857L245.392 266.29L245.906 266.287L246.421 266.285L245.99 169.852L245.476 169.854ZM245.906 266.287L245.392 266.29L245.392 266.427L245.907 266.424L246.422 266.421L246.421 266.285L245.906 266.287ZM245.907 266.424L245.911 265.91L244.873 265.901L244.869 266.415L244.864 266.93L245.902 266.939L245.907 266.424ZM244.869 266.415L245.384 266.412L245.383 266.279L244.868 266.282L244.354 266.285L244.354 266.418L244.869 266.415ZM244.868 266.282L245.383 266.28L244.953 169.843L244.439 169.845L243.924 169.847L244.354 266.285L244.868 266.282ZM244.439 169.845L244.443 169.331L189.304 168.856L189.299 169.371L189.295 169.885L244.434 170.36L244.439 169.845ZM189.299 169.371L188.785 169.371L188.787 265.802L189.302 265.802L189.816 265.802L189.814 169.371L189.299 169.371ZM189.302 265.802L188.787 265.801L188.787 265.937L189.302 265.938L189.816 265.939L189.816 265.803L189.302 265.802ZM189.302 265.938L189.306 265.423L188.526 265.416L188.521 265.931L188.517 266.446L189.297 266.452L189.302 265.938ZM188.521 265.931L189.036 265.928L189.035 265.794L188.521 265.797L188.006 265.8L188.007 265.934L188.521 265.931ZM188.521 265.797L189.035 265.797L189.033 169.364L188.518 169.364L188.003 169.364L188.006 265.797L188.521 265.797ZM188.518 169.364L188.522 168.849L137.633 168.411L137.628 168.925L137.624 169.44L188.514 169.878L188.518 169.364ZM137.628 168.925L137.114 168.927L137.33 265.359L137.845 265.358L138.359 265.357L138.143 168.924L137.628 168.925ZM137.845 265.358L137.33 265.361L137.331 265.497L137.846 265.494L138.36 265.492L138.359 265.355L137.845 265.358ZM137.846 265.494L137.85 264.98L136.941 264.972L136.936 265.486L136.932 266.001L137.841 266.009L137.846 265.494ZM136.936 265.486L137.451 265.487L137.451 265.354L136.937 265.354L136.422 265.353L136.422 265.486L136.936 265.486ZM136.937 265.354L137.451 265.353L137.235 168.916L136.72 168.917L136.205 168.919L136.422 265.355L136.937 265.354ZM136.72 168.917L136.724 168.403L83.9032 167.949L83.8988 168.463L83.8944 168.978L136.716 169.432L136.72 168.917ZM83.8988 168.463L83.3842 168.465L83.8136 264.9L84.3282 264.897L84.8428 264.895L84.4134 168.461L83.8988 168.463ZM84.3282 264.897L83.8136 264.9L83.8144 265.037L84.329 265.034L84.8436 265.031L84.8428 264.894L84.3282 264.897ZM84.329 265.034L84.3335 264.519L83.2974 264.51L83.2929 265.025L83.2884 265.54L84.3245 265.549L84.329 265.034ZM83.2929 265.025L83.8075 265.022L83.8067 264.889L83.2921 264.892L82.7775 264.895L82.7783 265.028L83.2929 265.025ZM83.2921 264.892L83.8067 264.89L83.3763 168.452L82.8617 168.454L82.3471 168.456L82.7775 264.894L83.2921 264.892ZM82.8617 168.454L82.8661 167.94L0.658253 167.232L0.653825 167.747L0.649397 168.261L82.8573 168.969L82.8617 168.454ZM0.653825 167.747L0.658308 167.232L0.523547 167.231L0.519064 167.746L0.514581 168.26L0.649342 168.261L0.653825 167.747ZM0.519064 167.746L1.03364 167.75L1.04481 166.468L0.530235 166.463L0.0156571 166.459L0.00448657 167.741L0.519064 167.746ZM0.530235 166.463L0.525752 166.978L0.660512 166.979L0.664995 166.464L0.669478 165.95L0.534718 165.949L0.530235 166.463ZM0.664995 166.464L0.660567 166.979L82.8519 167.686L82.8563 167.172L82.8607 166.657L0.669423 165.95L0.664995 166.464ZM82.8563 167.172L83.3709 167.169L83.1415 115.594L82.6269 115.597L82.1123 115.599L82.3417 167.174L82.8563 167.172ZM82.6269 115.597L82.6313 115.082L1.12456 114.381L1.12013 114.895L1.11571 115.41L82.6225 116.111L82.6269 115.597ZM1.12013 114.895L1.12462 114.381L0.989857 114.379L0.985374 114.894L0.980891 115.409L1.11565 115.41L1.12013 114.895ZM0.985374 114.894L1.49995 114.899L1.51112 113.616L0.996545 113.612L0.481967 113.607L0.470796 114.89L0.985374 114.894ZM0.996545 113.612L0.992062 114.126L1.12682 114.128L1.13131 113.613L1.13579 113.098L1.00103 113.097L0.996545 113.612ZM1.13131 113.613L1.12688 114.128L82.617 114.829L82.6215 114.314L82.6259 113.8L1.13573 113.098L1.13131 113.613ZM82.6215 114.314L83.136 114.312L82.9066 62.7367L82.392 62.739L81.8775 62.7413L82.1069 114.316L82.6215 114.314ZM82.392 62.739L82.3965 62.2244L1.59087 61.5292L1.58644 62.0438L1.58202 62.5583L82.3876 63.2535L82.392 62.739ZM1.58644 62.0438L1.59093 61.5292L1.45617 61.528L1.45168 62.0426L1.4472 62.5572L1.58196 62.5583L1.58644 62.0438ZM1.45168 62.0426L1.96626 62.0471L1.97743 60.7649L1.46285 60.7604L0.948277 60.7559L0.937106 62.0381L1.45168 62.0426ZM1.46285 60.7604L1.45837 61.275L1.59313 61.2762L1.59761 60.7616L1.6021 60.247L1.46734 60.2458L1.46285 60.7604ZM1.59761 60.7616L1.59319 61.2762L82.3822 61.9712L82.3866 61.4566L82.391 60.9421L1.60204 60.247L1.59761 60.7616ZM82.3866 61.4566L82.9012 61.4543L82.6713 9.71406L82.1567 9.71635L81.6421 9.71864L81.872 61.4589L82.3866 61.4566ZM82.1567 9.71635L82.1612 9.20176L2.06168 8.50392L2.0572 9.01851L2.05271 9.53309L82.1522 10.2309L82.1567 9.71635ZM2.0572 9.01851L2.57178 9.02299L2.58074 7.99373L2.06617 7.98925L1.55159 7.98477L1.54262 9.01402L2.0572 9.01851ZM2.06617 7.98925L2.06168 8.50383L82.1475 9.20155L82.152 8.68697L82.1565 8.17239L2.07065 7.47467L2.06617 7.98925ZM82.152 8.68697L82.6666 8.68468L82.4337 -43.6123L81.9191 -43.61L81.4045 -43.6077L81.6374 8.68926L82.152 8.68697ZM81.9191 -43.61L81.9235 -44.1246L2.52901 -44.8075L2.52459 -44.2929L2.52016 -43.7783L81.9147 -43.0954L81.9191 -43.61ZM2.52459 -44.2929L3.03916 -44.2884L3.04813 -45.3177L2.53355 -45.3222L2.01897 -45.3267L2.01001 -44.2974L2.52459 -44.2929ZM2.53355 -45.3222L2.52913 -44.8076L81.91 -44.1248L81.9144 -44.6394L81.9188 -45.154L2.53798 -45.8368L2.53355 -45.3222ZM81.9144 -44.6394L82.429 -44.6417L81.9934 -142.724L81.4788 -142.722L80.9642 -142.72L81.3998 -44.6371L81.9144 -44.6394ZM81.4788 -142.722L81.9934 -142.725L81.9927 -142.862L81.4781 -142.859L80.9635 -142.856L80.9642 -142.719L81.4788 -142.722ZM81.4781 -142.859L81.4736 -142.344L82.5126 -142.335L82.5171 -142.85L82.5216 -143.364L81.4825 -143.373L81.4781 -142.859ZM82.5171 -142.85L82.0025 -142.847L82.0033 -142.714L82.5179 -142.717L83.0325 -142.72L83.0317 -142.853L82.5171 -142.85ZM82.5179 -142.717L82.0033 -142.715L82.4388 -44.6281L82.9534 -44.6303L83.468 -44.6326L83.0325 -142.719L82.5179 -142.717ZM82.9534 -44.6303L82.949 -44.1158L136.239 -43.6573L136.243 -44.1719L136.248 -44.6865L82.9579 -45.1449L82.9534 -44.6303ZM136.243 -44.1719L136.758 -44.1731L136.539 -142.255L136.025 -142.254L135.51 -142.253L135.729 -44.1708L136.243 -44.1719ZM136.025 -142.254L136.539 -142.253L136.539 -142.389L136.025 -142.389L135.51 -142.39L135.51 -142.255L136.025 -142.254ZM136.025 -142.389L136.02 -141.875L136.929 -141.867L136.933 -142.382L136.938 -142.896L136.029 -142.904L136.025 -142.389ZM136.933 -142.382L136.418 -142.378L136.419 -142.246L136.934 -142.249L137.448 -142.252L137.448 -142.385L136.933 -142.382ZM136.934 -142.249L136.419 -142.248L136.638 -44.1629L137.153 -44.164L137.667 -44.1652L137.448 -142.25L136.934 -142.249ZM137.153 -44.164L137.148 -43.6494L188.509 -43.2078L188.513 -43.7224L188.517 -44.237L137.157 -44.6786L137.153 -44.164ZM188.513 -43.7224L189.028 -43.7224L189.026 -141.802L188.511 -141.802L187.996 -141.802L187.998 -43.7224L188.513 -43.7224ZM188.511 -141.802L189.026 -141.802L189.026 -141.937L188.511 -141.938L187.997 -141.939L187.996 -141.803L188.511 -141.802ZM188.511 -141.938L188.507 -141.423L189.288 -141.417L189.292 -141.931L189.297 -142.446L188.516 -142.453L188.511 -141.938ZM189.292 -141.931L188.778 -141.932L188.778 -141.798L189.292 -141.797L189.807 -141.797L189.807 -141.931L189.292 -141.931ZM189.292 -141.797L188.778 -141.797L188.78 -43.7156L189.294 -43.7156L189.809 -43.7156L189.807 -141.797L189.292 -141.797ZM189.294 -43.7156L189.29 -43.201L243.487 -42.7347L243.491 -43.2493L243.496 -43.7639L189.299 -44.2302L189.294 -43.7156ZM243.491 -43.2493L244.006 -43.2516L243.57 -141.334L243.056 -141.332L242.541 -141.33L242.977 -43.247L243.491 -43.2493ZM243.056 -141.332L243.57 -141.335L243.57 -141.472L243.055 -141.469L242.541 -141.466L242.541 -141.329L243.056 -141.332ZM243.055 -141.469L243.051 -140.954L244.088 -140.945L244.092 -141.46L244.097 -141.974L243.06 -141.983L243.055 -141.469ZM244.092 -141.46L243.578 -141.457L243.578 -141.324L244.093 -141.327L244.608 -141.33L244.607 -141.463L244.092 -141.46ZM244.093 -141.327L243.578 -141.325L244.014 -43.238L244.528 -43.2402L245.043 -43.2425L244.608 -141.329L244.093 -141.327ZM244.528 -43.2402L244.524 -42.7257L297.816 -42.2672L297.82 -42.7818L297.825 -43.2964L244.533 -43.7548L244.528 -43.2402ZM297.82 -42.7818L298.335 -42.783L298.116 -140.865L297.602 -140.864L297.087 -140.862L297.306 -42.7807L297.82 -42.7818ZM297.602 -140.864L298.116 -140.863L298.117 -140.999L297.602 -140.999L297.087 -141L297.087 -140.864L297.602 -140.864ZM297.602 -140.999L297.597 -140.485L298.506 -140.477L298.51 -140.991L298.515 -141.506L297.606 -141.514L297.602 -140.999ZM298.51 -140.991L297.995 -140.988L297.996 -140.856L298.511 -140.859L299.025 -140.862L299.025 -140.995L298.51 -140.991ZM298.511 -140.859L297.996 -140.857L298.215 -42.7728L298.73 -42.7739L299.244 -42.775L299.025 -140.86L298.511 -140.859ZM298.73 -42.7739L298.725 -42.2593L351.332 -41.8069L351.336 -42.3214L351.34 -42.836L298.734 -43.2885L298.73 -42.7739ZM351.336 -42.3214L351.851 -42.3226L351.632 -140.404L351.117 -140.403L350.603 -140.402L350.821 -42.3203L351.336 -42.3214ZM351.117 -140.403L351.632 -140.402L351.632 -140.538L351.117 -140.539L350.603 -140.54L350.603 -140.404L351.117 -140.403ZM351.117 -140.539L351.113 -140.024L352.023 -140.016L352.028 -140.531L352.032 -141.046L351.122 -141.054L351.117 -140.539ZM352.028 -140.531L351.513 -140.532L351.513 -140.399L352.027 -140.398L352.542 -140.398L352.542 -140.53L352.028 -140.531ZM352.027 -140.398L351.513 -140.397L351.732 -42.3124L352.246 -42.3135L352.761 -42.3147L352.542 -140.399L352.027 -140.398ZM352.246 -42.3135L352.242 -41.7989L405.065 -41.3446L405.069 -41.8592L405.074 -42.3737L352.251 -42.8281L352.246 -42.3135ZM405.069 -41.8592L405.584 -41.8615L405.148 -139.944L404.634 -139.942L404.119 -139.94L404.555 -41.8569L405.069 -41.8592ZM404.634 -139.942L405.148 -139.945L405.148 -140.081L404.633 -140.079L404.118 -140.076L404.119 -139.939L404.634 -139.942ZM404.633 -140.079L404.629 -139.564L405.668 -139.555L405.672 -140.07L405.677 -140.584L404.638 -140.593L404.633 -140.079ZM405.672 -140.07L405.158 -140.066L405.158 -139.934L405.673 -139.937L406.187 -139.94L406.187 -140.073L405.672 -140.07ZM405.673 -139.937L405.158 -139.934L405.594 -41.8478L406.108 -41.8501L406.623 -41.8524L406.188 -139.939L405.673 -139.937ZM406.108 -41.8501L406.104 -41.3355L459.393 -40.8771L459.397 -41.3917L459.402 -41.9063L406.113 -42.3647L406.108 -41.8501ZM459.397 -41.3917L459.912 -41.3929L459.693 -139.475L459.179 -139.474L458.664 -139.472L458.883 -41.3906L459.397 -41.3917ZM459.179 -139.474L459.693 -139.473L459.694 -139.608L459.179 -139.609L458.664 -139.61L458.664 -139.474L459.179 -139.474ZM459.179 -139.609L459.174 -139.095L460.083 -139.087L460.087 -139.601L460.092 -140.116L459.183 -140.124L459.179 -139.609ZM460.087 -139.601L459.573 -139.598L459.573 -139.465L460.088 -139.469L460.602 -139.472L460.602 -139.604L460.087 -139.601ZM460.088 -139.469L459.573 -139.467L459.792 -41.3826L460.307 -41.3838L460.821 -41.3849L460.602 -139.47L460.088 -139.469ZM460.307 -41.3838L460.302 -40.8692L512.91 -40.4168L512.914 -40.9313L512.918 -41.4459L460.311 -41.8984L460.307 -41.3838ZM512.914 -40.9313L513.429 -40.9325L513.21 -139.014L512.695 -139.013L512.181 -139.012L512.399 -40.9302L512.914 -40.9313ZM512.695 -139.013L513.21 -139.012L513.21 -139.148L512.695 -139.149L512.181 -139.15L512.181 -139.014L512.695 -139.013ZM512.695 -139.149L512.691 -138.634L513.599 -138.626L513.604 -139.141L513.608 -139.656L512.7 -139.663L512.695 -139.149ZM513.604 -139.141L513.089 -139.138L513.09 -139.005L513.604 -139.008L514.119 -139.011L514.118 -139.144L513.604 -139.141ZM83.664 115.606L83.1494 115.608L83.3788 167.183L83.8934 167.181L84.4079 167.179L84.1785 115.603L83.664 115.606ZM83.8934 167.181L83.8889 167.695L136.712 168.15L136.717 167.635L136.721 167.121L83.8978 166.666L83.8934 167.181ZM136.717 167.635L137.231 167.634L137.116 116.061L136.601 116.062L136.087 116.063L136.202 167.636L136.717 167.635ZM136.601 116.062L136.606 115.547L83.6684 115.091L83.664 115.606L83.6595 116.12L136.597 116.576L136.601 116.062ZM137.511 116.069L136.996 116.07L137.111 167.644L137.626 167.643L138.14 167.642L138.025 116.068L137.511 116.069ZM137.626 167.643L137.621 168.158L188.513 168.596L188.517 168.082L188.522 167.567L137.63 167.129L137.626 167.643ZM188.517 168.082L189.032 168.082L189.031 116.508L188.517 116.508L188.002 116.508L188.003 168.082L188.517 168.082ZM188.517 116.508L188.521 115.994L137.515 115.554L137.511 116.069L137.506 116.583L188.512 117.023L188.517 116.508ZM189.298 116.515L188.783 116.515L188.784 168.088L189.299 168.088L189.813 168.088L189.812 116.515L189.298 116.515ZM189.299 168.088L189.294 168.603L244.429 169.077L244.433 168.563L244.438 168.048L189.303 167.574L189.299 168.088ZM244.433 168.563L244.948 168.561L244.718 116.985L244.204 116.988L243.689 116.99L243.919 168.565L244.433 168.563ZM244.204 116.988L244.208 116.473L189.302 116.001L189.298 116.515L189.293 117.03L244.199 117.502L244.204 116.988ZM245.241 116.997L244.726 116.999L244.956 168.574L245.47 168.572L245.985 168.57L245.756 116.994L245.241 116.997ZM245.47 168.572L245.466 169.086L298.288 169.542L298.293 169.027L298.297 168.513L245.475 168.057L245.47 168.572ZM298.293 169.027L298.807 169.026L298.692 117.452L298.177 117.453L297.663 117.454L297.778 169.028L298.293 169.027ZM298.177 117.453L298.182 116.938L245.245 116.482L245.241 116.997L245.237 117.511L298.173 117.968L298.177 117.453ZM299.088 117.461L298.573 117.462L298.688 169.036L299.203 169.035L299.717 169.034L299.602 117.46L299.088 117.461ZM299.203 169.035L299.198 169.55L351.806 170.002L351.81 169.488L351.815 168.973L299.207 168.521L299.203 169.035ZM351.81 169.488L352.325 169.486L352.21 117.912L351.695 117.913L351.18 117.915L351.296 169.489L351.81 169.488ZM351.695 117.913L351.699 117.399L299.092 116.946L299.088 117.461L299.083 117.975L351.691 118.428L351.695 117.913ZM352.604 117.921L352.09 117.922L352.205 169.497L352.719 169.496L353.234 169.494L353.119 117.92L352.604 117.921ZM352.719 169.496L352.715 170.01L406.007 170.469L406.011 169.955L406.016 169.44L352.724 168.981L352.719 169.496ZM406.011 169.955L406.526 169.953L406.296 118.377L405.782 118.38L405.267 118.382L405.497 169.957L406.011 169.955ZM405.782 118.38L405.786 117.865L352.609 117.407L352.604 117.921L352.6 118.436L405.777 118.894L405.782 118.38ZM406.819 118.389L406.304 118.391L406.534 169.966L407.048 169.964L407.563 169.962L407.334 118.386L406.819 118.389ZM407.048 169.964L407.044 170.479L459.866 170.933L459.871 170.418L459.875 169.904L407.053 169.449L407.048 169.964ZM459.871 170.418L460.385 170.417L460.27 118.843L459.755 118.844L459.241 118.845L459.356 170.419L459.871 170.418ZM459.755 118.844L459.76 118.329L406.823 117.874L406.819 118.389L406.815 118.903L459.751 119.359L459.755 118.844ZM460.664 118.852L460.149 118.853L460.264 170.427L460.779 170.426L461.293 170.425L461.178 118.851L460.664 118.852ZM460.779 170.426L460.774 170.941L513.383 171.394L513.387 170.88L513.392 170.365L460.783 169.912L460.779 170.426ZM513.387 170.88L513.902 170.878L513.787 119.304L513.272 119.305L512.757 119.307L512.873 170.881L513.387 170.88ZM513.272 119.305L513.276 118.791L460.668 118.337L460.664 118.852L460.659 119.367L513.268 119.82L513.272 119.305ZM83.4291 62.748L82.9145 62.7503L83.143 114.326L83.6575 114.323L84.1721 114.321L83.9437 62.7457L83.4291 62.748ZM83.6575 114.323L83.6531 114.838L136.594 115.294L136.599 114.78L136.603 114.265L83.662 113.809L83.6575 114.323ZM136.599 114.78L137.114 114.778L136.998 63.2042L136.484 63.2053L135.969 63.2065L136.084 114.781L136.599 114.78ZM136.484 63.2053L136.488 62.6908L83.4336 62.2334L83.4291 62.748L83.4247 63.2626L136.479 63.7199L136.484 63.2053ZM137.393 63.2133L136.878 63.2144L136.993 114.788L137.508 114.787L138.023 114.785L137.908 63.2121L137.393 63.2133ZM137.508 114.787L137.504 115.301L188.512 115.741L188.516 115.226L188.52 114.711L137.513 114.272L137.508 114.787ZM188.516 115.226L189.031 115.226L189.03 63.6528L188.515 63.6528L188 63.6528L188.001 115.226L188.516 115.226ZM188.515 63.6528L188.519 63.1382L137.397 62.6987L137.393 63.2133L137.389 63.7278L188.511 64.1674L188.515 63.6528ZM189.296 63.6596L188.782 63.6596L188.783 115.233L189.297 115.233L189.812 115.233L189.811 63.6596L189.296 63.6596ZM189.297 115.233L189.293 115.747L244.193 116.22L244.197 115.705L244.202 115.191L189.302 114.718L189.297 115.233ZM244.197 115.705L244.712 115.703L244.484 64.1287L243.969 64.131L243.454 64.1333L243.683 115.708L244.197 115.705ZM243.969 64.131L243.973 63.6164L189.301 63.145L189.296 63.6596L189.292 64.1742L243.965 64.6456L243.969 64.131ZM245.006 64.1391L244.492 64.1414L244.721 115.717L245.236 115.714L245.75 115.712L245.521 64.1368L245.006 64.1391ZM245.236 115.714L245.231 116.229L298.171 116.685L298.175 116.171L298.179 115.656L245.24 115.2L245.236 115.714ZM298.175 116.171L298.69 116.169L298.574 64.5953L298.06 64.5964L297.545 64.5976L297.66 116.172L298.175 116.171ZM298.06 64.5964L298.064 64.0818L245.011 63.6245L245.006 64.1391L245.002 64.6537L298.055 65.111L298.06 64.5964ZM298.97 64.6043L298.455 64.6055L298.571 116.18L299.085 116.179L299.6 116.177L299.485 64.6032L298.97 64.6043ZM299.085 116.179L299.081 116.693L351.687 117.146L351.692 116.631L351.696 116.116L299.09 115.664L299.085 116.179ZM351.692 116.631L352.206 116.63L352.091 65.0556L351.576 65.0568L351.062 65.0579L351.177 116.632L351.692 116.631ZM351.576 65.0568L351.581 64.5422L298.974 64.0898L298.97 64.6043L298.966 65.1189L351.572 65.5714L351.576 65.0568ZM352.487 65.0647L351.972 65.0659L352.087 116.64L352.602 116.639L353.116 116.638L353.001 65.0636L352.487 65.0647ZM352.602 116.639L352.597 117.154L405.772 117.612L405.776 117.097L405.781 116.583L352.606 116.124L352.602 116.639ZM405.776 117.097L406.291 117.095L406.062 65.5198L405.547 65.5221L405.032 65.5244L405.262 117.1L405.776 117.097ZM405.547 65.5221L405.551 65.0075L352.491 64.5501L352.487 65.0647L352.482 65.5793L405.543 66.0367L405.547 65.5221ZM406.584 65.5311L406.07 65.5334L406.298 117.109L406.813 117.106L407.327 117.104L407.099 65.5289L406.584 65.5311ZM406.813 117.106L406.808 117.621L459.749 118.076L459.753 117.562L459.757 117.047L406.817 116.592L406.813 117.106ZM459.753 117.562L460.268 117.561L460.152 65.9864L459.638 65.9875L459.123 65.9886L459.238 117.563L459.753 117.562ZM459.638 65.9875L459.642 65.4729L406.589 65.0166L406.584 65.5311L406.58 66.0457L459.633 66.5021L459.638 65.9875ZM460.546 65.9954L460.031 65.9966L460.147 117.571L460.661 117.57L461.176 117.568L461.061 65.9943L460.546 65.9954ZM460.661 117.57L460.657 118.084L513.265 118.538L513.27 118.023L513.274 117.509L460.666 117.055L460.661 117.57ZM513.27 118.023L513.784 118.022L513.669 66.4477L513.154 66.4489L512.64 66.45L512.755 118.024L513.27 118.023ZM513.154 66.4489L513.159 65.9343L460.55 65.4808L460.546 65.9954L460.542 66.51L513.15 66.9634L513.154 66.4489ZM83.4237 61.4657L83.4192 61.9803L136.477 62.4376L136.481 61.923L136.486 61.4085L83.4281 60.9511L83.4237 61.4657ZM136.481 61.923L136.996 61.9219L136.88 10.1875L136.366 10.1886L135.851 10.1898L135.967 61.9242L136.481 61.923ZM136.366 10.1886L136.37 9.67404L83.1982 9.2108L83.1938 9.72538L83.1893 10.24L136.361 10.7032L136.366 10.1886ZM83.1938 9.72538L82.6792 9.72767L82.9091 61.468L83.4237 61.4657L83.9383 61.4634L83.7084 9.72309L83.1938 9.72538ZM137.389 61.931L137.385 62.4455L188.51 62.8851L188.515 62.3705L188.519 61.8559L137.394 61.4164L137.389 61.931ZM188.515 62.3705L189.029 62.3705L189.029 10.6429L188.514 10.6429L187.999 10.643L188 62.3705L188.515 62.3705ZM188.514 10.6429L188.518 10.1284L137.279 9.68196L137.275 10.1965L137.27 10.7111L188.51 11.1575L188.514 10.6429ZM137.275 10.1965L136.76 10.1977L136.875 61.9321L137.389 61.931L137.904 61.9298L137.789 10.1954L137.275 10.1965ZM189.296 62.3773L189.291 62.8919L243.958 63.3633L243.963 62.8487L243.967 62.3341L189.3 61.8627L189.296 62.3773ZM243.963 62.8487L244.477 62.8464L244.248 11.1218L243.734 11.124L243.219 11.1263L243.448 62.851L243.963 62.8487ZM243.734 11.124L243.738 10.6094L189.3 10.1352L189.295 10.6498L189.291 11.1643L243.729 11.6386L243.734 11.124ZM189.295 10.6498L188.781 10.6498L188.781 62.3773L189.296 62.3773L189.81 62.3773L189.81 10.6498L189.295 10.6498ZM245.001 62.8568L244.996 63.3713L298.052 63.8287L298.056 63.3141L298.061 62.7995L245.005 62.3422L245.001 62.8568ZM298.056 63.3141L298.571 63.313L298.456 11.5952L297.941 11.5963L297.427 11.5974L297.542 63.3153L298.056 63.3141ZM297.941 11.5963L297.946 11.0817L244.775 10.6185L244.771 11.1331L244.766 11.6476L297.937 12.1109L297.941 11.5963ZM244.771 11.1331L244.256 11.1354L244.486 62.859L245.001 62.8568L245.515 62.8545L245.285 11.1308L244.771 11.1331ZM298.966 63.322L298.962 63.8366L351.569 64.2891L351.574 63.7745L351.578 63.2599L298.971 62.8074L298.966 63.322ZM351.574 63.7745L352.088 63.7734L351.973 12.0614L351.458 12.0625L350.943 12.0637L351.059 63.7756L351.574 63.7745ZM351.458 12.0625L351.462 11.548L298.856 11.0896L298.852 11.6042L298.847 12.1188L351.454 12.5771L351.458 12.0625ZM298.852 11.6042L298.337 11.6054L298.452 63.3232L298.966 63.322L299.481 63.3209L299.366 11.6031L298.852 11.6042ZM352.483 63.7824L352.479 64.297L405.536 64.7544L405.541 64.2398L405.545 63.7252L352.487 63.2678L352.483 63.7824ZM405.541 64.2398L406.055 64.2375L405.826 12.5294L405.311 12.5317L404.797 12.534L405.026 64.2421L405.541 64.2398ZM405.311 12.5317L405.316 12.0171L352.373 11.5559L352.368 12.0705L352.364 12.5851L405.307 13.0463L405.311 12.5317ZM352.368 12.0705L351.854 12.0716L351.968 63.7836L352.483 63.7824L352.998 63.7813L352.883 12.0693L352.368 12.0705ZM406.579 64.2488L406.574 64.7634L459.63 65.2198L459.634 64.7052L459.639 64.1906L406.583 63.7342L406.579 64.2488ZM459.634 64.7052L460.149 64.704L460.034 13.0028L459.519 13.004L459.005 13.0051L459.12 64.7063L459.634 64.7052ZM459.519 13.004L459.524 12.4894L406.354 12.0262L406.349 12.5408L406.345 13.0553L459.515 13.5186L459.519 13.004ZM406.349 12.5408L405.835 12.543L406.064 64.2511L406.579 64.2488L407.093 64.2465L406.864 12.5385L406.349 12.5408ZM460.543 64.7131L460.539 65.2277L513.146 65.6811L513.151 65.1666L513.155 64.652L460.548 64.1985L460.543 64.7131ZM513.151 65.1666L513.666 65.1654L513.55 13.4691L513.036 13.4702L512.521 13.4714L512.636 65.1677L513.151 65.1666ZM513.036 13.4702L513.04 12.9557L460.433 12.4973L460.428 13.0119L460.424 13.5265L513.031 13.9848L513.036 13.4702ZM460.428 13.0119L459.914 13.0131L460.029 64.7143L460.543 64.7131L461.058 64.712L460.943 13.0108L460.428 13.0119ZM82.9572 -43.601L82.4426 -43.5987L82.6754 8.69831L83.19 8.69601L83.7046 8.69372L83.4717 -43.6033L82.9572 -43.601ZM83.19 8.69601L83.1856 9.2106L136.358 9.67385L136.363 9.15926L136.367 8.64468L83.1945 8.18143L83.19 8.69601ZM136.363 9.15926L136.877 9.15812L136.761 -43.1437L136.246 -43.1426L135.732 -43.1414L135.848 9.16041L136.363 9.15926ZM136.246 -43.1426L136.251 -43.6571L82.9616 -44.1155L82.9572 -43.601L82.9527 -43.0864L136.242 -42.628L136.246 -43.1426ZM137.155 -43.1346L136.641 -43.1335L136.757 9.16833L137.272 9.16718L137.787 9.16604L137.67 -43.1358L137.155 -43.1346ZM137.272 9.16718L137.267 9.68177L188.51 10.1282L188.514 9.61361L188.519 9.09903L137.276 8.6526L137.272 9.16718ZM188.514 9.61361L189.029 9.6136L189.027 -42.6931L188.513 -42.6931L187.998 -42.6931L188 9.61363L188.514 9.61361ZM188.513 -42.6931L188.517 -43.2076L137.16 -43.6492L137.155 -43.1346L137.151 -42.6201L188.508 -42.1785L188.513 -42.6931ZM189.294 -42.6863L188.779 -42.6863L188.781 9.62044L189.295 9.62042L189.81 9.6204L189.809 -42.6863L189.294 -42.6863ZM189.295 9.62042L189.291 10.135L243.724 10.6092L243.729 10.0947L243.733 9.58007L189.3 9.10584L189.295 9.62042ZM243.729 10.0947L244.243 10.0924L244.011 -42.2222L243.496 -42.2199L242.982 -42.2176L243.214 10.0969L243.729 10.0947ZM243.496 -42.2199L243.501 -42.7345L189.298 -43.2008L189.294 -42.6863L189.29 -42.1717L243.492 -41.7053L243.496 -42.2199ZM244.533 -42.2109L244.019 -42.2086L244.251 10.106L244.766 10.1037L245.281 10.1014L245.048 -42.2132L244.533 -42.2109ZM244.766 10.1037L244.761 10.6183L297.934 11.0815L297.939 10.5669L297.943 10.0524L244.77 9.58911L244.766 10.1037ZM297.939 10.5669L298.453 10.5658L298.337 -41.7536L297.822 -41.7525L297.308 -41.7513L297.424 10.5681L297.939 10.5669ZM297.822 -41.7525L297.827 -42.267L244.538 -42.7254L244.533 -42.2109L244.529 -41.6963L297.818 -41.2379L297.822 -41.7525ZM298.732 -41.7445L298.218 -41.7434L298.334 10.576L298.849 10.5749L299.363 10.5737L299.247 -41.7457L298.732 -41.7445ZM298.849 10.5749L298.844 11.0895L351.452 11.5478L351.456 11.0332L351.461 10.5186L298.853 10.0603L298.849 10.5749ZM351.456 11.0332L351.971 11.032L351.853 -41.2932L351.339 -41.2921L350.824 -41.2909L350.942 11.0343L351.456 11.0332ZM351.339 -41.2921L351.343 -41.8067L298.737 -42.2591L298.732 -41.7445L298.728 -41.23L351.334 -40.7775L351.339 -41.2921ZM352.249 -41.2842L351.734 -41.283L351.852 11.0423L352.366 11.0411L352.881 11.04L352.764 -41.2853L352.249 -41.2842ZM352.366 11.0411L352.362 11.5557L405.302 12.0169L405.307 11.5023L405.311 10.9878L352.371 10.5265L352.366 11.0411ZM405.307 11.5023L405.821 11.5001L405.589 -40.8321L405.074 -40.8298L404.56 -40.8275L404.792 11.5046L405.307 11.5023ZM405.074 -40.8298L405.079 -41.3444L352.253 -41.7987L352.249 -41.2842L352.245 -40.7696L405.07 -40.3152L405.074 -40.8298ZM406.112 -40.8207L405.598 -40.8185L405.83 11.5137L406.345 11.5114L406.859 11.5091L406.627 -40.823L406.112 -40.8207ZM406.345 11.5114L406.34 12.026L459.513 12.4892L459.518 11.9746L459.522 11.4601L406.349 10.9968L406.345 11.5114ZM459.518 11.9746L460.032 11.9735L459.915 -40.3635L459.4 -40.3624L458.886 -40.3612L459.003 11.9758L459.518 11.9746ZM459.4 -40.3624L459.405 -40.8769L406.117 -41.3353L406.112 -40.8207L406.108 -40.3062L459.396 -39.8478L459.4 -40.3624ZM460.309 -40.3544L459.795 -40.3533L459.912 11.9837L460.427 11.9826L460.941 11.9814L460.824 -40.3556L460.309 -40.3544ZM460.427 11.9826L460.422 12.4971L513.03 12.9555L513.034 12.4409L513.039 11.9263L460.431 11.468L460.427 11.9826ZM513.034 12.4409L513.549 12.4397L513.431 -39.9031L512.917 -39.902L512.402 -39.9008L512.519 12.442L513.034 12.4409ZM512.917 -39.902L512.921 -40.4165L460.314 -40.869L460.309 -40.3544L460.305 -39.8399L512.912 -39.3874L512.917 -39.902Z" fill="url(#paint0_radial_1_4439)"/>
<defs>
<radialGradient id="paint0_radial_1_4439" cx="0" cy="0" r="1" gradientTransform="matrix(95.2484 118.589 -152.393 122.381 271.092 66.4578)" gradientUnits="userSpaceOnUse">
<stop stop-color="#7A7A7A"/>
<stop offset="1" stop-color="#FAFAFA" stop-opacity="0"/>
</radialGradient>
</defs>
</svg>
