<svg width="296" height="396" viewBox="0 0 296 396" fill="none" xmlns="http://www.w3.org/2000/svg">
<path opacity="0.2" d="M513.604 -13.213L514.119 -13.2141L514.119 -13.2161L513.604 -13.213ZM513.823 84.8717L513.309 84.8729L513.31 85.3819L513.819 85.3863L513.823 84.8717ZM526.374 84.9801L526.888 84.9846L526.893 84.47L526.378 84.4655L526.374 84.9801ZM526.365 86.0093L526.36 86.5239L526.875 86.5284L526.879 86.0138L526.365 86.0093ZM513.826 85.9011L513.83 85.3865L513.31 85.382L513.311 85.9022L513.826 85.9011ZM513.943 138.244L513.429 138.245L513.43 138.754L513.939 138.759L513.943 138.244ZM525.907 138.348L526.421 138.353L526.426 137.838L525.911 137.834L525.907 138.348ZM525.898 139.377L525.893 139.892L526.408 139.896L526.412 139.382L525.898 139.377ZM513.945 139.273L513.949 138.759L513.429 138.754L513.43 139.274L513.945 139.273ZM514.06 190.97L513.545 190.971L513.547 191.48L514.056 191.484L514.06 190.97ZM525.438 191.068L525.442 190.553L525.442 190.553L525.438 191.068ZM525.572 191.069L526.087 191.073L526.091 190.559L525.577 190.554L525.572 191.069ZM525.561 192.351L525.557 192.866L526.071 192.87L526.076 192.356L525.561 192.351ZM525.426 192.35L525.431 191.835L525.431 191.835L525.426 192.35ZM514.063 192.252L514.067 191.737L513.547 191.733L513.548 192.253L514.063 192.252ZM514.178 243.826L513.663 243.827L513.664 244.336L514.173 244.341L514.178 243.826ZM524.971 243.919L524.976 243.405L524.976 243.405L524.971 243.919ZM525.106 243.92L525.621 243.925L525.625 243.41L525.11 243.406L525.106 243.92ZM525.095 245.203L525.09 245.717L525.605 245.722L525.609 245.207L525.095 245.203ZM524.96 245.201L524.965 244.687L524.965 244.687L524.96 245.201ZM514.18 245.108L514.185 244.594L513.664 244.589L513.666 245.11L514.18 245.108ZM514.295 296.683L513.781 296.684L513.782 297.193L514.291 297.197L514.295 296.683ZM524.505 296.771L524.509 296.256L524.509 296.256L524.505 296.771ZM524.64 296.772L525.154 296.776L525.159 296.262L524.644 296.257L524.64 296.772ZM524.629 298.054L524.624 298.569L525.139 298.573L525.143 298.059L524.629 298.054ZM524.494 298.053L524.498 297.538L524.498 297.538L524.494 298.053ZM514.299 297.965L514.303 297.45L513.783 297.446L513.784 297.966L514.299 297.965ZM514.515 394.393L514.001 394.395L514.001 394.396L514.515 394.393ZM514.516 394.53L514.512 395.045L515.034 395.049L515.031 394.527L514.516 394.53ZM513.607 394.523L513.092 394.522L513.092 395.034L513.603 395.038L513.607 394.523ZM513.607 394.39L514.122 394.391L514.122 394.389L513.607 394.39ZM513.391 297.957L513.905 297.956L513.904 297.447L513.395 297.443L513.391 297.957ZM460.782 297.504L460.787 296.989L460.267 296.985L460.268 297.505L460.782 297.504ZM460.999 393.933L460.484 393.934L460.484 393.936L460.999 393.933ZM461 394.07L460.996 394.584L461.517 394.588L461.514 394.067L461 394.07ZM460.09 394.063L459.576 394.062L459.575 394.573L460.087 394.577L460.09 394.063ZM460.091 393.93L460.605 393.931L460.605 393.929L460.091 393.93ZM459.874 297.496L460.389 297.495L460.388 296.986L459.879 296.981L459.874 297.496ZM407.054 297.041L407.058 296.527L406.537 296.522L406.539 297.044L407.054 297.041ZM407.483 393.473L406.969 393.475L406.969 393.476L407.483 393.473ZM407.484 393.609L407.48 394.124L408.002 394.128L407.999 393.607L407.484 393.609ZM406.448 393.6L405.933 393.603L405.936 394.11L406.443 394.115L406.448 393.6ZM406.447 393.468L405.933 393.47L405.933 393.471L406.447 393.468ZM406.017 297.032L406.531 297.03L406.529 296.522L406.021 296.518L406.017 297.032ZM352.722 296.573L352.726 296.058L352.206 296.054L352.207 296.574L352.722 296.573ZM352.938 393.003L352.424 393.004L352.424 393.006L352.938 393.003ZM352.939 393.14L352.935 393.655L353.457 393.659L353.454 393.137L352.939 393.14ZM352.03 393.132L351.515 393.131L351.515 393.642L352.026 393.647L352.03 393.132ZM352.03 392.999L352.545 393L352.545 392.998L352.03 392.999ZM351.814 296.565L352.328 296.564L352.327 296.055L351.818 296.05L351.814 296.565ZM299.205 296.113L299.21 295.598L298.689 295.594L298.691 296.114L299.205 296.113ZM299.422 392.543L298.907 392.544L298.907 392.546L299.422 392.543ZM299.423 392.68L299.418 393.194L299.94 393.199L299.937 392.677L299.423 392.68ZM298.512 392.672L297.998 392.675L298.001 393.182L298.508 393.186L298.512 392.672ZM298.512 392.539L297.997 392.54L297.997 392.542L298.512 392.539ZM298.295 296.105L298.81 296.103L298.809 295.594L298.3 295.59L298.295 296.105ZM245.476 295.649L245.48 295.135L244.959 295.13L244.961 295.652L245.476 295.649ZM245.906 392.083L245.392 392.085L245.392 392.085L245.906 392.083ZM245.907 392.219L245.902 392.734L246.424 392.738L246.422 392.216L245.907 392.219ZM244.869 392.21L244.354 392.213L244.357 392.72L244.864 392.725L244.869 392.21ZM244.868 392.077L244.354 392.08L244.354 392.08L244.868 392.077ZM244.439 295.64L244.953 295.638L244.951 295.13L244.443 295.126L244.439 295.64ZM189.299 295.166L189.304 294.651L188.785 294.647L188.785 295.166L189.299 295.166ZM189.302 391.597L189.816 391.598L189.816 391.597L189.302 391.597ZM189.302 391.733L189.297 392.248L189.815 392.252L189.816 391.734L189.302 391.733ZM188.521 391.726L188.007 391.729L188.01 392.236L188.517 392.241L188.521 391.726ZM188.521 391.592L188.006 391.592L188.006 391.595L188.521 391.592ZM188.518 295.159L189.033 295.159L189.033 294.649L188.522 294.644L188.518 295.159ZM137.628 294.721L137.633 294.206L137.112 294.201L137.114 294.722L137.628 294.721ZM137.845 391.153L137.33 391.154L137.33 391.156L137.845 391.153ZM137.846 391.29L137.841 391.804L138.363 391.809L138.36 391.287L137.846 391.29ZM136.936 391.282L136.422 391.281L136.421 391.792L136.932 391.796L136.936 391.282ZM136.937 391.149L137.451 391.15L137.451 391.148L136.937 391.149ZM136.72 294.713L137.235 294.711L137.234 294.202L136.724 294.198L136.72 294.713ZM83.8988 294.258L83.9032 293.744L83.3819 293.739L83.3842 294.261L83.8988 294.258ZM84.3282 390.692L83.8136 390.695L83.8136 390.695L84.3282 390.692ZM84.329 390.829L84.3245 391.344L84.8465 391.348L84.8436 390.826L84.329 390.829ZM83.2929 390.82L82.7783 390.823L82.7813 391.33L83.2884 391.335L83.2929 390.82ZM83.2921 390.687L82.7775 390.69L82.7775 390.69L83.2921 390.687ZM82.8617 294.249L83.3763 294.247L83.374 293.739L82.8661 293.735L82.8617 294.249ZM0.653825 293.542L0.649342 294.056L0.649397 294.056L0.653825 293.542ZM0.519064 293.541L0.00448657 293.536L3.57602e-06 294.051L0.514581 294.055L0.519064 293.541ZM0.530235 292.258L0.534718 291.744L0.0201401 291.739L0.0156571 292.254L0.530235 292.258ZM0.664995 292.26L0.660512 292.774L0.660567 292.774L0.664995 292.26ZM82.8563 292.967L82.8519 293.481L83.3732 293.486L83.3709 292.965L82.8563 292.967ZM82.6269 241.392L83.1415 241.389L83.1392 240.881L82.6313 240.877L82.6269 241.392ZM1.12013 240.69L1.11565 241.205L1.11571 241.205L1.12013 240.69ZM0.985374 240.689L0.470796 240.685L0.466313 241.199L0.980891 241.204L0.985374 240.689ZM0.996545 239.407L1.00103 238.892L0.48645 238.888L0.481967 239.403L0.996545 239.407ZM1.13131 239.408L1.12682 239.923L1.12688 239.923L1.13131 239.408ZM82.6215 240.109L82.617 240.624L83.1384 240.628L83.136 240.107L82.6215 240.109ZM82.392 188.534L82.9066 188.532L82.9044 188.024L82.3965 188.02L82.392 188.534ZM1.58644 187.839L1.58196 188.353L1.58202 188.353L1.58644 187.839ZM1.45168 187.838L0.937106 187.833L0.932623 188.348L1.4472 188.352L1.45168 187.838ZM1.46285 186.556L1.46734 186.041L0.95276 186.036L0.948277 186.551L1.46285 186.556ZM1.59761 186.557L1.59313 187.071L1.59319 187.071L1.59761 186.557ZM82.3866 187.252L82.3822 187.766L82.9035 187.771L82.9012 187.249L82.3866 187.252ZM82.1567 135.511L82.6713 135.509L82.669 135.001L82.1612 134.997L82.1567 135.511ZM2.0572 134.814L1.54262 134.809L1.53814 135.324L2.05271 135.328L2.0572 134.814ZM2.06617 133.784L2.07065 133.27L1.55607 133.265L1.55159 133.78L2.06617 133.784ZM82.152 134.482L82.1475 134.997L82.6689 135.001L82.6666 134.48L82.152 134.482ZM81.9191 82.1851L82.4337 82.1828L82.4314 81.6749L81.9235 81.6705L81.9191 82.1851ZM2.52459 81.5022L2.01001 81.4977L2.00552 82.0124L2.52016 82.0168L2.52459 81.5022ZM2.53355 80.473L2.53798 79.9584L2.02346 79.954L2.01897 80.4685L2.53355 80.473ZM81.9144 81.1557L81.91 81.6703L82.4313 81.6748L82.429 81.1535L81.9144 81.1557ZM81.4788 -16.927L81.9934 -16.9292L81.9934 -16.9298L81.4788 -16.927ZM81.4781 -17.0637L81.4825 -17.5783L80.9606 -17.5828L80.9635 -17.0608L81.4781 -17.0637ZM82.5171 -17.0546L83.0317 -17.0577L83.0286 -17.5648L82.5216 -17.5692L82.5171 -17.0546ZM82.5179 -16.9218L83.0325 -16.9241L83.0325 -16.9249L82.5179 -16.9218ZM82.9534 81.1648L82.4388 81.1671L82.4411 81.675L82.949 81.6794L82.9534 81.1648ZM136.243 81.6232L136.239 82.1378L136.759 82.1423L136.758 81.6221L136.243 81.6232ZM136.025 -16.4586L135.51 -16.4594L135.51 -16.4574L136.025 -16.4586ZM136.025 -16.5943L136.029 -17.1089L135.511 -17.1134L135.51 -16.5951L136.025 -16.5943ZM136.933 -16.5864L137.448 -16.5895L137.445 -17.0966L136.938 -17.101L136.933 -16.5864ZM136.934 -16.4536L137.448 -16.4547L137.448 -16.4567L136.934 -16.4536ZM137.153 81.6311L136.638 81.6323L136.639 82.1413L137.148 82.1457L137.153 81.6311ZM188.513 82.0727L188.509 82.5873L189.028 82.5918L189.028 82.0727L188.513 82.0727ZM188.511 -16.0072L187.996 -16.008L187.996 -16.0072L188.511 -16.0072ZM188.511 -16.1429L188.516 -16.6575L187.997 -16.662L187.997 -16.1437L188.511 -16.1429ZM189.292 -16.1361L189.807 -16.1354L189.808 -16.6462L189.297 -16.6507L189.292 -16.1361ZM189.292 -16.0023L188.778 -16.0031L188.778 -16.0023L189.292 -16.0023ZM189.294 82.0795L188.78 82.0795L188.78 82.5897L189.29 82.5941L189.294 82.0795ZM243.491 82.5459L243.487 83.0604L244.008 83.0649L244.006 82.5436L243.491 82.5459ZM243.056 -15.5369L243.57 -15.5391L243.57 -15.5397L243.056 -15.5369ZM243.055 -15.6736L243.06 -16.1882L242.538 -16.1927L242.541 -15.6707L243.055 -15.6736ZM244.092 -15.6646L244.607 -15.6676L244.604 -16.1747L244.097 -16.1791L244.092 -15.6646ZM244.093 -15.5317L244.608 -15.534L244.608 -15.5348L244.093 -15.5317ZM244.528 82.5549L244.014 82.5572L244.016 83.0651L244.524 83.0695L244.528 82.5549ZM297.82 83.0133L297.816 83.5279L298.336 83.5324L298.335 83.0122L297.82 83.0133ZM297.602 -15.0685L297.087 -15.0693L297.087 -15.0673L297.602 -15.0685ZM297.602 -15.2042L297.606 -15.7188L297.088 -15.7233L297.087 -15.205L297.602 -15.2042ZM298.51 -15.1963L299.025 -15.1994L299.022 -15.7065L298.515 -15.7109L298.51 -15.1963ZM298.511 -15.0635L299.025 -15.0646L299.025 -15.0666L298.511 -15.0635ZM298.73 83.0212L298.215 83.0224L298.216 83.5314L298.725 83.5358L298.73 83.0212ZM351.336 83.4737L351.332 83.9883L351.852 83.9927L351.851 83.4725L351.336 83.4737ZM351.117 -14.6081L350.603 -14.6089L350.603 -14.607L351.117 -14.6081ZM351.117 -14.7439L351.122 -15.2584L350.604 -15.2629L350.603 -14.7446L351.117 -14.7439ZM352.028 -14.7359L352.542 -14.7352L352.543 -15.246L352.032 -15.2505L352.028 -14.7359ZM352.027 -14.6031L351.513 -14.6038L351.513 -14.602L352.027 -14.6031ZM352.246 83.4816L351.732 83.4828L351.733 83.9918L352.242 83.9962L352.246 83.4816ZM405.069 83.936L405.065 84.4505L405.586 84.455L405.584 83.9337L405.069 83.936ZM404.634 -14.1467L405.148 -14.149L405.148 -14.1496L404.634 -14.1467ZM404.633 -14.2835L404.638 -14.7981L404.116 -14.8026L404.118 -14.2806L404.633 -14.2835ZM405.672 -14.2744L406.187 -14.2775L406.184 -14.7846L405.677 -14.789L405.672 -14.2744ZM405.673 -14.1416L406.188 -14.1439L406.187 -14.1447L405.673 -14.1416ZM406.108 83.945L405.594 83.9473L405.596 84.4552L406.104 84.4596L406.108 83.945ZM459.397 84.4034L459.393 84.918L459.913 84.9225L459.912 84.4023L459.397 84.4034ZM459.179 -13.6784L458.664 -13.6792L458.664 -13.6772L459.179 -13.6784ZM459.179 -13.8141L459.183 -14.3287L458.665 -14.3332L458.664 -13.8149L459.179 -13.8141ZM460.087 -13.8062L460.602 -13.8093L460.599 -14.3164L460.092 -14.3208L460.087 -13.8062ZM460.088 -13.6734L460.602 -13.6745L460.602 -13.6765L460.088 -13.6734ZM460.307 84.4113L459.792 84.4125L459.793 84.9215L460.302 84.9259L460.307 84.4113ZM512.914 84.8638L512.91 85.3784L513.43 85.3829L513.429 84.8627L512.914 84.8638ZM512.695 -13.218L512.181 -13.2188L512.181 -13.2168L512.695 -13.218ZM512.695 -13.3537L512.7 -13.8683L512.182 -13.8728L512.181 -13.3545L512.695 -13.3537ZM513.604 -13.3458L514.118 -13.3489L514.115 -13.856L513.608 -13.8604L513.604 -13.3458ZM83.664 241.401L83.6684 240.886L83.147 240.882L83.1494 241.403L83.664 241.401ZM83.8934 292.976L83.3788 292.978L83.381 293.486L83.8889 293.491L83.8934 292.976ZM136.717 293.43L136.712 293.945L137.232 293.949L137.231 293.429L136.717 293.43ZM136.601 241.857L137.116 241.856L137.115 241.347L136.606 241.342L136.601 241.857ZM137.511 241.864L137.515 241.349L136.995 241.345L136.996 241.865L137.511 241.864ZM137.626 293.438L137.111 293.439L137.112 293.948L137.621 293.953L137.626 293.438ZM188.517 293.877L188.513 294.391L189.032 294.396L189.032 293.877L188.517 293.877ZM188.517 242.303L189.031 242.303L189.031 241.793L188.521 241.789L188.517 242.303ZM189.298 242.31L189.302 241.796L188.783 241.791L188.783 242.31L189.298 242.31ZM189.299 293.884L188.784 293.884L188.784 294.394L189.294 294.398L189.299 293.884ZM244.433 294.358L244.429 294.873L244.95 294.877L244.948 294.356L244.433 294.358ZM244.204 242.783L244.718 242.78L244.716 242.273L244.208 242.268L244.204 242.783ZM245.241 242.792L245.245 242.277L244.724 242.273L244.726 242.794L245.241 242.792ZM245.47 294.367L244.956 294.369L244.958 294.877L245.466 294.882L245.47 294.367ZM298.293 294.822L298.288 295.337L298.808 295.341L298.807 294.821L298.293 294.822ZM298.177 243.248L298.692 243.247L298.691 242.738L298.182 242.734L298.177 243.248ZM299.088 243.256L299.092 242.741L298.572 242.737L298.573 243.257L299.088 243.256ZM299.203 294.83L298.688 294.831L298.689 295.34L299.198 295.345L299.203 294.83ZM351.81 295.283L351.806 295.797L352.326 295.802L352.325 295.282L351.81 295.283ZM351.695 243.708L352.21 243.707L352.208 243.198L351.699 243.194L351.695 243.708ZM352.604 243.716L352.609 243.202L352.088 243.197L352.09 243.718L352.604 243.716ZM352.719 295.291L352.205 295.292L352.206 295.801L352.715 295.805L352.719 295.291ZM406.011 295.75L406.007 296.265L406.528 296.269L406.526 295.748L406.011 295.75ZM405.782 244.175L406.296 244.173L406.294 243.665L405.786 243.66L405.782 244.175ZM406.819 244.184L406.823 243.669L406.302 243.665L406.304 244.186L406.819 244.184ZM407.048 295.759L406.534 295.761L406.536 296.269L407.044 296.274L407.048 295.759ZM459.871 296.213L459.866 296.728L460.386 296.732L460.385 296.212L459.871 296.213ZM459.755 244.639L460.27 244.638L460.269 244.129L459.76 244.125L459.755 244.639ZM460.664 244.647L460.668 244.133L460.148 244.128L460.149 244.648L460.664 244.647ZM460.779 296.221L460.264 296.223L460.265 296.732L460.774 296.736L460.779 296.221ZM513.387 296.675L513.383 297.189L513.903 297.194L513.902 296.674L513.387 296.675ZM513.272 245.101L513.787 245.099L513.785 244.59L513.276 244.586L513.272 245.101ZM83.4291 188.543L83.4336 188.029L82.9122 188.024L82.9145 188.545L83.4291 188.543ZM83.6575 240.118L83.143 240.121L83.1452 240.629L83.6531 240.633L83.6575 240.118ZM136.599 240.575L136.594 241.089L137.115 241.094L137.114 240.574L136.599 240.575ZM136.484 189L136.998 188.999L136.997 188.49L136.488 188.486L136.484 189ZM137.393 189.008L137.397 188.494L136.877 188.489L136.878 189.01L137.393 189.008ZM137.508 240.582L136.993 240.583L136.995 241.092L137.504 241.096L137.508 240.582ZM188.516 241.021L188.512 241.536L189.031 241.54L189.031 241.021L188.516 241.021ZM188.515 189.448L189.03 189.448L189.03 188.938L188.519 188.933L188.515 189.448ZM189.296 189.455L189.301 188.94L188.782 188.936L188.782 189.455L189.296 189.455ZM189.297 241.028L188.783 241.028L188.783 241.538L189.293 241.543L189.297 241.028ZM244.197 241.5L244.193 242.015L244.714 242.019L244.712 241.498L244.197 241.5ZM243.969 189.926L244.484 189.924L244.481 189.416L243.973 189.412L243.969 189.926ZM245.006 189.934L245.011 189.42L244.489 189.415L244.492 189.937L245.006 189.934ZM245.236 241.509L244.721 241.512L244.723 242.02L245.231 242.024L245.236 241.509ZM298.175 241.966L298.171 242.48L298.691 242.485L298.69 241.965L298.175 241.966ZM298.06 190.392L298.574 190.39L298.573 189.881L298.064 189.877L298.06 190.392ZM298.97 190.399L298.974 189.885L298.454 189.88L298.455 190.401L298.97 190.399ZM299.085 241.974L298.571 241.975L298.572 242.484L299.081 242.488L299.085 241.974ZM351.692 242.426L351.687 242.941L352.207 242.945L352.206 242.425L351.692 242.426ZM351.576 190.852L352.091 190.851L352.09 190.342L351.581 190.337L351.576 190.852ZM352.487 190.86L352.491 190.345L351.971 190.341L351.972 190.861L352.487 190.86ZM352.602 242.434L352.087 242.435L352.088 242.944L352.597 242.949L352.602 242.434ZM405.776 242.892L405.772 243.407L406.293 243.412L406.291 242.89L405.776 242.892ZM405.547 191.317L406.062 191.315L406.059 190.807L405.551 190.803L405.547 191.317ZM406.584 191.326L406.589 190.812L406.067 190.807L406.07 191.329L406.584 191.326ZM406.813 242.902L406.298 242.904L406.3 243.412L406.808 243.416L406.813 242.902ZM459.753 243.357L459.749 243.871L460.269 243.876L460.268 243.356L459.753 243.357ZM459.638 191.783L460.152 191.781L460.151 191.272L459.642 191.268L459.638 191.783ZM460.546 191.791L460.55 191.276L460.03 191.271L460.031 191.792L460.546 191.791ZM460.661 243.365L460.147 243.366L460.148 243.875L460.657 243.879L460.661 243.365ZM513.27 243.818L513.265 244.333L513.785 244.337L513.784 243.817L513.27 243.818ZM513.154 192.244L513.669 192.243L513.668 191.734L513.159 191.729L513.154 192.244ZM83.4237 187.261L82.9091 187.263L82.9113 187.771L83.4192 187.775L83.4237 187.261ZM136.481 187.718L136.477 188.233L136.997 188.237L136.996 187.717L136.481 187.718ZM136.366 135.984L136.88 135.983L136.879 135.474L136.37 135.469L136.366 135.984ZM83.1938 135.521L83.1982 135.006L82.6769 135.001L82.6792 135.523L83.1938 135.521ZM137.389 187.726L136.875 187.727L136.876 188.236L137.385 188.241L137.389 187.726ZM188.515 188.166L188.51 188.68L189.029 188.685L189.029 188.166L188.515 188.166ZM188.514 136.438L189.029 136.438L189.029 135.928L188.518 135.924L188.514 136.438ZM137.275 135.992L137.279 135.477L136.759 135.473L136.76 135.993L137.275 135.992ZM189.296 188.172L188.781 188.172L188.781 188.683L189.291 188.687L189.296 188.172ZM243.963 188.644L243.958 189.158L244.48 189.163L244.477 188.642L243.963 188.644ZM243.734 136.919L244.248 136.917L244.246 136.409L243.738 136.405L243.734 136.919ZM189.295 136.445L189.3 135.93L188.781 135.926L188.781 136.445L189.295 136.445ZM245.001 188.652L244.486 188.654L244.488 189.162L244.996 189.166L245.001 188.652ZM298.056 189.109L298.052 189.624L298.572 189.628L298.571 189.108L298.056 189.109ZM297.941 137.391L298.456 137.39L298.455 136.881L297.946 136.877L297.941 137.391ZM244.771 136.928L244.775 136.414L244.254 136.409L244.256 136.93L244.771 136.928ZM298.966 189.117L298.452 189.118L298.453 189.627L298.962 189.632L298.966 189.117ZM351.574 189.57L351.569 190.084L352.09 190.089L352.088 189.568L351.574 189.57ZM351.458 137.858L351.973 137.857L351.971 137.348L351.462 137.343L351.458 137.858ZM298.852 137.399L298.856 136.885L298.336 136.88L298.337 137.401L298.852 137.399ZM352.483 189.578L351.968 189.579L351.97 190.088L352.479 190.092L352.483 189.578ZM405.541 190.035L405.536 190.55L406.058 190.554L406.055 190.033L405.541 190.035ZM405.311 138.327L405.826 138.325L405.824 137.817L405.316 137.812L405.311 138.327ZM352.368 137.866L352.373 137.351L351.852 137.346L351.854 137.867L352.368 137.866ZM406.579 190.044L406.064 190.046L406.066 190.554L406.574 190.559L406.579 190.044ZM459.634 190.5L459.63 191.015L460.15 191.019L460.149 190.499L459.634 190.5ZM459.519 138.799L460.034 138.798L460.033 138.289L459.524 138.285L459.519 138.799ZM406.349 138.336L406.354 137.821L405.833 137.817L405.835 138.338L406.349 138.336ZM460.543 190.508L460.029 190.509L460.03 191.018L460.539 191.023L460.543 190.508ZM513.151 190.962L513.146 191.476L513.667 191.481L513.666 190.961L513.151 190.962ZM513.036 139.265L513.55 139.264L513.549 138.755L513.04 138.751L513.036 139.265ZM460.428 138.807L460.433 138.292L459.913 138.288L459.914 138.808L460.428 138.807ZM82.9572 82.1942L82.9616 81.6796L82.4402 81.6751L82.4426 82.1965L82.9572 82.1942ZM83.19 134.491L82.6754 134.493L82.6777 135.001L83.1856 135.006L83.19 134.491ZM136.363 134.954L136.358 135.469L136.879 135.474L136.877 134.953L136.363 134.954ZM136.246 82.6526L136.761 82.6514L136.76 82.1424L136.251 82.138L136.246 82.6526ZM137.155 82.6605L137.16 82.1459L136.64 82.1414L136.641 82.6616L137.155 82.6605ZM137.272 134.962L136.757 134.963L136.759 135.472L137.267 135.477L137.272 134.962ZM188.514 135.409L188.51 135.923L189.029 135.928L189.029 135.409L188.514 135.409ZM188.513 83.1021L189.027 83.1021L189.027 82.5919L188.517 82.5875L188.513 83.1021ZM189.294 83.1089L189.298 82.5943L188.779 82.5898L188.779 83.1089L189.294 83.1089ZM189.295 135.416L188.781 135.416L188.781 135.926L189.291 135.93L189.295 135.416ZM243.729 135.89L243.724 136.404L244.246 136.409L244.243 135.887L243.729 135.89ZM243.496 83.5752L244.011 83.5729L244.008 83.065L243.501 83.0607L243.496 83.5752ZM244.533 83.5843L244.538 83.0697L244.016 83.0652L244.019 83.5866L244.533 83.5843ZM244.766 135.899L244.251 135.901L244.254 136.409L244.761 136.413L244.766 135.899ZM297.939 136.362L297.934 136.877L298.454 136.881L298.453 136.361L297.939 136.362ZM297.822 84.0427L298.337 84.0415L298.336 83.5325L297.827 83.5281L297.822 84.0427ZM298.732 84.0506L298.737 83.536L298.217 83.5315L298.218 84.0517L298.732 84.0506ZM298.849 136.37L298.334 136.371L298.335 136.88L298.844 136.885L298.849 136.37ZM351.456 136.828L351.452 137.343L351.972 137.347L351.971 136.827L351.456 136.828ZM351.339 84.5031L351.853 84.5019L351.852 83.9929L351.343 83.9885L351.339 84.5031ZM352.249 84.511L352.253 83.9964L351.733 83.9919L351.734 84.5121L352.249 84.511ZM352.366 136.836L351.852 136.837L351.853 137.346L352.362 137.351L352.366 136.836ZM405.307 137.297L405.302 137.812L405.824 137.817L405.821 137.295L405.307 137.297ZM405.074 84.9653L405.589 84.9631L405.586 84.4551L405.079 84.4508L405.074 84.9653ZM406.112 84.9744L406.117 84.4598L405.595 84.4553L405.598 84.9767L406.112 84.9744ZM406.345 137.307L405.83 137.309L405.832 137.817L406.34 137.821L406.345 137.307ZM459.518 137.77L459.513 138.284L460.033 138.289L460.032 137.769L459.518 137.77ZM459.4 85.4328L459.915 85.4316L459.914 84.9226L459.405 84.9182L459.4 85.4328ZM460.309 85.4407L460.314 84.9261L459.794 84.9216L459.795 85.4419L460.309 85.4407ZM460.427 137.778L459.912 137.779L459.913 138.288L460.422 138.292L460.427 137.778ZM513.034 138.236L513.03 138.751L513.55 138.755L513.549 138.235L513.034 138.236ZM512.917 85.8932L513.431 85.892L513.43 85.383L512.921 85.3786L512.917 85.8932ZM513.604 -13.213L513.09 -13.2119L513.309 84.8729L513.823 84.8717L514.338 84.8706L514.119 -13.2141L513.604 -13.213ZM513.823 84.8717L513.819 85.3863L526.369 85.4947L526.374 84.9801L526.378 84.4655L513.828 84.3572L513.823 84.8717ZM526.374 84.9801L525.859 84.9756L525.85 86.0049L526.365 86.0093L526.879 86.0138L526.888 84.9846L526.374 84.9801ZM526.365 86.0093L526.369 85.4948L513.83 85.3865L513.826 85.9011L513.822 86.4157L526.36 86.5239L526.365 86.0093ZM513.826 85.9011L513.311 85.9022L513.429 138.245L513.943 138.244L514.458 138.243L514.341 85.8999L513.826 85.9011ZM513.943 138.244L513.939 138.759L525.902 138.863L525.907 138.348L525.911 137.834L513.948 137.729L513.943 138.244ZM525.907 138.348L525.392 138.344L525.383 139.373L525.898 139.377L526.412 139.382L526.421 138.353L525.907 138.348ZM525.898 139.377L525.902 138.863L513.949 138.759L513.945 139.273L513.941 139.788L525.893 139.892L525.898 139.377ZM513.945 139.273L513.43 139.274L513.545 190.971L514.06 190.97L514.575 190.968L514.46 139.272L513.945 139.273ZM514.06 190.97L514.056 191.484L525.433 191.582L525.438 191.068L525.442 190.553L514.064 190.455L514.06 190.97ZM525.438 191.068L525.433 191.582L525.568 191.584L525.572 191.069L525.577 190.554L525.442 190.553L525.438 191.068ZM525.572 191.069L525.058 191.064L525.047 192.347L525.561 192.351L526.076 192.356L526.087 191.073L525.572 191.069ZM525.561 192.351L525.566 191.837L525.431 191.835L525.426 192.35L525.422 192.865L525.557 192.866L525.561 192.351ZM525.426 192.35L525.431 191.835L514.067 191.737L514.063 192.252L514.058 192.766L525.422 192.865L525.426 192.35ZM514.063 192.252L513.548 192.253L513.663 243.827L514.178 243.826L514.692 243.825L514.577 192.251L514.063 192.252ZM514.178 243.826L514.173 244.341L524.967 244.434L524.971 243.919L524.976 243.405L514.182 243.312L514.178 243.826ZM524.971 243.919L524.967 244.434L525.102 244.435L525.106 243.92L525.11 243.406L524.976 243.405L524.971 243.919ZM525.106 243.92L524.591 243.916L524.58 245.198L525.095 245.203L525.609 245.207L525.621 243.925L525.106 243.92ZM525.095 245.203L525.099 244.688L524.965 244.687L524.96 245.201L524.956 245.716L525.09 245.717L525.095 245.203ZM524.96 245.201L524.965 244.687L514.185 244.594L514.18 245.108L514.176 245.623L524.956 245.716L524.96 245.201ZM514.18 245.108L513.666 245.11L513.781 296.684L514.295 296.683L514.81 296.682L514.695 245.107L514.18 245.108ZM514.295 296.683L514.291 297.197L524.501 297.285L524.505 296.771L524.509 296.256L514.3 296.168L514.295 296.683ZM524.505 296.771L524.5 297.285L524.635 297.286L524.64 296.772L524.644 296.257L524.509 296.256L524.505 296.771ZM524.64 296.772L524.125 296.767L524.114 298.05L524.629 298.054L525.143 298.059L525.154 296.776L524.64 296.772ZM524.629 298.054L524.633 297.539L524.498 297.538L524.494 298.053L524.489 298.567L524.624 298.569L524.629 298.054ZM524.494 298.053L524.498 297.538L514.303 297.45L514.299 297.965L514.294 298.48L524.489 298.567L524.494 298.053ZM514.299 297.965L513.784 297.966L514.001 394.395L514.515 394.393L515.03 394.392L514.813 297.964L514.299 297.965ZM514.515 394.393L514.001 394.396L514.002 394.533L514.516 394.53L515.031 394.527L515.03 394.391L514.515 394.393ZM514.516 394.53L514.52 394.016L513.611 394.009L513.607 394.523L513.603 395.038L514.512 395.045L514.516 394.53ZM513.607 394.523L514.122 394.524L514.122 394.391L513.607 394.39L513.093 394.39L513.092 394.522L513.607 394.523ZM513.607 394.39L514.122 394.389L513.905 297.956L513.391 297.957L512.876 297.958L513.093 394.392L513.607 394.39ZM513.391 297.957L513.395 297.443L460.787 296.989L460.782 297.504L460.778 298.018L513.386 298.472L513.391 297.957ZM460.782 297.504L460.268 297.505L460.484 393.934L460.999 393.933L461.513 393.932L461.297 297.502L460.782 297.504ZM460.999 393.933L460.484 393.936L460.485 394.073L461 394.07L461.514 394.067L461.513 393.93L460.999 393.933ZM461 394.07L461.004 393.555L460.094 393.548L460.09 394.063L460.087 394.577L460.996 394.584L461 394.07ZM460.09 394.063L460.605 394.064L460.605 393.931L460.091 393.93L459.576 393.929L459.576 394.062L460.09 394.063ZM460.091 393.93L460.605 393.929L460.389 297.495L459.874 297.496L459.36 297.497L459.576 393.931L460.091 393.93ZM459.874 297.496L459.879 296.981L407.058 296.527L407.054 297.041L407.049 297.556L459.87 298.01L459.874 297.496ZM407.054 297.041L406.539 297.044L406.969 393.475L407.483 393.473L407.998 393.47L407.568 297.039L407.054 297.041ZM407.483 393.473L406.969 393.476L406.969 393.612L407.484 393.609L407.999 393.607L407.998 393.47L407.483 393.473ZM407.484 393.609L407.488 393.095L406.452 393.086L406.448 393.6L406.443 394.115L407.48 394.124L407.484 393.609ZM406.448 393.6L406.962 393.597L406.962 393.464L406.447 393.468L405.933 393.471L405.933 393.603L406.448 393.6ZM406.447 393.468L406.962 393.465L406.531 297.03L406.017 297.032L405.502 297.035L405.933 393.47L406.447 393.468ZM406.017 297.032L406.021 296.518L352.726 296.058L352.722 296.573L352.717 297.088L406.012 297.547L406.017 297.032ZM352.722 296.573L352.207 296.574L352.424 393.004L352.938 393.003L353.453 393.002L353.236 296.572L352.722 296.573ZM352.938 393.003L352.424 393.006L352.425 393.143L352.939 393.14L353.454 393.137L353.453 393L352.938 393.003ZM352.939 393.14L352.944 392.625L352.034 392.618L352.03 393.132L352.026 393.647L352.935 393.655L352.939 393.14ZM352.03 393.132L352.545 393.133L352.545 393L352.03 392.999L351.516 392.999L351.515 393.131L352.03 393.132ZM352.03 392.999L352.545 392.998L352.328 296.564L351.814 296.565L351.299 296.566L351.516 393L352.03 392.999ZM351.814 296.565L351.818 296.05L299.21 295.598L299.205 296.113L299.201 296.627L351.809 297.08L351.814 296.565ZM299.205 296.113L298.691 296.114L298.907 392.544L299.422 392.543L299.936 392.542L299.72 296.111L299.205 296.113ZM299.422 392.543L298.907 392.546L298.908 392.683L299.423 392.68L299.937 392.677L299.936 392.54L299.422 392.543ZM299.423 392.68L299.427 392.165L298.517 392.157L298.512 392.672L298.508 393.186L299.418 393.194L299.423 392.68ZM298.512 392.672L299.027 392.669L299.026 392.536L298.512 392.539L297.997 392.542L297.998 392.675L298.512 392.672ZM298.512 392.539L299.026 392.538L298.81 296.103L298.295 296.105L297.781 296.106L297.997 392.54L298.512 392.539ZM298.295 296.105L298.3 295.59L245.48 295.135L245.476 295.649L245.471 296.164L298.291 296.619L298.295 296.105ZM245.476 295.649L244.961 295.652L245.392 392.085L245.906 392.083L246.421 392.08L245.99 295.647L245.476 295.649ZM245.906 392.083L245.392 392.085L245.392 392.222L245.907 392.219L246.422 392.216L246.421 392.08L245.906 392.083ZM245.907 392.219L245.911 391.705L244.873 391.696L244.869 392.21L244.864 392.725L245.902 392.734L245.907 392.219ZM244.869 392.21L245.384 392.207L245.383 392.074L244.868 392.077L244.354 392.08L244.354 392.213L244.869 392.21ZM244.868 392.077L245.383 392.075L244.953 295.638L244.439 295.64L243.924 295.643L244.354 392.08L244.868 392.077ZM244.439 295.64L244.443 295.126L189.304 294.651L189.299 295.166L189.295 295.68L244.434 296.155L244.439 295.64ZM189.299 295.166L188.785 295.166L188.787 391.597L189.302 391.597L189.816 391.597L189.814 295.166L189.299 295.166ZM189.302 391.597L188.787 391.596L188.787 391.732L189.302 391.733L189.816 391.734L189.816 391.598L189.302 391.597ZM189.302 391.733L189.306 391.218L188.526 391.212L188.521 391.726L188.517 392.241L189.297 392.248L189.302 391.733ZM188.521 391.726L189.036 391.723L189.035 391.589L188.521 391.592L188.006 391.595L188.007 391.729L188.521 391.726ZM188.521 391.592L189.035 391.592L189.033 295.159L188.518 295.159L188.003 295.159L188.006 391.592L188.521 391.592ZM188.518 295.159L188.522 294.644L137.633 294.206L137.628 294.721L137.624 295.235L188.514 295.674L188.518 295.159ZM137.628 294.721L137.114 294.722L137.33 391.154L137.845 391.153L138.359 391.152L138.143 294.719L137.628 294.721ZM137.845 391.153L137.33 391.156L137.331 391.292L137.846 391.29L138.36 391.287L138.359 391.15L137.845 391.153ZM137.846 391.29L137.85 390.775L136.941 390.767L136.936 391.282L136.932 391.796L137.841 391.804L137.846 391.29ZM136.936 391.282L137.451 391.282L137.451 391.15L136.937 391.149L136.422 391.148L136.422 391.281L136.936 391.282ZM136.937 391.149L137.451 391.148L137.235 294.711L136.72 294.713L136.205 294.714L136.422 391.15L136.937 391.149ZM136.72 294.713L136.724 294.198L83.9032 293.744L83.8988 294.258L83.8944 294.773L136.716 295.227L136.72 294.713ZM83.8988 294.258L83.3842 294.261L83.8136 390.695L84.3282 390.692L84.8428 390.69L84.4134 294.256L83.8988 294.258ZM84.3282 390.692L83.8136 390.695L83.8144 390.832L84.329 390.829L84.8436 390.826L84.8428 390.69L84.3282 390.692ZM84.329 390.829L84.3335 390.315L83.2974 390.306L83.2929 390.82L83.2884 391.335L84.3245 391.344L84.329 390.829ZM83.2929 390.82L83.8075 390.817L83.8067 390.684L83.2921 390.687L82.7775 390.69L82.7783 390.823L83.2929 390.82ZM83.2921 390.687L83.8067 390.685L83.3763 294.247L82.8617 294.249L82.3471 294.252L82.7775 390.69L83.2921 390.687ZM82.8617 294.249L82.8661 293.735L0.658253 293.027L0.653825 293.542L0.649397 294.056L82.8573 294.764L82.8617 294.249ZM0.653825 293.542L0.658308 293.027L0.523547 293.026L0.519064 293.541L0.514581 294.055L0.649342 294.056L0.653825 293.542ZM0.519064 293.541L1.03364 293.545L1.04481 292.263L0.530235 292.258L0.0156571 292.254L0.00448657 293.536L0.519064 293.541ZM0.530235 292.258L0.525752 292.773L0.660512 292.774L0.664995 292.26L0.669478 291.745L0.534718 291.744L0.530235 292.258ZM0.664995 292.26L0.660567 292.774L82.8519 293.481L82.8563 292.967L82.8607 292.452L0.669423 291.745L0.664995 292.26ZM82.8563 292.967L83.3709 292.965L83.1415 241.389L82.6269 241.392L82.1123 241.394L82.3417 292.969L82.8563 292.967ZM82.6269 241.392L82.6313 240.877L1.12456 240.176L1.12013 240.69L1.11571 241.205L82.6225 241.906L82.6269 241.392ZM1.12013 240.69L1.12462 240.176L0.989857 240.175L0.985374 240.689L0.980891 241.204L1.11565 241.205L1.12013 240.69ZM0.985374 240.689L1.49995 240.694L1.51112 239.411L0.996545 239.407L0.481967 239.403L0.470796 240.685L0.985374 240.689ZM0.996545 239.407L0.992062 239.922L1.12682 239.923L1.13131 239.408L1.13579 238.894L1.00103 238.892L0.996545 239.407ZM1.13131 239.408L1.12688 239.923L82.617 240.624L82.6215 240.109L82.6259 239.595L1.13573 238.894L1.13131 239.408ZM82.6215 240.109L83.136 240.107L82.9066 188.532L82.392 188.534L81.8775 188.536L82.1069 240.112L82.6215 240.109ZM82.392 188.534L82.3965 188.02L1.59087 187.324L1.58644 187.839L1.58202 188.353L82.3876 189.049L82.392 188.534ZM1.58644 187.839L1.59093 187.324L1.45617 187.323L1.45168 187.838L1.4472 188.352L1.58196 188.353L1.58644 187.839ZM1.45168 187.838L1.96626 187.842L1.97743 186.56L1.46285 186.556L0.948277 186.551L0.937106 187.833L1.45168 187.838ZM1.46285 186.556L1.45837 187.07L1.59313 187.071L1.59761 186.557L1.6021 186.042L1.46734 186.041L1.46285 186.556ZM1.59761 186.557L1.59319 187.071L82.3822 187.766L82.3866 187.252L82.391 186.737L1.60204 186.042L1.59761 186.557ZM82.3866 187.252L82.9012 187.249L82.6713 135.509L82.1567 135.511L81.6421 135.514L81.872 187.254L82.3866 187.252ZM82.1567 135.511L82.1612 134.997L2.06168 134.299L2.0572 134.814L2.05271 135.328L82.1522 136.026L82.1567 135.511ZM2.0572 134.814L2.57178 134.818L2.58074 133.789L2.06617 133.784L1.55159 133.78L1.54262 134.809L2.0572 134.814ZM2.06617 133.784L2.06168 134.299L82.1475 134.997L82.152 134.482L82.1565 133.968L2.07065 133.27L2.06617 133.784ZM82.152 134.482L82.6666 134.48L82.4337 82.1828L81.9191 82.1851L81.4045 82.1874L81.6374 134.484L82.152 134.482ZM81.9191 82.1851L81.9235 81.6705L2.52901 80.9876L2.52459 81.5022L2.52016 82.0168L81.9147 82.6997L81.9191 82.1851ZM2.52459 81.5022L3.03916 81.5067L3.04813 80.4774L2.53355 80.473L2.01897 80.4685L2.01001 81.4977L2.52459 81.5022ZM2.53355 80.473L2.52913 80.9875L81.91 81.6703L81.9144 81.1557L81.9188 80.6412L2.53798 79.9584L2.53355 80.473ZM81.9144 81.1557L82.429 81.1535L81.9934 -16.9292L81.4788 -16.927L80.9642 -16.9247L81.3998 81.158L81.9144 81.1557ZM81.4788 -16.927L81.9934 -16.9298L81.9927 -17.0666L81.4781 -17.0637L80.9635 -17.0608L80.9642 -16.9241L81.4788 -16.927ZM81.4781 -17.0637L81.4736 -16.5491L82.5126 -16.5401L82.5171 -17.0546L82.5216 -17.5692L81.4825 -17.5783L81.4781 -17.0637ZM82.5171 -17.0546L82.0025 -17.0516L82.0033 -16.9187L82.5179 -16.9218L83.0325 -16.9249L83.0317 -17.0577L82.5171 -17.0546ZM82.5179 -16.9218L82.0033 -16.9195L82.4388 81.1671L82.9534 81.1648L83.468 81.1625L83.0325 -16.9241L82.5179 -16.9218ZM82.9534 81.1648L82.949 81.6794L136.239 82.1378L136.243 81.6232L136.248 81.1086L82.9579 80.6502L82.9534 81.1648ZM136.243 81.6232L136.758 81.6221L136.539 -16.4597L136.025 -16.4586L135.51 -16.4574L135.729 81.6244L136.243 81.6232ZM136.025 -16.4586L136.539 -16.4578L136.539 -16.5936L136.025 -16.5943L135.51 -16.5951L135.51 -16.4594L136.025 -16.4586ZM136.025 -16.5943L136.02 -16.0798L136.929 -16.0718L136.933 -16.5864L136.938 -17.101L136.029 -17.1089L136.025 -16.5943ZM136.933 -16.5864L136.418 -16.5833L136.419 -16.4505L136.934 -16.4536L137.448 -16.4567L137.448 -16.5895L136.933 -16.5864ZM136.934 -16.4536L136.419 -16.4524L136.638 81.6323L137.153 81.6311L137.667 81.63L137.448 -16.4547L136.934 -16.4536ZM137.153 81.6311L137.148 82.1457L188.509 82.5873L188.513 82.0727L188.517 81.5582L137.157 81.1166L137.153 81.6311ZM188.513 82.0727L189.028 82.0727L189.026 -16.0072L188.511 -16.0072L187.996 -16.0072L187.998 82.0727L188.513 82.0727ZM188.511 -16.0072L189.026 -16.0064L189.026 -16.1421L188.511 -16.1429L187.997 -16.1437L187.996 -16.008L188.511 -16.0072ZM188.511 -16.1429L188.507 -15.6283L189.288 -15.6215L189.292 -16.1361L189.297 -16.6507L188.516 -16.6575L188.511 -16.1429ZM189.292 -16.1361L188.778 -16.1368L188.778 -16.0031L189.292 -16.0023L189.807 -16.0016L189.807 -16.1354L189.292 -16.1361ZM189.292 -16.0023L188.778 -16.0023L188.78 82.0795L189.294 82.0795L189.809 82.0795L189.807 -16.0023L189.292 -16.0023ZM189.294 82.0795L189.29 82.5941L243.487 83.0604L243.491 82.5459L243.496 82.0313L189.299 81.565L189.294 82.0795ZM243.491 82.5459L244.006 82.5436L243.57 -15.5391L243.056 -15.5369L242.541 -15.5346L242.977 82.5481L243.491 82.5459ZM243.056 -15.5369L243.57 -15.5397L243.57 -15.6765L243.055 -15.6736L242.541 -15.6707L242.541 -15.534L243.056 -15.5369ZM243.055 -15.6736L243.051 -15.159L244.088 -15.15L244.092 -15.6646L244.097 -16.1791L243.06 -16.1882L243.055 -15.6736ZM244.092 -15.6646L243.578 -15.6615L243.578 -15.5286L244.093 -15.5317L244.608 -15.5348L244.607 -15.6676L244.092 -15.6646ZM244.093 -15.5317L243.578 -15.5294L244.014 82.5572L244.528 82.5549L245.043 82.5526L244.608 -15.534L244.093 -15.5317ZM244.528 82.5549L244.524 83.0695L297.816 83.5279L297.82 83.0133L297.825 82.4987L244.533 82.0403L244.528 82.5549ZM297.82 83.0133L298.335 83.0122L298.116 -15.0696L297.602 -15.0685L297.087 -15.0673L297.306 83.0145L297.82 83.0133ZM297.602 -15.0685L298.116 -15.0677L298.117 -15.2034L297.602 -15.2042L297.087 -15.205L297.087 -15.0693L297.602 -15.0685ZM297.602 -15.2042L297.597 -14.6896L298.506 -14.6817L298.51 -15.1963L298.515 -15.7109L297.606 -15.7188L297.602 -15.2042ZM298.51 -15.1963L297.995 -15.1932L297.996 -15.0604L298.511 -15.0635L299.025 -15.0666L299.025 -15.1994L298.51 -15.1963ZM298.511 -15.0635L297.996 -15.0623L298.215 83.0224L298.73 83.0212L299.244 83.0201L299.025 -15.0646L298.511 -15.0635ZM298.73 83.0212L298.725 83.5358L351.332 83.9883L351.336 83.4737L351.34 82.9591L298.734 82.5067L298.73 83.0212ZM351.336 83.4737L351.851 83.4725L351.632 -14.6093L351.117 -14.6081L350.603 -14.607L350.821 83.4748L351.336 83.4737ZM351.117 -14.6081L351.632 -14.6073L351.632 -14.7431L351.117 -14.7439L350.603 -14.7446L350.603 -14.6089L351.117 -14.6081ZM351.117 -14.7439L351.113 -14.2293L352.023 -14.2213L352.028 -14.7359L352.032 -15.2505L351.122 -15.2584L351.117 -14.7439ZM352.028 -14.7359L351.513 -14.7366L351.513 -14.6038L352.027 -14.6031L352.542 -14.6024L352.542 -14.7352L352.028 -14.7359ZM352.027 -14.6031L351.513 -14.602L351.732 83.4828L352.246 83.4816L352.761 83.4805L352.542 -14.6043L352.027 -14.6031ZM352.246 83.4816L352.242 83.9962L405.065 84.4505L405.069 83.936L405.074 83.4214L352.251 82.967L352.246 83.4816ZM405.069 83.936L405.584 83.9337L405.148 -14.149L404.634 -14.1467L404.119 -14.1445L404.555 83.9383L405.069 83.936ZM404.634 -14.1467L405.148 -14.1496L405.148 -14.2863L404.633 -14.2835L404.118 -14.2806L404.119 -14.1439L404.634 -14.1467ZM404.633 -14.2835L404.629 -13.7689L405.668 -13.7598L405.672 -14.2744L405.677 -14.789L404.638 -14.7981L404.633 -14.2835ZM405.672 -14.2744L405.158 -14.2713L405.158 -14.1385L405.673 -14.1416L406.187 -14.1447L406.187 -14.2775L405.672 -14.2744ZM405.673 -14.1416L405.158 -14.1393L405.594 83.9473L406.108 83.945L406.623 83.9427L406.188 -14.1439L405.673 -14.1416ZM406.108 83.945L406.104 84.4596L459.393 84.918L459.397 84.4034L459.402 83.8888L406.113 83.4304L406.108 83.945ZM459.397 84.4034L459.912 84.4023L459.693 -13.6795L459.179 -13.6784L458.664 -13.6772L458.883 84.4046L459.397 84.4034ZM459.179 -13.6784L459.693 -13.6776L459.694 -13.8133L459.179 -13.8141L458.664 -13.8149L458.664 -13.6792L459.179 -13.6784ZM459.179 -13.8141L459.174 -13.2995L460.083 -13.2916L460.087 -13.8062L460.092 -14.3208L459.183 -14.3287L459.179 -13.8141ZM460.087 -13.8062L459.573 -13.8031L459.573 -13.6703L460.088 -13.6734L460.602 -13.6765L460.602 -13.8093L460.087 -13.8062ZM460.088 -13.6734L459.573 -13.6722L459.792 84.4125L460.307 84.4113L460.821 84.4102L460.602 -13.6745L460.088 -13.6734ZM460.307 84.4113L460.302 84.9259L512.91 85.3784L512.914 84.8638L512.918 84.3492L460.311 83.8968L460.307 84.4113ZM512.914 84.8638L513.429 84.8627L513.21 -13.2191L512.695 -13.218L512.181 -13.2168L512.399 84.865L512.914 84.8638ZM512.695 -13.218L513.21 -13.2172L513.21 -13.353L512.695 -13.3537L512.181 -13.3545L512.181 -13.2188L512.695 -13.218ZM512.695 -13.3537L512.691 -12.8392L513.599 -12.8312L513.604 -13.3458L513.608 -13.8604L512.7 -13.8683L512.695 -13.3537ZM513.604 -13.3458L513.089 -13.3427L513.09 -13.2099L513.604 -13.213L514.119 -13.2161L514.118 -13.3489L513.604 -13.3458ZM83.664 241.401L83.1494 241.403L83.3788 292.978L83.8934 292.976L84.4079 292.974L84.1785 241.398L83.664 241.401ZM83.8934 292.976L83.8889 293.491L136.712 293.945L136.717 293.43L136.721 292.916L83.8978 292.461L83.8934 292.976ZM136.717 293.43L137.231 293.429L137.116 241.856L136.601 241.857L136.087 241.858L136.202 293.431L136.717 293.43ZM136.601 241.857L136.606 241.342L83.6684 240.886L83.664 241.401L83.6595 241.915L136.597 242.372L136.601 241.857ZM137.511 241.864L136.996 241.865L137.111 293.439L137.626 293.438L138.14 293.437L138.025 241.863L137.511 241.864ZM137.626 293.438L137.621 293.953L188.513 294.391L188.517 293.877L188.522 293.362L137.63 292.924L137.626 293.438ZM188.517 293.877L189.032 293.877L189.031 242.303L188.517 242.303L188.002 242.303L188.003 293.877L188.517 293.877ZM188.517 242.303L188.521 241.789L137.515 241.349L137.511 241.864L137.506 242.379L188.512 242.818L188.517 242.303ZM189.298 242.31L188.783 242.31L188.784 293.884L189.299 293.884L189.813 293.884L189.812 242.31L189.298 242.31ZM189.299 293.884L189.294 294.398L244.429 294.873L244.433 294.358L244.438 293.843L189.303 293.369L189.299 293.884ZM244.433 294.358L244.948 294.356L244.718 242.78L244.204 242.783L243.689 242.785L243.919 294.36L244.433 294.358ZM244.204 242.783L244.208 242.268L189.302 241.796L189.298 242.31L189.293 242.825L244.199 243.297L244.204 242.783ZM245.241 242.792L244.726 242.794L244.956 294.369L245.47 294.367L245.985 294.365L245.756 242.789L245.241 242.792ZM245.47 294.367L245.466 294.882L298.288 295.337L298.293 294.822L298.297 294.308L245.475 293.852L245.47 294.367ZM298.293 294.822L298.807 294.821L298.692 243.247L298.177 243.248L297.663 243.249L297.778 294.824L298.293 294.822ZM298.177 243.248L298.182 242.734L245.245 242.277L245.241 242.792L245.237 243.306L298.173 243.763L298.177 243.248ZM299.088 243.256L298.573 243.257L298.688 294.831L299.203 294.83L299.717 294.829L299.602 243.255L299.088 243.256ZM299.203 294.83L299.198 295.345L351.806 295.797L351.81 295.283L351.815 294.768L299.207 294.316L299.203 294.83ZM351.81 295.283L352.325 295.282L352.21 243.707L351.695 243.708L351.18 243.71L351.296 295.284L351.81 295.283ZM351.695 243.708L351.699 243.194L299.092 242.741L299.088 243.256L299.083 243.771L351.691 244.223L351.695 243.708ZM352.604 243.716L352.09 243.718L352.205 295.292L352.719 295.291L353.234 295.289L353.119 243.715L352.604 243.716ZM352.719 295.291L352.715 295.805L406.007 296.265L406.011 295.75L406.016 295.235L352.724 294.776L352.719 295.291ZM406.011 295.75L406.526 295.748L406.296 244.173L405.782 244.175L405.267 244.177L405.497 295.752L406.011 295.75ZM405.782 244.175L405.786 243.66L352.609 243.202L352.604 243.716L352.6 244.231L405.777 244.689L405.782 244.175ZM406.819 244.184L406.304 244.186L406.534 295.761L407.048 295.759L407.563 295.757L407.334 244.182L406.819 244.184ZM407.048 295.759L407.044 296.274L459.866 296.728L459.871 296.213L459.875 295.699L407.053 295.245L407.048 295.759ZM459.871 296.213L460.385 296.212L460.27 244.638L459.755 244.639L459.241 244.64L459.356 296.215L459.871 296.213ZM459.755 244.639L459.76 244.125L406.823 243.669L406.819 244.184L406.815 244.698L459.751 245.154L459.755 244.639ZM460.664 244.647L460.149 244.648L460.264 296.223L460.779 296.221L461.293 296.22L461.178 244.646L460.664 244.647ZM460.779 296.221L460.774 296.736L513.383 297.189L513.387 296.675L513.392 296.16L460.783 295.707L460.779 296.221ZM513.387 296.675L513.902 296.674L513.787 245.099L513.272 245.101L512.757 245.102L512.873 296.676L513.387 296.675ZM513.272 245.101L513.276 244.586L460.668 244.133L460.664 244.647L460.659 245.162L513.268 245.615L513.272 245.101ZM83.4291 188.543L82.9145 188.545L83.143 240.121L83.6575 240.118L84.1721 240.116L83.9437 188.541L83.4291 188.543ZM83.6575 240.118L83.6531 240.633L136.594 241.089L136.599 240.575L136.603 240.06L83.662 239.604L83.6575 240.118ZM136.599 240.575L137.114 240.574L136.998 188.999L136.484 189L135.969 189.002L136.084 240.576L136.599 240.575ZM136.484 189L136.488 188.486L83.4336 188.029L83.4291 188.543L83.4247 189.058L136.479 189.515L136.484 189ZM137.393 189.008L136.878 189.01L136.993 240.583L137.508 240.582L138.023 240.581L137.908 189.007L137.393 189.008ZM137.508 240.582L137.504 241.096L188.512 241.536L188.516 241.021L188.52 240.507L137.513 240.067L137.508 240.582ZM188.516 241.021L189.031 241.021L189.03 189.448L188.515 189.448L188 189.448L188.001 241.021L188.516 241.021ZM188.515 189.448L188.519 188.933L137.397 188.494L137.393 189.008L137.389 189.523L188.511 189.963L188.515 189.448ZM189.296 189.455L188.782 189.455L188.783 241.028L189.297 241.028L189.812 241.028L189.811 189.455L189.296 189.455ZM189.297 241.028L189.293 241.543L244.193 242.015L244.197 241.5L244.202 240.986L189.302 240.513L189.297 241.028ZM244.197 241.5L244.712 241.498L244.484 189.924L243.969 189.926L243.454 189.928L243.683 241.503L244.197 241.5ZM243.969 189.926L243.973 189.412L189.301 188.94L189.296 189.455L189.292 189.969L243.965 190.441L243.969 189.926ZM245.006 189.934L244.492 189.937L244.721 241.512L245.236 241.509L245.75 241.507L245.521 189.932L245.006 189.934ZM245.236 241.509L245.231 242.024L298.171 242.48L298.175 241.966L298.179 241.451L245.24 240.995L245.236 241.509ZM298.175 241.966L298.69 241.965L298.574 190.39L298.06 190.392L297.545 190.393L297.66 241.967L298.175 241.966ZM298.06 190.392L298.064 189.877L245.011 189.42L245.006 189.934L245.002 190.449L298.055 190.906L298.06 190.392ZM298.97 190.399L298.455 190.401L298.571 241.975L299.085 241.974L299.6 241.973L299.485 190.398L298.97 190.399ZM299.085 241.974L299.081 242.488L351.687 242.941L351.692 242.426L351.696 241.912L299.09 241.459L299.085 241.974ZM351.692 242.426L352.206 242.425L352.091 190.851L351.576 190.852L351.062 190.853L351.177 242.427L351.692 242.426ZM351.576 190.852L351.581 190.337L298.974 189.885L298.97 190.399L298.966 190.914L351.572 191.367L351.576 190.852ZM352.487 190.86L351.972 190.861L352.087 242.435L352.602 242.434L353.116 242.433L353.001 190.859L352.487 190.86ZM352.602 242.434L352.597 242.949L405.772 243.407L405.776 242.892L405.781 242.378L352.606 241.92L352.602 242.434ZM405.776 242.892L406.291 242.89L406.062 191.315L405.547 191.317L405.032 191.32L405.262 242.895L405.776 242.892ZM405.547 191.317L405.551 190.803L352.491 190.345L352.487 190.86L352.482 191.374L405.543 191.832L405.547 191.317ZM406.584 191.326L406.07 191.329L406.298 242.904L406.813 242.902L407.327 242.899L407.099 191.324L406.584 191.326ZM406.813 242.902L406.808 243.416L459.749 243.871L459.753 243.357L459.757 242.842L406.817 242.387L406.813 242.902ZM459.753 243.357L460.268 243.356L460.152 191.781L459.638 191.783L459.123 191.784L459.238 243.358L459.753 243.357ZM459.638 191.783L459.642 191.268L406.589 190.812L406.584 191.326L406.58 191.841L459.633 192.297L459.638 191.783ZM460.546 191.791L460.031 191.792L460.147 243.366L460.661 243.365L461.176 243.364L461.061 191.789L460.546 191.791ZM460.661 243.365L460.657 243.879L513.265 244.333L513.27 243.818L513.274 243.304L460.666 242.85L460.661 243.365ZM513.27 243.818L513.784 243.817L513.669 192.243L513.154 192.244L512.64 192.245L512.755 243.819L513.27 243.818ZM513.154 192.244L513.159 191.729L460.55 191.276L460.546 191.791L460.542 192.305L513.15 192.759L513.154 192.244ZM83.4237 187.261L83.4192 187.775L136.477 188.233L136.481 187.718L136.486 187.204L83.4281 186.746L83.4237 187.261ZM136.481 187.718L136.996 187.717L136.88 135.983L136.366 135.984L135.851 135.985L135.967 187.719L136.481 187.718ZM136.366 135.984L136.37 135.469L83.1982 135.006L83.1938 135.521L83.1893 136.035L136.361 136.498L136.366 135.984ZM83.1938 135.521L82.6792 135.523L82.9091 187.263L83.4237 187.261L83.9383 187.259L83.7084 135.518L83.1938 135.521ZM137.389 187.726L137.385 188.241L188.51 188.68L188.515 188.166L188.519 187.651L137.394 187.212L137.389 187.726ZM188.515 188.166L189.029 188.166L189.029 136.438L188.514 136.438L187.999 136.438L188 188.166L188.515 188.166ZM188.514 136.438L188.518 135.924L137.279 135.477L137.275 135.992L137.27 136.506L188.51 136.953L188.514 136.438ZM137.275 135.992L136.76 135.993L136.875 187.727L137.389 187.726L137.904 187.725L137.789 135.991L137.275 135.992ZM189.296 188.172L189.291 188.687L243.958 189.158L243.963 188.644L243.967 188.129L189.3 187.658L189.296 188.172ZM243.963 188.644L244.477 188.642L244.248 136.917L243.734 136.919L243.219 136.921L243.448 188.646L243.963 188.644ZM243.734 136.919L243.738 136.405L189.3 135.93L189.295 136.445L189.291 136.959L243.729 137.434L243.734 136.919ZM189.295 136.445L188.781 136.445L188.781 188.172L189.296 188.172L189.81 188.172L189.81 136.445L189.295 136.445ZM245.001 188.652L244.996 189.166L298.052 189.624L298.056 189.109L298.061 188.595L245.005 188.137L245.001 188.652ZM298.056 189.109L298.571 189.108L298.456 137.39L297.941 137.391L297.427 137.393L297.542 189.11L298.056 189.109ZM297.941 137.391L297.946 136.877L244.775 136.414L244.771 136.928L244.766 137.443L297.937 137.906L297.941 137.391ZM244.771 136.928L244.256 136.93L244.486 188.654L245.001 188.652L245.515 188.65L245.285 136.926L244.771 136.928ZM298.966 189.117L298.962 189.632L351.569 190.084L351.574 189.57L351.578 189.055L298.971 188.603L298.966 189.117ZM351.574 189.57L352.088 189.568L351.973 137.857L351.458 137.858L350.943 137.859L351.059 189.571L351.574 189.57ZM351.458 137.858L351.462 137.343L298.856 136.885L298.852 137.399L298.847 137.914L351.454 138.372L351.458 137.858ZM298.852 137.399L298.337 137.401L298.452 189.118L298.966 189.117L299.481 189.116L299.366 137.398L298.852 137.399ZM352.483 189.578L352.479 190.092L405.536 190.55L405.541 190.035L405.545 189.52L352.487 189.063L352.483 189.578ZM405.541 190.035L406.055 190.033L405.826 138.325L405.311 138.327L404.797 138.329L405.026 190.037L405.541 190.035ZM405.311 138.327L405.316 137.812L352.373 137.351L352.368 137.866L352.364 138.38L405.307 138.841L405.311 138.327ZM352.368 137.866L351.854 137.867L351.968 189.579L352.483 189.578L352.998 189.576L352.883 137.864L352.368 137.866ZM406.579 190.044L406.574 190.559L459.63 191.015L459.634 190.5L459.639 189.986L406.583 189.529L406.579 190.044ZM459.634 190.5L460.149 190.499L460.034 138.798L459.519 138.799L459.005 138.8L459.12 190.501L459.634 190.5ZM459.519 138.799L459.524 138.285L406.354 137.821L406.349 138.336L406.345 138.85L459.515 139.314L459.519 138.799ZM406.349 138.336L405.835 138.338L406.064 190.046L406.579 190.044L407.093 190.042L406.864 138.334L406.349 138.336ZM460.543 190.508L460.539 191.023L513.146 191.476L513.151 190.962L513.155 190.447L460.548 189.994L460.543 190.508ZM513.151 190.962L513.666 190.961L513.55 139.264L513.036 139.265L512.521 139.267L512.636 190.963L513.151 190.962ZM513.036 139.265L513.04 138.751L460.433 138.292L460.428 138.807L460.424 139.322L513.031 139.78L513.036 139.265ZM460.428 138.807L459.914 138.808L460.029 190.509L460.543 190.508L461.058 190.507L460.943 138.806L460.428 138.807ZM82.9572 82.1942L82.4426 82.1965L82.6754 134.493L83.19 134.491L83.7046 134.489L83.4717 82.1919L82.9572 82.1942ZM83.19 134.491L83.1856 135.006L136.358 135.469L136.363 134.954L136.367 134.44L83.1945 133.977L83.19 134.491ZM136.363 134.954L136.877 134.953L136.761 82.6514L136.246 82.6526L135.732 82.6537L135.848 134.956L136.363 134.954ZM136.246 82.6526L136.251 82.138L82.9616 81.6796L82.9572 82.1942L82.9527 82.7087L136.242 83.1671L136.246 82.6526ZM137.155 82.6605L136.641 82.6616L136.757 134.963L137.272 134.962L137.787 134.961L137.67 82.6593L137.155 82.6605ZM137.272 134.962L137.267 135.477L188.51 135.923L188.514 135.409L188.519 134.894L137.276 134.448L137.272 134.962ZM188.514 135.409L189.029 135.409L189.027 83.1021L188.513 83.1021L187.998 83.1021L188 135.409L188.514 135.409ZM188.513 83.1021L188.517 82.5875L137.16 82.1459L137.155 82.6605L137.151 83.1751L188.508 83.6166L188.513 83.1021ZM189.294 83.1089L188.779 83.1089L188.781 135.416L189.295 135.416L189.81 135.416L189.809 83.1089L189.294 83.1089ZM189.295 135.416L189.291 135.93L243.724 136.404L243.729 135.89L243.733 135.375L189.3 134.901L189.295 135.416ZM243.729 135.89L244.243 135.887L244.011 83.5729L243.496 83.5752L242.982 83.5775L243.214 135.892L243.729 135.89ZM243.496 83.5752L243.501 83.0607L189.298 82.5943L189.294 83.1089L189.29 83.6234L243.492 84.0898L243.496 83.5752ZM244.533 83.5843L244.019 83.5866L244.251 135.901L244.766 135.899L245.281 135.897L245.048 83.582L244.533 83.5843ZM244.766 135.899L244.761 136.413L297.934 136.877L297.939 136.362L297.943 135.847L244.77 135.384L244.766 135.899ZM297.939 136.362L298.453 136.361L298.337 84.0415L297.822 84.0427L297.308 84.0438L297.424 136.363L297.939 136.362ZM297.822 84.0427L297.827 83.5281L244.538 83.0697L244.533 83.5843L244.529 84.0988L297.818 84.5572L297.822 84.0427ZM298.732 84.0506L298.218 84.0517L298.334 136.371L298.849 136.37L299.363 136.369L299.247 84.0494L298.732 84.0506ZM298.849 136.37L298.844 136.885L351.452 137.343L351.456 136.828L351.461 136.314L298.853 135.855L298.849 136.37ZM351.456 136.828L351.971 136.827L351.853 84.5019L351.339 84.5031L350.824 84.5042L350.942 136.829L351.456 136.828ZM351.339 84.5031L351.343 83.9885L298.737 83.536L298.732 84.0506L298.728 84.5652L351.334 85.0176L351.339 84.5031ZM352.249 84.511L351.734 84.5121L351.852 136.837L352.366 136.836L352.881 136.835L352.764 84.5098L352.249 84.511ZM352.366 136.836L352.362 137.351L405.302 137.812L405.307 137.297L405.311 136.783L352.371 136.322L352.366 136.836ZM405.307 137.297L405.821 137.295L405.589 84.9631L405.074 84.9653L404.56 84.9676L404.792 137.3L405.307 137.297ZM405.074 84.9653L405.079 84.4508L352.253 83.9964L352.249 84.511L352.245 85.0256L405.07 85.4799L405.074 84.9653ZM406.112 84.9744L405.598 84.9767L405.83 137.309L406.345 137.307L406.859 137.304L406.627 84.9721L406.112 84.9744ZM406.345 137.307L406.34 137.821L459.513 138.284L459.518 137.77L459.522 137.255L406.349 136.792L406.345 137.307ZM459.518 137.77L460.032 137.769L459.915 85.4316L459.4 85.4328L458.886 85.4339L459.003 137.771L459.518 137.77ZM459.4 85.4328L459.405 84.9182L406.117 84.4598L406.112 84.9744L406.108 85.489L459.396 85.9474L459.4 85.4328ZM460.309 85.4407L459.795 85.4419L459.912 137.779L460.427 137.778L460.941 137.777L460.824 85.4395L460.309 85.4407ZM460.427 137.778L460.422 138.292L513.03 138.751L513.034 138.236L513.039 137.721L460.431 137.263L460.427 137.778ZM513.034 138.236L513.549 138.235L513.431 85.892L512.917 85.8932L512.402 85.8943L512.519 138.237L513.034 138.236ZM512.917 85.8932L512.921 85.3786L460.314 84.9261L460.309 85.4407L460.305 85.9553L512.912 86.4077L512.917 85.8932Z" fill="url(#paint0_radial_1_4606)"/>
<defs>
<radialGradient id="paint0_radial_1_4606" cx="0" cy="0" r="1" gradientTransform="matrix(95.2484 118.589 -152.393 122.381 271.092 192.253)" gradientUnits="userSpaceOnUse">
<stop stop-color="#7A7A7A"/>
<stop offset="1" stop-color="#FAFAFA" stop-opacity="0"/>
</radialGradient>
</defs>
</svg>
